<svg width="354" height="461" viewBox="0 0 354 461" fill="none" xmlns="http://www.w3.org/2000/svg">
    <rect x="193" y="228" width="33" height="8" rx="3" fill="#D9D9D9"/>
    <path d="M229.797 121.627L236.396 137.854C237.333 140.195 242.355 158.147 242.472 160.387C242.59 162.627 267.941 227.401 269.347 230.554C270.753 233.707 299.954 316.011 302.875 324.534C305.796 333.057 325.524 392.017 325.524 392.017L352.391 392.602C352.391 392.602 323.181 323.832 320.495 318.111C317.808 312.39 286.131 248.529 285.92 245.142C285.709 241.754 269.519 209.535 266.527 204.399C263.536 199.264 256.374 182.545 254.961 178.596C253.547 174.647 244.323 154.08 241.871 147.188C239.419 140.297 230.422 121.736 230.422 121.736L229.492 121.674L230.273 123.797C230.273 123.797 236.092 139.407 236.88 145.986C237.669 152.566 239.926 159.458 241.645 167.38C243.363 175.302 246.26 182.124 251.079 194.448C255.898 206.772 312.45 387.763 312.45 387.763" stroke="#1F1E1D" stroke-miterlimit="10"/>
    <path d="M-7.00121 460.5L-10.8516 429.147L175.833 185.733L177.231 192.336L-7.00121 460.5Z" fill="#FFE0C4"/>
    <path d="M-1.00066 199L-3.10938 195.878L167.116 137.766L167.343 139.057L-1.00066 199Z" fill="#FFE0C4"/>
    <path d="M-2.63293 170.28L-3 169.5L166 130.85L166.052 131.297L-2.63293 170.28Z" fill="#FFE0C4"/>
    <path d="M205.508 228.188H194.863C194.301 228.188 193.763 228.411 193.366 228.808C192.969 229.205 192.746 229.743 192.746 230.304V233.59C192.746 234.151 192.969 234.689 193.366 235.085C193.763 235.482 194.301 235.705 194.863 235.705H202.954" stroke="#D9D9D9" stroke-miterlimit="10"/>
    <path d="M216.253 235.681H223.758C224.036 235.681 224.312 235.627 224.568 235.52C224.825 235.414 225.059 235.258 225.255 235.062C225.452 234.865 225.608 234.632 225.714 234.376C225.82 234.119 225.875 233.844 225.875 233.566V230.304C225.875 230.026 225.82 229.751 225.714 229.494C225.608 229.238 225.452 229.004 225.255 228.808C225.059 228.612 224.825 228.456 224.568 228.349C224.312 228.243 224.036 228.188 223.758 228.188H213.418" stroke="#D9D9D9" stroke-miterlimit="10"/>
    <path d="M258.123 80.9084C257.616 74.4614 257.209 69.2008 257.084 67.7022C257.084 67.7022 257.084 67.7022 257.084 67.6476C257.084 67.593 257.084 67.39 257.03 67.2574C255.343 54.8552 253.047 47.0501 251.328 42.3203C250.887 41.0982 250.936 39.7531 251.465 38.5661C251.993 37.3792 252.96 36.4423 254.163 35.9514C261.786 32.8293 265.605 25.2429 258.693 18.1871C252.859 12.2397 245.846 17.0944 242.245 20.4584C241.486 21.1705 240.524 21.6283 239.492 21.7682C238.461 21.9081 237.411 21.7231 236.489 21.2389L223.462 14.4095C223.408 14.3821 223.364 14.3392 223.334 14.2864C223.305 14.2335 223.291 14.1731 223.296 14.1127C223.302 14.0524 223.324 13.995 223.362 13.9477C223.4 13.9005 223.451 13.8656 223.509 13.8475C225.555 13.1451 231.124 10.8894 226.633 8.28252C222.822 6.09711 217.964 8.5635 215.379 10.265C215.318 10.3048 215.246 10.3223 215.174 10.3146C215.102 10.307 215.035 10.2746 214.984 10.2229C214.934 10.1713 214.902 10.1037 214.896 10.0317C214.89 9.95964 214.908 9.88762 214.949 9.82792C216.628 7.40836 218.636 3.17803 213.551 1.66385C207.592 -0.100084 201.407 7.24445 199.368 9.94499C199.328 9.99943 199.271 10.0392 199.206 10.0584C199.141 10.0776 199.071 10.0751 199.008 10.0513C198.944 10.0275 198.89 9.9837 198.854 9.92651C198.817 9.86931 198.801 9.80183 198.806 9.73426C198.931 7.96251 198.751 4.84831 196.018 4.96538C191.238 5.22295 189.77 10.0465 189.036 13.9568C188.848 14.8578 188.464 15.7064 187.911 16.4417C187.357 17.1771 186.648 17.7811 185.833 18.2105C184.111 19.1567 182.484 20.2676 180.976 21.5277C179.964 22.3336 178.681 22.7177 177.392 22.5999C176.104 22.4821 174.912 21.8714 174.064 20.8955C168.651 14.6514 160.599 14.5812 156.975 21.676C153.469 28.5678 157.577 32.603 163.809 35.9904C164.884 36.5867 165.702 37.5575 166.107 38.7177C166.511 39.8778 166.475 41.1463 166.004 42.2812C162.653 50.617 161.505 65.2983 161.216 78.3483C161.216 78.7386 161.216 79.1288 161.216 79.5269V79.722C161.216 80.7835 161.216 81.8294 161.318 82.844C161.763 89.7827 162.294 96.7213 162.575 103.668C163.403 123.766 180.632 215.506 184.248 220.595C191.402 230.656 197.08 227.854 201.774 224.81C204.617 222.968 205.101 218.324 204.554 214.257C204.242 211.916 196.182 185.769 207.561 183.037C208.568 182.803 209.584 182.577 210.568 182.257L214.606 180.961C226.157 176.731 211.958 211.526 212.216 215.647C212.684 223.147 216.995 227.705 226.274 227.705C240.098 227.705 260.099 144.605 260.326 111.488C260.333 105.908 258.951 91.7105 258.123 80.9084ZM205.351 56.3069C205.351 57.4309 204.904 58.5089 204.109 59.3037C203.313 60.0985 202.235 60.545 201.11 60.545C199.985 60.545 198.906 60.0985 198.111 59.3037C197.316 58.5089 196.869 57.4309 196.869 56.3069V56.182C196.873 56.1327 196.873 56.0831 196.869 56.0337C196.791 53.622 195.198 51.7331 193.245 51.7331C191.293 51.7331 189.684 53.6532 189.613 56.0649C189.609 56.1247 189.609 56.1847 189.613 56.2445V56.3381C189.611 57.4615 189.164 58.5383 188.369 59.3326C187.574 60.127 186.497 60.5742 185.373 60.5762C184.249 60.5742 183.173 60.1268 182.379 59.3322C181.585 58.5376 181.14 57.4608 181.14 56.3381V56.0649C181.081 54.4397 181.351 52.8193 181.933 51.3006C182.515 49.7818 183.397 48.3959 184.527 47.2254C185.657 46.055 187.011 45.124 188.509 44.4882C190.007 43.8524 191.618 43.5247 193.245 43.5247C194.873 43.5247 196.483 43.8524 197.981 44.4882C199.479 45.124 200.833 46.055 201.963 47.2254C203.093 48.3959 203.975 49.7818 204.557 51.3006C205.139 52.8193 205.409 54.4397 205.351 56.0649V56.3069ZM236.888 56.3069C236.888 57.4288 236.442 58.5048 235.648 59.2982C234.854 60.0915 233.777 60.5372 232.655 60.5372C231.532 60.5372 230.455 60.0915 229.661 59.2982C228.868 58.5048 228.422 57.4288 228.422 56.3069V56.182C228.43 56.1329 228.43 56.0828 228.422 56.0337C228.351 53.622 226.75 51.7019 224.798 51.7019C222.845 51.7019 221.244 53.622 221.174 56.0337C221.17 56.0935 221.17 56.1535 221.174 56.2132V56.3069C221.174 57.4309 220.727 58.5089 219.932 59.3037C219.136 60.0985 218.058 60.545 216.933 60.545C215.808 60.545 214.73 60.0985 213.934 59.3037C213.139 58.5089 212.692 57.4309 212.692 56.3069V56.0337C212.634 54.4084 212.904 52.7881 213.486 51.2693C214.068 49.7506 214.95 48.3646 216.08 47.1942C217.21 46.0238 218.564 45.0928 220.062 44.457C221.56 43.8212 223.17 43.4935 224.798 43.4935C226.425 43.4935 228.036 43.8212 229.534 44.457C231.031 45.0928 232.386 46.0238 233.516 47.1942C234.645 48.3646 235.528 49.7506 236.11 51.2693C236.692 52.7881 236.962 54.4084 236.903 56.0337L236.888 56.3069Z" fill="#FFB673" stroke="#FE7B01" stroke-width="1.5" stroke-miterlimit="10"/>
    <rect x="205" y="113" width="9" height="117" fill="#FE7B01"/>
    <rect x="205" y="208" width="9" height="12" fill="#1F1E1D"/>
    <path d="M243.628 114.501H244.409C244.806 114.501 245.199 114.423 245.565 114.271C245.932 114.119 246.265 113.897 246.546 113.616C246.827 113.336 247.049 113.003 247.201 112.636C247.353 112.27 247.431 111.877 247.431 111.481V111.481C247.431 110.679 247.113 109.911 246.546 109.345C245.979 108.778 245.21 108.46 244.409 108.46H243.206C243.206 108.46 244.19 112.558 243.628 114.501Z" fill="#1F1E1D"/>
    <path d="M187.904 114.501H232.499L233.085 108.46H187.263L187.904 114.501Z" fill="#1F1E1D"/>
    <path d="M176.469 114.501H175.086C174.69 114.501 174.297 114.423 173.93 114.271C173.563 114.119 173.23 113.897 172.949 113.616C172.669 113.336 172.446 113.003 172.294 112.636C172.142 112.27 172.064 111.877 172.064 111.481C172.066 110.68 172.385 109.913 172.952 109.347C173.518 108.781 174.285 108.462 175.086 108.46H177.008C176.974 109.767 176.856 111.07 176.656 112.362C176.499 113.064 176.436 113.783 176.469 114.501Z" fill="#1F1E1D"/>
    <path d="M212.106 228.587H207.014C204.779 228.587 202.968 230.397 202.968 232.63V264.724C202.968 266.957 204.779 268.767 207.014 268.767H212.106C214.34 268.767 216.151 266.957 216.151 264.724V232.63C216.151 230.397 214.34 228.587 212.106 228.587Z" fill="#1F1E1D" stroke="#1F1E1D" stroke-miterlimit="10"/>
    <path d="M209.6 128.449C211.174 128.449 212.451 127.173 212.451 125.6C212.451 124.026 211.174 122.751 209.6 122.751C208.026 122.751 206.749 124.026 206.749 125.6C206.749 127.173 208.026 128.449 209.6 128.449Z" fill="#FE7B01"/>
    <path d="M186.182 303.74C184.854 304.587 184.982 306.566 186.408 307.236L190.114 308.977C190.79 309.294 191.586 309.209 192.179 308.756L203.391 300.184C204.239 299.536 205.446 299.667 206.134 300.482L210.522 305.678C211.488 306.822 210.901 308.582 209.443 308.918L192.765 312.759C191.973 312.941 191.371 313.585 191.24 314.387L189.56 324.71C189.329 326.125 190.619 327.315 192.011 326.973L200.825 324.808C201.846 324.557 202.499 323.557 202.317 322.521L201.672 318.835C201.482 317.749 202.207 316.714 203.293 316.521L210.255 315.288C212.14 314.954 213.371 317.204 212.074 318.612L190.741 341.772C189.717 342.883 190.248 344.684 191.71 345.063L199.658 347.123C200.394 347.313 201.174 347.071 201.671 346.496L232.696 310.698C233.394 309.892 233.337 308.68 232.567 307.943L215.178 291.305C214.639 290.789 213.857 290.616 213.15 290.857L198.822 295.741C198.671 295.793 198.526 295.863 198.391 295.949L186.182 303.74Z" fill="#FFCA99"/>
    <path d="M224.914 331.387C224.505 332.563 225.411 333.682 226.656 333.682H234.82C235.873 333.682 236.761 332.862 237.009 331.838C237.817 328.496 240.624 321.779 250.134 321.779C259.515 321.779 262.284 327.912 263.088 331.089C263.349 332.118 264.242 332.948 265.303 332.948H274.259C275.637 332.948 276.547 331.613 275.887 330.403C273.234 325.545 265.729 315.426 249.236 315.426C232.345 315.426 226.622 326.483 224.914 331.387Z" fill="#FFCA99"/>
    <path d="M263.747 339.279C263.942 338.294 264.763 337.509 265.766 337.461L275.342 336.999C276.542 336.941 277.5 337.946 277.282 339.128C276.168 345.156 271.418 361.28 252.469 361.28C233.882 361.28 226.632 346.883 224.458 341.054C224.005 339.84 224.928 338.646 226.223 338.646H234.545C235.495 338.646 236.32 339.312 236.617 340.214C237.767 343.715 241.454 351.86 250.86 351.86C260.237 351.86 262.993 343.09 263.747 339.279Z" fill="#FFCA99"/>
    <path d="M168.971 331.823C168.831 333.179 169.836 334.533 171.199 334.533H179.84C180.856 334.533 181.699 333.772 181.67 332.757C181.538 328.234 179.529 316.636 162.403 316.636C146.507 316.636 135.577 326.837 131.067 331.995C130.016 333.196 130.881 334.928 132.476 334.944L140.366 335.021C141.071 335.028 141.725 334.669 142.132 334.093C144.149 331.237 150.898 322.849 160.599 322.849C168.637 322.849 169.325 328.372 168.971 331.823Z" fill="#FFCA99"/>
    <path d="M125.65 341C125.886 340.223 126.611 339.736 127.423 339.732L136.706 339.689C138.035 339.682 139.033 340.961 138.884 342.281C138.439 346.217 138.82 353.226 147.167 353.226C156.927 353.226 164.389 343.246 166.516 340.072C166.909 339.484 167.562 339.114 168.269 339.114H177.281C178.794 339.114 179.701 340.694 178.837 341.935C174.602 348.019 162.789 361.827 142.809 361.827C120.904 361.827 124.224 345.687 125.65 341Z" fill="#FFCA99"/>
    <path d="M212.576 287.707C213.095 286.936 213.912 286.281 214.842 286.281H217.566C219.041 286.281 219.655 284.938 218.351 284.249C216.498 283.268 213.31 282.301 207.944 282.301C203.064 282.301 199.512 283.132 197.077 284.049C195.394 284.683 195.926 286.437 197.724 286.437H198.611C199.852 286.437 200.821 287.668 201.501 288.705C202.131 289.666 203.467 290.566 206.265 290.566C209.94 290.566 211.736 288.954 212.576 287.707Z" fill="#FFCA99"/>
    <path d="M287.602 196C287.602 196 289.354 186.491 277 187.029C283.764 185.648 286.317 186.132 286.82 177C288.851 184.984 289.019 187.029 298 187.029C291.888 188.016 287.602 186.904 287.602 196Z" fill="#FFE0C4" stroke="#FFE0C4" stroke-width="2" stroke-linecap="round" stroke-linejoin="round"/>
    <path d="M129.736 58.7712C129.736 58.7712 124.156 58.1812 126.411 52C124.156 55.6841 123.799 56.274 120.001 55.3273C122.743 57.9411 123.799 57.8245 122.846 62.1877C125.102 59.128 124.512 58.0578 129.736 58.7712Z" stroke="#FE7B01" stroke-width="1.5" stroke-linecap="round" stroke-linejoin="round"/>
</svg>
