<svg width="361" height="320" viewBox="0 0 361 320" fill="none" xmlns="http://www.w3.org/2000/svg">
    <path d="M97 95.5L103 100L113.5 95.5L117 96L129 91.5H132.5L135.5 94L138.5 92.5L139 90.5L137.5 86L134.5 84V80L133 73.5L131 70L127.5 67L89 80L81 84.5L75.5 88.5L69.5 93L62.5 96.5L51 99L25 104.5L13 107.5L9.5 108L2.5 107.5L1 109L3 116L4.5 117.5L7.5 118.5L15.5 118L37.5 114L70 106.5L97 97V95.5Z" fill="#FFEAD6"/>
    <path d="M220 60.5L218 61.5L215.5 62.5L199.5 42L205 37.5L221.5 30L230 27L237.5 25.5L251 24L256.5 22L262.5 19L272.5 12L283 5.5L284 2L286.5 1L289 2.5L289.5 9L288 12.5L279.5 18.5L260 32L256.5 34.5L236 42.5L234.5 45.5L235 49.5L232 51L221.5 55.5L220 60.5Z" fill="#FFEAD6"/>
    <path d="M103 99.5L97.229 95.2643L97.125 96.9966C97.125 96.9966 79.5005 103.271 69.3393 106.178C59.1781 109.086 19.61 117.533 13.7739 117.967C7.93781 118.402 3.93696 119.265 2.76239 115.048C1.58783 110.83 0.278685 107.586 2.6584 107.8C5.03811 108.014 8.81873 108.988 13.6699 107.366C18.5211 105.744 40.1526 101.012 49.231 99.2797C58.3094 97.5475 66.7454 96.2498 73.8785 89.8656C81.0115 83.4813 85.5568 81.2961 91.7171 79.2701C97.8774 77.244 127.394 67.1504 127.394 67.1504C127.394 67.1504 134.962 69.2071 134.203 83.5976C136.907 84.7851 138.853 86.5174 138.742 92.467" stroke="#FE7B01" stroke-width="1.5" stroke-miterlimit="10" stroke-linecap="round" stroke-linejoin="round"/>
    <path d="M1.44727 109.771C4.11864 110.332 6.87347 110.369 9.55909 109.881C13.4498 109.012 27.5017 105.229 35.1792 103.711C42.8567 102.193 63.7174 100.161 69.8777 96.4879C76.0381 92.8153 90.8547 82.5381 95.1798 82.7523" stroke="#FE7B01" stroke-width="1.5" stroke-miterlimit="10" stroke-linecap="round" stroke-linejoin="round"/>
    <path d="M217.999 61.3899L211.393 57.4785" stroke="#FE7B01" stroke-width="1.5" stroke-miterlimit="10" stroke-linecap="round" stroke-linejoin="round"/>
    <path d="M199.666 42.2133C199.666 42.2133 200.278 39.6241 204.56 37.6409C208.842 35.6577 227.085 26.7883 232.59 25.8518C238.096 24.9153 244.214 25.0254 248.337 24.3644C252.46 23.7033 258.082 22.3811 262.823 18.4698C267.564 14.5585 281.824 6.17874 283.586 5.24223C285.348 4.30571 285.513 3.7793 285.513 3.7793" stroke="#FE7B01" stroke-width="1.5" stroke-miterlimit="10" stroke-linecap="round" stroke-linejoin="round"/>
    <path d="M283.108 5.46194C283.108 5.46194 282.943 1.33636 286.601 1.30575C290.26 1.27515 289.305 9.2631 289.104 10.2731C288.902 11.283 287.097 13.4744 283.139 16.0452C279.181 18.6161 270.806 25.1227 266.775 27.6752C262.743 30.2277 252.16 37.0526 246.844 37.6464" stroke="#FE7B01" stroke-width="1.5" stroke-miterlimit="10" stroke-linecap="round" stroke-linejoin="round"/>
    <path d="M227.611 27.4307L247.5 37.5" stroke="#FE7B01" stroke-width="1.5" stroke-miterlimit="10" stroke-linecap="round" stroke-linejoin="round"/>
    <path d="M233.41 30.3806C233.41 30.3806 237.821 26.9957 248.294 26.7814C258.767 26.5672 264.304 22.0499 266.83 19.3076C269.357 16.5654 279.958 9.9608 282.681 8.18569C285.403 6.41059 289.147 4.51307 288.664 2.67676" stroke="#FE7B01" stroke-width="1.5" stroke-miterlimit="10" stroke-linecap="round" stroke-linejoin="round"/>
    <path d="M235.5 49.5C235.5 49.5 231.831 47.5078 231.024 47.1283C230.216 46.7488 230.528 45.9653 231.562 45.292C232.366 44.8154 233.105 44.2673 234 44" stroke="#FE7B01" stroke-width="1.5" stroke-miterlimit="10" stroke-linecap="round" stroke-linejoin="round"/>
    <path d="M90.959 79.4839L112.909 95.8149M128.582 91.4506C128.582 91.4506 124.544 88.9532 127.175 85.7825C129.805 82.6118 134.253 83.5911 134.253 83.5911C134.253 83.5911 130.435 80.9713 128.264 80.5306C126.092 80.0899 125.633 78.8534 126.496 77.9904C127.358 77.1273 132.521 72.4814 132.521 72.4814" stroke="#FE7B01" stroke-width="1.5" stroke-miterlimit="10" stroke-linecap="round" stroke-linejoin="round"/>
    <path d="M112.908 95.815L18.3314 133.943L13.5597 134.922L8.54945 137.126C8.54945 137.126 6.91608 137.499 6.8549 140.835C6.79373 144.171 8.76356 152.802 12.012 158.813C15.2604 164.824 18.4476 172.01 22.4117 170.553C26.3759 169.096 28.4375 167.437 33.2091 165.044C37.9808 162.651 117.515 130.552 117.515 130.552C119.916 129.95 122.275 129.187 124.574 128.269C127.792 126.916 128.416 125.979 128.52 124.529C131.634 123.696 141.079 119.773 142.07 118.224C143.061 116.675 144.945 110.456 141.049 103.534C137.152 96.6107 134.319 89.6817 128.581 91.4507" stroke="#FFCA99" stroke-width="1.5" stroke-miterlimit="10" stroke-linecap="round" stroke-linejoin="round"/>
    <path d="M8 137.483C8 137.483 12.6983 134.263 18.6139 144.455C24.5295 154.646 23.5629 166.203 23.5629 166.203C23.3753 167.802 22.5 170.9 20.5 170.5" stroke="#FFCA99" stroke-width="1.5" stroke-miterlimit="10" stroke-linecap="round" stroke-linejoin="round"/>
    <path d="M128.533 91.457L116.604 95.7418" stroke="#FFCA99" stroke-width="1.5" stroke-miterlimit="10" stroke-linecap="round" stroke-linejoin="round"/>
    <path d="M112.908 95.8147C112.908 95.8147 117.606 92.595 123.522 102.787C129.438 112.978 128.471 124.535 128.471 124.535" stroke="#FFCA99" stroke-width="1.5" stroke-miterlimit="10" stroke-linecap="round" stroke-linejoin="round"/>
    <path d="M174.81 78.3389C174.81 78.3389 165.561 72.53 165.561 66.2008C165.561 59.8717 168.35 45.071 168.35 45.071C168.35 45.071 168.619 43.2347 173.097 41.6371C177.575 40.0395 189.052 35.8894 189.052 35.8894C189.052 35.8894 193.401 33.9123 195.512 36.6791C197.622 39.4458 253.127 111.974 253.127 111.974C253.127 111.974 262.486 122 253.127 130.043C243.767 138.086 231.238 129.652 226.626 124.534C222.013 119.417 170.069 48.0213 170.069 48.0213L168.35 45.071" stroke="#FFCA99" stroke-width="1.5" stroke-miterlimit="10" stroke-linecap="round" stroke-linejoin="round"/>
    <path d="M257.067 123.531L187 319" stroke="#FFCA99" stroke-width="1.5" stroke-miterlimit="10" stroke-linecap="round" stroke-linejoin="round"/>
    <path d="M189.205 74.0302L216.061 63.7285" stroke="#FFCA99" stroke-width="1.5" stroke-miterlimit="10" stroke-linecap="round" stroke-linejoin="round"/>
    <path d="M198.657 191.64C198.657 191.64 195.904 198.189 204.677 202.296C213.45 206.404 225.018 206.961 230.052 198.746" stroke="#FFCA99" stroke-width="1.5" stroke-miterlimit="10" stroke-linecap="round" stroke-linejoin="round"/>
    <path d="M215.363 62.5472L224.032 58.7154C224.032 58.7154 229.672 56.267 233.208 64.6957C236.744 73.1243 232.535 77.3968 232.535 77.3968L228.1 79.2331" stroke="#FFCA99" stroke-width="1.5" stroke-miterlimit="10" stroke-linecap="round" stroke-linejoin="round"/>
    <path d="M219.598 60.5269C219.598 60.5269 220.876 54.0753 225.44 54.4058C230.004 54.7364 235.986 59.8474 237.467 67.511C238.947 75.1745 236.659 81.3629 233.466 81.1854C231.631 81.1181 229.569 78.6329 229.569 78.6329" stroke="#FFCA99" stroke-width="1.5" stroke-miterlimit="10" stroke-linecap="round" stroke-linejoin="round"/>
    <path d="M234.976 80.6898L245.456 76.252C245.456 76.252 251.836 73.8036 249.958 65.8463C248.08 57.8889 244.116 49.1113 238.873 49.1113C233.631 49.1113 223.176 54.8651 223.176 54.8651" stroke="#FFCA99" stroke-width="1.5" stroke-miterlimit="10" stroke-linecap="round" stroke-linejoin="round"/>
    <path d="M235.5 49C235.5 49 231.881 43.786 237.124 41.7171C242.367 39.6482 258.382 34.0842 258.382 34.0842C258.382 34.0842 259.997 33.2334 264.8 35.8838C269.602 38.5342 278.466 45.9774 277.714 63.9977C277.616 66.4461 277.995 68.6191 279.316 69.8433C280.638 71.0675 284.498 75.1258 283.746 79.0249C282.993 82.924 277.628 85.0602 275.261 85.8192C272.893 86.5782 267.999 88.7389 264.702 85.6295C261.404 82.52 257.44 78.3638 257.251 76.1969C257.061 74.0301 257.251 65.9136 255.275 60.8209C253.299 55.7282 248.203 41.7232 237.136 41.7232" stroke="#FFCA99" stroke-width="1.5" stroke-miterlimit="10" stroke-linecap="round" stroke-linejoin="round"/>
    <path d="M242.684 77.4766C242.684 77.4766 253.395 87.9803 260.816 89.89C268.236 91.7998 271.736 89.5717 274.709 88.1945C277.682 86.8173 282.007 82.1714 282.007 82.1714" stroke="#FFCA99" stroke-width="1.5" stroke-miterlimit="10" stroke-linecap="round" stroke-linejoin="round"/>
    <path d="M264.774 76.2459C264.774 76.2459 271.913 71.7898 275.174 71.8632C278.435 71.9367 281.138 74.0362 281.212 75.9521C281.285 77.8679 281.432 79.5574 276.428 81.8772C271.424 84.1971 267.864 85.4519 265.533 83.1688C263.202 80.8856 262.272 77.6843 264.774 76.2459Z" stroke="#FFCA99" stroke-width="1.5" stroke-miterlimit="10" stroke-linecap="round" stroke-linejoin="round"/>
    <path d="M264.799 35.8904C268.17 35.6196 271.486 34.8736 274.648 33.6746C280.19 31.6301 333.107 12.7896 337.047 9.19039C340.986 5.59122 344.871 4.6241 348.376 5.60346C351.882 6.58283 360.036 12.6978 359.712 23.8748C359.388 35.0518 352.022 34.4091 347.373 35.7129C342.724 37.0166 287.299 58.7157 284.35 60.9866C282.248 62.573 280.043 64.0187 277.75 65.3142" stroke="#FFCA99" stroke-width="1.5" stroke-miterlimit="10" stroke-linecap="round" stroke-linejoin="round"/>
    <path d="M135.5 94L181.888 75.6095C181.888 75.6095 186.25 74.9974 189.651 84.5462C193.052 94.095 189.651 96.8862 187.1 95.8273C187.1 95.8273 204.37 117.6 207.844 126.353C211.546 135.688 212.06 145.985 209.307 155.642C206.388 165.852 161.5 316 161.5 316" stroke="#FFCA99" stroke-width="1.5" stroke-miterlimit="10" stroke-linecap="round" stroke-linejoin="round"/>
    <path d="M143.5 113.5L187.077 95.8271" stroke="#FFCA99" stroke-width="1.5" stroke-miterlimit="10" stroke-linecap="round" stroke-linejoin="round"/>
</svg>
