<svg width="390" height="340" viewBox="0 0 390 340" fill="none" xmlns="http://www.w3.org/2000/svg">
    <g clip-path="url(#clip0_1_6)">
        <rect width="390" height="340" fill="white"/>
        <path d="M287.585 185.345L267.957 315.805C266.934 322.61 264.07 328.75 259.86 333.166C255.65 337.583 250.357 339.999 244.893 340H-55.5209C-58.9772 339.999 -62.3906 339.031 -65.5177 337.164C-68.6447 335.298 -71.4084 332.579 -73.6113 329.203C-75.8143 325.826 -77.4022 321.875 -78.2619 317.631C-79.1216 313.387 -79.2318 308.954 -78.5847 304.65L-58.9568 174.19C-57.9327 167.386 -55.0687 161.247 -50.8585 156.831C-46.6482 152.416 -41.3552 150 -35.8911 150H264.521C267.977 150.001 271.391 150.969 274.518 152.836C277.645 154.702 280.408 157.421 282.611 160.797C284.814 164.174 286.402 168.125 287.262 172.369C288.122 176.613 288.232 181.046 287.585 185.35" fill="#FFF7EF"/>
        <mask id="mask0_1_6"  >
            <path d="M287.585 185.345L267.957 315.805C266.934 322.61 264.07 328.75 259.86 333.166C255.65 337.583 250.357 339.999 244.893 340H-55.5209C-58.9772 339.999 -62.3906 339.031 -65.5177 337.164C-68.6447 335.298 -71.4084 332.579 -73.6113 329.203C-75.8143 325.826 -77.4022 321.875 -78.2619 317.631C-79.1216 313.387 -79.2318 308.954 -78.5847 304.65L-58.9568 174.19C-57.9327 167.386 -55.0687 161.247 -50.8585 156.831C-46.6482 152.416 -41.3552 150 -35.8911 150H264.521C267.977 150.001 271.391 150.969 274.518 152.836C277.645 154.702 280.408 157.421 282.611 160.797C284.814 164.174 286.402 168.125 287.262 172.369C288.122 176.613 288.232 181.046 287.585 185.35" fill="#F7F7F7"/>
        </mask>
        <g mask="url(#mask0_1_6)">
            <path d="M25.5 295L28 292.5L35 293.5L76.5 268.5L79.5 256L70 253.5H60L36.5 254L34 255.5L33 259L34 268L28.5 274L25.5 278.5L25 275.5H23L21 276L21.5 285V291L22.5 291.5L23 293L24 295H25.5Z" fill="white"/>
            <path d="M27.5946 292.672C27.5946 292.672 23.0271 298.531 22.7736 291.688C22.5201 284.844 24.6324 275.928 33.9215 268.307C33.4245 261.025 31.3122 254.324 38.0716 254.157C44.8309 253.99 72.3007 250.642 83.712 257.923C95.1234 265.205 100.277 271.216 100.277 271.216L72.6386 277.686L37.8976 286.479L27.5946 292.672Z" stroke="#FFCA99" stroke-miterlimit="10"/>
            <path d="M64.0218 339.754C84.82 339.754 101.68 323.052 101.68 302.45C101.68 281.848 84.82 265.146 64.0218 265.146C43.2236 265.146 26.3633 281.848 26.3633 302.45C26.3633 323.052 43.2236 339.754 64.0218 339.754Z" fill="#1F1E1D"/>
            <path d="M64.0205 323.876C75.9664 323.876 85.6504 314.283 85.6504 302.45C85.6504 290.616 75.9664 281.023 64.0205 281.023C52.0747 281.023 42.3906 290.616 42.3906 302.45C42.3906 314.283 52.0747 323.876 64.0205 323.876Z" fill="#434343"/>
            <path d="M58.5 294L40 272.5L43.5 269L61 291.5L58.5 294Z" fill="white"/>
            <path d="M27.1012 293.5C31.1859 277.136 46.1567 265 63.9997 265C68.3789 265 72.5853 265.731 76.5 267.076" stroke="#FFCA99" stroke-miterlimit="10" stroke-linecap="round"/>
            <path d="M270.341 313.985H67.8288C67.8288 313.985 54.5586 315.428 54.5586 301.741C54.5586 288.054 72.948 290.417 72.948 290.417H280.703L270.341 313.985Z" fill="white" stroke="#FFCA99" stroke-miterlimit="10"/>
            <path d="M58.1016 311.12L64.9056 305.955L85.8248 305.704L88.9808 303.346L86.4809 299.811L63.9713 298.841L64.9056 305.955" stroke="#FFCA99" stroke-miterlimit="10"/>
            <path d="M63.9714 298.841L56.6504 294.917" stroke="#FFCA99" stroke-miterlimit="10"/>
            <path d="M88.9805 303.346H281.999" stroke="#FFCA99" stroke-miterlimit="10"/>
            <path d="M162.061 303.257L173.104 293.938H259.793L269.584 303.351L259.504 310.864H173.392L162.061 303.257Z" stroke="#FFCA99" stroke-miterlimit="10"/>
            <path d="M24.249 275.652H22.248C21.6958 275.652 21.248 276.1 21.248 276.652V290.225C21.248 290.777 21.6958 291.225 22.248 291.225H24.249C24.8013 291.225 25.249 290.777 25.249 290.225V276.652C25.249 276.1 24.8013 275.652 24.249 275.652Z" fill="white" stroke="#FFCA99" stroke-miterlimit="10"/>
            <path d="M33.9219 268.307C33.9219 268.307 50.9395 252.454 65.7305 253.448" stroke="#FFCA99" stroke-miterlimit="10"/>
            <path d="M61.2421 291.83L44.3984 270.384" stroke="#FFCA99" stroke-miterlimit="10"/>
            <path d="M58.3412 293.504L40.8066 272.999" stroke="#FFCA99" stroke-miterlimit="10"/>
            <path d="M234.847 299.152C234.892 299.152 234.936 299.162 234.976 299.181C235.017 299.2 235.052 299.228 235.081 299.262C235.109 299.296 235.13 299.337 235.141 299.38C235.152 299.423 235.153 299.468 235.145 299.512L234.902 300.791C234.889 300.86 234.852 300.923 234.798 300.968C234.743 301.013 234.675 301.038 234.604 301.038H232.921C232.85 301.038 232.782 301.062 232.727 301.108C232.673 301.153 232.636 301.216 232.623 301.285L232.007 304.66C231.987 304.776 231.975 304.894 231.97 305.012C231.97 305.403 232.142 305.579 232.562 305.616C232.619 305.621 233.569 305.623 233.636 305.623C233.681 305.623 233.725 305.633 233.766 305.652C233.806 305.672 233.842 305.7 233.87 305.734C233.899 305.769 233.919 305.81 233.93 305.853C233.941 305.897 233.942 305.942 233.933 305.986L233.629 307.492C233.615 307.56 233.578 307.622 233.524 307.666C233.47 307.711 233.402 307.735 233.332 307.735H231.803C230.432 307.735 229.58 307.105 229.58 305.79C229.579 305.529 229.604 305.268 229.654 305.012L230.323 301.397C230.331 301.353 230.33 301.308 230.319 301.265C230.307 301.222 230.287 301.182 230.259 301.148C230.23 301.113 230.194 301.086 230.154 301.067C230.114 301.048 230.07 301.038 230.025 301.038H229.21C229.167 301.038 229.124 301.028 229.084 301.01C229.045 300.991 229.01 300.964 228.983 300.931C228.955 300.897 228.935 300.858 228.924 300.816C228.913 300.774 228.912 300.73 228.92 300.687L229.166 299.393C229.178 299.325 229.214 299.264 229.267 299.22C229.32 299.176 229.387 299.152 229.456 299.152H234.847Z" fill="#FE7B01"/>
            <path d="M214.777 299.151H216.781C216.835 299.151 216.888 299.165 216.934 299.192C216.98 299.219 217.019 299.258 217.045 299.305C217.072 299.351 217.085 299.404 217.084 299.458C217.084 299.512 217.069 299.564 217.041 299.61L212.968 307.562C212.941 307.606 212.903 307.643 212.858 307.669C212.812 307.695 212.761 307.708 212.709 307.708H209.869C209.8 307.708 209.733 307.684 209.679 307.641C209.625 307.597 209.587 307.536 209.573 307.468L208.312 299.517C208.302 299.473 208.303 299.427 208.313 299.383C208.324 299.339 208.344 299.298 208.373 299.263C208.401 299.228 208.437 299.2 208.478 299.18C208.519 299.161 208.563 299.151 208.608 299.151H210.417C210.49 299.151 210.56 299.177 210.615 299.224C210.671 299.272 210.707 299.338 210.717 299.41L211.504 305.276C211.547 305.565 211.745 305.546 211.84 305.349L214.51 299.311C214.536 299.262 214.575 299.222 214.622 299.194C214.669 299.165 214.723 299.151 214.778 299.151" fill="#FE7B01"/>
            <path d="M221.14 296.351L220.893 297.646C220.88 297.714 220.844 297.775 220.791 297.819C220.738 297.863 220.671 297.887 220.602 297.887H218.822C218.777 297.887 218.733 297.877 218.692 297.858C218.652 297.839 218.616 297.811 218.588 297.777C218.559 297.743 218.539 297.702 218.528 297.659C218.517 297.616 218.515 297.571 218.524 297.527L218.768 296.246C218.781 296.177 218.818 296.115 218.872 296.07C218.927 296.025 218.995 296 219.066 296H220.849C220.893 296 220.936 296.01 220.975 296.028C221.015 296.047 221.049 296.074 221.077 296.107C221.105 296.141 221.125 296.18 221.136 296.222C221.147 296.264 221.148 296.308 221.14 296.351" fill="#FE7B01"/>
            <path d="M216.666 307.347L218.214 299.396C218.228 299.327 218.265 299.264 218.319 299.22C218.373 299.175 218.442 299.151 218.512 299.151H220.173C220.217 299.151 220.261 299.16 220.302 299.18C220.342 299.199 220.378 299.226 220.406 299.261C220.435 299.295 220.455 299.336 220.466 299.379C220.477 299.422 220.479 299.468 220.47 299.511L218.921 307.463C218.908 307.532 218.871 307.594 218.817 307.639C218.762 307.684 218.694 307.708 218.624 307.708H216.963C216.919 307.708 216.874 307.698 216.834 307.679C216.794 307.66 216.758 307.632 216.729 307.598C216.701 307.563 216.68 307.523 216.669 307.48C216.658 307.436 216.657 307.391 216.666 307.347" fill="#FE7B01"/>
            <path d="M221.383 305.145C221.429 305.08 221.499 305.035 221.578 305.02C221.657 305.006 221.738 305.023 221.804 305.069C222.7 305.684 223.571 306.042 224.318 306.042C224.892 306.042 225.225 305.801 225.225 305.431C225.225 304.561 221.734 303.815 221.718 301.466C221.708 299.91 222.935 298.873 224.824 298.873C225.878 298.873 226.916 299.154 227.939 299.687C227.975 299.706 228.007 299.732 228.033 299.763C228.059 299.794 228.079 299.83 228.09 299.869C228.102 299.908 228.106 299.949 228.102 299.989C228.098 300.029 228.085 300.069 228.066 300.104L227.434 301.319C227.414 301.354 227.388 301.384 227.357 301.409C227.325 301.434 227.289 301.452 227.25 301.463C227.212 301.474 227.172 301.477 227.132 301.472C227.092 301.467 227.054 301.455 227.019 301.435C226.278 301.02 225.533 300.8 224.954 300.8C224.398 300.8 224.034 301.022 224.034 301.411C224.034 302.426 227.578 303.152 227.578 305.319C227.578 307.042 226.374 307.987 224.336 307.987C222.922 307.987 221.741 307.636 220.68 306.843C220.617 306.796 220.574 306.727 220.562 306.649C220.549 306.571 220.567 306.491 220.612 306.427L221.383 305.145Z" fill="#FE7B01"/>
            <path d="M228.265 296.351L228.018 297.646C228.005 297.714 227.969 297.775 227.916 297.819C227.863 297.863 227.796 297.887 227.727 297.887H223.211C223.167 297.887 223.124 297.877 223.085 297.859C223.046 297.84 223.011 297.813 222.983 297.78C222.955 297.746 222.935 297.707 222.925 297.665C222.914 297.623 222.912 297.579 222.921 297.536L223.168 296.24C223.181 296.173 223.217 296.112 223.27 296.068C223.323 296.024 223.389 296 223.458 296H227.975C228.018 296 228.061 296.01 228.1 296.028C228.14 296.047 228.175 296.074 228.202 296.107C228.23 296.141 228.25 296.18 228.261 296.222C228.272 296.264 228.273 296.308 228.265 296.351" fill="#FE7B01"/>
            <path d="M235.387 296.353L235.139 297.649C235.127 297.716 235.091 297.777 235.038 297.821C234.985 297.865 234.918 297.889 234.849 297.889H231.037C230.994 297.889 230.951 297.879 230.912 297.861C230.872 297.842 230.837 297.815 230.81 297.782C230.782 297.748 230.762 297.709 230.751 297.667C230.74 297.625 230.739 297.581 230.747 297.538L230.994 296.242C231.007 296.175 231.043 296.114 231.096 296.07C231.149 296.026 231.216 296.002 231.285 296.002H235.096C235.14 296.002 235.183 296.012 235.222 296.03C235.262 296.049 235.296 296.076 235.324 296.109C235.352 296.143 235.372 296.182 235.383 296.224C235.393 296.266 235.395 296.31 235.387 296.353" fill="#FE7B01"/>
            <path d="M200.825 305.158C200.871 305.093 200.941 305.048 201.02 305.033C201.099 305.019 201.18 305.036 201.246 305.082C202.142 305.697 203.013 306.055 203.76 306.055C204.334 306.055 204.667 305.814 204.667 305.444C204.667 304.574 201.176 303.828 201.161 301.479C201.15 299.923 202.377 298.886 204.266 298.886C205.32 298.886 206.359 299.167 207.382 299.7C207.418 299.719 207.449 299.745 207.475 299.776C207.501 299.807 207.521 299.843 207.533 299.882C207.544 299.921 207.548 299.962 207.544 300.002C207.54 300.042 207.528 300.082 207.508 300.117L206.876 301.332C206.857 301.367 206.83 301.397 206.799 301.422C206.767 301.447 206.731 301.465 206.693 301.476C206.654 301.487 206.614 301.49 206.574 301.485C206.534 301.48 206.496 301.468 206.461 301.448C205.721 301.033 204.976 300.813 204.396 300.813C203.84 300.813 203.476 301.035 203.476 301.424C203.476 302.439 207.02 303.165 207.02 305.332C207.02 307.055 205.816 308 203.779 308C202.364 308 201.184 307.649 200.122 306.856C200.059 306.809 200.017 306.74 200.004 306.662C199.991 306.584 200.009 306.504 200.054 306.44L200.825 305.158Z" fill="#FE7B01"/>
            <path d="M182.197 224.7C182.197 224.7 184.5 241.443 181.987 248.771C179.474 256.099 174.442 266.356 176.327 277.869C178.212 289.381 187.014 290.851 190.37 290.851H259.944C259.944 290.851 267.07 291.269 267.07 281.64C267.07 272.01 259.525 268.867 245.487 267.203C231.45 265.539 218.036 259.038 218.036 247.316C218.104 240.091 219.9 232.986 223.272 226.593L200.014 199.378L177.608 216.754L182.197 224.7Z" fill="#FFB673" stroke="#FE7B01" stroke-width="1.5" stroke-miterlimit="10"/>
            <path d="M129.145 315.019C122.419 267.159 137.757 252.542 149.802 247.224C183.98 232.393 213.96 187.89 213.96 187.89L217.043 151.226L166.942 147.781C166.942 147.781 153.09 152.5 141 167.5C114 201 111.779 206.719 101 227C90.221 247.281 88.649 242.745 81.0003 254.5C74.1683 265 76.989 275.835 76.989 275.835C76.989 275.835 97.8456 324.264 101.83 332.818C105.175 340 111.362 339.63 111.362 339.63H140.971C140.971 339.63 151.565 340.837 151.565 330.789C151.565 320.741 142.491 304.543 124.421 317.729" fill="#FF9F46"/>
            <path d="M129.145 315.019C122.419 267.159 137.757 252.542 149.802 247.224C183.98 232.393 213.96 187.89 213.96 187.89L217.043 151.226L166.942 147.781C166.942 147.781 153.09 152.5 141 167.5C114 201 111.779 206.719 101 227C90.221 247.281 88.649 242.745 81.0003 254.5C74.1683 265 76.989 275.835 76.989 275.835C76.989 275.835 97.8456 324.264 101.83 332.818C105.175 340 111.362 339.63 111.362 339.63H140.971C140.971 339.63 151.565 340.837 151.565 330.789C151.565 320.741 142.491 304.543 124.421 317.729" stroke="#FE7B01" stroke-width="1.5" stroke-miterlimit="10"/>
        </g>
        <path d="M262.5 238.757C328.498 238.757 382 185.309 382 119.379C382 53.4477 328.498 0.000152588 262.5 0.000152588C196.502 0.000152588 143 53.4477 143 119.379C143 185.309 196.502 238.757 262.5 238.757Z" fill="#FFE0C4"/>
        <mask id="mask1_1_6"  >
            <path d="M262.5 238.757C328.498 238.757 382 185.309 382 119.379C382 53.4477 328.498 0.000152588 262.5 0.000152588C196.502 0.000152588 143 53.4477 143 119.379C143 185.309 196.502 238.757 262.5 238.757Z" fill="#FFE0C4"/>
        </mask>
        <g mask="url(#mask1_1_6)">
            <path d="M298.034 129.884L293.173 130.422L288.853 126.112L287.233 120.185L288.313 113.18L290.473 108.33L293.173 104.558L297.494 102.403L301.814 101.864L308.295 105.097L315.315 105.636L337.457 109.408L358.519 114.796L363.38 118.029L365 123.956L363.92 133.655L359.599 138.505L356.359 140.122L349.339 141.199L335.837 139.044L310.995 131.5L298.034 129.884Z" fill="#F7F7F7"/>
            <path d="M273.191 100.248L277.512 100.787L275.351 106.175L272.111 115.335L268.871 117.49L258.68 115.984L234.848 134.733L231.607 139.044L231.067 143.355L233.767 151.437V161.675L232.147 164.369L231.607 167.602L226.207 171.913V176.223L225.127 179.995L219.186 184.845L213.786 186.461L206.765 187L201.904 184.306L195.424 115.335L198.124 109.947L212.165 103.481L211.085 100.787L212.165 94.3205L218.106 89.471H223.506L225.127 91.0875L232.687 93.2429L246.729 86.7769L253.749 83.5438L262.93 85.6992L265.63 87.3157L266.171 98.6312L265.797 100.248H273.191Z" fill="#F7F7F7"/>
            <path d="M198.124 81.9273L205.145 81.3885L197.584 93.7817V105.636L188.403 102.942L174.902 101.325L161.941 98.0924L158.16 95.3982L156 87.8545L157.62 81.3885L161.401 77.0778L167.881 76.0002L179.762 77.6167L198.124 81.9273Z" fill="#F7F7F7"/>
            <path d="M292.273 98.5411L299.909 100.705L301 102.328L298 102L294.455 104.492L289.545 109.902L287.364 119.099L289 126.131L292.818 130.459L285.727 131L266.636 127.754L265 125.59V121.803L268.273 118.558L271.545 115.312L274.818 107.197L279.182 99.6231L284.5 96.5002L292.273 98.5411Z" fill="#FFC187"/>
            <path d="M206.889 247L196.064 115.66C196.064 115.66 195.129 111.072 200.391 108.609C205.654 106.146 252.096 84.3676 252.096 84.3676C252.096 84.3676 253.557 83.5775 256.822 84.3145C260.087 85.0515 264.985 86.5056 264.985 86.5056C264.985 86.5056 266 86.7313 266 89.2146C266 91.6978 265.834 100.701 265.834 100.701" stroke="#FFAD62" stroke-width="1.5" stroke-miterlimit="10"/>
            <path d="M200.052 108.138C200.052 108.138 194.147 112.087 198.765 114.266C203.383 116.445 213.075 113.305 217.807 110.922C222.539 108.539 266 87.0002 266 87.0002" stroke="#FFAD62" stroke-width="1.5" stroke-miterlimit="10"/>
            <path d="M236 92.0002L250 95.0002" stroke="#FFAD62" stroke-width="1.5" stroke-miterlimit="10"/>
            <path d="M268.911 118C268.911 118 257.383 116.951 254.289 115.274C252.45 114.258 251.056 112.521 250.404 110.432C249.752 108.343 249.893 106.067 250.797 104.086C252.904 98.9789 256.59 98.4889 261.135 99.3309C265.679 100.173 267.129 100.38 270.686 100.097C273.146 99.9832 275.609 100.244 278 100.87" stroke="#FFAD62" stroke-width="1.5" stroke-miterlimit="10"/>
            <path d="M220 99.0002C220 99.0002 221.549 91.4746 226.721 92.0294C231.893 92.5842 232 93.1716 232 93.1716" stroke="#FFAD62" stroke-width="1.5" stroke-miterlimit="10"/>
            <path d="M217 101C217 101 219.228 87.8553 227.649 91.3498C229.393 90.7356 229.618 89.3166 232.064 90.3897C234.509 91.4627 235 92.5781 235 92.5781" stroke="#FFAD62" stroke-width="1.5" stroke-miterlimit="10"/>
            <path d="M211.798 103C210.831 100.777 210.74 98.2799 211.542 95.9941C212.891 92.0635 217.973 88.1661 223.96 89.4984C230.614 86.5754 248 80.0002 248 80.0002" stroke="#FFAD62" stroke-width="1.5" stroke-miterlimit="10"/>
            <path d="M224 90.0002L228 91.0002" stroke="#FFAD62" stroke-width="1.5" stroke-miterlimit="10"/>
            <path d="M225 88.8678C225 88.8678 224.751 80.0002 217.151 80.0002C209.55 80.0002 205.286 90.1617 204.239 96.9361C203.193 103.71 205.92 106 205.92 106" stroke="#FFAD62" stroke-width="1.5" stroke-miterlimit="10"/>
            <path d="M199.404 108.593C199.404 108.593 196.724 105.671 197.381 99.4996C198.038 93.3279 201.701 83.7421 206.437 81.188C209.385 79.6561 212.788 79.2683 216 80.0981C205.129 75.5481 198.656 85.9678 196.581 96.1446C194.506 106.321 198.656 109 198.656 109" stroke="#FFAD62" stroke-width="1.5" stroke-miterlimit="10"/>
            <path d="M228 87.9706C228 87.9706 225.55 88.2642 225 87.0002" stroke="#FFAD62" stroke-width="1.5" stroke-miterlimit="10"/>
            <path d="M212 79.0002L212.041 72.7487C212.041 72.7487 211.794 71.7147 214.401 72.0773C217.007 72.4398 217 74.6289 217 74.6289" stroke="#FFAD62" stroke-width="1.5" stroke-miterlimit="10"/>
            <path d="M215 73.0002C215 73.0002 224.028 78.7155 227.778 79.5222C231.527 80.3289 235.633 79.6453 237.979 79.406C240.325 79.1667 248.39 77.8746 255 84.0002" stroke="#FFAD62" stroke-width="1.5" stroke-miterlimit="10"/>
            <path d="M212 73.0002C212 73.0002 219.626 78.3651 224.608 80.4818C229.59 82.5985 231.895 82.0837 234.369 81.4226C236.843 80.7615 244 81.2255 244 81.2255" stroke="#FFAD62" stroke-width="1.5" stroke-miterlimit="10"/>
            <path d="M259 117C259 117 238.059 132.069 233.736 136.259C229.412 140.448 231.154 145.713 232.656 148.379C234.159 151.044 234.206 162.748 232.378 164.873C231.716 165.717 232.286 166.555 231.862 167.637C231.438 168.719 226.565 170.725 226.036 172.361C225.506 173.997 231.028 254 231.028 254" stroke="#FFAD62" stroke-width="1.5" stroke-miterlimit="10"/>
            <path d="M226 177C226 177 223.566 186.918 209.204 187C203.803 186.78 202 183.639 202 183.639" stroke="#FFAD62" stroke-width="1.5" stroke-miterlimit="10"/>
            <path d="M302 102C302 102 306.47 104.993 311.45 105.27C316.431 105.548 355.067 111.639 361.12 115.973C367.173 120.307 366.093 133.956 358.239 139.267C350.384 144.579 327.384 136.123 321.358 134.643C315.331 133.163 300.424 129.351 293 130.5" stroke="#FFAD62" stroke-width="1.5" stroke-miterlimit="10"/>
            <path d="M197.322 107C194.218 104.762 190.582 103.319 186.749 102.802C180.61 102.073 161.533 99.6319 158.463 95.5832C155.394 91.5345 152.579 78.0737 167.196 76.0233C172.428 75.5872 193.567 81.4389 196.939 81.9792C200.311 82.5194 205 81.5886 205 81.5886" stroke="#FFAD62" stroke-width="1.5" stroke-miterlimit="10"/>
            <path d="M302 102C302 102 313.727 99.4907 316.649 98.7108C319.57 97.9308 322.982 97.4483 324.272 99.1536C325.562 100.859 328.376 104.653 332.09 104.851C335.804 105.05 356.189 107.918 360.044 107.866C363.9 107.813 367.271 106.068 369.199 107.819C371.127 109.571 372.416 115.513 368.165 117.364C363.913 119.215 362.12 116.439 362.12 116.439" stroke="#FFAD62" stroke-width="1.5" stroke-miterlimit="10"/>
            <path d="M316 99.0002C316 99.0002 322.198 100.944 324.802 103.665C327.407 106.386 336.075 106.762 340.163 106.944C344.25 107.126 356.451 108.474 360.198 108.932C363.944 109.389 369 107.408 369 107.408" stroke="#FFAD62" stroke-width="1.5" stroke-miterlimit="10"/>
            <path d="M292 98.0002C292 98.0002 292.74 94.4219 300.398 95.0812C308.057 95.7406 321.5 98.0002 321.5 98.0002" stroke="#FFAD62" stroke-width="1.5" stroke-miterlimit="10"/>
            <path d="M363 117.581C363 117.581 359.613 115.258 354.932 119.903C350.25 124.549 345.959 140.586 356.733 139.984" stroke="#FFAD62" stroke-width="1.5" stroke-miterlimit="10"/>
            <path d="M208 115L219 252" stroke="#FFAD62" stroke-width="1.5" stroke-miterlimit="10"/>
            <path d="M265.118 121.651C265.118 121.651 264.502 125.987 266.088 127C267.675 128.013 275.205 128.83 279.215 129.87C283.224 130.91 292.441 131.471 294.222 130.492C294.222 130.492 286.578 129.242 287.783 116.984C288.987 104.726 298.426 100.424 302 101.984C302 101.984 299.323 99.066 291.819 97.8166C284.315 96.5671 280.332 95.8715 276.892 102.544C273.451 109.217 272.769 114.546 271.256 115.87C269.743 117.193 263.551 120.658 265.472 122.461C267.393 124.265 272.561 126.135 277.099 124.197C281.638 122.259 284.596 119.821 284.804 117.187C285.011 114.553 289.684 97.7558 300.005 100.532" stroke="#FE7B01" stroke-width="1.5" stroke-miterlimit="10" stroke-linecap="round" stroke-linejoin="round"/>
            <path d="M275.179 118.433C273.561 117.9 271.79 117.858 270.143 118.315C267.538 119.108 265.926 121.036 267.838 121.794C269.75 122.551 273.933 123.699 275.939 122.438C277.944 121.178 279.649 119.717 275.179 118.433Z" stroke="#FE7B01" stroke-width="1.5" stroke-miterlimit="10" stroke-linecap="round" stroke-linejoin="round"/>
        </g>
        <path d="M278.861 138.08C278.906 137.668 278.607 137.298 278.196 137.254C277.784 137.21 277.414 137.508 277.37 137.92L278.861 138.08ZM315.193 155.1C315.248 154.69 314.96 154.312 314.55 154.257L307.861 153.353C307.45 153.297 307.073 153.585 307.017 153.996C306.962 154.406 307.249 154.784 307.66 154.839L313.606 155.643L312.802 161.589C312.747 161.999 313.035 162.377 313.445 162.432C313.856 162.488 314.233 162.2 314.289 161.79L315.193 155.1ZM299.615 159.25C295.011 159.25 289.433 157.317 285.201 153.681C280.989 150.063 278.142 144.794 278.861 138.08L277.37 137.92C276.589 145.206 279.704 150.937 284.223 154.819C288.721 158.683 294.644 160.75 299.615 160.75V159.25ZM313.995 154.403C310.003 157.445 305.021 159.25 299.615 159.25V160.75C305.361 160.75 310.66 158.83 314.904 155.597L313.995 154.403Z" fill="#1F1E1D"/>
    </g>
    <defs>
        <clipPath id="clip0_1_6">
            <rect width="390" height="340" fill="white"/>
        </clipPath>
    </defs>
</svg>
