<svg width="284" height="348" viewBox="0 0 284 348" fill="none" xmlns="http://www.w3.org/2000/svg">
    <path d="M214.42 93.4068C214.443 93.3942 214.468 93.3866 214.494 93.3847C214.519 93.3828 214.545 93.3866 214.569 93.3959C214.593 93.4051 214.615 93.4196 214.633 93.4382C214.651 93.4568 214.664 93.4792 214.673 93.5036L214.913 94.2174C214.926 94.2561 214.926 94.2981 214.911 94.3363C214.896 94.3744 214.869 94.4063 214.833 94.4263L213.985 94.9042C213.949 94.9243 213.922 94.9562 213.907 94.9944C213.892 95.0326 213.892 95.0747 213.905 95.1134L214.552 96.9893C214.575 97.0536 214.603 97.1163 214.633 97.1772C214.744 97.3743 214.881 97.4143 215.103 97.3135C215.134 97.2998 215.613 97.0314 215.647 97.0125C215.669 96.9998 215.695 96.9922 215.721 96.9904C215.746 96.9886 215.772 96.9925 215.797 97.002C215.821 97.0114 215.843 97.0261 215.86 97.045C215.878 97.0639 215.892 97.0865 215.9 97.1112L216.174 97.9563C216.186 97.9948 216.185 98.0364 216.17 98.0741C216.156 98.1118 216.128 98.1433 216.093 98.1632L215.323 98.5972C214.632 98.9863 214.023 98.9106 213.65 98.2477C213.575 98.1164 213.514 97.978 213.466 97.8346L212.777 95.8229C212.769 95.7984 212.755 95.7761 212.738 95.7576C212.72 95.739 212.698 95.7245 212.674 95.7153C212.65 95.7061 212.624 95.7023 212.598 95.7042C212.573 95.706 212.548 95.7136 212.525 95.7262L212.114 95.9576C212.092 95.9699 212.068 95.9772 212.043 95.9791C212.018 95.9809 211.993 95.9772 211.969 95.9682C211.946 95.9592 211.925 95.9451 211.907 95.9269C211.89 95.9088 211.877 95.887 211.868 95.8632L211.625 95.141C211.612 95.1032 211.613 95.0622 211.627 95.0251C211.641 94.9879 211.668 94.9568 211.703 94.9373L214.42 93.4068Z" fill="white"/>
    <path d="M204.304 99.1027L205.314 98.5339C205.342 98.5187 205.372 98.5109 205.403 98.5114C205.434 98.5119 205.465 98.5206 205.491 98.5367C205.518 98.5527 205.54 98.5756 205.554 98.6028C205.569 98.6301 205.577 98.6608 205.576 98.6919L205.78 103.856C205.779 103.886 205.771 103.916 205.755 103.941C205.739 103.967 205.717 103.989 205.691 104.003L204.26 104.81C204.225 104.829 204.184 104.836 204.144 104.83C204.105 104.823 204.069 104.803 204.042 104.773L201.149 101.123C201.132 101.103 201.119 101.08 201.112 101.055C201.105 101.03 201.103 101.003 201.108 100.978C201.112 100.952 201.122 100.927 201.137 100.906C201.152 100.885 201.172 100.867 201.195 100.854L202.107 100.34C202.143 100.32 202.186 100.313 202.227 100.321C202.269 100.33 202.306 100.353 202.331 100.386L204.393 103.119C204.497 103.253 204.591 103.187 204.583 103.061L204.215 99.2594C204.214 99.2276 204.222 99.1963 204.238 99.1687C204.254 99.1411 204.277 99.1183 204.304 99.1027" fill="white"/>
    <path d="M206.716 95.8853L206.96 96.6085C206.972 96.6462 206.972 96.6872 206.957 96.7244C206.943 96.7616 206.916 96.7926 206.882 96.8122L205.984 97.3177C205.961 97.3303 205.936 97.3379 205.911 97.3398C205.885 97.3417 205.859 97.3378 205.835 97.3286C205.811 97.3193 205.789 97.3048 205.771 97.2862C205.753 97.2675 205.74 97.2452 205.732 97.2207L205.491 96.506C205.478 96.4673 205.479 96.4253 205.494 96.3871C205.508 96.349 205.536 96.3172 205.571 96.2972L206.47 95.7908C206.492 95.7785 206.517 95.7712 206.542 95.7693C206.567 95.7675 206.592 95.7712 206.616 95.7802C206.639 95.7893 206.66 95.8034 206.678 95.8215C206.695 95.8397 206.708 95.8615 206.716 95.8854" fill="white"/>
    <path d="M207.583 102.699L206.106 98.2516C206.093 98.213 206.094 98.1711 206.109 98.1331C206.124 98.0952 206.151 98.0635 206.187 98.0435L207.024 97.5721C207.046 97.5594 207.071 97.5519 207.097 97.55C207.123 97.5482 207.149 97.552 207.173 97.5613C207.197 97.5706 207.219 97.5852 207.237 97.6039C207.254 97.6226 207.268 97.645 207.276 97.6695L208.753 102.117C208.765 102.156 208.764 102.198 208.75 102.236C208.735 102.274 208.708 102.305 208.672 102.325L207.835 102.797C207.813 102.809 207.788 102.817 207.762 102.819C207.736 102.821 207.71 102.817 207.686 102.807C207.662 102.798 207.64 102.784 207.622 102.765C207.604 102.746 207.591 102.724 207.583 102.699" fill="white"/>
    <path d="M209.336 100.248C209.34 100.202 209.363 100.16 209.398 100.13C209.434 100.1 209.48 100.086 209.526 100.09C210.152 100.146 210.693 100.079 211.069 99.8672C211.359 99.7042 211.459 99.4883 211.353 99.3014C211.107 98.8632 209.135 99.4781 208.46 98.2987C208.013 97.5173 208.337 96.6463 209.29 96.11C209.821 95.8108 210.424 95.6575 211.091 95.6358C211.114 95.6351 211.138 95.639 211.16 95.6474C211.182 95.6557 211.202 95.6684 211.219 95.6847C211.236 95.7009 211.249 95.7204 211.259 95.7419C211.268 95.7635 211.273 95.7867 211.273 95.8102L211.299 96.6017C211.299 96.6249 211.295 96.6478 211.286 96.6693C211.277 96.6907 211.264 96.7102 211.248 96.7266C211.232 96.743 211.212 96.756 211.191 96.7648C211.169 96.7737 211.146 96.7782 211.123 96.7781C210.632 96.7794 210.194 96.8797 209.902 97.0442C209.622 97.202 209.501 97.4173 209.612 97.6134C209.9 98.1253 211.892 97.4849 212.508 98.5775C212.997 99.4458 212.658 100.264 211.631 100.842C210.918 101.244 210.223 101.402 209.463 101.304C209.418 101.298 209.377 101.275 209.349 101.239C209.32 101.204 209.306 101.158 209.311 101.113L209.336 100.248Z" fill="white"/>
    <path d="M210.308 93.8628L210.551 94.5859C210.564 94.6237 210.563 94.6647 210.549 94.7019C210.535 94.739 210.508 94.7701 210.473 94.7897L208.197 96.0718C208.175 96.0841 208.15 96.0914 208.125 96.0933C208.1 96.0951 208.075 96.0914 208.051 96.0823C208.028 96.0733 208.007 96.0592 207.989 96.041C207.972 96.0228 207.959 96.001 207.951 95.9771L207.707 95.254C207.695 95.2163 207.696 95.1753 207.71 95.1381C207.724 95.101 207.751 95.07 207.786 95.0504L210.062 93.7683C210.084 93.756 210.109 93.7486 210.134 93.7468C210.159 93.745 210.184 93.7487 210.207 93.7577C210.231 93.7668 210.252 93.7809 210.27 93.799C210.287 93.8172 210.3 93.839 210.308 93.8628" fill="white"/>
    <path d="M213.898 91.842L214.141 92.5652C214.154 92.6029 214.153 92.6439 214.139 92.6811C214.125 92.7183 214.098 92.7493 214.063 92.7689L212.142 93.8509C212.12 93.8632 212.096 93.8706 212.07 93.8724C212.045 93.8742 212.02 93.8705 211.997 93.8615C211.973 93.8524 211.952 93.8383 211.935 93.8202C211.917 93.802 211.904 93.7802 211.896 93.7563L211.653 93.033C211.64 92.9953 211.641 92.9543 211.655 92.9172C211.669 92.88 211.696 92.849 211.731 92.8295L213.652 91.7475C213.674 91.7351 213.699 91.7278 213.724 91.726C213.749 91.7241 213.774 91.7279 213.797 91.7369C213.821 91.7459 213.842 91.76 213.86 91.7782C213.877 91.7964 213.89 91.8181 213.898 91.842" fill="white"/>
    <path d="M198.976 106.092C198.981 106.045 199.003 106.003 199.039 105.973C199.075 105.944 199.121 105.929 199.167 105.933C199.793 105.989 200.334 105.922 200.71 105.71C200.999 105.547 201.099 105.332 200.994 105.145C200.747 104.706 198.776 105.321 198.101 104.142C197.654 103.36 197.978 102.49 198.93 101.953C199.462 101.654 200.065 101.501 200.732 101.479C200.755 101.478 200.778 101.482 200.8 101.491C200.822 101.499 200.842 101.512 200.859 101.528C200.876 101.544 200.89 101.564 200.899 101.585C200.909 101.607 200.913 101.63 200.914 101.653L200.94 102.445C200.94 102.468 200.935 102.491 200.927 102.512C200.918 102.534 200.905 102.553 200.889 102.57C200.872 102.586 200.853 102.599 200.831 102.608C200.81 102.617 200.787 102.621 200.764 102.621C200.273 102.623 199.835 102.723 199.543 102.887C199.262 103.045 199.142 103.261 199.252 103.457C199.541 103.969 201.533 103.328 202.148 104.421C202.637 105.289 202.299 106.107 201.271 106.685C200.558 107.087 199.864 107.245 199.104 107.147C199.059 107.141 199.018 107.118 198.989 107.082C198.961 107.047 198.947 107.002 198.951 106.956L198.976 106.092Z" fill="white"/>
    <path d="M99.4897 53.4781C99.5112 53.5202 99.5232 53.5665 99.5248 53.6138C99.5264 53.661 99.5175 53.708 99.4988 53.7514C99.4801 53.7948 99.4521 53.8336 99.4167 53.8649C99.3813 53.8963 99.3395 53.9194 99.2941 53.9327L97.9703 54.3209C97.8985 54.342 97.8216 54.3374 97.7529 54.3079C97.6841 54.2783 97.6279 54.2257 97.5938 54.1591L96.7813 52.5711C96.7472 52.5044 96.6908 52.4517 96.622 52.4222C96.5531 52.3926 96.4761 52.3881 96.4042 52.4093L92.9238 53.4572C92.8046 53.4949 92.6878 53.5399 92.5741 53.592C92.2053 53.7807 92.122 54.0281 92.2902 54.442C92.3131 54.4985 92.7693 55.3959 92.8013 55.4585C92.823 55.5008 92.8349 55.5475 92.8364 55.595C92.8378 55.6425 92.8287 55.6898 92.8096 55.7334C92.7906 55.777 92.7621 55.8158 92.7262 55.847C92.6903 55.8782 92.648 55.9011 92.6022 55.914L91.0356 56.354C90.9643 56.3741 90.8881 56.3688 90.8202 56.3391C90.7522 56.3094 90.6967 56.2571 90.6628 56.1911L89.925 54.7491C89.2634 53.456 89.4465 52.3484 90.6869 51.7137C90.9327 51.5865 91.1905 51.4841 91.4565 51.408L95.1885 50.2941C95.2338 50.2808 95.2756 50.2576 95.3109 50.2263C95.3462 50.195 95.3742 50.1563 95.3929 50.1129C95.4115 50.0695 95.4204 50.0226 95.4188 49.9754C95.4172 49.9282 95.4053 49.8819 95.3838 49.8399L94.9905 49.0712C94.9695 49.0302 94.9578 48.985 94.9563 48.939C94.9548 48.8929 94.9635 48.8471 94.9817 48.8048C94.9999 48.7624 95.0272 48.7247 95.0617 48.6941C95.0962 48.6636 95.137 48.641 95.1813 48.628L96.5207 48.235C96.5907 48.2145 96.6657 48.219 96.7327 48.2479C96.7997 48.2767 96.8545 48.328 96.8878 48.3929L99.4897 53.4781Z" fill="white"/>
    <path d="M89.8042 34.5472L90.7713 36.4373C90.7972 36.488 90.8092 36.5446 90.806 36.6014C90.8028 36.6582 90.7847 36.7131 90.7533 36.7606C90.722 36.8081 90.6786 36.8463 90.6276 36.8715C90.5766 36.8967 90.5198 36.9079 90.463 36.904L80.9974 36.9001C80.9423 36.8962 80.8891 36.8781 80.8429 36.8476C80.7968 36.8171 80.7593 36.7752 80.7341 36.726L79.3637 34.0476C79.3302 33.9821 79.3201 33.9071 79.3353 33.8351C79.3504 33.763 79.3898 33.6984 79.4469 33.652L86.3384 28.625C86.3755 28.5949 86.419 28.5734 86.4655 28.5622C86.512 28.5509 86.5604 28.5502 86.6072 28.5601C86.654 28.57 86.698 28.5902 86.7361 28.6193C86.7741 28.6483 86.8051 28.6855 86.8269 28.7281L87.6999 30.4344C87.7351 30.5031 87.7443 30.5821 87.726 30.657C87.7077 30.7319 87.6631 30.7977 87.6003 30.8424L82.4472 34.4158C82.1948 34.5956 82.3088 34.773 82.5403 34.7675L89.524 34.3724C89.5822 34.3734 89.639 34.3902 89.6884 34.421C89.7378 34.4518 89.7778 34.4954 89.8043 34.5472" fill="white"/>
    <path d="M95.5169 39.199L94.1757 39.5911C94.1057 39.6116 94.0308 39.6071 93.9638 39.5783C93.8968 39.5495 93.8419 39.4982 93.8087 39.4333L92.9493 37.7537C92.9277 37.7116 92.9157 37.6652 92.9142 37.6179C92.9126 37.5707 92.9215 37.5236 92.9402 37.4802C92.959 37.4367 92.987 37.398 93.0225 37.3666C93.0579 37.3353 93.0998 37.3122 93.1453 37.2989L94.4708 36.9113C94.5426 36.8903 94.6194 36.895 94.6881 36.9246C94.7567 36.9541 94.8129 37.0067 94.847 37.0732L95.7078 38.7557C95.7288 38.7968 95.7405 38.842 95.742 38.888C95.7435 38.9341 95.7348 38.9799 95.7166 39.0223C95.6984 39.0646 95.671 39.1024 95.6365 39.133C95.602 39.1635 95.5611 39.1861 95.5169 39.199" fill="white"/>
    <path d="M82.9835 40.2832L91.231 37.9065C91.3027 37.8859 91.3792 37.8908 91.4476 37.9205C91.516 37.9501 91.572 38.0026 91.6059 38.069L92.4074 39.6354C92.429 39.6776 92.4409 39.724 92.4425 39.7713C92.444 39.8186 92.435 39.8657 92.4162 39.9092C92.3974 39.9527 92.3693 39.9915 92.3337 40.0228C92.2982 40.0541 92.2561 40.0771 92.2106 40.0903L83.9631 42.4669C83.8914 42.4875 83.8149 42.4826 83.7465 42.453C83.6781 42.4233 83.6222 42.3709 83.5882 42.3046L82.7867 40.7382C82.7652 40.696 82.7532 40.6496 82.7517 40.6022C82.7501 40.5549 82.7591 40.5078 82.7779 40.4643C82.7967 40.4209 82.8249 40.3821 82.8604 40.3508C82.896 40.3195 82.938 40.2964 82.9835 40.2833" fill="white"/>
    <path d="M87.3399 43.6723C87.4241 43.6837 87.5004 43.728 87.552 43.7955C87.6036 43.863 87.6263 43.9482 87.6153 44.0325C87.4671 45.1743 87.5501 46.1686 87.9105 46.8729C88.1875 47.4144 88.5754 47.6128 88.9251 47.4339C89.7452 47.0143 88.7641 43.3612 90.9718 42.2129C92.4347 41.452 94.0048 42.1087 94.9166 43.8908C95.4254 44.8851 95.6617 45.9999 95.6525 47.222C95.6522 47.265 95.6434 47.3075 95.6264 47.3471C95.6095 47.3866 95.5848 47.4224 95.5538 47.4523C95.5228 47.4822 95.4862 47.5055 95.4461 47.5211C95.4059 47.5366 95.3631 47.5439 95.3201 47.5427L93.8697 47.5325C93.8272 47.531 93.7856 47.5211 93.747 47.5034C93.7084 47.4857 93.6737 47.4606 93.6449 47.4294C93.6161 47.3982 93.5937 47.3617 93.5791 47.3219C93.5645 47.282 93.5579 47.2397 93.5597 47.1973C93.5933 46.2989 93.4419 45.4896 93.1622 44.9429C92.894 44.4187 92.5087 44.1824 92.1417 44.3702C91.1838 44.8603 92.21 48.5532 90.1654 49.5993C88.5405 50.4307 87.0683 49.751 86.085 47.829C85.4022 46.4946 85.1633 45.2122 85.3989 43.8284C85.4129 43.7462 85.4583 43.6725 85.5255 43.6229C85.5926 43.5734 85.6764 43.5518 85.7591 43.5627L87.3399 43.6723Z" fill="white"/>
    <path d="M98.9552 45.919L97.614 46.3112C97.544 46.3317 97.4691 46.3272 97.4021 46.2984C97.3351 46.2696 97.2802 46.2183 97.2469 46.1534L95.0672 41.8933C95.0463 41.8522 95.0346 41.807 95.0331 41.7609C95.0316 41.7148 95.0403 41.669 95.0586 41.6266C95.0768 41.5843 95.1042 41.5465 95.1388 41.5159C95.1733 41.4854 95.2142 41.4629 95.2585 41.45L96.5996 41.0578C96.6696 41.0373 96.7445 41.0419 96.8114 41.0707C96.8784 41.0995 96.9332 41.1508 96.9664 41.2157L99.1461 45.4758C99.1671 45.5168 99.1788 45.562 99.1803 45.6081C99.1818 45.6541 99.1731 45.7 99.1549 45.7423C99.1367 45.7847 99.1093 45.8225 99.0748 45.853C99.0402 45.8836 98.9994 45.9061 98.9552 45.919" fill="white"/>
    <path d="M102.389 52.6363L101.048 53.0283C100.978 53.0489 100.903 53.0444 100.836 53.0156C100.769 52.9868 100.714 52.9355 100.681 52.8705L98.8413 49.2752C98.8203 49.2342 98.8086 49.189 98.8071 49.1429C98.8056 49.0968 98.8143 49.051 98.8325 49.0086C98.8508 48.9663 98.8781 48.9285 98.9127 48.898C98.9472 48.8674 98.9881 48.8449 99.0323 48.8319L100.374 48.44C100.444 48.4195 100.519 48.4241 100.586 48.4529C100.653 48.4817 100.707 48.5329 100.741 48.5978L102.58 52.1931C102.601 52.2341 102.613 52.2793 102.614 52.3254C102.616 52.3714 102.607 52.4173 102.589 52.4596C102.571 52.502 102.543 52.5398 102.509 52.5703C102.474 52.6009 102.433 52.6234 102.389 52.6364" fill="white"/>
    <path d="M77.4058 24.287C77.49 24.2984 77.5662 24.3427 77.6178 24.4102C77.6695 24.4777 77.6922 24.5629 77.6812 24.6472C77.533 25.789 77.616 26.7833 77.9763 27.4876C78.2534 28.0292 78.6413 28.2275 78.991 28.0486C79.811 27.629 78.8299 23.9759 81.0377 22.8276C82.5006 22.0668 84.0707 22.7234 84.9825 24.5055C85.4912 25.4998 85.7276 26.6148 85.7184 27.8367C85.7181 27.8797 85.7092 27.9222 85.6923 27.9618C85.6753 28.0013 85.6506 28.0371 85.6197 28.067C85.5887 28.0969 85.5521 28.1202 85.5119 28.1358C85.4718 28.1513 85.429 28.1586 85.386 28.1574L83.9356 28.1473C83.8932 28.1458 83.8515 28.1359 83.8129 28.1182C83.7743 28.1005 83.7396 28.0753 83.7108 28.0442C83.682 28.013 83.6597 27.9765 83.645 27.9366C83.6304 27.8968 83.6238 27.8545 83.6256 27.8121C83.6593 26.9137 83.5078 26.1044 83.2281 25.5577C82.9599 25.0335 82.5746 24.7972 82.2076 24.985C81.2497 25.4751 82.2759 29.168 80.2313 30.2141C78.6064 31.0455 77.1342 30.3657 76.1509 28.4438C75.4681 27.1094 75.2292 25.8269 75.4648 24.4432C75.4788 24.3609 75.5242 24.2873 75.5914 24.2377C75.6585 24.1882 75.7423 24.1666 75.825 24.1775L77.4058 24.287Z" fill="white"/>
    <path d="M174.599 262.972C182.037 274.701 203.141 302.355 217.872 321.284C222.529 327.268 231.104 328.395 237.185 323.868L270.832 298.822C277.742 293.679 278.412 283.576 272.243 277.565L267.069 272.523L243.626 246.909L230.602 230.846L227.563 222.597L227.997 217.822L229.734 205.666L228.865 191.34L229.734 181.788L232.338 173.106L237.114 165.291L240.587 158.779L240.153 153.135L236.68 148.36L232.338 146.623L224.958 149.662L218.446 156.609C215.262 161.384 208.374 171.369 206.29 173.106C194.135 160.082 195.437 140.111 195.437 128.39C195.437 116.668 197.174 108.419 188.925 106.683C182.326 105.294 178.072 111.024 176.769 114.063C176.625 114.497 176.249 115.365 175.901 115.365C175.901 105.38 172.428 98 165.048 98C155.671 98 154.484 107.551 155.063 112.327C153.76 111.169 150.374 108.853 147.249 108.853C140.997 108.853 139.145 114.642 139 117.536L139.434 122.312V131.429H145.078L148.985 134.033L150.287 140.98L149.853 154.438L147.683 167.896L143.775 181.788L140.737 188.301C142.184 192.642 146.033 204.277 149.853 216.085C154.629 230.846 163.311 245.173 174.599 262.972Z" fill="#C05D00"/>
    <path d="M140.76 188.574C140.76 188.574 146.129 204.259 150.172 218.108C159.362 246.094 200.205 299.303 218.028 321.721C222.678 327.57 231.095 328.568 237.076 324.089L270.629 298.962C277.576 293.76 278.198 283.545 272.058 277.412C254.872 260.242 225.3 229.123 227.339 220.211C230.201 207.698 229.689 196.756 229.166 188.162C228.642 179.568 232.295 172.521 236.205 166.788C240.115 161.055 243.178 154.821 237.419 149.166C231.661 143.511 223.964 149.355 218.785 156.09C213.605 162.825 207.089 175.783 201.041 175.682" stroke="#FE7B01" stroke-width="1.5" stroke-miterlimit="10" stroke-linecap="round" stroke-linejoin="round"/>
    <path d="M205.965 173.123C205.965 173.123 199.282 163.872 197.856 158.083C196.431 152.294 194.381 138.524 195.116 128.416C195.851 118.308 197.221 106.542 187.119 106.542C177.016 106.542 175.546 117.907 175.334 123.24C175.123 128.572 179.166 161.924 177.439 166.443" stroke="#FE7B01" stroke-width="1.5" stroke-miterlimit="10" stroke-linecap="round" stroke-linejoin="round"/>
    <path d="M175.434 120.579C175.434 120.579 178.174 98.1699 165.654 98.1699C153.135 98.1699 155.017 109.536 155.229 118.375C155.44 127.214 157.022 144.145 160.709 155.111C164.396 166.076 164.808 170.885 164.808 173.512" stroke="#FE7B01" stroke-width="1.5" stroke-miterlimit="10" stroke-linecap="round" stroke-linejoin="round"/>
    <path d="M154.917 112.865C154.917 112.865 153.391 107.9 146.096 108.824C138.8 109.748 138.934 118.843 138.934 120.579" stroke="#FE7B01" stroke-width="1.5" stroke-miterlimit="10" stroke-linecap="round" stroke-linejoin="round"/>
    <path d="M147.744 166.743C147.744 166.743 153.057 174.536 153.057 179.89" stroke="#FE7B01" stroke-width="1.5" stroke-miterlimit="10" stroke-linecap="round" stroke-linejoin="round"/>
    <path d="M91.2459 287.197C94.5651 294.741 77.1374 322.288 64.4513 340.188C61.6729 344.108 56.0793 344.572 52.6059 341.252L6.17946 296.874C2.8875 293.727 2.87924 288.474 6.17106 285.327C17.6928 274.313 34.1061 258.724 37.8843 255.527C43.5241 250.755 46.1278 251.189 47.8631 252.057C46.4748 254.486 50.1766 257.118 52.201 258.13C51.1887 261.167 50.8995 268.282 57.8408 272.447C66.5175 277.653 69.5543 275.484 71.7234 275.05C74.7603 277.653 88.6429 286.763 91.2459 287.197Z" fill="#FE9B3E"/>
    <path d="M139.123 131.477C139.123 131.477 142.565 110.782 128.619 110.782C114.674 110.782 119.553 127.558 118.884 138.223C118.216 148.888 113.928 165.575 107.969 169.393" stroke="white" stroke-width="1.5" stroke-miterlimit="10" stroke-linecap="round" stroke-linejoin="round"/>
    <path d="M123.294 111.707C123.294 111.707 124.764 96.8676 112.668 96.8676C100.572 96.8676 103.256 109.502 103.501 116.404C103.746 123.306 105.239 150.124 96.5619 160.688" stroke="white" stroke-width="1.5" stroke-miterlimit="10" stroke-linecap="round" stroke-linejoin="round"/>
    <path d="M103.113 106.141C103.113 106.141 101.854 96.8676 92.8764 96.8676C83.8988 96.8676 84.2887 106.463 85.5362 115.146C86.7837 123.829 92.2193 149.801 77.7393 172.254" stroke="white" stroke-width="1.5" stroke-miterlimit="10" stroke-linecap="round" stroke-linejoin="round"/>
    <path d="M60.0838 240.916C61.719 233.593 61.8062 226.01 60.34 218.652C58.0693 208.1 57.5234 196.284 58.2125 185.513C58.736 175.16 55.0158 164.273 50.5047 158.428C45.9936 152.584 40.0234 143.957 49.803 138.58C59.5826 133.203 69.0057 147.374 73.0155 153.564C77.0254 159.753 80.9684 166.443 80.9684 166.443" stroke="white" stroke-width="1.5" stroke-miterlimit="10" stroke-linecap="round" stroke-linejoin="round"/>
    <path d="M57.9791 238.59C59.7857 241.257 61.9185 243.688 64.328 245.826C64.328 245.826 69.2847 244.713 74.4418 249.811C76.7253 251.919 78.1775 254.775 78.5351 257.861C78.8928 260.947 78.1321 264.058 76.391 266.632C73.0495 271.463 66.7674 275.727 60.5632 273.589C54.3591 271.452 50.3827 267.545 52.0423 258.216C52.0423 258.216 47.4644 255.555 47.5869 253.296C47.7095 251.036 56.4977 239.726 57.968 238.557C58.2889 238.219 58.7197 238.007 59.183 237.958C59.6463 237.909 60.1119 238.027 60.4964 238.29" stroke="white" stroke-width="1.5" stroke-miterlimit="10" stroke-linecap="round" stroke-linejoin="round"/>
    <path d="M100.79 270.712C100.79 270.712 102.756 271.352 101.33 274.202C99.9041 277.052 93.9005 286.024 91.2384 287.137C88.5763 288.251 71.8463 275.07 71.8463 275.07C71.8463 275.07 67.5803 277.942 59.8725 273.412" stroke="white" stroke-width="1.5" stroke-miterlimit="10" stroke-linecap="round" stroke-linejoin="round"/>
    <path d="M79.1732 307.913C81.4961 305.592 82.025 302.357 80.3546 300.687C78.6843 299.018 75.4472 299.547 73.1244 301.868C70.8016 304.19 70.2727 307.425 71.943 309.094C73.6133 310.764 76.8504 310.235 79.1732 307.913Z" fill="#FE7B01" stroke="white" stroke-width="1.5" stroke-miterlimit="10" stroke-linecap="round" stroke-linejoin="round"/>
    <path d="M80.3557 300.685L79.4089 299.483C77.7382 297.813 74.4969 298.37 72.1801 300.663C69.8633 302.956 69.3175 306.229 70.9883 307.887L71.9462 309.101" stroke="white" stroke-width="1.5" stroke-miterlimit="10" stroke-linecap="round" stroke-linejoin="round"/>
    <path d="M52.0415 258.25C52.0415 258.25 54.8706 248.331 64.2938 245.826" stroke="white" stroke-width="1.5" stroke-miterlimit="10" stroke-linecap="round" stroke-linejoin="round"/>
    <path d="M68.0594 246.049C68.0594 246.049 80.579 245.971 81.1916 259.886C81.1916 259.886 95.0702 270.261 99.5367 271.608C99.5367 271.608 125.478 246.405 131.37 224.586C137.263 202.767 137.519 193.939 141.952 185.624C146.385 177.308 150.027 158.261 150.116 148.632C150.206 139.002 150.707 130.82 141.963 131.132C133.219 131.444 132.941 140.839 132.707 145.003C132.473 149.166 130.891 168.669 119.14 177.809" stroke="white" stroke-width="1.5" stroke-miterlimit="10" stroke-linecap="round" stroke-linejoin="round"/>
    <path d="M71.8469 275.07C71.8469 275.07 80.5795 272.844 81.1921 259.886" stroke="white" stroke-width="1.5" stroke-miterlimit="10" stroke-linecap="round" stroke-linejoin="round"/>
    <path d="M56.5417 253.774C56.5417 253.774 60.9303 246.505 67.6802 248.765C74.4301 251.025 78.0166 255.6 75.9672 262.123C73.9177 268.647 68.0032 272.81 62.5342 271.519C57.0652 270.228 50.5938 263.092 56.5417 253.774Z" fill="#DC6D05" stroke="white" stroke-width="1.5" stroke-miterlimit="10" stroke-linecap="round" stroke-linejoin="round"/>
    <path d="M64.1965 259.935L58.6967 258.757L58.7289 260.516L63.6104 261.457" stroke="white" stroke-width="1.5" stroke-miterlimit="10" stroke-linecap="round" stroke-linejoin="round"/>
    <path d="M65.5886 262.976C64.7241 263.043 63.9619 262.297 63.8862 261.31C63.8104 260.322 64.4499 259.468 65.3145 259.401C66.179 259.334 66.9413 260.081 67.017 261.068C67.0927 262.055 66.4532 262.91 65.5886 262.976Z" stroke="white" stroke-width="1.5" stroke-miterlimit="10" stroke-linecap="round" stroke-linejoin="round"/>
    <path d="M65.7304 259.445L67.4082 253.108L69.1038 253.49L66.8172 260.23" stroke="white" stroke-width="1.5" stroke-miterlimit="10" stroke-linecap="round" stroke-linejoin="round"/>
    <path d="M141 96L139 3" stroke="white" stroke-miterlimit="10" stroke-linecap="round"/>
    <path d="M55.0231 114.546L4.52698 103" stroke="white" stroke-miterlimit="10" stroke-linecap="round"/>
    <path d="M76 80L27 17" stroke="white" stroke-miterlimit="10" stroke-linecap="round"/>
    <path d="M167.6 130.584L259.805 105.325" stroke="white" stroke-miterlimit="10" stroke-linecap="round"/>
    <path d="M157 95.93C157 95.93 166.745 94.8864 162.805 84C166.745 90.4898 167.369 91.5395 174 89.8601C169.246 94.4665 167.369 94.2566 169.027 102C165.087 96.5598 166.121 94.6764 157 95.93Z" stroke="white" stroke-linecap="round" stroke-linejoin="round"/>
    <path d="M92 74.3172C92 74.3172 96.5859 73.8539 94.7324 69C96.5859 71.8929 96.8789 72.3562 100 71.6128C97.7465 73.6653 96.8789 73.5737 97.662 77C95.8084 74.5973 96.293 73.7569 92 74.3172Z" stroke="white" stroke-linecap="round" stroke-linejoin="round"/>
    <path d="M186.183 13C186.183 13 189.539 6.51498 181 4.645C186.751 4.77086 187.67 4.80083 189.348 0C190.298 4.79484 189.398 5.87967 195 7.92347C189.885 8.21715 189.145 6.82065 186.183 13Z" fill="white"/>
    <path d="M50.1514 87C50.1514 87 49.8376 83.0222 45 84.4729C47.9114 82.9589 48.3757 82.7459 47.742 80C49.6933 82.0033 49.5741 82.7574 53 82.1875C50.5529 83.7187 49.7623 83.2697 50.1514 87Z" fill="white"/>
    <path d="M107 21C109.209 21 111 19.2091 111 17C111 14.7909 109.209 13 107 13C104.791 13 103 14.7909 103 17C103 19.2091 104.791 21 107 21Z" stroke="#FE9B3E" stroke-miterlimit="10"/>
    <path d="M188 205C190.209 205 192 203.209 192 201C192 198.791 190.209 197 188 197C185.791 197 184 198.791 184 201C184 203.209 185.791 205 188 205Z" stroke="#FE9B3E" stroke-miterlimit="10"/>
    <path d="M158 13C160.209 13 162 10.9853 162 8.5C162 6.01472 160.209 4 158 4C155.791 4 154 6.01472 154 8.5C154 10.9853 155.791 13 158 13Z" stroke="white" stroke-miterlimit="10"/>
    <path d="M178 55C180.209 55 182 52.9853 182 50.5C182 48.0147 180.209 46 178 46C175.791 46 174 48.0147 174 50.5C174 52.9853 175.791 55 178 55Z" stroke="#FE9B3E" stroke-miterlimit="10"/>
    <path d="M200.5 87C201.328 87 202 86.3284 202 85.5C202 84.6716 201.328 84 200.5 84C199.672 84 199 84.6716 199 85.5C199 86.3284 199.672 87 200.5 87Z" stroke="white" stroke-miterlimit="10"/>
    <path d="M59 12C61.2091 12 63 10.2091 63 8C63 5.79086 61.2091 4 59 4C56.7909 4 55 5.79086 55 8C55 10.2091 56.7909 12 59 12Z" stroke="white" stroke-miterlimit="10"/>
    <path d="M46.5 104C47.3284 104 48 103.328 48 102.5C48 101.672 47.3284 101 46.5 101C45.6716 101 45 101.672 45 102.5C45 103.328 45.6716 104 46.5 104Z" stroke="white" stroke-miterlimit="10"/>
    <path d="M123.5 198C125.433 198 127 196.657 127 195C127 193.343 125.433 192 123.5 192C121.567 192 120 193.343 120 195C120 196.657 121.567 198 123.5 198Z" fill="#FE9B3E"/>
    <path d="M238.5 49C240.433 49 242 47.6569 242 46C242 44.3431 240.433 43 238.5 43C236.567 43 235 44.3431 235 46C235 47.6569 236.567 49 238.5 49Z" fill="#FE9B3E"/>
    <path d="M213 62C214.105 62 215 61.3284 215 60.5C215 59.6716 214.105 59 213 59C211.895 59 211 59.6716 211 60.5C211 61.3284 211.895 62 213 62Z" fill="white"/>
</svg>
