<svg width="390" height="446" viewBox="0 0 390 446" fill="none" xmlns="http://www.w3.org/2000/svg">
    <g clip-path="url(#clip0_1_280)">
        <path d="M101.519 233.98C101.519 233.98 115.072 163.2 194.92 140.329C162.966 162.356 126.274 180.234 115.109 234.016L101.519 233.98Z" stroke="#FFCA99" stroke-miterlimit="10" stroke-linejoin="round"/>
        <path d="M197.969 163.231C193.452 159.082 199.916 139.111 204.36 149.244C208.804 159.376 197.969 163.231 197.969 163.231ZM197.969 163.231C120.178 182.467 115.11 234.01 115.11 234.01C115.11 234.01 124.402 195.72 153.601 195.72M153.601 195.72C182.8 195.72 172.737 235.552 160.286 228.76C153.601 224.502 157.678 217.527 158.596 212.497C159.515 207.468 161.351 195.72 153.601 195.72Z" stroke="#FFCA99" stroke-miterlimit="10" stroke-linejoin="round"/>
        <path d="M163.358 197.857L156.217 195.471L157.742 198.02C158.671 199.572 159.162 201.347 159.162 203.156V207.035C159.162 207.851 159.062 208.664 158.865 209.455L157.199 216.135L156.661 219.908C156.374 221.924 156.787 223.977 157.833 225.724L158.333 226.558C158.874 227.463 159.663 228.194 160.605 228.667C162.168 229.45 164.009 229.45 165.572 228.667C166.515 228.194 167.303 227.463 167.845 226.558L169.397 223.964C169.772 223.339 170.076 222.675 170.306 221.983L171.413 218.656C171.751 217.638 171.924 216.573 171.924 215.5V210.645C171.924 209.718 171.795 208.795 171.541 207.904L170.834 205.425C170.266 203.431 169.091 201.662 167.473 200.365L166.445 199.541C165.524 198.802 164.479 198.232 163.358 197.857Z" fill="#FFCA99" stroke="#FFCA99" stroke-linejoin="round"/>
        <path d="M198.552 164.3C198.552 164.3 200.718 176.268 207.623 171.422C214.528 166.576 198.552 164.3 198.552 164.3Z" stroke="#FFCA99" stroke-miterlimit="10" stroke-linejoin="round"/>
        <path d="M187.386 167.752C187.386 167.752 189.149 177.407 194.731 173.479C200.314 169.551 187.386 167.752 187.386 167.752Z" stroke="#FFCA99" stroke-miterlimit="10" stroke-linejoin="round"/>
        <path d="M183.319 166.355C183.319 166.355 191.068 160.371 185.045 157.214C179.022 154.057 183.319 166.355 183.319 166.355Z" stroke="#FFCA99" stroke-miterlimit="10" stroke-linejoin="round"/>
        <path d="M158.744 203.324C158.744 203.324 133.364 202.406 131.675 234.639" stroke="#FFCA99" stroke-miterlimit="10" stroke-linejoin="round"/>
        <path d="M100.912 182.624C69.5743 124.809 22.8904 124.256 22.8904 124.256C22.8904 124.256 28.5127 106.672 18.2819 106.258C8.05114 105.844 22.8904 124.256 22.8904 124.256" stroke="#FFCA99" stroke-miterlimit="10" stroke-linejoin="round"/>
        <path d="M94.737 231.689C94.737 231.689 99.094 153.576 47.2489 187.593" stroke="#FFCA99" stroke-miterlimit="10" stroke-linejoin="round"/>
        <path d="M113.017 204.326C113.017 204.326 101.275 161.496 65.7433 174.568C30.2121 187.641 42.0095 222.395 56.8026 204.857C63.9221 195.827 71.2927 188.422 80.6219 181.694" stroke="#FFCA99" stroke-miterlimit="10" stroke-linejoin="round"/>
        <path d="M103.58 185.797C103.58 185.797 102.105 150.86 78.4178 130.928C95.6995 139.26 113.715 161.968 119.89 193.499" stroke="#FFCA99" stroke-miterlimit="10" stroke-linejoin="round"/>
        <path d="M35.3287 126.885C35.3287 126.885 36.711 141.845 27.0332 141.247C17.3555 140.648 28.4621 127.115 35.3287 126.885Z" stroke="#FFCA99" stroke-miterlimit="10" stroke-linejoin="round"/>
        <path d="M39.019 126.282C39.019 126.282 26.6223 117.766 33.2585 110.724C39.8946 103.681 43.2588 120.804 39.019 126.282Z" stroke="#FFCA99" stroke-miterlimit="10" stroke-linejoin="round"/>
        <path d="M62.2504 137.288C62.2504 137.288 53.4482 125.09 62.2504 120.717C71.0525 116.344 68.057 133.606 62.2504 137.288Z" stroke="#FFCA99" stroke-miterlimit="10" stroke-linejoin="round"/>
        <path d="M55.4186 135.657C55.4186 135.657 52.4231 150.387 43.2983 147.027C34.1736 143.667 48.7363 133.908 55.4186 135.657Z" stroke="#FFCA99" stroke-miterlimit="10" stroke-linejoin="round"/>
        <path d="M22.7299 124.067C22.7299 124.067 18.1215 138.428 9.54979 134.193C0.978067 129.959 16.232 121.673 22.7299 124.067Z" stroke="#FFCA99" stroke-miterlimit="10" stroke-linejoin="round"/>
        <path d="M60.0106 180.712L47.2487 186.616L43.322 194.488L42.3403 200.392L43.322 206.296L46.2671 209.248H50.1938L56.0839 206.296L65.9007 194.488L79.6442 182.68L78.6625 180.712L70.8091 178.744L60.0106 180.712Z" fill="#FFCA99" stroke="#FFCA99" stroke-linejoin="round"/>
        <circle cx="227" cy="315" r="70" stroke="#F7F7F7" stroke-width="12"/>
        <path d="M350.5 420.5L303 374L299.5 373.5L294.5 375.5L289.5 380L284.5 387V391.5L326.5 434L332 439.5L335.5 441L340.5 439.5L346 435.5L350 430.5L352 425L350.5 420.5Z" fill="#FFCA99"/>
        <path d="M187 224L38 231.5L161 269L187 224Z" fill="white"/>
        <path d="M272.5 374L285 386.5L288 382L292.5 376.5L297.5 374L286 362H281L276.5 366L272.5 370V374Z" fill="#F7F7F7"/>
        <path d="M191 224L-3 233.5L-4 257.5L180 251L188.5 250L195.5 246.5L201 241L223 200.5L253 145L251.5 143.5L216 196L199.5 219.5L195 223L191 224Z" fill="#F7F7F7"/>
        <path d="M237.5 369L218 299L225 294.5L235 327L233.5 329.5L231 330L241 364V369L240.5 370.5L238.5 371L237.5 369Z" fill="#F7F7F7"/>
        <path d="M186.5 265L178.5 273.5H186L196 273L204 270L210 265.5L217.5 258L219.5 251.5L209.5 253.5L195.5 259L186.5 265Z" fill="#1F1E1D"/>
        <path d="M191 309H163L164 304L165.5 298L168.5 288L173 280.5L178 273.5L191.5 274L202.5 271L209 266L215.5 260.5L220 251.5H224H233.5L242.5 253L253 256.5L243 274.5L234.5 286.5L228 292.5L219 298L205 304L192 306L191 309Z" fill="#FFCA99"/>
        <path d="M252.987 145.584L201.491 240.504C200.44 242.44 197.591 245.088 196 246.583M-108.923 232.879L-107.587 237.359C-107.587 237.359 -113.129 245.189 -115.181 260.35L-119.562 258.554L-113.209 236.178L-108.952 232.894C-108.952 232.894 -109.668 226.032 -110.515 216.765C-111.362 207.498 -105.966 207.498 -105.966 207.498H-73.8354C-73.8354 207.498 -67.8694 205.211 -58.2084 205.211C-20.9958 205.211 -6.08446 234.243 -6.08446 234.243L190.947 224.478C192.601 224.397 194.214 223.935 195.661 223.128C197.108 222.32 198.351 221.189 199.293 219.822L251.687 144.015L252.345 141.105C252.345 141.105 258.172 142.27 266.752 140.782C275.332 139.294 277.107 135.181 277.107 135.181L285.935 175.504C285.935 175.504 285.483 176.691 282.007 179.169C278.531 181.647 266.467 182.747 263.999 181.552C260.523 178.062 259.311 181.486 259.311 181.486C259.311 181.486 241.215 216.485 228.291 240.068M160.5 279.545L-67.0953 287.66C-75.5514 287.66 -82.0797 280.35 -78.1291 270.343C-74.1786 260.335 -65.2332 260.629 -65.2332 260.629L184.287 251.215C185.464 251.17 186.631 251.023 187.775 250.778" stroke="#FFCA99" stroke-width="1.5" stroke-miterlimit="10" stroke-linecap="round" stroke-linejoin="round"/>
        <path d="M262.445 158.547L221.808 240.068M-78.1426 270.358L-71.4171 275.248L-48.9479 274.104L-44.6322 278.056L165 271.934" stroke="#FFCA99" stroke-width="1.5" stroke-miterlimit="10" stroke-linecap="round" stroke-linejoin="round"/>
        <path d="M14.6758 276.267L28.1486 261.92L125.321 258.613L138.582 272.653L127.27 277.814L28.2508 281.223L14.6758 276.267Z" stroke="#FFCA99" stroke-width="1.5" stroke-miterlimit="10" stroke-linecap="round" stroke-linejoin="round"/>
        <path d="M182.178 251.267L178.262 257.609" stroke="#FFCA99" stroke-width="1.5" stroke-miterlimit="10" stroke-linecap="round" stroke-linejoin="round"/>
        <path d="M277.085 135.218L268.519 101.413C268.519 101.413 259.42 106.926 248.803 106.361C246.911 106.361 243.421 106.926 243.647 110.76C243.874 114.594 247.7 134.162 249.387 137.329C251.074 140.496 252.308 141.134 252.308 141.134" stroke="#FFCA99" stroke-width="1.5" stroke-miterlimit="10" stroke-linecap="round" stroke-linejoin="round"/>
        <path d="M268.521 101.39L213.52 -145.539C213.52 -145.539 219.033 -146.272 218.726 -151.844C218.419 -157.416 212.453 -172.438 214.447 -174.747C216.44 -177.057 263.592 -200.561 270.478 -207.944C277.364 -215.327 275.472 -219.447 262.883 -217.189C250.294 -214.931 245.986 -213.692 245.986 -213.692" stroke="#FFCA99" stroke-width="1.5" stroke-miterlimit="10" stroke-linecap="round" stroke-linejoin="round"/>
        <path d="M225.188 -208.625L186.837 -197.313C186.837 -197.313 181.301 -196.726 183.149 -188.515C184.996 -180.304 248.811 106.354 248.811 106.354" stroke="#FFCA99" stroke-width="1.5" stroke-miterlimit="10" stroke-linecap="round" stroke-linejoin="round"/>
        <path d="M263.979 181.553L265.877 191.237L276.546 196.369L277.546 201.135C277.546 201.135 274.961 201.721 274.881 206.157C276.458 205.988 281.373 212.755 283.242 221.773C285.111 230.79 294.772 270.212 294.772 270.212C294.772 270.212 295.503 275.065 303.835 272.858C312.166 270.651 305.813 252.213 305.813 252.213C305.813 252.213 298.336 220.849 298.336 214.002C298.336 207.154 293.955 197.872 293.955 197.872L291.64 186.391C291.64 186.391 290.435 183.518 287.901 182.858C286.579 178.217 285.944 175.526 285.944 175.526" stroke="#FFCA99" stroke-width="1.5" stroke-miterlimit="10" stroke-linecap="round" stroke-linejoin="round"/>
        <path d="M277.545 201.106C277.545 201.106 287.644 204.214 293.924 197.88" stroke="#FFCA99" stroke-width="1.5" stroke-miterlimit="10" stroke-linecap="round" stroke-linejoin="round"/>
        <path d="M25.1699 257.272L37.9855 232.11" stroke="#FFCA99" stroke-width="1.5" stroke-miterlimit="10" stroke-linecap="round" stroke-linejoin="round"/>
        <path d="M298.926 218.532C298.926 218.532 312.18 217.374 317.847 220.556C323.513 223.738 331.969 217.279 332.064 215.16C332.159 213.041 333.123 212.073 323.805 207.829C314.488 203.584 306.419 201.846 296.057 202.814" stroke="#FFCA99" stroke-width="1.5" stroke-miterlimit="10" stroke-linecap="round" stroke-linejoin="round"/>
        <path d="M274.88 206.127C274.88 206.127 247.512 215.981 239.805 241.07M298.394 216.611C296.378 223.114 283.234 221.743 283.234 221.743C277.473 222.043 268.71 227.85 261.327 234.39C257.548 237.737 255.57 241.283 253.8 244.857" stroke="#FFCA99" stroke-width="1.5" stroke-miterlimit="10" stroke-linecap="round" stroke-linejoin="round"/>
        <path d="M328.362 219.038C335.379 224.266 340.947 231.211 344.535 239.21C348.123 247.209 349.612 255.997 348.86 264.738C348.108 273.478 345.14 281.88 340.239 289.143C335.339 296.407 328.668 302.29 320.862 306.232C315.058 309.164 308.771 310.95 302.34 311.518" stroke="#FFCA99" stroke-width="1.5" stroke-miterlimit="10" stroke-linecap="round" stroke-linejoin="round"/>
        <path d="M300.994 230.526C309.455 231.137 317.396 234.854 323.301 240.968C329.207 247.083 332.662 255.166 333.009 263.676C333.356 272.185 330.57 280.525 325.182 287.104C319.795 293.682 312.183 298.038 303.8 299.341C302.777 299.5 301.751 299.612 300.725 299.678M285.754 232.894C277.873 236.044 271.422 241.998 267.635 249.618C267.346 250.198 267.075 250.785 266.82 251.378" stroke="#FFCA99" stroke-width="1.5" stroke-miterlimit="10" stroke-linecap="round" stroke-linejoin="round"/>
        <path d="M304.674 247.176C308.709 248.187 312.279 250.554 314.788 253.884C317.298 257.214 318.597 261.306 318.469 265.48C318.34 269.654 316.793 273.658 314.084 276.826C311.375 279.995 307.667 282.137 303.577 282.896C300.53 283.462 297.408 283.235 294.5 282.261M289.828 249.933C286.42 252.326 283.93 255.818 282.772 259.829C282.366 261.237 282.133 262.679 282.07 264.124" stroke="#FFCA99" stroke-width="1.5" stroke-miterlimit="10" stroke-linecap="round" stroke-linejoin="round"/>
        <path d="M286.157 363.081C296.361 350.135 302.453 333.772 302.453 315.981C302.453 274.029 268.58 240.021 226.794 240.021C185.009 240.021 151.135 274.029 151.135 315.981C151.135 357.933 185.009 391.942 226.794 391.942C244.272 391.942 260.367 385.992 273.176 375.999" stroke="#FE7B01" stroke-width="1.5" stroke-miterlimit="10" stroke-linecap="round" stroke-linejoin="round"/>
        <path d="M226.795 380.226C262.136 380.226 290.785 351.463 290.785 315.981C290.785 280.499 262.136 251.736 226.795 251.736C191.454 251.736 162.805 280.499 162.805 315.981C162.805 351.463 191.454 380.226 226.795 380.226Z" stroke="#FE7B01" stroke-width="1.5" stroke-miterlimit="10" stroke-linecap="round" stroke-linejoin="round"/>
        <path d="M285.133 387.704L272.478 374.999C272.478 374.999 271.288 371.333 277.064 366.106C282.84 360.879 285.469 362.543 285.469 362.543L297.693 374.955" stroke="#FE7B01" stroke-width="1.5" stroke-miterlimit="10" stroke-linecap="round" stroke-linejoin="round"/>
        <path d="M332.014 440.454L285.484 393.724C285.484 393.724 280.985 389.904 290.354 379.794C295.276 374.765 300.884 373.13 303.623 375.395C306.361 377.661 350.445 422.038 350.445 422.038" stroke="#FE7B01" stroke-width="1.5" stroke-miterlimit="10" stroke-linecap="round" stroke-linejoin="round"/>
        <path d="M346.307 436.337C351.397 431.226 353.143 424.692 350.205 421.743C347.268 418.794 340.76 420.547 335.67 425.657C330.58 430.768 328.834 437.302 331.772 440.251C334.709 443.2 341.216 441.447 346.307 436.337Z" stroke="#FE7B01" stroke-width="1.5" stroke-miterlimit="10" stroke-linecap="round" stroke-linejoin="round"/>
        <path d="M343.683 433.703C347.193 430.178 348.832 426.11 347.344 424.615C345.855 423.12 341.802 424.766 338.292 428.291C334.781 431.815 333.142 435.884 334.631 437.378C336.12 438.873 340.172 437.227 343.683 433.703Z" stroke="#FE7B01" stroke-width="1.5" stroke-miterlimit="10" stroke-linecap="round" stroke-linejoin="round"/>
        <path d="M163.016 310.028C163.016 310.028 189.895 309.581 191.13 309.493C191.305 308.254 191.575 306.92 191.575 306.92C191.575 306.92 224.056 303.76 237.404 282.895C250.753 262.029 252.681 257.33 252.681 257.33" stroke="#FE7B01" stroke-width="1.5" stroke-miterlimit="10" stroke-linecap="round" stroke-linejoin="round"/>
        <path d="M191.129 309.493L186.448 308.635L172.852 298.371L189.267 274.361L189.997 277.345C189.997 277.345 211.751 277.711 220.003 252C220.003 252 211.568 274.361 189.296 274.361H178.051" stroke="#FE7B01" stroke-width="1.5" stroke-miterlimit="10" stroke-linecap="round" stroke-linejoin="round"/>
        <path d="M189.97 277.33L174.941 298.357L187.231 307.103L191.576 306.92" stroke="#FE7B01" stroke-width="1.5" stroke-miterlimit="10" stroke-linecap="round" stroke-linejoin="round"/>
        <path d="M174.941 298.357C174.941 298.357 202.201 300.425 215.564 289.875C228.927 279.325 242.641 253.745 242.641 253.745" stroke="#FE7B01" stroke-width="1.5" stroke-miterlimit="10" stroke-linecap="round" stroke-linejoin="round"/>
        <path d="M172.853 298.357H165.375" stroke="#FE7B01" stroke-width="1.5" stroke-miterlimit="10" stroke-linecap="round" stroke-linejoin="round"/>
        <path d="M217.746 299.251L237.535 370.08" stroke="#FE7B01" stroke-width="1.5" stroke-miterlimit="10" stroke-linecap="round" stroke-linejoin="round"/>
        <path d="M231.131 330.439C231.131 330.439 233.234 331.399 234.184 329.706C235.133 328.012 234.184 325.167 234.184 325.167L225.209 294.991" stroke="#FE7B01" stroke-width="1.5" stroke-miterlimit="10" stroke-linecap="round" stroke-linejoin="round"/>
        <path d="M225.977 313.115L225.554 299.962L224.539 296.399L222.969 303.071" stroke="#FE7B01" stroke-width="1.5" stroke-linecap="round" stroke-linejoin="round"/>
        <path d="M224.537 296.399L223.479 296.223" stroke="#FE7B01" stroke-width="1.5" stroke-linecap="round" stroke-linejoin="round"/>
        <path d="M239.434 371.869C240.482 371.869 241.332 371.016 241.332 369.963C241.332 368.91 240.482 368.057 239.434 368.057C238.385 368.057 237.535 368.91 237.535 369.963C237.535 371.016 238.385 371.869 239.434 371.869Z" stroke="#FE7B01" stroke-width="1.5" stroke-linecap="round" stroke-linejoin="round"/>
        <path d="M241.332 369.962V369.632C241.497 367.327 241.249 365.01 240.602 362.792L221.295 297.447" stroke="#FE7B01" stroke-width="1.5" stroke-miterlimit="10" stroke-linecap="round" stroke-linejoin="round"/>
    </g>
    <defs>
        <clipPath id="clip0_1_280">
            <rect width="390" height="446" fill="white"/>
        </clipPath>
    </defs>
</svg>
