<svg width="348" height="220" viewBox="0 0 348 220" fill="none" xmlns="http://www.w3.org/2000/svg">
    <path d="M6 185.5L5.5 184.5L6 186.5L8 190L171 202.5L220.5 146L344 160L346 156.5L218.5 141L170 198L6 185.5Z" fill="#FFCA99"/>
    <path d="M19.5 95L150.5 121L192 63.5L239 68.5L346 156L218.5 141L170 198L5.5 185L19.5 95Z" fill="#FFCA99" fill-opacity="0.16"/>
    <mask id="mask0_1_279" style="mask-type:alpha" maskUnits="userSpaceOnUse" x="5" y="63" width="341" height="135">
        <path d="M19.5 95L150.5 121L192 63.5L239 68.5L346 156L218.5 141L170 198L5.5 185L19.5 95Z" fill="#FFCA99"/>
    </mask>
    <g mask="url(#mask0_1_279)">
        <circle cx="24" cy="101" r="10" fill="#FFCA99" fill-opacity="0.5"/>
        <circle cx="77" cy="139" r="5" fill="#FFCA99" fill-opacity="0.5"/>
        <circle cx="50" cy="178" r="16" fill="#FFCA99" fill-opacity="0.5"/>
        <circle cx="173" cy="101" r="16" fill="#FFCA99" fill-opacity="0.5"/>
        <circle cx="252" cy="133" r="16" fill="#FFCA99" fill-opacity="0.5"/>
        <circle cx="218" cy="101" r="5" fill="#FFCA99" fill-opacity="0.5"/>
        <circle cx="308" cy="134" r="13" fill="#FFCA99" fill-opacity="0.5"/>
        <circle cx="239" cy="72" r="8" fill="#FFCA99" fill-opacity="0.5"/>
        <circle cx="167" cy="174" r="8" fill="#FFCA99" fill-opacity="0.5"/>
    </g>
    <path d="M300.286 118.511L346.611 156.31L218.31 141.08L170.041 198.05L5.38867 184.946L19.7489 94.7704L150.795 120.97L192.04 63.3877L239.08 68.5703L282.527 104.018" stroke="#FE7B01" stroke-width="1.5" stroke-linecap="round" stroke-linejoin="round"/>
    <path d="M5.38867 184.946L7.87798 189.896L171.06 202.597L220.597 145.875L343.67 159.933L346.611 156.31" stroke="#FE7B01" stroke-width="1.5" stroke-miterlimit="10" stroke-linecap="round" stroke-linejoin="round"/>
    <path d="M150.795 120.971L170.04 198.05" stroke="#FE7B01" stroke-width="1.5" stroke-miterlimit="10" stroke-linecap="round" stroke-linejoin="round"/>
    <path d="M192.041 63.3877L218.311 141.08" stroke="#FE7B01" stroke-width="1.5" stroke-miterlimit="10" stroke-linecap="round" stroke-linejoin="round"/>
    <path d="M180.715 115.803C180.715 116.301 180.652 116.796 180.528 117.278C180.166 118.711 179.292 119.963 178.069 120.798C176.847 121.634 175.36 121.995 173.889 121.813C172.419 121.631 171.065 120.92 170.084 119.812C169.102 118.705 168.561 117.278 168.561 115.8C168.561 114.321 169.102 112.894 170.084 111.787C171.065 110.679 172.419 109.968 173.889 109.786C175.36 109.605 176.847 109.965 178.069 110.801C179.292 111.636 180.166 112.888 180.528 114.322C180.653 114.806 180.715 115.304 180.715 115.803V115.803Z" fill="#4671F5"/>
    <path d="M174.981 112.537C176.389 112.537 177.439 113.313 177.439 114.733C177.44 115.054 177.373 115.371 177.242 115.665C177.111 115.958 176.92 116.22 176.681 116.435C176.441 116.65 176.159 116.811 175.853 116.91C175.547 117.008 175.223 117.041 174.903 117.006H173.658V119.062H172.305V112.537H174.981ZM174.981 115.78C175.121 115.792 175.263 115.775 175.397 115.73C175.531 115.685 175.654 115.612 175.758 115.517C175.862 115.422 175.945 115.306 176.002 115.177C176.059 115.048 176.089 114.909 176.089 114.768C176.089 114.627 176.059 114.487 176.002 114.358C175.945 114.229 175.862 114.113 175.758 114.018C175.654 113.923 175.531 113.85 175.397 113.805C175.263 113.76 175.121 113.743 174.981 113.755H173.658V115.757L174.981 115.78Z" fill="white"/>
    <path d="M145.024 162.548C145.026 163.252 144.937 163.953 144.759 164.635C144.25 166.654 143.018 168.417 141.296 169.593C139.574 170.769 137.48 171.277 135.409 171.021C133.338 170.765 131.431 169.763 130.049 168.203C128.667 166.643 127.904 164.633 127.904 162.552C127.904 160.47 128.667 158.46 130.049 156.9C131.431 155.341 133.338 154.338 135.409 154.082C137.48 153.826 139.574 154.334 141.296 155.51C143.018 156.687 144.25 158.45 144.759 160.469C144.936 161.148 145.025 161.846 145.024 162.548V162.548Z" fill="#4671F5"/>
    <path d="M136.933 157.955C138.917 157.955 140.395 159.057 140.395 161.058C140.395 163.06 138.917 164.255 136.824 164.255H135.066V167.157H133.152V157.955H136.933ZM136.933 162.525C137.13 162.539 137.329 162.513 137.515 162.448C137.702 162.382 137.873 162.279 138.018 162.145C138.163 162.011 138.279 161.848 138.358 161.667C138.437 161.486 138.478 161.291 138.478 161.093C138.478 160.896 138.437 160.701 138.358 160.52C138.279 160.339 138.163 160.176 138.018 160.042C137.873 159.907 137.702 159.804 137.515 159.739C137.329 159.674 137.13 159.647 136.933 159.662H135.066V162.525H136.933Z" fill="white"/>
    <path d="M96.9957 99.6657C96.9929 100.189 96.9276 100.71 96.8012 101.217C96.4217 102.72 95.5046 104.033 94.2224 104.909C92.9402 105.784 91.3813 106.162 89.8392 105.971C88.297 105.781 86.8779 105.035 85.8489 103.873C84.8199 102.712 84.252 101.215 84.252 99.6657C84.252 98.1158 84.8199 96.6194 85.8489 95.4581C86.8779 94.2967 88.297 93.5505 89.8392 93.3598C91.3813 93.1691 92.9402 93.5472 94.2224 94.4227C95.5046 95.2983 96.4217 96.6111 96.8012 98.114C96.9286 98.6215 96.9939 99.1425 96.9957 99.6657V99.6657Z" fill="#4671F5"/>
    <path d="M90.982 96.2451C92.4601 96.2451 93.5569 97.021 93.5569 98.5726C93.5569 100.124 92.4601 100.947 90.9043 100.947H89.5896V103.111H88.166V96.2451H90.982ZM90.982 99.6433C91.2647 99.6433 91.5358 99.5313 91.7356 99.332C91.9355 99.1326 92.0478 98.8623 92.0478 98.5804C92.0478 98.2985 91.9355 98.0281 91.7356 97.8288C91.5358 97.6295 91.2647 97.5175 90.982 97.5175H89.5896V99.6433H90.982Z" fill="white"/>
    <path d="M302.736 110.97C302.739 111.894 302.624 112.814 302.394 113.709C301.696 116.453 299.976 118.829 297.583 120.352C295.19 121.875 292.306 122.431 289.516 121.907C286.727 121.383 284.242 119.818 282.569 117.531C280.896 115.244 280.16 112.407 280.511 109.598C280.863 106.789 282.274 104.219 284.459 102.411C286.644 100.604 289.437 99.695 292.27 99.8699C295.103 100.045 297.763 101.29 299.708 103.353C301.652 105.415 302.735 108.139 302.736 110.97V110.97Z" fill="#4671F5"/>
    <path d="M292.158 104.949C294.764 104.949 296.694 106.392 296.694 109.007C296.694 111.621 294.764 113.196 292.026 113.196H289.692V116.998H287.195V104.949H292.158ZM292.158 110.939C292.415 110.955 292.673 110.919 292.915 110.832C293.157 110.746 293.379 110.61 293.567 110.435C293.755 110.259 293.904 110.047 294.007 109.811C294.109 109.576 294.162 109.322 294.162 109.065C294.162 108.808 294.109 108.554 294.007 108.319C293.904 108.083 293.755 107.871 293.567 107.695C293.379 107.52 293.157 107.385 292.915 107.298C292.673 107.211 292.415 107.175 292.158 107.191H289.716V110.939H292.158Z" fill="white"/>
    <path d="M59.515 126.541C59.5161 127.109 59.4456 127.675 59.305 128.225C58.8752 129.921 57.8132 131.39 56.3352 132.332C54.8572 133.275 53.0746 133.62 51.3506 133.297C49.6265 132.974 48.0908 132.007 47.0564 130.594C46.0219 129.181 45.5666 127.428 45.7832 125.692C45.9998 123.956 46.872 122.368 48.2221 121.251C49.5722 120.134 51.2985 119.572 53.0493 119.68C54.8001 119.788 56.4437 120.558 57.645 121.833C58.8464 123.108 59.5152 124.792 59.515 126.541V126.541Z" fill="#4671F5"/>
    <path d="M52.9966 122.833C54.6069 122.833 55.7971 123.725 55.7971 125.331C55.7971 126.937 54.6069 127.915 52.9188 127.915H51.4953V130.242H49.9395V122.833H52.9966ZM52.9966 126.526C53.3061 126.526 53.6029 126.403 53.8217 126.185C54.0406 125.967 54.1635 125.671 54.1635 125.362C54.1635 125.054 54.0406 124.758 53.8217 124.539C53.6029 124.321 53.3061 124.198 52.9966 124.198H51.4953V126.526H52.9966Z" fill="white"/>
    <path d="M104.106 143.687C104.109 144.019 104.07 144.35 103.989 144.672C103.748 145.624 103.167 146.456 102.354 147.01C101.541 147.565 100.554 147.804 99.5767 147.683C98.5996 147.562 97.7006 147.089 97.0487 146.353C96.3969 145.617 96.0371 144.669 96.0371 143.687C96.0371 142.705 96.3969 141.757 97.0487 141.021C97.7006 140.285 98.5996 139.812 99.5767 139.691C100.554 139.57 101.541 139.809 102.354 140.363C103.167 140.918 103.748 141.749 103.989 142.701C104.071 143.023 104.11 143.355 104.106 143.687V143.687Z" fill="#4671F5"/>
    <path d="M100.293 141.499C100.499 141.474 100.709 141.493 100.907 141.555C101.105 141.616 101.288 141.72 101.442 141.858C101.597 141.996 101.721 142.166 101.804 142.356C101.888 142.545 101.929 142.751 101.927 142.958C101.927 143.173 101.883 143.385 101.798 143.582C101.712 143.779 101.586 143.956 101.428 144.101C101.27 144.247 101.083 144.359 100.88 144.429C100.677 144.499 100.461 144.527 100.246 144.51H99.4141V145.883H98.5117V141.538L100.293 141.499ZM100.293 143.656C100.387 143.667 100.481 143.658 100.571 143.63C100.661 143.601 100.743 143.553 100.812 143.49C100.882 143.427 100.937 143.349 100.973 143.263C101.01 143.176 101.027 143.083 101.024 142.989C101.027 142.895 101.009 142.801 100.973 142.714C100.937 142.626 100.882 142.548 100.813 142.483C100.744 142.419 100.662 142.37 100.572 142.339C100.482 142.309 100.387 142.297 100.293 142.306H99.4141V143.687L100.293 143.656Z" fill="white"/>
    <path d="M207 132.953C207.005 133.701 206.909 134.446 206.715 135.168C206.194 137.31 204.909 139.183 203.107 140.429C201.305 141.676 199.111 142.209 196.944 141.926C194.757 141.716 192.726 140.691 191.247 139.05C189.799 137.395 189 135.262 189 133.054C189 130.845 189.799 128.713 191.247 127.058C192.324 125.824 193.715 124.911 195.269 124.417C196.823 123.923 198.481 123.867 200.064 124.255C201.648 124.642 203.096 125.459 204.253 126.617C205.41 127.775 206.232 129.23 206.629 130.825C206.843 131.515 206.968 132.231 207 132.953V132.953Z" fill="#4671F5"/>
    <path d="M198.658 128.026C199.08 127.967 199.509 128.01 199.915 128.152C200.322 128.294 200.696 128.533 201.013 128.851C201.33 129.169 201.582 129.559 201.752 129.995C201.922 130.432 202.007 130.904 202 131.38C202.002 131.87 201.912 132.355 201.735 132.803C201.558 133.251 201.298 133.653 200.973 133.981C200.647 134.309 200.263 134.556 199.846 134.706C199.429 134.856 198.988 134.906 198.552 134.852H196.868V138H195V128.026H198.658ZM198.658 132.969C198.849 132.994 199.043 132.973 199.226 132.907C199.41 132.842 199.578 132.732 199.721 132.587C199.863 132.442 199.975 132.264 200.051 132.066C200.126 131.868 200.163 131.654 200.158 131.439C200.162 131.222 200.126 131.007 200.051 130.808C199.975 130.608 199.863 130.429 199.721 130.282C199.58 130.134 199.412 130.022 199.228 129.953C199.045 129.883 198.85 129.858 198.658 129.879H196.868V132.822L198.658 132.969Z" fill="white"/>
    <path d="M136.357 171.284V180.517" stroke="#FE7B01" stroke-width="1.5" stroke-linecap="round" stroke-linejoin="round"/>
    <path d="M136.389 171.168C141.17 171.168 145.047 167.302 145.047 162.533C145.047 157.764 141.17 153.897 136.389 153.897C131.607 153.897 127.73 157.764 127.73 162.533C127.73 167.302 131.607 171.168 136.389 171.168Z" stroke="#FE7B01" stroke-width="1.5" stroke-linecap="round" stroke-linejoin="round"/>
    <path d="M100.045 148.078V152.725" stroke="#FE7B01" stroke-width="1.5" stroke-linecap="round" stroke-linejoin="round"/>
    <path d="M100.061 148.024C102.472 148.024 104.425 146.076 104.425 143.672C104.425 141.268 102.472 139.319 100.061 139.319C97.6511 139.319 95.6973 141.268 95.6973 143.672C95.6973 146.076 97.6511 148.024 100.061 148.024Z" stroke="#FE7B01" stroke-width="1.5" stroke-linecap="round" stroke-linejoin="round"/>
    <path d="M174.654 121.917V128.364" stroke="#FE7B01" stroke-width="1.5" stroke-linecap="round" stroke-linejoin="round"/>
    <path d="M174.677 121.84C178.02 121.84 180.729 119.137 180.729 115.804C180.729 112.47 178.02 109.768 174.677 109.768C171.335 109.768 168.625 112.47 168.625 115.804C168.625 119.137 171.335 121.84 174.677 121.84Z" stroke="#FE7B01" stroke-width="1.5" stroke-linecap="round" stroke-linejoin="round"/>
    <path d="M198 142V151" stroke="#FE7B01" stroke-width="1.5" stroke-linecap="round" stroke-linejoin="round"/>
    <path d="M198 142C202.971 142 207 137.971 207 133C207 128.029 202.971 124 198 124C193.029 124 189 128.029 189 133C189 137.971 193.029 142 198 142Z" stroke="#FE7B01" stroke-width="1.5" stroke-linecap="round" stroke-linejoin="round"/>
    <path d="M52.5996 133.647V141.212" stroke="#FE7B01" stroke-width="1.5" stroke-linecap="round" stroke-linejoin="round"/>
    <path d="M52.6238 133.547C56.542 133.547 59.7184 130.379 59.7184 126.471C59.7184 122.563 56.542 119.396 52.6238 119.396C48.7056 119.396 45.5293 122.563 45.5293 126.471C45.5293 130.379 48.7056 133.547 52.6238 133.547Z" stroke="#FE7B01" stroke-width="1.5" stroke-linecap="round" stroke-linejoin="round"/>
    <path d="M90.6641 106.369V113.321" stroke="#FE7B01" stroke-width="1.5" stroke-linecap="round" stroke-linejoin="round"/>
    <path d="M90.679 106.284C94.2836 106.284 97.2057 103.37 97.2057 99.7749C97.2057 96.1799 94.2836 93.2656 90.679 93.2656C87.0744 93.2656 84.1523 96.1799 84.1523 99.7749C84.1523 103.37 87.0744 106.284 90.679 106.284Z" stroke="#FE7B01" stroke-width="1.5" stroke-linecap="round" stroke-linejoin="round"/>
    <path d="M291.621 122.499V134.687" stroke="#FE7B01" stroke-width="1.5" stroke-linecap="round" stroke-linejoin="round"/>
    <path d="M291.66 122.344C297.971 122.344 303.087 117.241 303.087 110.947C303.087 104.652 297.971 99.5498 291.66 99.5498C285.349 99.5498 280.232 104.652 280.232 110.947C280.232 117.241 285.349 122.344 291.66 122.344Z" stroke="#FE7B01" stroke-width="1.5" stroke-linecap="round" stroke-linejoin="round"/>
    <g clip-path="url(#clip0_1_279)">
        <path d="M235.882 59.351C235.755 57.8025 235.644 56.5018 235.611 56.1353V56.0424C235.352 53.9725 234.851 51.9353 234.117 49.9671C234.002 49.6695 234.016 49.3418 234.156 49.0535C234.295 48.763 234.548 48.5337 234.864 48.4135C236.867 47.665 237.874 45.8327 236.043 44.0932C234.51 42.6428 232.673 43.8248 231.738 44.6455C231.537 44.818 231.283 44.928 231.013 44.9603C230.743 44.9944 230.469 44.9512 230.227 44.8365L226.807 43.1692H226.774C226.771 43.1556 226.771 43.1416 226.774 43.128C226.771 43.1143 226.771 43.1003 226.774 43.0867L226.807 43.0609C227.36 42.8905 228.805 42.3331 227.621 41.7033C226.619 41.1872 225.346 41.7756 224.666 42.1885C224.649 42.1933 224.632 42.1933 224.616 42.1885C224.6 42.1941 224.582 42.1941 224.566 42.1885C224.56 42.1735 224.56 42.1571 224.566 42.1421C224.561 42.1269 224.561 42.1108 224.566 42.0956C225.003 41.5072 225.529 40.4749 224.195 40.1084C222.629 39.6851 221.008 41.4711 220.477 42.1266L220.432 42.1524C220.416 42.1575 220.399 42.1575 220.383 42.1524C220.37 42.1548 220.357 42.1548 220.344 42.1524C220.339 42.1372 220.339 42.1211 220.344 42.1059C220.377 41.6775 220.344 40.9136 219.613 40.9446C218.363 41.0065 217.987 42.1834 217.782 43.1228C217.736 43.3427 217.636 43.5496 217.489 43.7267C217.341 43.9082 217.152 44.0564 216.935 44.1603C216.482 44.3913 216.054 44.6627 215.657 44.9707C215.391 45.166 215.055 45.2583 214.718 45.2285C214.381 45.1987 214.069 45.0491 213.847 44.8107C212.425 43.2622 210.323 43.2622 209.365 45.0016C208.408 46.7411 209.52 47.6599 211.158 48.4857C211.439 48.6342 211.652 48.8747 211.754 49.1608C211.856 49.4468 211.841 49.758 211.711 50.0342C210.837 52.0628 210.538 55.6398 210.455 58.809V59.1445C210.451 59.3994 210.46 59.6544 210.483 59.9085C210.599 61.6015 210.738 63.2893 210.809 64.9927C211.031 69.8911 211.479 75.1353 212.425 76.3741C214.307 78.8207 215.795 78.1394 217.024 77.4064C217.771 76.9522 217.826 75.7289 217.754 74.8256C217.738 74.5352 217.843 74.2504 218.047 74.0307C218.251 73.8128 218.536 73.6746 218.844 73.6436L228.55 72.4151C228.856 72.373 229.168 72.4349 229.429 72.5893C229.69 72.7437 229.883 72.9805 229.972 73.2564C230.31 74.4178 231.228 76.1934 233.663 76.1934C237.288 76.1934 236.574 69.2407 236.43 66.9025C236.38 65.4366 236.104 61.9834 235.882 59.351ZM222.048 53.3635C222.046 53.4984 222.016 53.6317 221.96 53.7558C221.847 54.008 221.632 54.2085 221.362 54.3132C221.227 54.3641 221.082 54.3904 220.936 54.3907C220.79 54.3913 220.645 54.365 220.51 54.3132C220.375 54.2627 220.253 54.1872 220.15 54.0913C220.046 53.9955 219.963 53.8815 219.907 53.7558C219.852 53.6313 219.824 53.498 219.824 53.3635V53.2912C219.851 53.1635 219.851 53.0319 219.824 52.9041C219.789 52.7765 219.722 52.6581 219.63 52.5583C219.541 52.4554 219.428 52.3739 219.298 52.3208C219.17 52.2633 219.03 52.2334 218.889 52.2334C218.747 52.2334 218.607 52.2633 218.479 52.3208C218.35 52.3739 218.236 52.4554 218.147 52.5583C218.057 52.6594 217.991 52.7773 217.953 52.9041C217.926 53.0319 217.926 53.1635 217.953 53.2912V53.3532C217.962 53.4927 217.939 53.6324 217.888 53.7637C217.837 53.895 217.757 54.0153 217.655 54.1171C217.549 54.2201 217.423 54.3025 217.284 54.3597C217.075 54.4436 216.843 54.4653 216.62 54.4219C216.397 54.3785 216.194 54.272 216.039 54.1171C215.933 54.0176 215.852 53.8978 215.801 53.7661C215.751 53.6335 215.729 53.4935 215.734 53.3532V53.2809C215.741 52.5054 216.075 51.7636 216.664 51.2162C217.261 50.6643 218.067 50.3547 218.908 50.3547C219.748 50.3547 220.555 50.6643 221.152 51.2162C221.743 51.7623 222.077 52.5049 222.081 53.2809L222.048 53.3635ZM230.321 53.3635C230.319 53.4984 230.289 53.6317 230.232 53.7558C230.12 54.008 229.905 54.2085 229.635 54.3132C229.499 54.3641 229.355 54.3904 229.209 54.3907C229.063 54.3913 228.918 54.365 228.783 54.3132C228.648 54.262 228.526 54.1865 228.423 54.0913C228.319 53.9955 228.236 53.8815 228.179 53.7558C228.125 53.6313 228.096 53.498 228.096 53.3635V53.2912C228.127 53.1655 228.127 53.035 228.096 52.9093C228.062 52.7812 227.996 52.6626 227.903 52.5634C227.813 52.4651 227.702 52.3859 227.576 52.3312C227.449 52.2768 227.31 52.2487 227.17 52.2487C227.029 52.2487 226.891 52.2768 226.763 52.3312C226.637 52.3871 226.524 52.4661 226.431 52.5634C226.341 52.6642 226.277 52.7823 226.243 52.9093C226.212 53.035 226.212 53.1655 226.243 53.2912V53.3532C226.241 53.6265 226.124 53.8882 225.916 54.081C225.813 54.1777 225.691 54.2545 225.556 54.3069C225.421 54.3593 225.277 54.3863 225.13 54.3863C224.984 54.3863 224.84 54.3593 224.705 54.3069C224.57 54.2545 224.448 54.1777 224.345 54.081C224.137 53.8882 224.019 53.6265 224.018 53.3532V53.2809C224.018 52.4951 224.353 51.7415 224.948 51.1859C225.544 50.6303 226.352 50.3181 227.194 50.3181C228.037 50.3181 228.845 50.6303 229.44 51.1859C230.036 51.7415 230.371 52.4951 230.371 53.2809L230.321 53.3635Z" fill="#FE7B01"/>
    </g>
    <path d="M20.6152 211.645C20.6152 211.645 9.37147 210.452 13.917 198C9.37147 205.423 8.65162 206.624 1.00038 204.703C6.48514 209.971 8.65161 209.731 6.7388 218.588C11.2843 212.366 10.0914 210.212 20.6152 211.645Z" stroke="#FE7B01" stroke-width="1.5" stroke-linecap="round" stroke-linejoin="round"/>
    <path d="M260.736 46.7712C260.736 46.7712 255.156 46.1812 257.411 40C255.156 43.6841 254.799 44.274 251.001 43.3273C253.743 45.9411 254.799 45.8245 253.846 50.1877C256.102 47.128 255.512 46.0578 260.736 46.7712Z" stroke="#FE7B01" stroke-width="1.5" stroke-linecap="round" stroke-linejoin="round"/>
    <path d="M121.798 57.8803C121.798 57.8803 118.068 50.4573 127.557 48.3168C121.167 48.4609 120.145 48.4952 118.281 43C117.225 48.4883 118.226 49.7301 112 52.0695C117.684 52.4057 118.507 50.8072 121.798 57.8803Z" fill="#FE7B01"/>
    <path d="M196.602 20C196.602 20 198.354 10.491 186 11.0292C192.764 9.64775 195.317 10.1322 195.82 0.999999C197.851 8.98397 198.019 11.0292 207 11.0292C200.888 12.016 196.602 10.9037 196.602 20Z" fill="#FFE0C4" stroke="#FFE0C4" stroke-width="2" stroke-linecap="round" stroke-linejoin="round"/>
    <path d="M261.001 167.233C260.835 166.107 259.217 166.089 259.026 167.211L257.916 173.737C257.851 174.12 257.571 174.43 257.197 174.533L251.034 176.241C249.972 176.536 250.097 178.08 251.193 178.199L257.304 178.861C257.747 178.909 258.105 179.246 258.181 179.685L259.156 185.324C259.347 186.429 260.933 186.431 261.126 185.326L262.176 179.308C262.244 178.92 262.533 178.607 262.915 178.51L267.635 177.311C268.672 177.047 268.626 175.559 267.576 175.359L262.742 174.439C262.324 174.36 262.002 174.024 261.94 173.603L261.001 167.233Z" fill="#FFE0C4"/>
    <defs>
        <clipPath id="clip0_1_279">
            <rect width="28" height="38" fill="white" transform="translate(209 40)"/>
        </clipPath>
    </defs>
</svg>
