<svg width="400" height="428" viewBox="0 0 400 428" fill="none" xmlns="http://www.w3.org/2000/svg">
    <g clip-path="url(#clip0_3_102)">
        <rect width="400" height="428" fill="white"/>
        <rect x="274.872" y="338" width="5.12821" height="6" fill="#FFE8D3"/>
        <path d="M-40 0H254V365C254 388.748 234.748 408 211 408H-40V0Z" fill="#F7F7F7"/>
        <path d="M246.524 203.545L264.615 199.578L263.502 181.211L246.153 185.126L232.495 113.848L264.297 108.071V101.172L231.824 106.57L211.842 -27L198.185 -25.9307L200.34 -5.02856L78.2389 24.5139L69.405 -16.5662L57.5854 -19.0841L66.0658 25.9453L-28.4033 37.4656L-25.4528 -13.3239H-35.0464L-36.8131 10.8205L-46.7777 11.1827V20.5473L-36.4598 19.823L-52.025 198.923L-50.9119 210.098L-45.753 190.645L-32.8732 88.2724L96.3306 135.458L112.938 214.341L-32.8732 286.395L-51.654 278.462L-51.3006 315.644L116.807 231.57L135.853 316.334L-51.23 346.359L-52.3077 363.157L140.27 336.063L159.351 421L164.033 408.341L148.132 334.804L252.972 319.455L263.114 377.523L262.372 285.67L246.524 203.545ZM-31.9192 79.0113L-27.4316 46.8302L67.0022 32.9299L93.9985 125.11L-31.9192 79.0113ZM76.3838 31.464L201.824 5.12934L217.195 110.106L105.235 128.042L76.3838 31.464ZM106.419 135.354L217.337 117.435L231.206 189.127L120.977 209.615L106.419 135.354ZM144.104 315.782L125.164 228.034L132.92 223.705L233.291 206.459L249.898 301.554L144.104 315.782Z" fill="white"/>
        <path d="M260.787 0V363.69C260.787 375.318 256.057 386.47 247.637 394.692C239.216 402.915 227.796 407.534 215.888 407.534H-41.0256" stroke="#FFCA99" stroke-width="1.5" stroke-miterlimit="10"/>
        <path d="M280.152 0V363.331C280.154 371.45 278.518 379.489 275.338 386.99C272.157 394.491 267.495 401.306 261.616 407.046C255.737 412.787 248.758 417.34 241.077 420.446C233.396 423.552 225.163 425.149 216.85 425.147H-41.0256" stroke="#FE7B01" stroke-width="1.5" stroke-miterlimit="10"/>
        <path d="M274.804 0V363.161C274.806 370.663 273.295 378.092 270.356 385.023C267.417 391.954 263.108 398.252 257.676 403.557C252.244 408.862 245.794 413.069 238.696 415.939C231.598 418.809 223.99 420.285 216.308 420.283H-41.0256" stroke="#FFCA99" stroke-width="1.5" stroke-miterlimit="10"/>
        <path d="M215.363 233.3H232.404C239.912 233.3 245.967 239.239 245.967 246.527V262.826C245.967 270.115 239.912 276.054 232.404 276.054H215.363C207.855 276.054 201.8 270.115 201.8 262.826V246.527C201.8 239.239 207.855 233.3 215.363 233.3Z" fill="white" stroke="#FFCA99" stroke-width="1.5"/>
        <path d="M232.404 291.225H215.363C207.458 291.225 201.05 297.483 201.05 305.202V321.501C201.05 329.22 207.458 335.478 215.363 335.478H232.404C240.309 335.478 246.717 329.22 246.717 321.501V305.202C246.717 297.483 240.309 291.225 232.404 291.225Z" fill="#FE7B01"/>
        <mask id="path-9-inside-1_3_102" fill="white">
            <path d="M186.52 296.673L179.587 332.378C179.226 334.241 178.215 335.921 176.728 337.13C175.241 338.338 173.371 339 171.441 339H-22.4764C-23.6972 339 -24.9028 338.735 -26.0073 338.224C-27.1118 337.713 -28.0879 336.969 -28.8659 336.045C-29.644 335.121 -30.2049 334.04 -30.5085 332.878C-30.8122 331.716 -30.8511 330.503 -30.6225 329.325L-23.69 293.62C-23.3282 291.758 -22.3167 290.078 -20.8296 288.87C-19.3426 287.661 -17.4731 287 -15.5432 287H178.374C179.595 287 180.8 287.265 181.905 287.776C183.009 288.287 183.985 289.031 184.763 289.955C185.541 290.879 186.102 291.96 186.406 293.122C186.71 294.284 186.749 295.497 186.52 296.675"/>
        </mask>
        <path d="M186.52 296.673L179.587 332.378C179.226 334.241 178.215 335.921 176.728 337.13C175.241 338.338 173.371 339 171.441 339H-22.4764C-23.6972 339 -24.9028 338.735 -26.0073 338.224C-27.1118 337.713 -28.0879 336.969 -28.8659 336.045C-29.644 335.121 -30.2049 334.04 -30.5085 332.878C-30.8122 331.716 -30.8511 330.503 -30.6225 329.325L-23.69 293.62C-23.3282 291.758 -22.3167 290.078 -20.8296 288.87C-19.3426 287.661 -17.4731 287 -15.5432 287H178.374C179.595 287 180.8 287.265 181.905 287.776C183.009 288.287 183.985 289.031 184.763 289.955C185.541 290.879 186.102 291.96 186.406 293.122C186.71 294.284 186.749 295.497 186.52 296.675" fill="white"/>
        <path d="M179.587 332.378L178.115 332.092L178.115 332.092L179.587 332.378ZM171.441 339L171.441 340.5L171.441 340.5L171.441 339ZM-22.4764 339L-22.4768 340.5H-22.4764V339ZM-30.6225 329.325L-32.095 329.039L-32.0951 329.04L-30.6225 329.325ZM-23.69 293.62L-25.1624 293.334L-25.1625 293.335L-23.69 293.62ZM-15.5432 287L-15.5432 288.5H-15.5432V287ZM178.374 287L178.374 285.5H178.374V287ZM185.047 296.387L178.115 332.092L181.06 332.664L187.992 296.959L185.047 296.387ZM178.115 332.092C177.821 333.606 176.999 334.976 175.782 335.966L177.674 338.294C179.431 336.865 180.631 334.876 181.06 332.664L178.115 332.092ZM175.782 335.966C174.564 336.955 173.029 337.5 171.441 337.5L171.441 340.5C173.713 340.5 175.917 339.721 177.674 338.294L175.782 335.966ZM171.441 337.5H-22.4764V340.5H171.441V337.5ZM-22.476 337.5C-23.4802 337.5 -24.471 337.282 -25.3776 336.862L-26.6369 339.585C-25.3345 340.188 -23.9142 340.5 -22.4768 340.5L-22.476 337.5ZM-25.3776 336.862C-26.2842 336.443 -27.0831 335.834 -27.7185 335.079L-30.0134 337.011C-29.0927 338.105 -27.9393 338.983 -26.6369 339.585L-25.3776 336.862ZM-27.7185 335.079C-28.3539 334.324 -28.8104 333.443 -29.0573 332.499L-31.9598 333.257C-31.5994 334.636 -30.9342 335.918 -30.0134 337.011L-27.7185 335.079ZM-29.0573 332.499C-29.3042 331.554 -29.3358 330.568 -29.15 329.611L-32.0951 329.04C-32.3664 330.438 -32.3202 331.879 -31.9598 333.257L-29.0573 332.499ZM-29.15 329.611L-22.2175 293.906L-25.1625 293.335L-32.095 329.039L-29.15 329.611ZM-22.2175 293.906C-21.9236 292.393 -21.1007 291.023 -19.8836 290.034L-21.7756 287.705C-23.5327 289.133 -24.7329 291.123 -25.1624 293.334L-22.2175 293.906ZM-19.8836 290.034C-18.6661 289.044 -17.1312 288.5 -15.5432 288.5L-15.5431 285.5C-17.8149 285.5 -20.0191 286.278 -21.7756 287.705L-19.8836 290.034ZM-15.5432 288.5H178.374V285.5H-15.5432V288.5ZM178.373 288.5C179.378 288.5 180.369 288.718 181.275 289.138L182.534 286.415C181.232 285.812 179.812 285.5 178.374 285.5L178.373 288.5ZM181.275 289.138C182.182 289.557 182.981 290.166 183.616 290.921L185.911 288.989C184.99 287.895 183.837 287.017 182.534 286.415L181.275 289.138ZM183.616 290.921C184.251 291.676 184.708 292.557 184.955 293.501L187.857 292.743C187.497 291.364 186.832 290.082 185.911 288.989L183.616 290.921ZM184.955 293.501C185.202 294.446 185.233 295.432 185.047 296.389L187.993 296.96C188.264 295.562 188.218 294.121 187.857 292.743L184.955 293.501Z" fill="#FFCA99" mask="url(#path-9-inside-1_3_102)"/>
        <path d="M2.90665 310.25V307.958C2.90665 305.676 4.79639 303.833 7.13742 303.833H9.48784" stroke="#FFCA99" stroke-width="1.5" stroke-linecap="round" stroke-linejoin="round"/>
        <path d="M15.1282 303.833H17.4786C19.8197 303.833 21.7094 305.676 21.7094 307.958V310.25" stroke="#FFCA99" stroke-width="1.5" stroke-linecap="round" stroke-linejoin="round"/>
        <path d="M21.7087 316.667V318.042C21.7087 320.324 19.819 322.167 17.478 322.167H16.0677" stroke="#FFCA99" stroke-width="1.5" stroke-linecap="round" stroke-linejoin="round"/>
        <path d="M9.48784 322.167H7.13742C4.79639 322.167 2.90665 320.324 2.90665 318.042V315.75" stroke="#FFCA99" stroke-width="1.5" stroke-linecap="round" stroke-linejoin="round"/>
        <path d="M17.0079 310.708V315.291C17.0079 317.125 16.0677 318.041 14.1874 318.041H10.4267C8.54634 318.041 7.60617 317.125 7.60617 315.291V310.708C7.60617 308.875 8.54634 307.958 10.4267 307.958H14.1874C16.0677 307.958 17.0079 308.875 17.0079 310.708Z" stroke="#FFCA99" stroke-width="1.5" stroke-linecap="round" stroke-linejoin="round"/>
        <path d="M18.8895 313H5.72716" stroke="#FFCA99" stroke-width="1.5" stroke-linecap="round" stroke-linejoin="round"/>
        <path d="M54.1965 313.49C54.6025 314.008 54.8685 314.505 54.9945 314.981L55.0785 314.96C55.0645 314.89 55.0575 314.771 55.0575 314.603C55.0575 314.127 55.1555 313.378 55.3515 312.356L56.7165 305.3H59.4045L56.5065 320.21H56.0655L49.3665 311.81C49.0025 311.334 48.7365 310.837 48.5685 310.319L48.5055 310.34C48.5475 310.844 48.4565 311.712 48.2325 312.944L46.8465 320H44.1795L47.0775 305.09H47.4975L54.1965 313.49ZM62.6064 320.294C61.5844 320.294 60.7584 320 60.1284 319.412C59.4984 318.81 59.1834 318.019 59.1834 317.039C59.1834 315.961 59.5264 315.107 60.2124 314.477C60.8984 313.847 61.8224 313.532 62.9844 313.532C63.8104 313.532 64.5174 313.714 65.1054 314.078C65.7074 314.442 66.1484 314.96 66.4284 315.632L66.4914 315.611C66.4634 315.359 66.4494 315.177 66.4494 315.065C66.4494 314.869 66.4704 314.645 66.5124 314.393C66.5824 313.903 66.6174 313.595 66.6174 313.469C66.6174 313.035 66.4634 312.713 66.1554 312.503C65.8614 312.293 65.3924 312.188 64.7484 312.188C63.9224 312.188 62.9144 312.307 61.7244 312.545L61.3674 310.403C62.0254 310.277 62.7114 310.179 63.4254 310.109C64.1534 310.039 64.7764 310.004 65.2944 310.004C66.5824 310.004 67.5344 310.242 68.1504 310.718C68.7664 311.194 69.0744 311.929 69.0744 312.923C69.0744 313.147 69.0254 313.616 68.9274 314.33L67.8564 320H65.2734C65.3294 319.664 65.4064 319.377 65.5044 319.139C65.6024 318.901 65.7284 318.656 65.8824 318.404L65.7984 318.341C65.3504 319.041 64.8744 319.545 64.3704 319.853C63.8804 320.147 63.2924 320.294 62.6064 320.294ZM61.9554 316.892C61.9554 317.326 62.1094 317.676 62.4174 317.942C62.7394 318.194 63.1594 318.32 63.6774 318.32C64.2374 318.32 64.7064 318.173 65.0844 317.879C65.4624 317.585 65.6514 317.221 65.6514 316.787C65.6514 316.367 65.4624 316.024 65.0844 315.758C64.7204 315.478 64.2654 315.338 63.7194 315.338C63.1874 315.338 62.7604 315.478 62.4384 315.758C62.1164 316.038 61.9554 316.416 61.9554 316.892ZM70.766 316.829C71.914 317.683 72.964 318.11 73.916 318.11C74.238 318.11 74.483 318.047 74.651 317.921C74.833 317.795 74.924 317.62 74.924 317.396C74.924 317.242 74.875 317.102 74.777 316.976C74.679 316.85 74.497 316.696 74.231 316.514L72.887 315.653C71.753 314.911 71.186 314.001 71.186 312.923C71.186 312.013 71.487 311.299 72.089 310.781C72.705 310.249 73.538 309.983 74.588 309.983C75.848 309.983 77.122 310.347 78.41 311.075L77.339 313.007C76.877 312.741 76.422 312.538 75.974 312.398C75.526 312.244 75.113 312.167 74.735 312.167C74.105 312.167 73.79 312.391 73.79 312.839C73.79 313.007 73.839 313.154 73.937 313.28C74.049 313.392 74.28 313.567 74.63 313.805L75.848 314.561C76.464 314.939 76.905 315.338 77.171 315.758C77.437 316.178 77.57 316.682 77.57 317.27C77.57 318.25 77.248 319.006 76.604 319.538C75.974 320.056 75.064 320.315 73.874 320.315C72.236 320.315 70.766 319.783 69.464 318.719L70.766 316.829ZM82.8438 312.44C82.6618 313.336 82.4308 314.043 82.1508 314.561L82.2138 314.582L86.6658 310.298H90.1098L85.8048 314.204C85.3148 314.638 84.9368 314.911 84.6708 315.023L84.6498 315.086C84.8738 315.17 85.1188 315.401 85.3848 315.779L88.3878 320H85.2798L82.1088 315.128L82.0458 315.17C82.0738 315.366 82.0878 315.534 82.0878 315.674C82.0878 316.066 82.0248 316.57 81.8988 317.186L81.3528 320H78.7908L81.7098 304.985H84.2718L82.8438 312.44ZM94.2347 320.315C92.6807 320.315 91.4557 319.909 90.5597 319.097C89.6777 318.271 89.2367 317.144 89.2367 315.716C89.2367 314.61 89.4817 313.623 89.9717 312.755C90.4617 311.887 91.1337 311.208 91.9877 310.718C92.8557 310.228 93.8427 309.983 94.9487 309.983C96.3347 309.983 97.4267 310.34 98.2247 311.054C99.0227 311.754 99.4217 312.72 99.4217 313.952C99.4217 314.386 99.3377 314.981 99.1697 315.737H92.8907C92.5547 315.737 92.3027 315.723 92.1347 315.695C91.9667 315.667 91.8337 315.611 91.7357 315.527L91.6727 315.59L91.7147 315.758V315.989C91.7287 316.633 91.9597 317.144 92.4077 317.522C92.8697 317.886 93.4997 318.068 94.2977 318.068C94.8297 318.068 95.3407 317.977 95.8307 317.795C96.3207 317.613 96.8457 317.319 97.4057 316.913L98.5187 318.803C97.8047 319.335 97.1117 319.72 96.4397 319.958C95.7677 320.196 95.0327 320.315 94.2347 320.315ZM91.9457 314.204C92.1137 314.078 92.4357 314.015 92.9117 314.015H95.8937C96.1877 314.015 96.4047 314.029 96.5447 314.057C96.6847 314.085 96.7897 314.134 96.8597 314.204L96.9227 314.162C96.8947 314.12 96.8807 314.05 96.8807 313.952C96.8807 312.65 96.1737 311.999 94.7597 311.999C93.3037 311.999 92.3587 312.72 91.9247 314.162L91.9457 314.204ZM102.111 310.298H104.673L104.631 310.592C104.533 311.194 104.33 311.803 104.022 312.419L104.106 312.44C104.582 311.586 105.114 310.963 105.702 310.571C106.29 310.179 106.997 309.983 107.823 309.983C108.817 309.983 109.573 310.249 110.091 310.781C110.609 311.313 110.868 312.09 110.868 313.112C110.868 313.546 110.805 314.071 110.679 314.687L109.608 320H107.025L108.033 314.939C108.103 314.645 108.138 314.33 108.138 313.994C108.138 313.434 107.984 313.007 107.676 312.713C107.382 312.419 106.948 312.272 106.374 312.272C105.66 312.272 105.086 312.524 104.652 313.028C104.218 313.532 103.896 314.316 103.686 315.38L102.783 320H100.221L102.111 310.298ZM117.098 320.315C115.586 320.315 114.389 319.902 113.507 319.076C112.625 318.236 112.184 317.109 112.184 315.695C112.184 314.603 112.429 313.623 112.919 312.755C113.423 311.887 114.116 311.208 114.998 310.718C115.894 310.228 116.895 309.983 118.001 309.983C119.513 309.983 120.71 310.403 121.592 311.243C122.474 312.069 122.915 313.189 122.915 314.603C122.915 315.695 122.663 316.675 122.159 317.543C121.669 318.411 120.976 319.09 120.08 319.58C119.198 320.07 118.204 320.315 117.098 320.315ZM114.809 315.527C114.809 316.255 115.026 316.829 115.46 317.249C115.908 317.669 116.517 317.879 117.287 317.879C118.155 317.879 118.869 317.585 119.429 316.997C120.003 316.409 120.29 315.667 120.29 314.771C120.29 314.043 120.066 313.469 119.618 313.049C119.184 312.629 118.582 312.419 117.812 312.419C116.944 312.419 116.223 312.713 115.649 313.301C115.089 313.889 114.809 314.631 114.809 315.527ZM123.699 310.298H126.45L127.332 314.267C127.36 314.393 127.402 314.603 127.458 314.897C127.528 315.177 127.57 315.429 127.584 315.653C127.598 315.877 127.598 316.122 127.584 316.388H127.668C127.766 316.052 127.871 315.779 127.983 315.569C128.095 315.345 128.27 315.037 128.508 314.645L128.739 314.267L131.154 310.298H134.22L127.479 320.147H126.597L123.699 310.298ZM136.352 320.294C135.33 320.294 134.504 320 133.874 319.412C133.244 318.81 132.929 318.019 132.929 317.039C132.929 315.961 133.272 315.107 133.958 314.477C134.644 313.847 135.568 313.532 136.73 313.532C137.556 313.532 138.263 313.714 138.851 314.078C139.453 314.442 139.894 314.96 140.174 315.632L140.237 315.611C140.209 315.359 140.195 315.177 140.195 315.065C140.195 314.869 140.216 314.645 140.258 314.393C140.328 313.903 140.363 313.595 140.363 313.469C140.363 313.035 140.209 312.713 139.901 312.503C139.607 312.293 139.138 312.188 138.494 312.188C137.668 312.188 136.66 312.307 135.47 312.545L135.113 310.403C135.771 310.277 136.457 310.179 137.171 310.109C137.899 310.039 138.522 310.004 139.04 310.004C140.328 310.004 141.28 310.242 141.896 310.718C142.512 311.194 142.82 311.929 142.82 312.923C142.82 313.147 142.771 313.616 142.673 314.33L141.602 320H139.019C139.075 319.664 139.152 319.377 139.25 319.139C139.348 318.901 139.474 318.656 139.628 318.404L139.544 318.341C139.096 319.041 138.62 319.545 138.116 319.853C137.626 320.147 137.038 320.294 136.352 320.294ZM135.701 316.892C135.701 317.326 135.855 317.676 136.163 317.942C136.485 318.194 136.905 318.32 137.423 318.32C137.983 318.32 138.452 318.173 138.83 317.879C139.208 317.585 139.397 317.221 139.397 316.787C139.397 316.367 139.208 316.024 138.83 315.758C138.466 315.478 138.011 315.338 137.465 315.338C136.933 315.338 136.506 315.478 136.184 315.758C135.862 316.038 135.701 316.416 135.701 316.892ZM149.076 309.437C149.062 309.507 149.027 309.647 148.971 309.857C148.929 310.053 148.866 310.242 148.782 310.424L148.824 310.466C148.936 310.396 149.055 310.354 149.181 310.34C149.307 310.312 149.496 310.298 149.748 310.298H150.756L150.336 312.587H149.307C149.055 312.587 148.866 312.58 148.74 312.566C148.628 312.538 148.53 312.496 148.446 312.44L148.383 312.482C148.397 312.538 148.404 312.629 148.404 312.755C148.404 312.951 148.362 313.252 148.278 313.658L147.039 320H144.498L145.737 313.658C145.779 313.406 145.828 313.182 145.884 312.986C145.94 312.79 146.003 312.622 146.073 312.482L146.031 312.44C145.933 312.496 145.814 312.538 145.674 312.566C145.548 312.58 145.359 312.587 145.107 312.587H144.246L144.687 310.298H145.527C145.779 310.298 145.968 310.312 146.094 310.34C146.22 310.354 146.325 310.396 146.409 310.466L146.472 310.424C146.458 310.368 146.451 310.277 146.451 310.151C146.451 309.955 146.486 309.717 146.556 309.437L147.06 306.77L149.706 305.111H149.916L149.076 309.437ZM154.41 305.3L151.281 309.584H150.273L151.953 305.3H154.41Z" fill="#FFCA99"/>
        <path d="M222.041 303.231L216.923 305.111C215.744 305.541 214.78 306.901 214.78 308.121V315.551C214.78 316.731 215.58 318.281 216.554 318.991L220.964 322.201C222.41 323.261 224.79 323.261 226.236 322.201L230.646 318.991C231.621 318.281 232.421 316.731 232.421 315.551V308.121C232.421 306.891 231.457 305.531 230.277 305.101L225.159 303.231C224.287 302.921 222.892 302.921 222.041 303.231Z" stroke="white" stroke-width="1.5" stroke-linecap="round" stroke-linejoin="round"/>
        <path d="M220.565 312.87L222.216 314.48L226.626 310.18" stroke="white" stroke-width="1.5" stroke-linecap="round" stroke-linejoin="round"/>
        <path d="M223.59 262.5C227.838 262.5 231.282 259.142 231.282 255C231.282 250.858 227.838 247.5 223.59 247.5C219.341 247.5 215.897 250.858 215.897 255C215.897 259.142 219.341 262.5 223.59 262.5Z" stroke="#FFCA99" stroke-width="1.5" stroke-linecap="round" stroke-linejoin="round"/>
        <path d="M223.59 258C225.289 258 226.667 256.657 226.667 255C226.667 253.343 225.289 252 223.59 252C221.89 252 220.513 253.343 220.513 255C220.513 256.657 221.89 258 223.59 258Z" stroke="#FFCA99" stroke-width="1.5" stroke-linecap="round" stroke-linejoin="round"/>
        <path d="M223.59 247V245" stroke="#FFCA99" stroke-width="1.5" stroke-linecap="round" stroke-linejoin="round"/>
        <path d="M215.385 255H213.333" stroke="#FFCA99" stroke-width="1.5" stroke-linecap="round" stroke-linejoin="round"/>
        <path d="M223.59 263V265" stroke="#FFCA99" stroke-width="1.5" stroke-linecap="round" stroke-linejoin="round"/>
        <path d="M231.795 255H233.846" stroke="#FFCA99" stroke-width="1.5" stroke-linecap="round" stroke-linejoin="round"/>
        <g clip-path="url(#clip1_3_102)">
            <path d="M101.853 68.2909C111.208 77.6432 117.579 89.5596 120.162 102.533C122.744 115.507 121.421 128.955 116.36 141.176C111.3 153.398 102.728 163.844 91.7302 171.195C80.7322 178.545 67.8015 182.468 54.5734 182.469C41.3454 182.47 28.4142 178.549 17.4151 171.2C6.41593 163.852 -2.15705 153.406 -7.21966 141.185C-12.2823 128.965 -13.6071 115.517 -11.0267 102.543C-8.4463 89.569 -2.07648 77.6516 7.27715 68.298C13.4694 62.0571 20.8358 57.1035 28.9515 53.7229C37.0672 50.3423 45.7718 48.6016 54.5634 48.6009C63.3551 48.6003 72.0599 50.3398 80.1762 53.7191C88.2924 57.0985 95.6595 62.051 101.853 68.2909V68.2909Z" fill="#FE7B01" fill-opacity="0.16"/>
            <g filter="url(#filter0_d_3_102)">
                <path d="M68.5126 95.2247L68.4702 95.2671C68.1732 95.5641 66.3135 97.1834 61.4769 96.7591C60.6729 96.6683 59.8765 96.5194 59.094 96.3136C58.4526 96.1627 57.8034 96.0471 57.1494 95.9671C54.0633 95.547 50.9216 95.8665 47.9833 96.8992C45.0449 97.9319 42.3942 99.6483 40.2495 101.907C37.9458 104.322 36.2919 107.282 35.4426 110.509C34.5933 113.737 34.5763 117.127 35.3931 120.363C36.21 123.6 37.834 126.576 40.1134 129.014C42.3928 131.452 45.2532 133.272 48.4271 134.304C51.6011 135.337 54.9849 135.547 58.2624 134.917C61.5399 134.286 64.604 132.835 67.1683 130.699C69.7326 128.562 71.7132 125.811 72.9253 122.701C74.1373 119.591 74.541 116.225 74.0988 112.916V112.916C74.0139 112.266 73.8937 111.637 73.7523 111C73.5598 110.267 73.4226 109.52 73.3421 108.766C72.8401 103.328 74.8695 101.582 74.8695 101.582C75.3343 101.175 75.7106 100.677 75.9751 100.119C76.2396 99.5611 76.3867 98.9547 76.4073 98.3375C76.4278 97.7203 76.3214 97.1055 76.0946 96.5311C75.8678 95.9567 75.5255 95.435 75.0888 94.9983C74.6522 94.5616 74.1305 94.2193 73.5561 93.9925C72.9817 93.7657 72.3668 93.6593 71.7496 93.6798C71.1324 93.7004 70.526 93.8475 69.968 94.112C69.4099 94.3765 68.9122 94.7529 68.5055 95.2176L68.5126 95.2247ZM68.6116 107.175C70.6594 110.602 71.3839 114.66 70.649 118.584C69.914 122.509 67.7702 126.029 64.6209 128.483C61.4717 130.937 57.5341 132.156 53.5491 131.91C49.5641 131.663 45.8066 129.969 42.9834 127.146C40.1602 124.323 38.4661 120.565 38.2199 116.58C37.9736 112.595 39.1922 108.658 41.6464 105.509C44.1005 102.359 47.621 100.216 51.5453 99.4806C55.4696 98.7456 59.5273 99.4702 62.9548 101.518C65.2792 102.907 67.2228 104.85 68.6116 107.175Z" fill="white"/>
            </g>
            <path d="M66.1297 103.986C67.0855 104.938 67.917 106.007 68.6045 107.168C70.6523 110.595 71.3768 114.653 70.6419 118.577C69.9069 122.501 67.7632 126.022 64.6139 128.476C61.4646 130.93 57.527 132.149 53.542 131.903C49.5571 131.656 45.7995 129.962 42.9763 127.139C40.1531 124.316 38.459 120.558 38.2128 116.573C37.9666 112.588 39.1852 108.651 41.6393 105.501C44.0934 102.352 47.6139 100.208 51.5382 99.4735C55.4626 98.7385 59.5202 99.4631 62.9477 101.511C64.1075 102.2 65.1765 103.031 66.1297 103.986Z" fill="#1F1E1D"/>
            <path d="M68.6116 107.175L66.0377 104.092L62.9547 101.518C65.2792 102.907 67.2228 104.85 68.6116 107.175Z" fill="#1F1E1D"/>
            <path d="M71.6864 115.706C71.6891 117.107 71.5147 118.503 71.1672 119.86C70.1542 123.881 67.7069 127.392 64.2859 129.734C60.8649 132.076 56.706 133.087 52.5918 132.577C48.4776 132.066 44.6917 130.07 41.9466 126.963C39.2015 123.856 37.6864 119.852 37.6864 115.706C37.6864 111.56 39.2015 107.557 41.9466 104.45C44.6917 101.342 48.4776 99.3459 52.5918 98.8354C56.706 98.325 60.8649 99.3359 64.2859 101.678C67.7069 104.02 70.1542 107.532 71.1672 111.552C71.5129 112.91 71.6873 114.305 71.6864 115.706Z" fill="#FFE8D3"/>
            <path d="M64.8059 121.291C64.7013 119.946 64.6177 118.855 64.5968 118.537C64.5923 118.509 64.5923 118.481 64.5968 118.453C64.3886 116.683 63.9959 114.94 63.4255 113.253C63.3353 112.997 63.3459 112.716 63.4549 112.468C63.5639 112.219 63.7631 112.023 64.0112 111.919C65.5797 111.284 66.364 109.695 64.9418 108.223C63.7392 106.984 62.2961 107.99 61.5536 108.7C61.3961 108.845 61.1986 108.938 60.9874 108.966C60.7762 108.995 60.5615 108.957 60.372 108.859L57.7054 107.418C57.6942 107.413 57.6847 107.405 57.678 107.395C57.6713 107.385 57.6677 107.373 57.6677 107.36C57.6677 107.348 57.6713 107.336 57.678 107.325C57.6847 107.315 57.6942 107.307 57.7054 107.302C58.1237 107.154 59.2739 106.688 58.3432 106.148C57.9544 106.005 57.5354 105.968 57.1281 106.04C56.7207 106.113 56.3392 106.292 56.0217 106.561C56.0093 106.572 55.9928 106.578 55.9762 106.577C55.9595 106.576 55.9439 106.568 55.9328 106.555C55.9217 106.543 55.9161 106.526 55.9171 106.509C55.9181 106.492 55.9256 106.477 55.9381 106.465C56.2832 105.957 56.691 105.078 55.6453 104.76C54.4218 104.4 53.146 105.925 52.7277 106.497C52.7277 106.497 52.6127 106.497 52.6127 106.444C52.6127 106.084 52.6127 105.385 52.0375 105.449C51.0545 105.512 50.7617 106.508 50.6049 107.334C50.5667 107.521 50.4877 107.697 50.3737 107.849C50.2597 108.001 50.1136 108.125 49.9461 108.213C49.5775 108.413 49.2276 108.647 48.9003 108.912C48.691 109.072 48.4294 109.148 48.1679 109.122C47.9063 109.097 47.6637 108.972 47.4885 108.774C46.3696 107.471 44.7174 107.461 43.9644 108.933C43.2115 110.405 44.09 111.209 45.3762 111.919C45.5949 112.046 45.7609 112.249 45.8435 112.49C45.9261 112.732 45.9199 112.995 45.8259 113.232C45.1205 115.673 44.7889 118.208 44.8429 120.751C44.8379 120.832 44.8379 120.913 44.8429 120.994V120.994C44.8429 121.217 44.8429 121.439 44.8429 121.651C44.937 123.101 45.0416 124.542 45.1043 125.992C45.1671 127.443 45.2298 128.64 45.3239 129.9C48.3291 131.881 51.8732 132.856 55.4554 132.687C59.0376 132.518 62.4768 131.213 65.2869 128.957C65.2869 128.428 65.2869 127.973 65.2137 127.634C65.1928 126.501 65.0255 123.536 64.8059 121.291ZM53.9512 116.155C53.9276 116.373 53.8255 116.574 53.6643 116.72C53.5032 116.866 53.2944 116.947 53.078 116.947C52.8616 116.947 52.6528 116.866 52.4917 116.72C52.3306 116.574 52.2284 116.373 52.2048 116.155V116.102C52.2277 115.989 52.2255 115.873 52.1986 115.762C52.1716 115.65 52.1204 115.546 52.0488 115.457C51.9772 115.369 51.887 115.297 51.7846 115.248C51.6823 115.198 51.5705 115.173 51.4571 115.173C51.3438 115.173 51.2319 115.198 51.1296 115.248C51.0272 115.297 50.937 115.369 50.8654 115.457C50.7938 115.546 50.7426 115.65 50.7157 115.762C50.6887 115.873 50.6866 115.989 50.7094 116.102V116.155C50.7094 116.388 50.618 116.611 50.4552 116.776C50.2924 116.941 50.0716 117.034 49.8414 117.034C49.6112 117.034 49.3905 116.941 49.2278 116.776C49.065 116.611 48.9735 116.388 48.9735 116.155V116.102C48.9735 115.433 49.2357 114.792 49.7025 114.32C50.1692 113.847 50.8023 113.581 51.4624 113.581C52.1225 113.581 52.7554 113.847 53.2222 114.32C53.6889 114.792 53.9512 115.433 53.9512 116.102V116.155ZM60.4452 116.155C60.4487 116.332 60.3993 116.506 60.3035 116.654C60.2078 116.802 60.0701 116.917 59.9085 116.985C59.7468 117.052 59.5688 117.069 59.3978 117.032C59.2267 116.996 59.0706 116.908 58.9498 116.78C58.8694 116.697 58.8058 116.6 58.7628 116.492C58.7197 116.385 58.698 116.27 58.6988 116.155V116.102C58.7217 115.989 58.7195 115.873 58.6926 115.762C58.6656 115.65 58.6144 115.546 58.5428 115.457C58.4712 115.369 58.381 115.297 58.2787 115.248C58.1763 115.198 58.0644 115.173 57.9511 115.173C57.8378 115.173 57.7259 115.198 57.6235 115.248C57.5212 115.297 57.4309 115.369 57.3594 115.457C57.2878 115.546 57.2367 115.65 57.2097 115.762C57.1827 115.873 57.1806 115.989 57.2034 116.102V116.155C57.2034 116.389 57.1123 116.613 56.9498 116.78C56.7874 116.947 56.5666 117.041 56.3355 117.044C56.1002 117.043 55.8749 116.947 55.708 116.78C55.6276 116.697 55.564 116.6 55.521 116.492C55.4779 116.385 55.4562 116.27 55.457 116.155V116.102C55.4981 115.46 55.7787 114.859 56.242 114.419C56.7052 113.979 57.3162 113.735 57.9511 113.735C58.586 113.735 59.1971 113.979 59.6603 114.419C60.1235 114.859 60.4041 115.46 60.4452 116.102V116.155Z" fill="#FE7B01"/>
        </g>
    </g>
    <defs>
        <filter id="filter0_d_3_102" x="30.7928" y="91.6773" width="49.6169" height="49.5951" filterUnits="userSpaceOnUse" color-interpolation-filters="sRGB">
            <feFlood flood-opacity="0" result="BackgroundImageFix"/>
            <feColorMatrix in="SourceAlpha" type="matrix" values="0 0 0 0 0 0 0 0 0 0 0 0 0 0 0 0 0 0 127 0" result="hardAlpha"/>
            <feOffset dy="2"/>
            <feGaussianBlur stdDeviation="2"/>
            <feComposite in2="hardAlpha" operator="out"/>
            <feColorMatrix type="matrix" values="0 0 0 0 0 0 0 0 0 0 0 0 0 0 0 0 0 0 0.08 0"/>
            <feBlend mode="normal" in2="BackgroundImageFix" result="effect1_dropShadow_3_102"/>
            <feBlend mode="normal" in="SourceGraphic" in2="effect1_dropShadow_3_102" result="shape"/>
        </filter>
        <clipPath id="clip0_3_102">
            <rect width="400" height="428" fill="white"/>
        </clipPath>
        <clipPath id="clip1_3_102">
            <rect width="133.75" height="133.71" fill="white" transform="translate(-40 115.575) rotate(-45)"/>
        </clipPath>
    </defs>
</svg>
