<svg width="293" height="369" viewBox="0 0 293 369" fill="none" xmlns="http://www.w3.org/2000/svg">
    <path d="M260.5 330.5C263.7 345.7 281.5 361.5 290 367.5H114C100.833 359.667 71.9996 339.7 61.9996 322.5L70 307L63 233.5L37.4998 210.5C24.4998 203.167 -1.00023 185.7 0.999767 174.5C3.49977 160.5 12 156.5 21.5 158C29.1 159.2 35.6667 167.5 38 171.5L37.4998 148.5C26.3332 138.333 6.3 114.5 15.5 100.5C21 93 35 97 37.5 100C39.5 102.4 95.6667 186.333 123.5 228L197.5 119.5C199 115.333 204.7 107 215.5 107C229 107 229.5 116.5 227 133.5C224.5 150.5 228 170.5 232 183C236 195.5 254 271.5 257 285.5C260 299.5 256.5 311.5 260.5 330.5Z" fill="white" stroke="#FFCA99" stroke-width="1.5"/>
    <path d="M32 301.5L45 309L66.5 291.5L63.5 234.5L38 219.5L27.5 215.5L19.5 215L13.5 216.5L7.5 220.5L3.5 226.5L2 234.5L3.5 240L9.5 247L17.5 253L26.5 257H20.5L14 258L9 262L5.5 270L4 276L5 281.5L9 286.5L17 292.5L32 301.5Z" fill="white"/>
    <path d="M41.4999 306.5C30.6666 301 8.29993 288.5 5.49993 282.5C1.99993 275 6.99993 257 19.4999 257C31.9999 257 58 269.5 57 280C56 290.5 51.5001 296 28.5 293.5" stroke="#FFCA99" stroke-width="1.5"/>
    <path d="M33.5003 260C22.6669 256.333 1.20027 246 2.00027 234C3.00027 219 14.5 213.5 25 215.5C35.5 217.5 54 225 53.5 237C53 249 45.5 250 26.5 249.5" stroke="#FFCA99" stroke-width="1.5"/>
    <rect x="37.75" y="0.75" width="159.5" height="322.5" rx="31.25" fill="#FFF7EF" stroke="#FE7B01" stroke-width="1.5"/>
    <rect x="41.75" y="4.75" width="151.5" height="314.5" rx="29.25" stroke="#FE7B01" stroke-width="1.5"/>
    <g opacity="0.64">
        <path d="M71.9082 12C59.2057 12 48.9082 22.2975 48.9082 35V289C48.9082 301.703 59.2057 312 71.9082 312H162.999C175.702 312 185.999 301.703 185.999 289V35C185.999 22.2974 175.702 12 162.999 12H71.9082ZM177.563 201.604C177.563 203.852 176.674 206.007 175.092 207.596C173.51 209.185 171.364 210.078 169.126 210.078H65.7809C63.5435 210.078 61.3976 209.185 59.8155 207.596C58.2334 206.007 57.3446 203.852 57.3446 201.604V97.7986C57.3446 95.5511 58.2334 93.3958 59.8155 91.8066C61.3976 90.2174 63.5435 89.3246 65.7809 89.3246H169.126C171.364 89.3246 173.51 90.2174 175.092 91.8066C176.674 93.3958 177.563 95.5511 177.563 97.7986V201.604Z" fill="black"/>
        <mask id="mask0_1_116" style="mask-type:alpha" maskUnits="userSpaceOnUse" x="49" y="28" width="43" height="31">
            <rect x="49" y="28" width="43" height="31" fill="#D9D9D9"/>
        </mask>
        <g  >
            <g  >
                <path d="M73.3715 43.7386L72.8513 43.6398L73.3715 43.7386ZM70.7773 45.8959V46.4256V45.8959ZM44.1641 45.8959V46.4256V45.8959ZM41.5735 42.7429L41.0567 42.6441L41.5735 42.7429ZM43.781 31.0913L43.2643 30.9924L43.781 31.0913ZM46.3787 28.9481V29.4777V28.9481ZM72.9884 28.9481V28.4185V28.9481ZM75.0623 32.0022L72.8548 43.6539L73.9094 43.8516L76.1169 32.2L75.0623 32.0022ZM72.8548 43.6539C72.7636 44.1396 72.5062 44.578 72.1272 44.8932L72.7986 45.7088C73.3674 45.2368 73.7542 44.5798 73.8918 43.8516L72.8548 43.6539ZM72.1272 44.8932C71.7486 45.2082 71.2725 45.3806 70.7809 45.3804V46.4397C71.5176 46.4395 72.2312 46.181 72.7986 45.7088L72.1272 44.8932ZM70.7773 45.3663H44.1641V46.4256H70.7738L70.7773 45.3663ZM44.1641 45.3663C43.8532 45.3652 43.5463 45.2966 43.2643 45.1651L42.8214 46.1219C43.2411 46.3217 43.6997 46.4254 44.1641 46.4256V45.3663ZM43.2643 45.1651C42.9838 45.0304 42.7356 44.8365 42.5366 44.5966L41.7281 45.271C42.0256 45.6322 42.3989 45.9227 42.8214 46.1219L43.2643 45.1651ZM42.5401 44.5966C42.3444 44.3565 42.2018 44.0772 42.1218 43.7775L41.0989 44.0387C41.215 44.4935 41.4298 44.9167 41.7281 45.2781L42.5401 44.5966ZM42.1218 43.7775C42.0442 43.4738 42.0346 43.1567 42.0937 42.8489L41.0567 42.6441C40.9688 43.1041 40.9832 43.5779 41.0989 44.0317L42.1218 43.7775ZM42.0937 42.8489L44.3012 31.1972L43.2643 30.9995L41.0567 42.6511L42.0937 42.8489ZM44.3012 31.1972C44.3924 30.7115 44.6498 30.2731 45.0289 29.9579L44.3575 29.1493C43.7886 29.6214 43.4019 30.2784 43.2643 31.0065L44.3012 31.1972ZM45.0289 29.9579C45.4093 29.6446 45.8868 29.4747 46.3787 29.4777V28.4185C45.6407 28.4178 44.9257 28.6764 44.3575 29.1493L45.0289 29.9579ZM46.3787 29.4777H72.9884V28.4185H46.3787V29.4777ZM72.9884 29.4777C73.2993 29.4788 73.6063 29.5474 73.8883 29.679L74.3382 28.7221C73.9161 28.5221 73.4551 28.4184 72.9884 28.4185V29.4777ZM73.8883 29.679C74.1696 29.8122 74.418 30.0064 74.6159 30.2474L75.4279 29.573C75.1314 29.2123 74.7594 28.9217 74.3382 28.7221L73.8883 29.679ZM74.6159 30.2474C74.8104 30.4879 74.9518 30.7671 75.0307 31.0666L76.0536 30.8053C75.9376 30.3506 75.7227 29.9273 75.4244 29.566L74.6159 30.2474ZM75.0307 31.0666C75.1083 31.3702 75.1179 31.6874 75.0588 31.9952L76.1133 32.1929C76.2013 31.7329 76.1869 31.259 76.0712 30.8053L75.0307 31.0666Z" fill="white"/>
            </g>
        </g>
    </g>
    <path d="M127.473 238.632L126.956 238.533L127.473 238.632ZM124.45 241.149V241.679V241.149ZM107.883 241.149V241.679V241.149ZM104.857 237.47L104.336 237.371L104.857 237.47ZM107.437 223.894L106.92 223.795L107.437 223.894ZM110.467 221.377V221.906V221.377ZM127.03 221.377V220.847V221.377ZM129.54 224.957L126.963 238.533L128.018 238.731L130.595 225.155L129.54 224.957ZM126.963 238.533C126.85 239.119 126.539 239.648 126.081 240.03L126.752 240.846C127.403 240.308 127.844 239.558 128 238.727L126.963 238.533ZM126.067 240.03C125.61 240.411 125.034 240.62 124.44 240.62V241.679C125.279 241.68 126.093 241.385 126.738 240.846L126.067 240.03ZM124.44 240.62H107.883V241.679H124.45L124.44 240.62ZM107.873 240.62C107.497 240.619 107.127 240.536 106.786 240.376L106.336 241.333C106.817 241.562 107.341 241.683 107.873 241.686V240.62ZM106.786 240.376C106.445 240.215 106.144 239.98 105.904 239.688L105.092 240.362C105.429 240.775 105.855 241.107 106.336 241.333L106.786 240.376ZM105.904 239.688C105.665 239.396 105.492 239.055 105.398 238.688L104.375 238.953C104.503 239.47 104.743 239.953 105.078 240.366L105.904 239.688ZM105.408 238.678C105.314 238.312 105.302 237.93 105.373 237.559L104.336 237.361C104.238 237.885 104.255 238.425 104.386 238.943L105.408 238.678ZM105.373 237.559L107.95 223.983L106.917 223.785L104.336 237.361L105.373 237.559ZM107.95 223.983C108.063 223.396 108.375 222.867 108.832 222.486L108.161 221.67C107.512 222.208 107.071 222.958 106.917 223.788L107.95 223.983ZM108.832 222.486C109.291 222.104 109.868 221.895 110.463 221.896V220.837C109.622 220.836 108.808 221.131 108.161 221.67L108.832 222.486ZM110.463 221.896H127.027V220.837H110.463V221.896ZM127.027 221.896C127.402 221.896 127.773 221.979 128.113 222.14L128.563 221.183C128.083 220.953 127.558 220.833 127.027 220.83V221.896ZM128.113 222.14C128.454 222.301 128.755 222.536 128.995 222.828L129.807 222.154C129.47 221.741 129.045 221.409 128.563 221.183L128.113 222.14ZM128.995 222.828C129.236 223.119 129.409 223.46 129.501 223.827L130.524 223.562C130.396 223.045 130.156 222.563 129.821 222.15L128.995 222.828ZM129.501 223.827C129.596 224.193 129.608 224.575 129.536 224.946L130.573 225.144C130.672 224.62 130.655 224.08 130.524 223.562L129.501 223.827Z" fill="white"/>
    <path d="M116.474 233.996C116.391 234.004 116.307 233.994 116.227 233.969C116.148 233.943 116.074 233.902 116.01 233.848C115.963 233.793 115.928 233.729 115.908 233.659C115.887 233.59 115.881 233.517 115.891 233.445V233.131C115.457 232.844 115.097 232.458 114.841 232.005C114.585 231.551 114.44 231.043 114.418 230.522C114.417 230.065 114.519 229.614 114.716 229.202C114.912 228.79 115.198 228.427 115.553 228.142C115.912 227.853 116.332 227.648 116.78 227.545C117.229 227.441 117.695 227.44 118.144 227.542C118.578 227.637 118.985 227.828 119.337 228.101C119.688 228.374 119.975 228.722 120.176 229.12C120.942 230.659 120.204 232.333 119.03 233.127V233.382C119.039 233.46 119.031 233.54 119.008 233.615C118.984 233.69 118.945 233.76 118.893 233.819C118.831 233.877 118.758 233.922 118.678 233.951C118.598 233.979 118.513 233.991 118.429 233.985H116.474V233.996ZM116.418 233.463H118.429H118.503V232.986C118.503 232.941 118.514 232.896 118.536 232.856C118.559 232.817 118.591 232.784 118.629 232.76C119.197 232.428 119.622 231.896 119.821 231.267C120.019 230.638 119.978 229.957 119.705 229.356C119.538 229.03 119.301 228.745 119.012 228.521C118.723 228.297 118.388 228.14 118.032 228.061C117.659 227.977 117.273 227.978 116.901 228.064C116.53 228.15 116.182 228.319 115.884 228.558C115.59 228.794 115.353 229.093 115.19 229.434C115.028 229.774 114.944 230.147 114.945 230.525C114.968 230.981 115.103 231.424 115.338 231.814C115.573 232.205 115.901 232.531 116.292 232.764C116.33 232.787 116.362 232.82 116.384 232.86C116.406 232.9 116.418 232.944 116.418 232.99V233.463V233.463Z" fill="white"/>
    <path d="M118.684 235.059H118.611C117.854 234.843 117.054 234.843 116.298 235.059C116.264 235.069 116.23 235.072 116.195 235.068C116.161 235.064 116.127 235.053 116.097 235.037C116.067 235.02 116.04 234.997 116.018 234.97C115.997 234.943 115.98 234.912 115.971 234.879C115.952 234.811 115.96 234.739 115.994 234.678C116.027 234.617 116.083 234.571 116.15 234.55C117.002 234.307 117.906 234.307 118.758 234.55C118.825 234.571 118.881 234.617 118.914 234.678C118.948 234.739 118.956 234.811 118.937 234.879C118.92 234.932 118.886 234.978 118.841 235.011C118.795 235.043 118.74 235.06 118.684 235.059V235.059Z" fill="white"/>
    <path d="M173.346 39.0987C173.276 39.0978 173.21 39.0696 173.16 39.0202C173.111 38.9707 173.083 38.9039 173.082 38.8339V37.0685C173.082 36.9983 173.11 36.9309 173.159 36.8813C173.209 36.8316 173.276 36.8037 173.346 36.8037C173.416 36.8037 173.483 36.8316 173.532 36.8813C173.582 36.9309 173.609 36.9983 173.609 37.0685V38.8339C173.608 38.9039 173.58 38.9707 173.531 39.0202C173.482 39.0696 173.415 39.0978 173.346 39.0987Z" fill="white"/>
    <path d="M173.346 36.3624C173.252 36.3624 173.163 36.3252 173.097 36.259C173.031 36.1928 172.994 36.103 172.994 36.0093C172.994 35.9157 173.031 35.8259 173.097 35.7597C173.163 35.6934 173.252 35.6562 173.346 35.6562C173.439 35.6562 173.528 35.6934 173.594 35.7597C173.66 35.8259 173.697 35.9157 173.697 36.0093C173.697 36.103 173.66 36.1928 173.594 36.259C173.528 36.3252 173.439 36.3624 173.346 36.3624Z" fill="white"/>
    <path d="M174.4 41.2172H172.291C170.382 41.2172 169.566 40.3981 169.566 38.4808V36.3624C169.566 34.4451 170.382 33.626 172.291 33.626H174.4C176.308 33.626 177.124 34.4451 177.124 36.3624V38.4808C177.124 40.3981 176.308 41.2172 174.4 41.2172ZM172.291 34.1556C170.67 34.1556 170.094 34.7346 170.094 36.3624V38.4808C170.094 40.1085 170.67 40.6876 172.291 40.6876H174.4C176.02 40.6876 176.597 40.1085 176.597 38.4808V36.3624C176.597 34.7346 176.02 34.1556 174.4 34.1556H172.291Z" fill="white"/>
    <path d="M60.7096 39.8299C60.675 39.8301 60.6406 39.8233 60.6086 39.81C60.5767 39.7966 60.5476 39.777 60.5233 39.7522L58.3896 37.609C58.3402 37.5594 58.3125 37.4921 58.3125 37.4219C58.3125 37.3517 58.3402 37.2844 58.3896 37.2348L60.5233 35.0916C60.5733 35.0448 60.6394 35.0193 60.7077 35.0205C60.776 35.0218 60.8411 35.0496 60.8894 35.0981C60.9377 35.1466 60.9654 35.212 60.9666 35.2806C60.9678 35.3493 60.9425 35.4156 60.8959 35.4658L58.9485 37.4219L60.8959 39.378C60.9453 39.4276 60.973 39.4949 60.973 39.5651C60.973 39.6353 60.9453 39.7026 60.8959 39.7522C60.8716 39.777 60.8425 39.7966 60.8106 39.81C60.7786 39.8233 60.7442 39.8301 60.7096 39.8299V39.8299Z" fill="white"/>
    <path d="M64.5507 37.6868H58.6347C58.5648 37.6868 58.4978 37.6589 58.4483 37.6093C58.3989 37.5596 58.3711 37.4923 58.3711 37.422C58.3711 37.3518 58.3989 37.2845 58.4483 37.2348C58.4978 37.1851 58.5648 37.1572 58.6347 37.1572H64.5507C64.6207 37.1572 64.6877 37.1851 64.7371 37.2348C64.7866 37.2845 64.8144 37.3518 64.8144 37.422C64.8144 37.4923 64.7866 37.5596 64.7371 37.6093C64.6877 37.6589 64.6207 37.6868 64.5507 37.6868Z" fill="white"/>
    <rect x="48.75" y="11.75" width="137.5" height="300.5" rx="23.25" stroke="#FE7B01" stroke-width="1.5"/>
    <path d="M40.5 294H36L35.5 261L46 266L54.5 273L57 278.5L56.5 282L55 288L52 291L48 293L40.5 294Z" fill="white"/>
    <path d="M45 223.5L36 219L33.5 250L43.5 249L48.5 247L51.5 244.5L53 240V234L50 229L45 223.5Z" fill="white"/>
    <path d="M5.49993 282.5C1.99993 275 6.99993 257 19.4999 257C31.9999 257 58 269.5 57 280C56 290.5 51.5001 296 28.5 293.5" stroke="#FFCA99" stroke-width="1.5" stroke-linecap="round" stroke-linejoin="round"/>
    <path d="M33.5003 260C22.6669 256.333 1.20027 246 2.00027 234C3.00027 219 14.5 213.5 25 215.5C35.5 217.5 54 225 53.5 237C53 249 45.5 250 26.5 249.5" stroke="#FFCA99" stroke-width="1.5" stroke-linecap="round" stroke-linejoin="round"/>
    <rect x="77" y="109" width="27" height="4" fill="#FE7B01"/>
    <rect x="109" y="109" width="12" height="4" fill="#FE7B01"/>
    <rect x="109" y="117" width="20" height="4" fill="#FE7B01"/>
    <rect x="124" y="109" width="5" height="4" fill="#FE7B01"/>
    <rect x="125" y="121" width="4" height="7" fill="#FE7B01"/>
    <rect x="117" y="121" width="4" height="4" fill="#FE7B01"/>
    <rect x="121" y="129" width="4" height="4" fill="#FE7B01"/>
    <rect x="121" y="136" width="4" height="16" fill="#FE7B01"/>
    <rect x="113" y="129" width="4" height="4" fill="#FE7B01"/>
    <rect x="117" y="133" width="4" height="8" fill="#FE7B01"/>
    <rect x="117" y="148" width="4" height="8" fill="#FE7B01"/>
    <rect x="113" y="141" width="4" height="15" fill="#FE7B01"/>
    <rect x="125" y="133" width="4" height="8" fill="#FE7B01"/>
    <rect x="129" y="140" width="20" height="4" fill="#FE7B01"/>
    <rect x="156" y="140" width="4" height="4" fill="#FE7B01"/>
    <rect x="93" y="140" width="4" height="4" fill="#FE7B01"/>
    <rect x="93" y="156" width="4" height="4" fill="#FE7B01"/>
    <rect x="97" y="144" width="4" height="4" fill="#FE7B01"/>
    <rect x="81" y="144" width="12" height="4" fill="#FE7B01"/>
    <rect x="77" y="140" width="4" height="4" fill="#FE7B01"/>
    <rect x="81" y="148" width="8" height="4" fill="#FE7B01"/>
    <rect x="81" y="156" width="8" height="4" fill="#FE7B01"/>
    <rect x="89" y="152" width="8" height="4" fill="#FE7B01"/>
    <rect x="77" y="148" width="4" height="12" fill="#FE7B01"/>
    <rect x="152" y="144" width="4" height="16" fill="#FE7B01"/>
    <rect x="156" y="152" width="4" height="8" fill="#FE7B01"/>
    <rect x="141" y="144" width="4" height="8" fill="#FE7B01"/>
    <rect x="137" y="152" width="4" height="8" fill="#FE7B01"/>
    <rect x="145" y="148" width="4" height="4" fill="#FE7B01"/>
    <rect x="145" y="160" width="4" height="4" fill="#FE7B01"/>
    <rect x="141" y="160" width="4" height="28" fill="#FE7B01"/>
    <rect x="149" y="164" width="8" height="4" fill="#FE7B01"/>
    <rect x="153" y="168" width="4" height="8" fill="#FE7B01"/>
    <rect x="145" y="172" width="4" height="4" fill="#FE7B01"/>
    <rect x="129" y="172" width="8" height="4" fill="#FE7B01"/>
    <rect x="117" y="176" width="12" height="4" fill="#FE7B01"/>
    <rect x="113" y="180" width="12" height="4" fill="#FE7B01"/>
    <rect x="108" y="188" width="13" height="4" fill="#FE7B01"/>
    <rect x="124" y="188" width="13" height="4" fill="#FE7B01"/>
    <rect x="133" y="164" width="4" height="4" fill="#FE7B01"/>
    <rect x="109" y="164" width="12" height="4" fill="#FE7B01"/>
    <rect x="109" y="160" width="8" height="4" fill="#FE7B01"/>
    <rect x="101" y="156" width="8" height="4" fill="#FE7B01"/>
    <rect x="97" y="148" width="12" height="4" fill="#FE7B01"/>
    <rect x="101" y="140" width="8" height="4" fill="#FE7B01"/>
    <rect x="109" y="172" width="4" height="4" fill="#FE7B01"/>
    <rect x="113" y="168" width="4" height="4" fill="#FE7B01"/>
    <rect x="121" y="168" width="4" height="8" fill="#FE7B01"/>
    <rect x="125" y="164" width="4" height="8" fill="#FE7B01"/>
    <rect x="125" y="160" width="8" height="4" fill="#FE7B01"/>
    <rect x="145" y="180" width="4" height="4" fill="#FE7B01"/>
    <rect x="133" y="180" width="4" height="4" fill="#FE7B01"/>
    <rect x="128" y="184" width="13" height="4" fill="#FE7B01"/>
    <rect x="149" y="176" width="11" height="4" fill="#FE7B01"/>
    <rect x="145" y="188" width="4" height="4" fill="#FE7B01"/>
    <rect x="156" y="188" width="4" height="4" fill="#FE7B01"/>
    <rect x="125" y="144" width="4" height="4" fill="#FE7B01"/>
    <rect x="125" y="156" width="20" height="4" fill="#FE7B01"/>
    <rect x="129" y="148" width="4" height="4" fill="#FE7B01"/>
    <rect x="133" y="144" width="4" height="8" fill="#FE7B01"/>
    <rect x="77" y="165" width="27" height="4" fill="#FE7B01"/>
    <rect x="133" y="109" width="27" height="4" fill="#FE7B01"/>
    <rect x="77" y="132" width="27" height="4" fill="#FE7B01"/>
    <rect x="77" y="188" width="27" height="4" fill="#FE7B01"/>
    <rect x="133" y="132" width="27" height="4" fill="#FE7B01"/>
    <rect x="81" y="109" width="27" height="4" transform="rotate(90 81 109)" fill="#FE7B01"/>
    <rect x="81" y="165" width="27" height="4" transform="rotate(90 81 165)" fill="#FE7B01"/>
    <rect x="137" y="109" width="27" height="4" transform="rotate(90 137 109)" fill="#FE7B01"/>
    <rect x="104" y="109" width="27" height="4" transform="rotate(90 104 109)" fill="#FE7B01"/>
    <rect x="113" y="109" width="39" height="4" transform="rotate(90 113 109)" fill="#FE7B01"/>
    <rect x="104" y="165" width="27" height="4" transform="rotate(90 104 165)" fill="#FE7B01"/>
    <rect x="160" y="109" width="27" height="4" transform="rotate(90 160 109)" fill="#FE7B01"/>
    <rect x="85" y="117" width="11" height="11" fill="#FE7B01"/>
    <rect x="85" y="173" width="11" height="11" fill="#FE7B01"/>
    <rect x="141" y="117" width="11" height="11" fill="#FE7B01"/>
</svg>
