<svg width="390" height="430" viewBox="0 0 390 430" fill="none" xmlns="http://www.w3.org/2000/svg">
    <rect x="137" y="92" width="116" height="116" fill="#F7F7F7"/>
    <path d="M172 187V186L201.5 185L206.5 184.5L209.5 182L211.5 178L216 169.5L217 171.5L218.5 172.5V174L215 176L213 179V181H214.5V184L216.5 187.5L219.5 189.5L222 190L224.5 189.5L227 188.5L229 185.5L230 182L228.5 178.5L226.5 176L227 174.5L224.5 173H221L213 138L208.5 116L209.5 114.5L217.5 110.5V109H216L204.5 112L204 112.5L210 141L214.5 164L211 169.5L206.5 176L205.5 176.5L175 178.5L172 175L168.5 173.5H165.5L163.5 174H158.5V175.5V178L157.5 183L159 187.5L162 190L165.5 191L168.5 190.5L170.5 188.5L172 187Z" fill="#FFCA99"/>
    <path d="M219.244 175.548C216.577 176.714 214.715 179.355 214.715 182.426C214.715 186.577 218.115 189.941 222.309 189.941C226.503 189.941 229.903 186.577 229.903 182.426C229.903 178.276 226.503 174.911 222.309 174.911C222.061 174.911 221.817 174.923 221.575 174.946" stroke="#FE7B01" stroke-miterlimit="10"/>
    <path d="M215.034 180.243C214.662 181.165 214.036 181.379 213.55 181.386C213.458 181.387 213.367 181.367 213.284 181.329C213.201 181.291 213.128 181.235 213.069 181.165C213.011 181.095 212.968 181.013 212.945 180.925C212.923 180.838 212.92 180.746 212.937 180.657C213.221 179.185 213.855 177.8 214.786 176.619C215.718 175.437 216.92 174.492 218.294 173.861C218.438 173.795 218.583 173.732 218.73 173.674M225.499 175.615C226.299 175.925 226.849 175.523 227.172 175.12C227.228 175.051 227.269 174.971 227.291 174.884C227.312 174.798 227.315 174.708 227.299 174.621C227.282 174.533 227.246 174.45 227.194 174.378C227.142 174.305 227.075 174.245 226.997 174.2C225.678 173.464 224.2 173.05 222.687 172.991C222.161 172.97 221.636 172.993 221.117 173.058" stroke="#FE7B01" stroke-miterlimit="10"/>
    <path d="M222.308 177.978C224.791 177.978 226.803 179.969 226.803 182.426C226.803 184.883 224.791 186.875 222.308 186.875C219.825 186.875 217.812 184.883 217.812 182.426C217.812 180.726 218.776 179.249 220.192 178.5" stroke="#FE7B01" stroke-miterlimit="10"/>
    <path d="M172.741 181.5C171.895 178.263 168.924 175.873 165.389 175.873C161.195 175.873 157.795 179.238 157.795 183.388C157.795 187.539 161.195 190.903 165.389 190.903C168.655 190.903 171.44 188.863 172.512 186" stroke="#FE7B01" stroke-miterlimit="10"/>
    <path d="M169.634 181.918C169.02 180.183 167.352 178.939 165.39 178.939C162.907 178.939 160.895 180.931 160.895 183.388C160.895 185.845 162.907 187.837 165.39 187.837C166.869 187.837 168.181 187.13 169 186.04" stroke="#FE7B01" stroke-miterlimit="10"/>
    <path d="M220.658 180.063C219.902 180.581 219.406 181.446 219.406 182.426C219.406 184.012 220.706 185.298 222.309 185.298C223.911 185.298 225.211 184.012 225.211 182.426C225.211 180.993 224.15 179.805 222.764 179.589" stroke="#FE7B01" stroke-miterlimit="10"/>
    <path d="M214.742 164.086L207.235 178.657C206.915 179.276 206.434 179.8 205.842 180.174C205.249 180.548 204.567 180.759 203.864 180.786L165.154 182.206C165.154 182.206 163.806 182.149 163.324 183.656C162.841 185.163 163.773 186.187 164.861 186.218L203.765 184.926C203.765 184.926 208.033 184.828 210.573 180.114C213.114 175.4 215.954 169.859 215.954 169.859C215.954 169.859 216.148 169.549 216.683 170.013C217.411 170.065 219.017 170.219 219.99 168.984C219.766 167.752 209.964 123.411 208.404 116.348C208.344 116.075 208.374 115.791 208.49 115.536C208.607 115.281 208.803 115.071 209.05 114.935L217.025 110.552C217.245 110.432 217.417 110.241 217.512 110.011V110.011C217.548 109.927 217.566 109.836 217.564 109.745C217.563 109.653 217.543 109.563 217.505 109.479C217.467 109.396 217.412 109.321 217.344 109.26C217.275 109.198 217.195 109.151 217.107 109.122V109.122C216.487 108.935 215.827 108.923 215.201 109.087L204.401 111.927C204.2 111.981 204.028 112.109 203.919 112.284C203.811 112.46 203.774 112.67 203.817 112.872L214.746 164.086L206.368 176.196C206.266 176.343 206.132 176.464 205.975 176.55C205.819 176.637 205.644 176.686 205.465 176.695L174.548 178.204" stroke="#FE7B01" stroke-miterlimit="10"/>
    <path d="M165.159 182.207C165.159 182.207 175.08 181.56 175.663 179.849C175.792 179.373 175.12 179.152 175.12 179.152L175.074 179.129C173.553 175.723 170.298 173.371 166.528 173.371C161.759 173.371 157.814 177.136 157.162 182.034C157.162 182.034 156.818 183.783 157.826 182.601" stroke="#FE7B01" stroke-miterlimit="10"/>
    <path d="M163.174 174.014L159.162 174.033C159.162 174.033 158.328 173.983 158.297 175.207C158.306 176.108 158.423 177.004 158.647 177.877" stroke="#FE7B01" stroke-miterlimit="10"/>
    <path d="M220 168.989L223.369 182.025C223.402 182.154 223.409 182.289 223.39 182.42C223.37 182.552 223.324 182.679 223.254 182.793C223.185 182.907 223.093 183.006 222.985 183.085C222.876 183.164 222.753 183.22 222.622 183.252V183.252C222.37 183.312 222.103 183.274 221.878 183.146C221.652 183.018 221.485 182.809 221.41 182.562L218.434 172.726C218.376 172.531 218.274 172.351 218.138 172.199C218.002 172.047 217.833 171.927 217.645 171.846V171.846C217.429 171.753 217.241 171.608 217.096 171.424C216.951 171.241 216.855 171.024 216.816 170.795L216.686 170.025" stroke="#FE7B01" stroke-miterlimit="10"/>
    <path d="M213.886 114.041C215.572 114.041 216.938 112.688 216.938 111.02C216.938 109.352 215.572 108 213.886 108C212.2 108 210.834 109.352 210.834 111.02C210.834 112.688 212.2 114.041 213.886 114.041Z" fill="#FE7B01"/>
    <path d="M245 21C251.627 21 257 26.3726 257 33V135V221C257 222.381 255.881 223.5 254.5 223.5V223.5L234.407 223.978C233.803 223.993 233.201 224.053 232.607 224.158L219.066 226.547C217.375 226.846 215.768 227.503 214.353 228.476L211.814 230.222C209.663 231.7 208.054 233.839 207.228 236.315L205.674 240.978C204.909 243.272 204.855 245.744 205.52 248.07L207.803 256.062C208.263 257.67 209.053 259.163 210.123 260.448L212.302 263.063C213.096 264.015 214.032 264.839 215.078 265.504L217.421 266.995C218.467 267.661 219.611 268.161 220.81 268.476L226.687 270.023C227.888 270.339 229.131 270.467 230.372 270.401L234.836 270.167C236.91 270.057 238.976 270.488 240.834 271.417L242 272L255 279.5V279.5C256.226 280.113 257 281.366 257 282.736V290C257 296.627 251.627 302 245 302H144C137.373 302 132 296.627 132 290V33C132 26.3726 137.373 21 144 21H245ZM139.692 195.789C139.692 197.825 140.503 199.778 141.945 201.218C143.388 202.658 145.344 203.467 147.385 203.467H241.615C243.656 203.467 245.612 202.658 247.055 201.218C248.497 199.778 249.308 197.825 249.308 195.789V101.737C249.308 99.7007 248.497 97.7479 247.055 96.3081C245.612 94.8682 243.656 94.0593 241.615 94.0593H147.385C145.344 94.0593 143.388 94.8682 141.945 96.3081C140.503 97.7479 139.692 99.7007 139.692 101.737V195.789Z" fill="#1F1E1D"/>
    <circle cx="193.5" cy="245.5" r="16" fill="#FE7B01" stroke="#FE7B01"/>
    <circle cx="193.5" cy="245.5" r="20.5" stroke="#FE7B01" stroke-width="2"/>
    <path d="M208.5 233L211.5 230L218.5 231L217 253L210.5 261L207 255.5L205 250L206 237L208.5 233Z" fill="white"/>
    <g clip-path="url(#clip0_1_429)">
        <path d="M205.457 42.7133V46.5H205.894V44.91H207.761V46.5H208.198V42.7133H207.761V44.49H205.894V42.7133H205.457ZM210.131 46.5333C210.298 46.5404 210.464 46.5107 210.62 46.4462C210.775 46.3817 210.916 46.2837 211.035 46.1585C211.153 46.0332 211.245 45.8834 211.306 45.7184C211.367 45.5535 211.395 45.377 211.388 45.2C211.388 44.9363 211.314 44.6785 211.176 44.4592C211.038 44.24 210.842 44.0691 210.612 43.9681C210.382 43.8672 210.129 43.8408 209.886 43.8923C209.642 43.9437 209.418 44.0707 209.242 44.2572C209.066 44.4436 208.946 44.6812 208.898 44.9399C208.849 45.1985 208.874 45.4666 208.969 45.7102C209.065 45.9539 209.226 46.1621 209.432 46.3086C209.639 46.4551 209.882 46.5333 210.131 46.5333ZM210.131 46.1367C209.955 46.1446 209.78 46.0965 209.63 45.9984C209.48 45.9003 209.361 45.7568 209.288 45.5863C209.216 45.4158 209.193 45.2261 209.223 45.0418C209.253 44.8574 209.334 44.6868 209.456 44.5519C209.578 44.417 209.736 44.324 209.908 44.2849C210.081 44.2458 210.26 44.2623 210.424 44.3324C210.588 44.4025 210.728 44.5229 210.826 44.6781C210.924 44.8333 210.977 45.0163 210.976 45.2033C210.981 45.3242 210.963 45.445 210.923 45.5583C210.883 45.6715 210.821 45.7749 210.742 45.8622C210.663 45.9495 210.568 46.0189 210.463 46.066C210.358 46.1132 210.245 46.1372 210.131 46.1367V46.1367ZM211.624 43.9033L212.466 46.5H212.84L213.403 44.5967L213.971 46.5H214.352L215.197 43.9033H214.779L214.151 45.8533L213.579 43.9033H213.233L212.667 45.8533L212.039 43.9033H211.624ZM217.768 46.5333C217.98 46.5436 218.189 46.488 218.371 46.3733L218.255 46C218.128 46.0801 217.985 46.1258 217.837 46.1333C217.608 46.1333 217.542 45.9833 217.542 45.67V44.2767H218.353V43.9033H217.542V42.97L217.133 43.0167V43.9033H216.819V44.2767H217.133V45.7267C217.133 46.25 217.334 46.5333 217.768 46.5333ZM219.889 46.5333C220.138 46.5333 220.381 46.4551 220.588 46.3086C220.795 46.1621 220.956 45.9539 221.051 45.7102C221.146 45.4666 221.171 45.1985 221.122 44.9399C221.074 44.6812 220.954 44.4436 220.778 44.2572C220.603 44.0707 220.379 43.9437 220.135 43.8923C219.891 43.8408 219.638 43.8672 219.408 43.9681C219.179 44.0691 218.982 44.24 218.844 44.4592C218.706 44.6785 218.632 44.9363 218.632 45.2C218.626 45.3768 218.654 45.5531 218.715 45.7179C218.776 45.8826 218.869 46.0322 218.987 46.1573C219.105 46.2825 219.246 46.3805 219.401 46.4452C219.556 46.5098 219.723 46.5399 219.889 46.5333ZM219.889 46.1367C219.713 46.1446 219.539 46.0965 219.389 45.9984C219.238 45.9003 219.119 45.7568 219.047 45.5863C218.974 45.4158 218.951 45.2261 218.981 45.0418C219.011 44.8574 219.093 44.6868 219.215 44.5519C219.337 44.417 219.495 44.324 219.667 44.2849C219.839 44.2458 220.019 44.2623 220.183 44.3324C220.346 44.4025 220.486 44.5229 220.585 44.6781C220.683 44.8333 220.735 45.0163 220.735 45.2033C220.74 45.3244 220.723 45.4453 220.683 45.5588C220.642 45.6723 220.581 45.7759 220.502 45.8633C220.423 45.9507 220.328 46.02 220.222 46.067C220.117 46.114 220.004 46.1377 219.889 46.1367V46.1367ZM223.13 43.9033V47.57H223.535V46.0533C223.629 46.206 223.759 46.3303 223.911 46.4144C224.064 46.4985 224.234 46.5395 224.406 46.5333C224.567 46.5373 224.728 46.5057 224.878 46.4405C225.027 46.3753 225.162 46.2779 225.274 46.1545C225.387 46.031 225.474 45.8843 225.53 45.7234C225.586 45.5626 225.61 45.3912 225.6 45.22C225.61 45.0473 225.586 44.8742 225.531 44.7115C225.476 44.5487 225.39 44.3996 225.278 44.2733C225.167 44.1469 225.032 44.046 224.883 43.9767C224.733 43.9073 224.572 43.871 224.409 43.87C224.236 43.8656 224.066 43.9083 223.913 43.9941C223.761 44.0799 223.632 44.2059 223.538 44.36V43.9033H223.13ZM224.355 46.1367C224.242 46.1391 224.13 46.1168 224.026 46.0713C223.921 46.0257 223.827 45.9578 223.748 45.8719C223.669 45.7859 223.608 45.6836 223.568 45.5715C223.528 45.4593 223.511 45.3397 223.516 45.22C223.509 45.0988 223.526 44.9773 223.565 44.8631C223.604 44.7488 223.664 44.6442 223.743 44.5558C223.821 44.4673 223.916 44.3968 224.021 44.3486C224.126 44.3004 224.239 44.2755 224.354 44.2755C224.468 44.2755 224.582 44.3004 224.687 44.3486C224.792 44.3968 224.887 44.4673 224.965 44.5558C225.044 44.6442 225.104 44.7488 225.143 44.8631C225.182 44.9773 225.198 45.0988 225.191 45.22C225.198 45.3407 225.18 45.4614 225.14 45.5745C225.1 45.6875 225.038 45.7905 224.958 45.8767C224.878 45.963 224.782 46.0306 224.676 46.0754C224.57 46.1201 224.457 46.141 224.343 46.1367H224.355ZM227.25 46.5333C227.423 46.5382 227.595 46.4942 227.746 46.4057C227.898 46.3173 228.025 46.1876 228.114 46.03V46.5H228.504V43.9033H228.114V44.36C228.025 44.2049 227.9 44.0773 227.75 43.9901C227.6 43.9029 227.43 43.8592 227.259 43.8633C227.096 43.8639 226.934 43.8999 226.785 43.969C226.635 44.0381 226.5 44.139 226.388 44.2654C226.276 44.3918 226.19 44.541 226.134 44.704C226.079 44.867 226.055 45.0403 226.065 45.2133C226.055 45.3841 226.079 45.5551 226.134 45.7159C226.189 45.8766 226.275 46.0235 226.386 46.1474C226.497 46.2713 226.631 46.3695 226.78 46.4359C226.929 46.5023 227.089 46.5355 227.25 46.5333V46.5333ZM227.31 46.1367C227.196 46.1401 227.084 46.1185 226.979 46.0733C226.874 46.0281 226.779 45.9603 226.7 45.8741C226.621 45.7879 226.56 45.6852 226.52 45.5726C226.481 45.46 226.464 45.3399 226.471 45.22C226.461 45.098 226.475 44.9751 226.512 44.8592C226.549 44.7432 226.608 44.6367 226.686 44.5464C226.764 44.4562 226.859 44.3841 226.965 44.3348C227.071 44.2855 227.185 44.26 227.3 44.26C227.416 44.26 227.53 44.2855 227.636 44.3348C227.741 44.3841 227.836 44.4562 227.914 44.5464C227.992 44.6367 228.052 44.7432 228.089 44.8592C228.126 44.9751 228.14 45.098 228.13 45.22C228.136 45.3382 228.12 45.4566 228.082 45.5678C228.043 45.679 227.984 45.7807 227.907 45.8666C227.83 45.9525 227.737 46.0208 227.635 46.0672C227.532 46.1137 227.421 46.1373 227.31 46.1367V46.1367ZM229.252 43.9033V46.5H229.661V45.2467C229.647 45.1344 229.657 45.0203 229.688 44.9121C229.719 44.8039 229.772 44.704 229.842 44.6189C229.912 44.5338 229.999 44.4656 230.096 44.4187C230.193 44.3717 230.299 44.3472 230.405 44.3467H230.566V43.8767C230.532 43.8733 230.499 43.8733 230.465 43.8767C230.305 43.8808 230.15 43.9292 230.013 44.0168C229.876 44.1045 229.763 44.2286 229.686 44.3767V43.9033H229.252ZM231.025 42.57V46.5H231.433V45.8533L231.936 45.28L232.675 46.5H233.143L232.219 44.9733L233.143 43.9033H232.64L231.439 45.3333V42.5733L231.025 42.57ZM233.897 45.1033V45.3933H234.262V45.1267C234.262 44.9067 234.488 44.72 234.705 44.49C234.839 44.372 234.948 44.2257 235.026 44.0604C235.104 43.8952 235.149 43.7145 235.157 43.53C235.158 43.3941 235.132 43.2595 235.081 43.1346C235.031 43.0096 234.957 42.8969 234.864 42.8033C234.771 42.7097 234.661 42.6372 234.541 42.5902C234.42 42.5432 234.292 42.5227 234.164 42.53C233.978 42.5278 233.794 42.5715 233.627 42.6577C233.459 42.7439 233.313 42.8702 233.199 43.0267L233.514 43.33C233.583 43.2194 233.676 43.1282 233.785 43.0643C233.895 43.0004 234.017 42.9657 234.142 42.9633C234.218 42.957 234.294 42.9679 234.365 42.9953C234.436 43.0227 234.501 43.066 234.555 43.1222C234.61 43.1784 234.652 43.2462 234.679 43.3212C234.707 43.3961 234.719 43.4764 234.714 43.5567C234.69 43.8452 234.562 44.1127 234.356 44.3033C234.13 44.5533 233.894 44.7767 233.897 45.1067V45.1033ZM234.089 46.5333C234.13 46.5379 234.172 46.5331 234.212 46.5193C234.252 46.5056 234.288 46.4831 234.319 46.4534C234.35 46.4237 234.375 46.3875 234.392 46.347C234.409 46.3065 234.418 46.2626 234.418 46.2183C234.418 46.174 234.409 46.1302 234.392 46.0897C234.375 46.0492 234.35 46.0129 234.319 45.9832C234.288 45.9535 234.252 45.9311 234.212 45.9173C234.172 45.9035 234.13 45.8988 234.089 45.9033C234.047 45.8988 234.005 45.9035 233.966 45.9173C233.926 45.9311 233.889 45.9535 233.858 45.9832C233.827 46.0129 233.802 46.0492 233.785 46.0897C233.768 46.1302 233.76 46.174 233.76 46.2183C233.76 46.2626 233.768 46.3065 233.785 46.347C233.802 46.3875 233.827 46.4237 233.858 46.4534C233.889 46.4831 233.926 46.5056 233.966 46.5193C234.005 46.5331 234.047 46.5379 234.089 46.5333V46.5333Z" fill="white"/>
        <path d="M244.3 46.0833C244.238 46.0825 244.178 46.0558 244.134 46.0091C244.09 45.9624 244.065 45.8994 244.064 45.8333V44.1667C244.064 44.1004 244.089 44.0368 244.133 43.9899C244.178 43.943 244.237 43.9167 244.3 43.9167C244.363 43.9167 244.422 43.943 244.467 43.9899C244.511 44.0368 244.536 44.1004 244.536 44.1667V45.8333C244.535 45.8994 244.51 45.9624 244.466 46.0091C244.422 46.0558 244.362 46.0825 244.3 46.0833Z" fill="white"/>
        <path d="M244.3 43.5C244.217 43.5 244.137 43.4649 244.078 43.4024C244.019 43.3399 243.986 43.2551 243.986 43.1667C243.986 43.0783 244.019 42.9935 244.078 42.931C244.137 42.8685 244.217 42.8333 244.3 42.8333C244.383 42.8333 244.463 42.8685 244.522 42.931C244.581 42.9935 244.614 43.0783 244.614 43.1667C244.614 43.2551 244.581 43.3399 244.522 43.4024C244.463 43.4649 244.383 43.5 244.3 43.5Z" fill="white"/>
        <path d="M245.243 48.0833H243.357C241.651 48.0833 240.921 47.31 240.921 45.5V43.5C240.921 41.69 241.651 40.9167 243.357 40.9167H245.243C246.949 40.9167 247.679 41.69 247.679 43.5V45.5C247.679 47.31 246.949 48.0833 245.243 48.0833ZM243.357 41.4167C241.908 41.4167 241.393 41.9633 241.393 43.5V45.5C241.393 47.0367 241.908 47.5833 243.357 47.5833H245.243C246.692 47.5833 247.207 47.0367 247.207 45.5V43.5C247.207 41.9633 246.692 41.4167 245.243 41.4167H243.357Z" fill="white"/>
        <g opacity="0.5">
            <path d="M260.514 50.4633L260.049 50.37L260.514 50.4633ZM258.194 52.5V53V52.5ZM199.828 52.5V53V52.5ZM197.512 49.5233L197.05 49.43L197.512 49.5233ZM199.486 38.5233L199.024 38.4433L199.486 38.5233ZM201.808 36.5V37V36.5ZM260.171 36.5V36V36.5ZM262.025 39.3833L260.052 50.3833L260.979 50.57L262.953 39.57L262.025 39.3833ZM260.052 50.3833C259.97 50.8419 259.74 51.2558 259.401 51.5533L260.002 52.3233C260.51 51.8777 260.856 51.2575 260.979 50.57L260.052 50.3833ZM259.401 51.5533C259.06 51.8467 258.633 52.0047 258.194 52V53C258.853 52.9998 259.491 52.7558 259.998 52.31L259.401 51.5533ZM258.194 52H199.828V53H258.191L258.194 52ZM199.828 52C199.55 51.9987 199.276 51.9339 199.024 51.81L198.628 52.7133C199.003 52.9019 199.413 52.9998 199.828 53V52ZM199.024 51.81C198.773 51.6829 198.551 51.4998 198.373 51.2733L197.65 51.91C197.917 52.2505 198.25 52.5247 198.628 52.7133L199.024 51.81ZM198.376 51.2733C198.201 51.0447 198.073 50.7787 198.002 50.4933L197.088 50.74C197.192 51.1693 197.384 51.5689 197.65 51.91L198.376 51.2733ZM198.002 50.4933C197.933 50.2067 197.924 49.9073 197.977 49.6167L197.05 49.43C196.971 49.8643 196.984 50.3116 197.088 50.74L198.002 50.4933ZM197.977 49.6167L199.951 38.6167L199.024 38.4433L197.05 49.4433L197.977 49.6167ZM199.951 38.6167C200.032 38.1581 200.263 37.7442 200.601 37.4467L200.001 36.69C199.493 37.1357 199.147 37.7559 199.024 38.4433L199.951 38.6167ZM200.601 37.4467C200.942 37.1533 201.369 36.9953 201.808 37V36C201.149 35.9994 200.509 36.2435 200.001 36.69L200.601 37.4467ZM201.808 37H260.171V36H201.808V37ZM260.171 37C260.449 37.001 260.724 37.0658 260.976 37.19L261.375 36.2867C260.998 36.0983 260.587 36.0005 260.171 36V37ZM260.976 37.19C261.227 37.3158 261.449 37.4991 261.626 37.7267L262.352 37.09C262.087 36.7494 261.755 36.4751 261.378 36.2867L260.976 37.19ZM261.626 37.7267C261.802 37.9553 261.93 38.2213 262 38.5067L262.915 38.26C262.811 37.8307 262.619 37.4311 262.352 37.09L261.626 37.7267ZM262 38.5067C262.07 38.7933 262.078 39.0927 262.025 39.3833L262.968 39.57C263.047 39.1357 263.034 38.6884 262.931 38.26L262 38.5067Z" fill="white"/>
        </g>
    </g>
    <g clip-path="url(#clip1_1_429)">
        <g opacity="0.5">
            <path d="M151.31 50.4633L150.807 50.37L151.31 50.4633ZM148.801 52.5V53V52.5ZM123.06 52.5V53V52.5ZM120.554 49.5233L120.054 49.43L120.554 49.5233ZM122.689 38.5233L122.189 38.4433L122.689 38.5233ZM125.202 36.5V37V36.5ZM150.94 36.5V36V36.5ZM152.946 39.3833L150.811 50.3833L151.831 50.57L153.966 39.57L152.946 39.3833ZM150.811 50.3833C150.722 50.8419 150.473 51.2558 150.107 51.5533L150.756 52.3233C151.306 51.8777 151.681 51.2575 151.814 50.57L150.811 50.3833ZM150.107 51.5533C149.738 51.8467 149.276 52.0047 148.801 52V53C149.514 52.9998 150.204 52.7558 150.753 52.31L150.107 51.5533ZM148.801 52H123.06V53H148.798L148.801 52ZM123.06 52C122.759 51.999 122.462 51.9342 122.189 51.81L121.761 52.7133C122.167 52.9019 122.611 52.9998 123.06 53V52ZM122.189 51.81C121.918 51.6829 121.678 51.4998 121.486 51.2733L120.704 51.91C120.991 52.251 121.352 52.5253 121.761 52.7133L122.189 51.81ZM121.489 51.2733C121.299 51.0447 121.161 50.7787 121.084 50.4933L120.095 50.74C120.207 51.1693 120.415 51.5689 120.704 51.91L121.489 51.2733ZM121.084 50.4933C121.009 50.2067 121 49.9073 121.057 49.6167L120.054 49.43C119.969 49.8643 119.983 50.3116 120.095 50.74L121.084 50.4933ZM121.057 49.6167L123.192 38.6167L122.189 38.4433L120.054 49.4433L121.057 49.6167ZM123.192 38.6167C123.281 38.1581 123.53 37.7442 123.896 37.4467L123.247 36.69C122.697 37.1357 122.323 37.7559 122.189 38.4433L123.192 38.6167ZM123.896 37.4467C124.265 37.1533 124.727 36.9953 125.202 37V36C124.488 35.9994 123.796 36.2435 123.247 36.69L123.896 37.4467ZM125.202 37H150.94V36H125.202V37ZM150.94 37C151.241 37.001 151.537 37.0658 151.81 37.19L152.242 36.2867C151.835 36.0983 151.39 36.0005 150.94 36V37ZM151.81 37.19C152.082 37.3158 152.323 37.4991 152.514 37.7267L153.299 37.09C153.012 36.749 152.651 36.4747 152.242 36.2867L151.81 37.19ZM152.514 37.7267C152.704 37.9553 152.842 38.2213 152.919 38.5067L153.908 38.26C153.796 37.8307 153.588 37.4311 153.299 37.09L152.514 37.7267ZM152.919 38.5067C152.994 38.7933 153.003 39.0927 152.946 39.3833L153.966 39.57C154.051 39.1357 154.037 38.6884 153.925 38.26L152.919 38.5067Z" fill="white"/>
        </g>
        <path d="M139.064 46.7733C139.03 46.7735 138.997 46.7671 138.966 46.7545C138.935 46.7419 138.907 46.7234 138.884 46.7L136.82 44.6667C136.772 44.6198 136.745 44.5562 136.745 44.49C136.745 44.4237 136.772 44.3602 136.82 44.3133L138.884 42.29C138.935 42.2431 139.002 42.218 139.072 42.2202C139.142 42.2224 139.208 42.2517 139.256 42.3017C139.304 42.3516 139.329 42.4181 139.327 42.4866C139.325 42.555 139.295 42.6198 139.244 42.6667L137.36 44.5L139.244 46.3333C139.292 46.3802 139.319 46.4437 139.319 46.51C139.319 46.5762 139.292 46.6398 139.244 46.6867C139.222 46.7124 139.194 46.7335 139.163 46.7484C139.132 46.7633 139.098 46.7718 139.064 46.7733V46.7733Z" fill="white"/>
        <path d="M142.78 44.75H137.058C136.99 44.75 136.925 44.7237 136.877 44.6768C136.83 44.6299 136.803 44.5663 136.803 44.5C136.803 44.4337 136.83 44.3701 136.877 44.3232C136.925 44.2763 136.99 44.25 137.058 44.25H142.78C142.848 44.25 142.912 44.2763 142.96 44.3232C143.008 44.3701 143.035 44.4337 143.035 44.5C143.035 44.5663 143.008 44.6299 142.96 44.6768C142.912 44.7237 142.848 44.75 142.78 44.75Z" fill="white"/>
    </g>
    <path d="M267.875 132.605C267.875 132.605 278.359 120.903 295.943 128.287C313.528 135.671 314.111 161.359 297.915 170.421C288.443 175.797 278.771 179.365 268 181" stroke="#FFCA99" stroke-width="1.5" stroke-miterlimit="10" stroke-linecap="round" stroke-linejoin="round"/>
    <path d="M-5.64062 233.746C-5.64062 233.746 29.1705 221.909 45.6576 212.869C62.1448 203.829 68.8651 189.24 68.3946 170.108C67.9242 150.977 66.5353 134.307 72.1132 113.541C77.691 92.7764 80.4912 66.5516 93.5285 65.6566C106.566 64.7615 120.051 67.2229 120.208 85.7951C120.365 104.367 114.227 126.855 113.488 135.47C112.749 144.085 120.5 168 120.5 168" stroke="#FFCA99" stroke-width="1.5" stroke-miterlimit="10" stroke-linecap="round" stroke-linejoin="round"/>
    <path d="M-3.13281 350.37C-3.13281 350.37 66.0638 324.168 84.4998 331.44C102.936 338.712 123.119 351.086 164.628 337.258C206.137 323.429 219.488 312.778 219.488 312.778" stroke="#FFCA99" stroke-width="1.5" stroke-miterlimit="10" stroke-linecap="round" stroke-linejoin="round"/>
    <path d="M278 235.5C278 235.5 290.477 229.584 300.983 236.297C307.137 240.091 311.778 245.906 314.11 252.743" stroke="#FFCA99" stroke-width="1.5" stroke-miterlimit="10" stroke-linecap="round" stroke-linejoin="round"/>
    <path d="M273.43 232.538C273.43 232.538 326.654 222.983 323.586 197.542C320.517 172.1 297.914 170.422 297.914 170.422" stroke="#FFCA99" stroke-width="1.5" stroke-miterlimit="10" stroke-linecap="round" stroke-linejoin="round"/>
    <path d="M267.74 285.5V289.236M259.912 307.663C256.2 310.719 251.443 312.555 246.257 312.555H142.07C130.206 312.555 120.588 302.948 120.588 291.096V31.5779C120.588 19.7265 130.206 10.1191 142.07 10.1191H246.257C258.122 10.1191 267.74 19.7265 267.74 31.5779V229" stroke="#FFCA99" stroke-width="1.5" stroke-miterlimit="10" stroke-linecap="round" stroke-linejoin="round"/>
    <path d="M261.49 282.5V289.663C261.49 299.006 253.908 306.58 244.555 306.58H143.773C134.42 306.58 126.838 299.006 126.838 289.663V33.0316C126.838 23.6889 134.42 16.1152 143.773 16.1152H244.555C253.908 16.1152 261.49 23.6889 261.49 33.0316V225" stroke="#FFCA99" stroke-width="1.5" stroke-miterlimit="10" stroke-linecap="round" stroke-linejoin="round"/>
    <path d="M256.719 280.5V289.127C256.719 296.097 251.062 301.747 244.085 301.747H144.244C137.266 301.747 131.609 296.097 131.609 289.127V33.5469C131.609 26.577 137.266 20.9268 144.244 20.9268H244.085C251.062 20.9268 256.719 26.577 256.719 33.5469V224" stroke="#FE7B01" stroke-width="1.5" stroke-miterlimit="10" stroke-linecap="round" stroke-linejoin="round"/>
    <path d="M393.902 428.866C393.902 428.866 392.558 417.834 360.435 409.466C328.312 401.097 315.409 390.245 302.192 387.671C288.975 385.098 264.11 381.227 244.846 369.972C225.581 358.717 220.204 345.895 227.507 333.208C234.81 320.521 251.319 324.078 262.43 327.457C269.122 329.492 281.072 331.811 289.518 333.334C293.532 334.058 296.583 329.913 294.724 326.282C288.935 314.971 278.937 295.808 273.944 288.411C267.583 285.435 240.007 274.135 234.832 264.625" stroke="#FE7B01" stroke-width="1.5" stroke-miterlimit="10" stroke-linecap="round" stroke-linejoin="round"/>
    <path d="M239.783 270.04C239.783 270.04 219.891 274.292 210.505 261.09C201.119 247.888 202.62 229.271 221.146 226.049C239.671 222.827 256.696 222.178 262.812 226.183C268.927 230.189 283.846 239.609 294.621 245.807C305.396 252.005 310.503 255.474 320.629 269.436C326.111 277.387 333.415 283.915 341.932 288.478" stroke="#FE7B01" stroke-width="1.5" stroke-miterlimit="10" stroke-linecap="round" stroke-linejoin="round"/>
    <path d="M307.928 254.847C307.928 254.847 320.45 247.866 335.615 257.89C350.781 267.915 356 272.882 363.146 274.627" stroke="#FE7B01" stroke-width="1.5" stroke-miterlimit="10" stroke-linecap="round" stroke-linejoin="round"/>
    <path d="M347.42 265.609C347.42 265.609 376.541 259.501 392.222 269.682" stroke="#FE7B01" stroke-width="1.5" stroke-miterlimit="10" stroke-linecap="round" stroke-linejoin="round"/>
    <path d="M261.333 327.211C261.333 327.211 253.783 295.884 271.01 286.934" stroke="#FE7B01" stroke-width="1.5" stroke-miterlimit="10" stroke-linecap="round" stroke-linejoin="round"/>
    <path d="M290.926 319.894C286.507 320.345 282.043 319.903 277.799 318.596" stroke="#FE7B01" stroke-width="1.5" stroke-miterlimit="10" stroke-linecap="round" stroke-linejoin="round"/>
    <path d="M315 38.9417C315 38.9417 307.548 38.072 310.561 29C307.548 34.4082 307.071 35.2829 302 33.8834C305.635 37.7221 307.071 37.5472 305.803 44C308.816 39.4665 308.025 37.897 315 38.9417Z" stroke="#FFCA99" stroke-linecap="round" stroke-linejoin="round"/>
    <path d="M288.626 6.33558C288.462 5.20617 286.839 5.1885 286.65 6.31408L285.277 14.5199C285.213 14.9018 284.934 15.2124 284.562 15.3174L276.95 17.4608C275.892 17.7587 276.019 19.2971 277.111 19.4174L284.694 20.2524C285.138 20.3012 285.495 20.6385 285.57 21.0787L286.786 28.2301C286.975 29.339 288.567 29.3403 288.758 28.2316L290.057 20.6632C290.124 20.2753 290.412 19.9625 290.793 19.8641L296.708 18.3362C297.74 18.0697 297.695 16.5886 296.648 16.3862L290.593 15.2153C290.175 15.1345 289.854 14.7982 289.793 14.3771L288.626 6.33558Z" fill="#FE7B01"/>
    <defs>
        <clipPath id="clip0_1_429">
            <rect width="66" height="17" fill="white" transform="translate(197 36)"/>
        </clipPath>
        <clipPath id="clip1_1_429">
            <rect width="34" height="17" fill="white" transform="translate(120 36)"/>
        </clipPath>
    </defs>
</svg>
