<svg width="103" height="80" viewBox="0 0 103 80" fill="none" xmlns="http://www.w3.org/2000/svg">
    <mask id="mask0_0_5" style="mask-type:alpha" maskUnits="userSpaceOnUse" x="0" y="0" width="103" height="80">
        <path d="M102.635 14.8821L92.1596 69.8125C91.6134 72.6779 90.0852 75.263 87.8382 77.1226C85.5913 78.9821 82.7663 79.9997 79.8498 80H12.5314C10.6867 79.9995 8.86488 79.5918 7.19588 78.806C5.52688 78.0201 4.05185 76.8755 2.87608 75.4539C1.70032 74.0322 0.852791 72.3685 0.393952 70.5815C-0.0648878 68.7945 -0.123719 66.9282 0.221668 65.1158L10.6976 10.1854C11.2442 7.32022 12.7728 4.73545 15.0199 2.87628C17.267 1.01711 20.0921 -5.705e-05 23.0084 2.39991e-09H90.3257C92.1704 0.000492825 93.9923 0.408202 95.6613 1.19404C97.3303 1.97987 98.8053 3.12446 99.9811 4.54613C101.157 5.96779 102.004 7.63149 102.463 9.41851C102.922 11.2055 102.981 13.0718 102.635 14.8842" fill="#FFE8D3"/>
    </mask>
    <g mask="url(#mask0_0_5)">
        <path d="M102.778 14.8821L92.2876 69.8125C91.7407 72.6779 90.2103 75.263 87.9602 77.1226C85.7101 78.9822 82.8812 79.9997 79.9607 80H12.5488C10.7016 79.9995 8.87719 79.5918 7.20587 78.806C5.53455 78.0201 4.05748 76.8755 2.88008 75.4539C1.70268 74.0322 0.853976 72.3685 0.394499 70.5815C-0.0649779 68.7945 -0.12389 66.9282 0.221976 65.1158L10.7125 10.1854C11.2598 7.32023 12.7905 4.73545 15.0408 2.87628C17.291 1.01711 20.12 -5.705e-05 23.0404 2.39991e-09H90.4512C92.2984 0.000492826 94.1228 0.408202 95.7942 1.19404C97.4655 1.97987 98.9425 3.12446 100.12 4.54613C101.297 5.9678 102.146 7.63149 102.605 9.41851C103.065 11.2055 103.124 13.0718 102.778 14.8842" fill="#FFE8D3"/>
        <path d="M80.313 61.0743C80.0072 57.1678 79.7643 53.9847 79.6833 53.0714C79.6833 52.99 79.6833 52.9177 79.6833 52.8363C79.091 47.6853 77.9388 42.6152 76.2473 37.7167C75.9834 36.9722 76.0156 36.154 76.3374 35.4328C76.6592 34.7116 77.2457 34.1432 77.9743 33.8464C82.5707 31.9745 84.8733 27.3627 80.6728 23.0855C77.1558 19.4683 72.9282 22.4163 70.7785 24.46C70.3187 24.8888 69.7383 25.1642 69.1167 25.2484C68.4951 25.3326 67.8628 25.2214 67.3065 24.9302L59.4541 20.7886C59.4217 20.7733 59.3942 20.7489 59.375 20.7185C59.3558 20.6881 59.3456 20.6528 59.3456 20.6168C59.3456 20.5808 59.3558 20.5454 59.375 20.515C59.3942 20.4846 59.4217 20.4603 59.4541 20.445C60.6864 20.02 64.0414 18.6364 61.325 17.072C59.0313 15.7427 56.099 17.2438 54.5429 18.2747C54.5061 18.303 54.4603 18.3168 54.414 18.3134C54.3678 18.3099 54.3244 18.2895 54.2922 18.256C54.26 18.2225 54.2411 18.1782 54.2393 18.1316C54.2374 18.0851 54.2527 18.0394 54.2821 18.0034C55.2895 16.5385 56.5038 13.9703 53.4366 13.057C49.8387 11.999 46.1148 16.448 44.8915 18.0848C44.8675 18.1186 44.833 18.1435 44.7934 18.1557C44.7539 18.168 44.7115 18.1668 44.6727 18.1524C44.6338 18.1381 44.6008 18.1113 44.5786 18.0762C44.5564 18.0411 44.5462 17.9997 44.5497 17.9582C44.6307 16.8821 44.5497 14.9922 42.8677 15.0645C39.9894 15.2182 39.1258 18.1481 38.6671 20.4902C38.5534 21.0364 38.3212 21.5507 37.9868 21.9962C37.6525 22.4417 37.2245 22.8075 36.7333 23.0674C35.695 23.6454 34.7132 24.3206 33.801 25.084C33.1923 25.5709 32.4199 25.8023 31.6454 25.7299C30.8708 25.6574 30.1542 25.2866 29.6454 24.6951C26.3803 20.888 21.55 20.87 19.3373 25.1653C17.1246 29.4606 19.6971 31.7846 23.457 33.8464C24.1058 34.2074 24.5995 34.7963 24.8435 35.5004C25.0874 36.2045 25.0645 36.9743 24.7792 37.6625C22.7643 42.7084 22.0808 51.6155 21.8919 59.528C21.8919 59.7631 21.8919 60.0072 21.8919 60.2423V60.3599C21.8919 61.0019 21.8919 61.635 21.9548 62.268C22.2247 66.4729 22.5485 70.6778 22.7194 74.9279C22.7913 76.628 22.8723 78.3461 22.9623 80.0461H81.6532C81.6532 79.9195 81.6532 79.8019 81.6532 79.6934C81.4463 76.2391 80.8077 67.6304 80.313 61.0743ZM48.5074 46.1627C48.5074 46.5 48.4413 46.8339 48.3129 47.1455C48.1846 47.4571 47.9964 47.7402 47.7592 47.9787C47.522 48.2172 47.2404 48.4063 46.9305 48.5354C46.6205 48.6644 46.2884 48.7309 45.9529 48.7309C45.6175 48.7309 45.2852 48.6644 44.9753 48.5354C44.6654 48.4063 44.3838 48.2172 44.1466 47.9787C43.9094 47.7402 43.7212 47.4571 43.5928 47.1455C43.4645 46.8339 43.3984 46.5 43.3984 46.1627V46.0813C43.4032 46.0514 43.4032 46.0209 43.3984 45.9909C43.4567 45.669 43.444 45.3381 43.3611 45.0217C43.2782 44.7052 43.1271 44.411 42.9186 44.1597C42.7101 43.9085 42.4493 43.7063 42.1545 43.5676C41.8597 43.4289 41.5381 43.357 41.2127 43.357C40.8872 43.357 40.5656 43.4289 40.2708 43.5676C39.976 43.7063 39.7152 43.9085 39.5067 44.1597C39.2982 44.411 39.1471 44.7052 39.0642 45.0217C38.9813 45.3381 38.9686 45.669 39.0269 45.9909V46.1627C39.0269 46.5 38.9608 46.8339 38.8325 47.1455C38.7041 47.4571 38.5159 47.7402 38.2787 47.9787C38.0415 48.2172 37.7599 48.4063 37.45 48.5354C37.1401 48.6644 36.8078 48.7309 36.4724 48.7309C36.1369 48.7309 35.8048 48.6644 35.4948 48.5354C35.1849 48.4063 34.9033 48.2172 34.6661 47.9787C34.4289 47.7402 34.2407 47.4571 34.1123 47.1455C33.984 46.8339 33.9179 46.5 33.9179 46.1627V45.9909C33.9843 44.0893 34.7824 42.2878 36.144 40.9661C37.5056 39.6444 39.3244 38.9058 41.2172 38.9058C43.1099 38.9058 44.9287 39.6444 46.2903 40.9661C47.6519 42.2878 48.45 44.0893 48.5164 45.9909L48.5074 46.1627ZM67.5134 46.1627C67.5134 46.8439 67.2443 47.4971 66.7652 47.9787C66.2861 48.4603 65.6364 48.7309 64.9589 48.7309C64.2814 48.7309 63.6316 48.4603 63.1526 47.9787C62.6735 47.4971 62.4044 46.8439 62.4044 46.1627V45.9909C62.4627 45.669 62.45 45.3381 62.3671 45.0217C62.2842 44.7052 62.1331 44.411 61.9246 44.1597C61.7161 43.9085 61.4552 43.7063 61.1604 43.5676C60.8656 43.4289 60.5441 43.357 60.2186 43.357C59.8931 43.357 59.5716 43.4289 59.2768 43.5676C58.982 43.7063 58.7212 43.9085 58.5127 44.1597C58.3042 44.411 58.1531 44.7052 58.0702 45.0217C57.9873 45.3381 57.9746 45.669 58.0329 45.9909C58.0285 46.027 58.0285 46.0634 58.0329 46.0994V46.1627C58.0329 46.8423 57.765 47.4941 57.2879 47.9755C56.8107 48.4569 56.1633 48.7285 55.4874 48.7309C55.1508 48.7333 54.8172 48.6685 54.5056 48.5404C54.1941 48.4123 53.911 48.2234 53.6726 47.9845C53.4342 47.7457 53.2453 47.4618 53.1167 47.149C52.9882 46.8363 52.9227 46.5011 52.9239 46.1627V45.9909C52.9903 44.0893 53.7884 42.2878 55.15 40.9661C56.5116 39.6444 58.3304 38.9058 60.2231 38.9058C62.1158 38.9058 63.9346 39.6444 65.2963 40.9661C66.6579 42.2878 67.456 44.0893 67.5224 45.9909L67.5134 46.1627Z" fill="#FE7B01"/>
    </g>
</svg>
