<svg width="366" height="56" viewBox="0 0 366 56" fill="none" xmlns="http://www.w3.org/2000/svg">
    <path d="M365.845 10.4175L358.512 48.8688C358.129 50.8745 357.06 52.6841 355.487 53.9858C353.914 55.2875 351.936 55.9998 349.895 56H-17.228C-18.5193 55.9997 -19.7946 55.7143 -20.9629 55.1642C-22.1312 54.6141 -23.1637 53.8129 -23.9867 52.8177C-24.8098 51.8225 -25.403 50.658 -25.7242 49.407C-26.0454 48.1561 -26.0866 46.8497 -25.8448 45.5811L-18.5117 7.12975C-18.1291 5.12416 -17.0591 3.31482 -15.4861 2.0134C-13.9131 0.711975 -11.9355 -3.9935e-05 -9.89412 1.67994e-09H357.228C358.519 0.000344978 359.795 0.285741 360.963 0.835826C362.131 1.38591 363.164 2.18712 363.987 3.18229C364.81 4.17746 365.403 5.34205 365.724 6.59296C366.045 7.84387 366.087 9.15027 365.845 10.4189" fill="#F7F7F7"/>
</svg>
