<svg width="342" height="72" viewBox="0 0 342 72" fill="none" xmlns="http://www.w3.org/2000/svg">
    <path d="M341.801 13.3939L332.395 62.8313C331.905 65.4101 330.533 67.7367 328.516 69.4103C326.498 71.0839 323.962 71.9997 321.343 72H11.251C9.59482 71.9996 7.95912 71.6326 6.46065 70.9254C4.96218 70.2181 3.63786 69.188 2.58222 67.9085C1.52659 66.629 0.765659 65.1317 0.353701 63.5233C-0.0582576 61.915 -0.111078 60.2354 0.199019 58.6042L9.60458 9.16682C10.0953 6.5882 11.4677 4.26191 13.4853 2.58865C15.5028 0.915396 18.0392 -5.1345e-05 20.6575 2.15992e-09H330.749C332.405 0.000443543 334.041 0.367382 335.539 1.07463C337.038 1.78188 338.362 2.81202 339.418 4.09152C340.473 5.37102 341.234 6.86834 341.646 8.47666C342.058 10.085 342.111 11.7646 341.801 13.3958" fill="#F7F7F7"/>
</svg>
