<svg width="361" height="377" viewBox="0 0 361 377" fill="none" xmlns="http://www.w3.org/2000/svg">
    <path d="M54.6836 263.376L57.6986 264.016" stroke="#FFCA99" stroke-width="1.5" stroke-miterlimit="10"/>
    <path d="M104.2 272.686C104.2 269.281 98.9017 256.333 80.6737 256.333C62.4457 256.333 57.8877 271.666 57.2225 275.166C56.5573 278.666 52.8652 280.023 52.8652 280.023L53.0187 276.1" stroke="#FFCA99" stroke-width="1.5" stroke-miterlimit="10"/>
    <path d="M112.402 262.348L115.177 267.77C115.177 267.77 115.339 271.14 102.224 272.988C89.1087 274.836 88.4238 276.257 88.4238 276.257" stroke="#FFCA99" stroke-width="1.5" stroke-miterlimit="10"/>
    <path d="M252.048 214.9L224.29 265.698C223.375 267.372 222.039 268.781 220.413 269.786C218.788 270.791 216.928 271.357 215.017 271.431L80.5208 276.468C80.5208 276.468 75.6991 276.311 73.5697 281.667C71.4403 287.023 74.9591 290.934 79.5171 290.934L213.738 286.183L214.446 285.124C214.446 285.124 228.187 282.942 233.237 275.013C238.287 267.083 255.456 234.114 255.456 234.114C255.456 234.114 256.11 232.282 257.983 234.149C259.314 234.789 265.816 234.2 267.69 232.874C269.563 231.548 269.807 230.912 269.807 230.912L265.049 209.333C265.049 209.333 264.092 211.534 259.467 212.331C254.842 213.127 251.701 212.503 251.701 212.503L251.347 214.061L223.106 254.63C222.598 255.362 221.928 255.967 221.148 256.399C220.368 256.831 219.498 257.078 218.607 257.121L112.403 262.348C112.403 262.348 104.366 246.81 84.3073 246.81C79.0999 246.81 75.8841 248.035 75.8841 248.035H58.5653C58.5653 248.035 55.6566 248.035 56.1131 252.994C56.5697 257.953 56.9555 261.626 56.9555 261.626L54.6607 263.383L51.2363 275.358L53.598 276.319C54.704 268.205 57.6915 264.015 57.6915 264.015L56.9712 261.618" stroke="#FFCA99" stroke-width="1.5" stroke-miterlimit="10"/>
    <path d="M257.146 221.838L234.316 267.308C232.11 271.707 228.749 275.428 224.591 278.075C220.432 280.723 215.632 282.197 210.7 282.342L91.6252 285.795L89.299 283.68L77.1876 284.292L73.5625 281.675" stroke="#FFCA99" stroke-width="1.5" stroke-miterlimit="10"/>
    <path d="M91.6367 285.795L89.8575 287.231L77.7265 287.423L75.1562 289.412" stroke="#FFCA99" stroke-width="1.5" stroke-miterlimit="10"/>
    <path d="M77.1875 284.284L77.7267 287.423" stroke="#FFCA99" stroke-width="1.5" stroke-miterlimit="10"/>
    <path d="M123.594 284.837L130.856 277.159L183.233 275.39L190.381 282.903L184.284 285.665L130.911 287.49L123.594 284.837Z" stroke="#FFCA99" stroke-width="1.5" stroke-miterlimit="10"/>
    <path d="M213.88 271.458L207.086 282.381L213.726 286.183" stroke="#FFCA99" stroke-width="1.5" stroke-miterlimit="10"/>
    <path d="M56.9785 261.618C56.9785 261.618 66.866 250.515 75.8954 248.035" stroke="#FFCA99" stroke-width="1.5" stroke-miterlimit="10"/>
    <path d="M265.037 209.353L260.42 191.262C260.42 191.262 255.515 194.212 249.792 193.91C248.773 193.91 246.891 194.212 247.013 196.264C247.135 198.316 249.198 208.788 250.107 210.483C251.016 212.178 251.682 212.519 251.682 212.519" stroke="#FFCA99" stroke-width="1.5" stroke-miterlimit="10"/>
    <path d="M260.42 191.25L230.773 59.1021C230.773 59.1021 233.745 58.7097 233.58 55.7278C233.415 52.746 230.199 44.7067 231.273 43.4708C232.348 42.2349 257.763 29.6561 261.475 25.7051C265.187 21.7541 264.167 19.5491 257.381 20.7575C250.596 21.966 248.273 22.629 248.273 22.629" stroke="#FFCA99" stroke-width="1.5" stroke-miterlimit="10"/>
    <path d="M237.063 25.3398L216.39 31.3938C216.39 31.3938 213.407 31.7077 214.403 36.1021C215.398 40.4964 249.796 193.906 249.796 193.906" stroke="#FFCA99" stroke-width="1.5" stroke-miterlimit="10"/>
    <path d="M220.574 63.5939C220.574 63.5939 227.836 59.9332 231.08 60.9847" stroke="#FFCA99" stroke-width="1.5" stroke-miterlimit="10"/>
    <path d="M243.62 22.7349C246.54 22.7349 248.906 20.3757 248.906 17.4656C248.906 14.5554 246.54 12.1963 243.62 12.1963C240.701 12.1963 238.334 14.5554 238.334 17.4656C238.334 20.3757 240.701 22.7349 243.62 22.7349Z" stroke="#FFCA99" stroke-width="1.5" stroke-miterlimit="10"/>
    <path d="M248.907 17.4652C248.907 17.4652 248.356 26.097 247.155 28.0587C245.955 30.0205 243.294 32.3079 239.811 31.0171C236.327 29.7262 237.079 23.4604 237.449 21.2985C237.819 19.1367 238.358 16.708 238.358 16.708" stroke="#FFCA99" stroke-width="1.5" stroke-miterlimit="10"/>
    <path d="M247.065 34.6973C247.065 34.6973 247.644 43.1721 240.13 43.1721C239.247 43.2015 238.372 43.0079 237.584 42.6093C236.797 42.2108 236.124 41.6202 235.627 40.8925" stroke="#FFCA99" stroke-width="1.5" stroke-miterlimit="10"/>
    <path d="M61.1914 265.844L76.1761 277.916" stroke="#FFCA99" stroke-width="1.5" stroke-miterlimit="10"/>
    <path d="M59.9824 267.927L74.2389 280.172" stroke="#FFCA99" stroke-width="1.5" stroke-miterlimit="10"/>
    <path d="M57.377 274.696L61.2028 271.722" stroke="#FFCA99" stroke-width="1.5" stroke-miterlimit="10"/>
    <path d="M66.4687 260.562C66.4687 260.562 63.3198 264.094 62.3594 266.754" stroke="#FFCA99" stroke-width="1.5" stroke-miterlimit="10"/>
    <path d="M61.4826 269.237C61.4826 269.237 58.7903 279.415 64.7771 288.608C70.7639 297.801 91.4126 311.796 109.145 289.953" stroke="#FFCA99" stroke-width="1.5" stroke-miterlimit="10"/>
    <path d="M98.4503 290.252C98.4503 290.252 90.3223 299.32 77.5654 292.924C64.8086 286.529 67.3001 274.182 67.3001 274.182" stroke="#FFCA99" stroke-width="1.5" stroke-miterlimit="10"/>
    <path d="M68.2168 271.458C68.2168 271.458 72.0781 261.073 85.8977 262.085C94.6909 262.897 100.941 273.071 100.941 273.071" stroke="#FFCA99" stroke-width="1.5" stroke-miterlimit="10"/>
    <path d="M257.971 234.15L258.994 239.333L264.745 242.079L265.284 244.63C265.284 244.63 263.891 244.944 263.847 247.317C264.697 247.227 267.346 250.848 268.354 255.674C269.362 260.5 274.569 281.597 274.569 281.597C274.569 281.597 274.963 284.194 279.454 283.013C283.945 281.832 280.521 271.965 280.521 271.965C280.521 271.965 276.49 255.18 276.49 251.515C276.49 247.851 274.128 242.884 274.128 242.884L272.881 236.739C272.881 236.739 272.231 235.201 270.865 234.848C270.153 232.365 269.81 230.925 269.81 230.925" stroke="#FFCA99" stroke-width="1.5" stroke-miterlimit="10"/>
    <path d="M265.285 244.614C265.285 244.614 270.729 246.278 274.114 242.888" stroke="#FFCA99" stroke-width="1.5" stroke-miterlimit="10"/>
    <path d="M129.25 274.672L136.158 261.206" stroke="#FFCA99" stroke-width="1.5" stroke-miterlimit="10"/>
    <path d="M276.809 253.94C276.809 253.94 283.953 253.32 287.007 255.023C290.061 256.726 294.619 253.269 294.671 252.135C294.722 251.002 295.241 250.484 290.219 248.212C285.196 245.94 280.847 245.01 275.262 245.528" stroke="#FFCA99" stroke-width="1.5" stroke-miterlimit="10"/>
    <path d="M263.848 247.301C263.848 247.301 245.069 254.014 243.92 271.576C243.92 274.742 246.352 277.096 249.32 273.463C252.288 269.83 252.564 265.926 256.543 262.426C260.522 258.926 265.246 255.819 268.351 255.658C268.351 255.658 275.436 256.392 276.523 252.911" stroke="#FFCA99" stroke-width="1.5" stroke-miterlimit="10"/>
    <path d="M292.676 254.211C296.458 257.009 299.459 260.725 301.393 265.006C303.327 269.287 304.13 273.99 303.724 278.668C303.319 283.345 301.719 287.842 299.078 291.729C296.436 295.616 292.84 298.764 288.633 300.874C284.425 302.984 279.746 303.986 275.04 303.783C270.334 303.58 265.759 302.181 261.75 299.717C257.74 297.253 254.43 293.808 252.134 289.708C249.839 285.608 248.634 280.991 248.635 276.296C248.635 275.567 248.662 274.845 248.721 274.127" stroke="#FFCA99" stroke-width="1.5" stroke-miterlimit="10"/>
    <path d="M277.924 260.358C282.484 260.685 286.765 262.674 289.948 265.947C293.131 269.219 294.994 273.545 295.181 278.099C295.368 282.653 293.866 287.116 290.962 290.636C288.058 294.157 283.955 296.488 279.436 297.185C274.917 297.883 270.299 296.897 266.463 294.416C262.628 291.935 259.843 288.133 258.64 283.736C257.437 279.339 257.901 274.654 259.942 270.576C261.984 266.497 265.461 263.311 269.709 261.626" stroke="#FFCA99" stroke-width="1.5" stroke-miterlimit="10"/>
    <path d="M279.908 269.27C282.083 269.811 284.007 271.077 285.36 272.859C286.712 274.642 287.412 276.831 287.343 279.065C287.274 281.299 286.44 283.442 284.98 285.137C283.52 286.833 281.521 287.979 279.317 288.386C277.112 288.792 274.835 288.434 272.862 287.371C270.89 286.308 269.343 284.605 268.477 282.543C267.611 280.482 267.479 278.187 268.103 276.041C268.726 273.894 270.068 272.025 271.906 270.745" stroke="#FFCA99" stroke-width="1.5" stroke-miterlimit="10"/>
    <path d="M19.4449 266C18.1224 264.406 15.3892 259.827 15.0366 254.264C14.5957 247.31 10.6282 241.659 6.6607 239.052C2.69318 236.444 -2.59685 229.489 4.45652 226.447C11.5099 223.405 11.9507 232.532 15.0366 235.574C15.8882 236.414 16.8069 237.386 17.6816 238.472M33.5 266C34.3817 264.696 34.9623 261.219 35.315 257.742C35.7558 253.395 42.8092 249.918 45.895 246.876C48.9809 243.833 54.7118 236.879 52.5076 233.402C50.3034 229.925 44.1317 229.49 43.25 233.402C42.3684 237.314 36.6375 246.006 34.8742 247.744M32.67 252.527C35.315 248.18 36.1967 242.53 36.1967 236.88C36.1967 231.229 37.0783 226.883 40.1642 223.406C43.25 219.929 45.0134 214.712 43.25 212.539C41.4867 210.366 37.5192 209.931 32.67 215.582C27.8208 221.232 27.8208 225.144 28.2616 229.055C28.7025 232.967 28.2616 242.964 26.9391 246.876C26.6428 247.752 26.2581 248.781 25.8591 249.919M17.6816 238.472C19.9765 241.322 21.9683 244.958 21.6491 249.049C21.2083 254.699 20.7674 259.046 24.2941 263.827C22.9258 259.105 24.4773 253.86 25.8591 249.919M17.6816 238.472C18.2694 237.072 18.4751 232.794 14.5957 226.883C9.74654 219.494 5.3382 217.321 6.6607 212.974C7.98319 208.628 14.5957 207.759 16.7999 210.801C19.0041 213.844 24.2941 222.534 25.1758 226.447C26.0574 230.36 26.9391 236.446 25.6166 241.661C24.5586 245.833 25.3375 248.905 25.8591 249.919" stroke="#FFCA99" stroke-width="1.5" stroke-linecap="round" stroke-linejoin="round"/>
    <path d="M37.4195 217.754C35.95 219.509 33.0109 224.421 33.0109 230.035C33.0109 237.053 34.7743 240.123 31.6883 246.702C28.6023 253.281 25.5163 260.737 26.8389 266M30.8065 266C31.3943 264.684 32.5699 261.614 32.5699 259.86C32.5699 257.667 33.0108 253.719 36.5376 250.211C40.0645 246.702 47.5591 240.561 48 236.614M14.0538 216C16.2581 218.485 20.7548 224.333 21.1075 227.842C21.5484 232.228 21.9892 236.614 21.9892 239.684C21.9892 242.14 21.5 244.684 21.5 246M21.5 251C21.7939 252.754 22.6462 256.526 23.7043 257.579M7 231.789C8.32258 233.836 11.4086 238.193 13.172 239.246C15.3763 240.561 18.9032 245.825 18.9032 250.211C18.9032 254.596 19.3441 257.667 20.6667 261.175C21.7247 263.982 22.2832 265.561 22.4301 266" stroke="#FFCA99" stroke-width="1.5" stroke-linecap="round" stroke-linejoin="round"/>
    <path d="M264 302L260 298L264.5 300L269 304L264 302Z" fill="white"/>
    <path d="M226.5 280L228.5 281L227 284L223 284.5V283.5L224.5 281L226.5 280Z" fill="white"/>
    <path d="M217 281L217.5 287L214 289L211.5 285.5L210 281V278.5L212.5 278L215 278.5L217 281Z" fill="white"/>
    <path d="M276.701 376.012C276.701 376.012 287.126 321.7 348.542 304.149C323.964 321.052 295.742 334.771 287.154 376.04L276.701 376.012Z" stroke="#FFCA99" stroke-width="1.5" stroke-miterlimit="10" stroke-linejoin="round"/>
    <path d="M350.887 321.723C347.412 318.54 352.384 303.215 355.802 310.99C359.221 318.765 350.887 321.723 350.887 321.723ZM350.887 321.723C291.052 336.484 287.154 376.035 287.154 376.035C287.154 376.035 294.301 346.654 316.76 346.654M316.76 346.654C339.219 346.654 331.479 377.219 321.902 372.007C316.76 368.739 319.896 363.387 320.602 359.528C321.309 355.668 322.721 346.654 316.76 346.654Z" stroke="#FFCA99" stroke-width="1.5" stroke-miterlimit="10" stroke-linejoin="round"/>
    <path d="M323.924 348.18L318.773 346.463L319.613 347.863C320.545 349.417 321.038 351.196 321.038 353.008V355.048C321.038 355.865 320.938 356.68 320.739 357.473L319.528 362.319L319.115 365.21C318.893 366.759 319.212 368.337 320.017 369.679L320.398 370.315C320.816 371.011 321.423 371.573 322.149 371.936C323.351 372.537 324.765 372.537 325.967 371.936C326.693 371.573 327.3 371.011 327.718 370.315L328.779 368.546C329.154 367.921 329.46 367.256 329.691 366.564L330.341 364.614C330.681 363.594 330.854 362.527 330.854 361.452V358.434C330.854 357.505 330.724 356.581 330.469 355.687L330.196 354.73C329.642 352.791 328.497 351.071 326.922 349.811C326.027 349.095 325.012 348.542 323.924 348.18Z" fill="#FFCA99" stroke="#FFCA99" stroke-width="1.5" stroke-linejoin="round"/>
    <path d="M351.336 322.543C351.336 322.543 353.003 331.727 358.314 328.008C363.625 324.29 351.336 322.543 351.336 322.543Z" stroke="#FFCA99" stroke-width="1.5" stroke-miterlimit="10" stroke-linejoin="round"/>
    <path d="M342.748 325.192C342.748 325.192 344.104 332.601 348.398 329.587C352.692 326.572 342.748 325.192 342.748 325.192Z" stroke="#FFCA99" stroke-width="1.5" stroke-miterlimit="10" stroke-linejoin="round"/>
    <path d="M339.619 324.12C339.619 324.12 345.58 319.528 340.947 317.105C336.314 314.683 339.619 324.12 339.619 324.12Z" stroke="#FFCA99" stroke-width="1.5" stroke-miterlimit="10" stroke-linejoin="round"/>
    <path d="M320.717 352.488C320.717 352.488 301.196 351.784 299.896 376.518" stroke="#FFCA99" stroke-width="1.5" stroke-miterlimit="10" stroke-linejoin="round"/>
    <path d="M276.234 336.605C252.13 292.24 216.222 291.816 216.222 291.816C216.222 291.816 220.547 278.323 212.678 278.005C204.808 277.687 216.222 291.816 216.222 291.816" stroke="#FFCA99" stroke-width="1.5" stroke-miterlimit="10" stroke-linejoin="round"/>
    <path d="M271.483 374.255C271.483 374.255 274.835 314.315 234.957 340.418" stroke="#FFCA99" stroke-width="1.5" stroke-miterlimit="10" stroke-linejoin="round"/>
    <path d="M285.546 353.258C285.546 353.258 276.514 320.391 249.184 330.423C221.855 340.454 230.929 367.123 242.307 353.665C247.783 346.736 253.453 341.054 260.628 335.891" stroke="#FFCA99" stroke-width="1.5" stroke-miterlimit="10" stroke-linejoin="round"/>
    <path d="M278.285 339.04C278.285 339.04 277.151 312.23 258.932 296.936C272.224 303.329 286.081 320.754 290.831 344.949" stroke="#FFCA99" stroke-width="1.5" stroke-miterlimit="10" stroke-linejoin="round"/>
    <path d="M225.788 293.833C225.788 293.833 226.851 305.313 219.407 304.854C211.964 304.394 220.506 294.01 225.788 293.833Z" stroke="#FFCA99" stroke-width="1.5" stroke-miterlimit="10" stroke-linejoin="round"/>
    <path d="M228.629 293.37C228.629 293.37 219.094 286.836 224.198 281.432C229.303 276.027 231.89 289.167 228.629 293.37Z" stroke="#FFCA99" stroke-width="1.5" stroke-miterlimit="10" stroke-linejoin="round"/>
    <path d="M246.497 301.816C246.497 301.816 239.727 292.456 246.497 289.1C253.268 285.745 250.964 298.991 246.497 301.816Z" stroke="#FFCA99" stroke-width="1.5" stroke-miterlimit="10" stroke-linejoin="round"/>
    <path d="M241.241 300.565C241.241 300.565 238.937 311.868 231.919 309.29C224.9 306.711 236.102 299.223 241.241 300.565Z" stroke="#FFCA99" stroke-width="1.5" stroke-miterlimit="10" stroke-linejoin="round"/>
    <path d="M216.099 291.671C216.099 291.671 212.554 302.691 205.961 299.442C199.368 296.192 211.101 289.834 216.099 291.671Z" stroke="#FFCA99" stroke-width="1.5" stroke-miterlimit="10" stroke-linejoin="round"/>
    <path d="M244.773 335.137L234.957 339.668L231.937 345.708L231.182 350.239L231.937 354.769L234.202 357.034H237.222L241.753 354.769L249.304 345.708L259.875 336.647L259.12 335.137L253.079 333.627L244.773 335.137Z" fill="#FFCA99" stroke="#FFCA99" stroke-width="1.5" stroke-linejoin="round"/>
    <mask id="mask0_1_245" style="mask-type:alpha" maskUnits="userSpaceOnUse" x="65" y="18" width="230" height="295">
        <circle cx="94" cy="284" r="29" fill="#D9D9D9"/>
        <circle cx="255" cy="168" r="40" fill="#D9D9D9"/>
        <circle cx="217" cy="35" r="17" fill="#D9D9D9"/>
    </mask>
    <g mask="url(#mask0_1_245)">
        <path d="M104.2 272.686C104.2 269.281 98.9017 256.333 80.6737 256.333C62.4457 256.333 57.8877 271.666 57.2225 275.166C56.5573 278.666 52.8652 280.023 52.8652 280.023L53.0187 276.1" stroke="#FE7B01" stroke-width="1.5" stroke-miterlimit="10"/>
        <path d="M112.402 262.348L115.177 267.77C115.177 267.77 115.339 271.14 102.224 272.988C89.1087 274.836 88.4238 276.257 88.4238 276.257" stroke="#FE7B01" stroke-width="1.5" stroke-miterlimit="10"/>
        <path d="M252.048 214.9L224.29 265.698C223.375 267.372 222.039 268.781 220.413 269.786C218.788 270.791 216.928 271.357 215.017 271.431L80.5208 276.468C80.5208 276.468 75.6991 276.311 73.5697 281.667C71.4403 287.023 74.9591 290.934 79.5171 290.934L213.738 286.183L214.446 285.124C214.446 285.124 228.187 282.942 233.237 275.013C238.287 267.083 255.456 234.114 255.456 234.114C255.456 234.114 256.11 232.282 257.983 234.149C259.314 234.789 265.816 234.2 267.69 232.874C269.563 231.548 269.807 230.912 269.807 230.912L265.049 209.333C265.049 209.333 264.092 211.534 259.467 212.331C254.842 213.127 251.701 212.503 251.701 212.503L251.347 214.061L223.106 254.63C222.598 255.362 221.928 255.967 221.148 256.399C220.368 256.831 219.498 257.078 218.607 257.121L112.403 262.348C112.403 262.348 104.366 246.81 84.3073 246.81C79.0999 246.81 75.8841 248.035 75.8841 248.035H58.5653C58.5653 248.035 55.6566 248.035 56.1131 252.994C56.5697 257.953 56.9555 261.626 56.9555 261.626L54.6607 263.383L51.2363 275.358L53.598 276.319C54.704 268.205 57.6915 264.015 57.6915 264.015L56.9712 261.618" stroke="#FE7B01" stroke-width="1.5" stroke-miterlimit="10"/>
        <path d="M257.146 221.838L234.316 267.308C232.11 271.707 228.749 275.428 224.591 278.075C220.432 280.723 215.632 282.197 210.7 282.342L91.6252 285.795L89.299 283.68L77.1876 284.292L73.5625 281.675" stroke="#FE7B01" stroke-width="1.5" stroke-miterlimit="10"/>
        <path d="M91.6367 285.795L89.8575 287.231L77.7265 287.423L75.1562 289.412" stroke="#FE7B01" stroke-width="1.5" stroke-miterlimit="10"/>
        <path d="M77.1875 284.284L77.7267 287.423" stroke="#FE7B01" stroke-width="1.5" stroke-miterlimit="10"/>
        <path d="M123.594 284.837L130.856 277.159L183.233 275.39L190.381 282.903L184.284 285.665L130.911 287.49L123.594 284.837Z" stroke="#FE7B01" stroke-width="1.5" stroke-miterlimit="10"/>
        <path d="M213.88 271.458L207.086 282.381L213.726 286.183" stroke="#FE7B01" stroke-width="1.5" stroke-miterlimit="10"/>
        <path d="M56.9785 261.618C56.9785 261.618 66.866 250.515 75.8954 248.035" stroke="#FE7B01" stroke-width="1.5" stroke-miterlimit="10"/>
        <path d="M265.037 209.353L260.42 191.262C260.42 191.262 255.515 194.212 249.792 193.91C248.773 193.91 246.891 194.212 247.013 196.264C247.135 198.316 249.198 208.788 250.107 210.483C251.016 212.178 251.682 212.519 251.682 212.519" stroke="#FE7B01" stroke-width="1.5" stroke-miterlimit="10"/>
        <path d="M260.42 191.25L230.773 59.1021C230.773 59.1021 233.745 58.7097 233.58 55.7278C233.415 52.746 230.199 44.7067 231.273 43.4708C232.348 42.2349 257.763 29.6561 261.475 25.7051C265.187 21.7541 264.167 19.5491 257.381 20.7575C250.596 21.966 248.273 22.629 248.273 22.629" stroke="#FE7B01" stroke-width="1.5" stroke-miterlimit="10"/>
        <path d="M237.063 25.3398L216.39 31.3938C216.39 31.3938 213.407 31.7077 214.403 36.1021C215.398 40.4964 249.796 193.906 249.796 193.906" stroke="#FE7B01" stroke-width="1.5" stroke-miterlimit="10"/>
        <path d="M220.574 63.5939C220.574 63.5939 227.836 59.9332 231.08 60.9847" stroke="#FE7B01" stroke-width="1.5" stroke-miterlimit="10"/>
        <path d="M243.62 22.7349C246.54 22.7349 248.906 20.3757 248.906 17.4656C248.906 14.5554 246.54 12.1963 243.62 12.1963C240.701 12.1963 238.334 14.5554 238.334 17.4656C238.334 20.3757 240.701 22.7349 243.62 22.7349Z" stroke="#FE7B01" stroke-width="1.5" stroke-miterlimit="10"/>
        <path d="M248.907 17.4652C248.907 17.4652 248.356 26.097 247.155 28.0587C245.955 30.0205 243.294 32.3079 239.811 31.0171C236.327 29.7262 237.079 23.4604 237.449 21.2985C237.819 19.1367 238.358 16.708 238.358 16.708" stroke="#FE7B01" stroke-width="1.5" stroke-miterlimit="10"/>
        <path d="M247.065 34.6973C247.065 34.6973 247.644 43.1721 240.13 43.1721C239.247 43.2015 238.372 43.0079 237.584 42.6093C236.797 42.2108 236.124 41.6202 235.627 40.8925" stroke="#FE7B01" stroke-width="1.5" stroke-miterlimit="10"/>
        <path d="M61.1914 265.844L76.1761 277.916" stroke="#FE7B01" stroke-width="1.5" stroke-miterlimit="10"/>
        <path d="M59.9824 267.927L74.2389 280.172" stroke="#FE7B01" stroke-width="1.5" stroke-miterlimit="10"/>
        <path d="M66.4687 260.562C66.4687 260.562 63.3198 264.094 62.3594 266.754" stroke="#FE7B01" stroke-width="1.5" stroke-miterlimit="10"/>
        <path d="M61.4826 269.237C61.4826 269.237 58.7903 279.415 64.7771 288.608C70.7639 297.801 91.4126 311.796 109.145 289.953" stroke="#FE7B01" stroke-width="1.5" stroke-miterlimit="10"/>
        <path d="M98.4503 290.252C98.4503 290.252 90.3223 299.32 77.5654 292.924C64.8086 286.529 67.3001 274.182 67.3001 274.182" stroke="#FE7B01" stroke-width="1.5" stroke-miterlimit="10"/>
        <path d="M68.2168 271.458C68.2168 271.458 72.0781 261.073 85.8977 262.085C94.6909 262.897 100.941 273.071 100.941 273.071" stroke="#FE7B01" stroke-width="1.5" stroke-miterlimit="10"/>
        <path d="M257.971 234.15L258.994 239.333L264.745 242.079L265.284 244.63C265.284 244.63 263.891 244.944 263.847 247.317C264.697 247.227 267.346 250.848 268.354 255.674C269.362 260.5 274.569 281.597 274.569 281.597C274.569 281.597 274.963 284.194 279.454 283.013C283.945 281.832 280.521 271.965 280.521 271.965C280.521 271.965 276.49 255.18 276.49 251.515C276.49 247.851 274.128 242.884 274.128 242.884L272.881 236.739C272.881 236.739 272.231 235.201 270.865 234.848C270.153 232.365 269.81 230.925 269.81 230.925" stroke="#FE7B01" stroke-width="1.5" stroke-miterlimit="10"/>
        <path d="M265.285 244.614C265.285 244.614 270.729 246.278 274.114 242.888" stroke="#FE7B01" stroke-width="1.5" stroke-miterlimit="10"/>
        <path d="M129.25 274.672L136.158 261.206" stroke="#FE7B01" stroke-width="1.5" stroke-miterlimit="10"/>
        <path d="M276.809 253.94C276.809 253.94 283.953 253.32 287.007 255.023C290.061 256.726 294.619 253.269 294.671 252.135C294.722 251.002 295.241 250.484 290.219 248.212C285.196 245.94 280.847 245.01 275.262 245.528" stroke="#FE7B01" stroke-width="1.5" stroke-miterlimit="10"/>
        <path d="M263.848 247.301C263.848 247.301 245.069 254.014 243.92 271.576C243.92 274.742 246.352 277.096 249.32 273.463C252.288 269.83 252.564 265.926 256.543 262.426C260.522 258.926 265.246 255.819 268.351 255.658C268.351 255.658 275.436 256.392 276.523 252.911" stroke="#FE7B01" stroke-width="1.5" stroke-miterlimit="10"/>
        <path d="M292.676 254.211C296.458 257.009 299.459 260.725 301.393 265.006C303.327 269.287 304.13 273.99 303.724 278.668C303.319 283.345 301.719 287.842 299.078 291.729C296.436 295.616 292.84 298.764 288.633 300.874C284.425 302.984 279.746 303.986 275.04 303.783C270.334 303.58 265.759 302.181 261.75 299.717C257.74 297.253 254.43 293.808 252.134 289.708C249.839 285.608 248.634 280.991 248.635 276.296C248.635 275.567 248.662 274.845 248.721 274.127" stroke="#FE7B01" stroke-width="1.5" stroke-miterlimit="10"/>
        <path d="M277.924 260.358C282.484 260.685 286.765 262.674 289.948 265.947C293.131 269.219 294.994 273.545 295.181 278.099C295.368 282.653 293.866 287.116 290.962 290.636C288.058 294.157 283.955 296.488 279.436 297.185C274.917 297.883 270.299 296.897 266.463 294.416C262.628 291.935 259.843 288.133 258.64 283.736C257.437 279.339 257.901 274.654 259.942 270.576C261.984 266.497 265.461 263.311 269.709 261.626" stroke="#FE7B01" stroke-width="1.5" stroke-miterlimit="10"/>
        <path d="M279.908 269.27C282.083 269.811 284.007 271.077 285.36 272.859C286.712 274.642 287.412 276.831 287.343 279.065C287.274 281.299 286.44 283.442 284.98 285.137C283.52 286.833 281.521 287.979 279.317 288.386C277.112 288.792 274.835 288.434 272.862 287.371C270.89 286.308 269.343 284.605 268.477 282.543C267.611 280.482 267.479 278.187 268.103 276.041C268.726 273.894 270.068 272.025 271.906 270.745" stroke="#FE7B01" stroke-width="1.5" stroke-miterlimit="10"/>
    </g>
    <path d="M320.192 191C318.168 187 314.12 177.667 314.12 172.334C314.12 167 312.321 164.333 311.421 163.667M344.481 191C346.73 187.444 350.418 179.667 347.18 177C349.878 175 351.228 172.333 348.529 170.333C345.83 168.333 341.782 169.666 341.107 173C340.568 175.666 338.175 180.555 337.5 183M311.421 163.667C311.871 165.445 312.366 169.267 310.747 170.333C305.349 173.666 304 169 304 165C304 161 305.349 157 310.747 157C312.474 157 314.063 157.546 315.47 158.485M311.421 163.667C311.197 161.99 311.691 158.607 315.47 158.485M325.5 182.5C324.376 179.833 322.621 173.134 321.542 168.333C320.624 164.253 318.459 160.482 315.47 158.485" stroke="#FFCA99" stroke-width="1.5" stroke-linecap="round" stroke-linejoin="round"/>
    <path d="M325.613 191C325.613 186.274 325.48 175.067 324.944 168.046C324.276 159.269 324.944 138.341 332.972 139.016C339.393 139.556 338.323 144.642 336.985 147.117C335.647 147.117 333.64 147.522 336.316 149.143C337.654 149.818 332.971 151.168 333.64 151.843C334.309 152.518 336.985 153.868 336.316 155.219C335.647 156.569 334.978 163.995 335.647 168.046C336.316 172.097 337.654 183.574 337.654 186.274C337.654 188.434 337.654 190.325 337.654 191M330.965 191C331.188 186.724 331.366 177.092 330.296 172.772C328.958 167.371 328.958 151.168 331.634 147.117M310.5 157C309.162 158.125 305.947 161.43 307.552 167.371" stroke="#FFCA99" stroke-width="1.5" stroke-linecap="round" stroke-linejoin="round"/>
    <circle cx="255.5" cy="167.5" r="41" stroke="white" stroke-width="7"/>
    <path d="M283 202.403C275.432 208.339 265.889 211.88 255.517 211.88C230.931 211.88 211 191.983 211 167.44C211 142.896 230.931 123 255.517 123C280.104 123 300.035 142.896 300.035 167.44C300.035 177.817 296.472 187.364 290.5 194.927" stroke="#FE7B01" stroke-width="1.5" stroke-miterlimit="10"/>
    <path d="M255.517 205.026C276.311 205.026 293.168 188.198 293.168 167.44C293.168 146.682 276.311 129.854 255.517 129.854C234.722 129.854 217.865 146.682 217.865 167.44C217.865 188.198 234.722 205.026 255.517 205.026Z" stroke="#FE7B01" stroke-width="1.5" stroke-miterlimit="10"/>
    <path d="M289.842 209.401L282.396 201.968C282.396 201.968 281.691 199.823 285.09 196.765C288.489 193.707 290.04 194.68 290.04 194.68L297.224 201.942" stroke="#FE7B01" stroke-width="1.5" stroke-miterlimit="10"/>
    <path d="M317.423 240.257L290.049 212.923C290.049 212.923 287.403 210.688 292.915 204.773C295.811 201.831 299.115 200.879 300.722 202.2C302.329 203.521 328.277 229.487 328.277 229.487" stroke="#FE7B01" stroke-width="1.5" stroke-miterlimit="10"/>
    <path d="M325.842 237.848C328.837 234.858 329.864 231.036 328.136 229.31C326.407 227.585 322.578 228.61 319.583 231.6C316.588 234.59 315.561 238.412 317.289 240.138C319.018 241.863 322.847 240.838 325.842 237.848Z" stroke="#FE7B01" stroke-width="1.5" stroke-miterlimit="10"/>
    <path d="M324.298 236.307C326.364 234.245 327.328 231.865 326.452 230.99C325.576 230.116 323.192 231.079 321.126 233.141C319.061 235.203 318.097 237.583 318.972 238.457C319.848 239.332 322.233 238.369 324.298 236.307Z" stroke="#FE7B01" stroke-width="1.5" stroke-miterlimit="10"/>
    <circle cx="216.791" cy="35.4066" r="17.1025" transform="rotate(165 216.791 35.4066)" stroke="white" stroke-width="3"/>
    <path d="M201.91 24.2886C204.324 21.0726 207.794 18.6105 211.982 17.4883C221.91 14.8282 232.111 20.7057 234.766 30.6161C237.422 40.5266 231.526 50.717 221.599 53.3771C211.671 56.0372 201.47 50.1597 198.815 40.2493C197.692 36.059 198.098 31.8187 199.691 28.1187" stroke="#FE7B01" stroke-width="1.5" stroke-miterlimit="10"/>
    <path d="M212.724 20.2558C204.328 22.5057 199.342 31.1244 201.587 39.5063C203.833 47.8882 212.461 52.8593 220.857 50.6094C229.254 48.3596 234.24 39.7409 231.994 31.3589C229.748 22.977 221.121 18.006 212.724 20.2558Z" stroke="#FE7B01" stroke-width="1.5" stroke-miterlimit="10"/>
    <path d="M198.391 22.2034L202.201 24.3992C202.201 24.3992 202.718 25.1889 201.677 26.7915C200.635 28.3941 199.903 28.1687 199.903 28.1687L196.217 26.0139" stroke="#FE7B01" stroke-width="1.5" stroke-miterlimit="10"/>
    <path d="M183.915 12.7279L197.926 20.8037C197.926 20.8037 199.236 21.4197 197.65 24.4044C196.799 25.9059 195.568 26.6478 194.776 26.2883C193.985 25.9287 180.698 18.251 180.698 18.251" stroke="#FE7B01" stroke-width="1.5" stroke-miterlimit="10"/>
    <path d="M180.776 14.611C179.89 16.1424 179.889 17.7969 180.773 18.3066C181.658 18.8162 183.093 17.988 183.979 16.4566C184.865 14.9253 184.866 13.2707 183.982 12.7611C183.097 12.2514 181.662 13.0797 180.776 14.611Z" stroke="#FE7B01" stroke-width="1.5" stroke-miterlimit="10"/>
    <path d="M181.566 15.0669C180.955 16.123 180.824 17.1885 181.272 17.4468C181.72 17.7051 182.579 17.0584 183.19 16.0023C183.801 14.9462 183.933 13.8807 183.484 13.6224C183.036 13.3641 182.177 14.0108 181.566 15.0669Z" stroke="#FE7B01" stroke-width="1.5" stroke-miterlimit="10"/>
    <circle cx="94.1199" cy="283.866" r="29.5659" transform="rotate(64.0458 94.1199 283.866)" stroke="white" stroke-width="5"/>
    <path d="M80.1787 312.69C73.9457 309.659 68.6422 304.592 65.3714 297.873C57.6178 281.943 64.2232 262.755 80.1251 255.015C96.027 247.275 115.204 253.913 122.957 269.843C130.711 285.773 124.105 304.961 108.203 312.701C101.48 315.973 94.171 316.676 87.3876 315.192" stroke="#FE7B01" stroke-width="1.5" stroke-miterlimit="10"/>
    <path d="M69.8119 295.711C76.3697 309.183 92.5886 314.798 106.038 308.252C119.487 301.706 125.074 285.477 118.516 272.004C111.958 258.532 95.7394 252.917 82.2901 259.463C68.8408 266.009 63.2542 282.238 69.8119 295.711Z" stroke="#FE7B01" stroke-width="1.5" stroke-miterlimit="10"/>
    <path d="M77.8028 319.33L80.2706 312.161C80.2706 312.161 81.4378 311.028 84.4911 312.266C87.5443 313.504 87.4026 314.816 87.4026 314.816L84.9634 321.76" stroke="#FE7B01" stroke-width="1.5" stroke-miterlimit="10"/>
    <path d="M66.5086 346.931L75.5863 320.575C75.5863 320.575 76.1994 318.156 81.7701 319.862C84.5897 320.81 86.2487 322.651 85.8995 324.109C85.5503 325.566 76.9093 350.567 76.9093 350.567" stroke="#FE7B01" stroke-width="1.5" stroke-miterlimit="10"/>
    <path d="M70.7239 351.626C73.6056 352.623 76.4061 352.083 76.9788 350.419C77.5516 348.756 75.6798 346.598 72.7981 345.6C69.9164 344.603 67.1159 345.143 66.5432 346.807C65.9704 348.47 67.8422 350.628 70.7239 351.626Z" stroke="#FE7B01" stroke-width="1.5" stroke-miterlimit="10"/>
    <path d="M71.2365 350.14C73.2238 350.828 75.0702 350.702 75.3605 349.859C75.6508 349.015 74.275 347.774 72.2877 347.086C70.3003 346.398 68.454 346.524 68.1637 347.367C67.8734 348.21 69.2491 349.452 71.2365 350.14Z" stroke="#FE7B01" stroke-width="1.5" stroke-miterlimit="10"/>
</svg>
