<svg width="366" height="256" viewBox="0 0 366 256" fill="none" xmlns="http://www.w3.org/2000/svg">
    <path d="M494.888 47.6227L468.39 223.4C467.009 232.569 463.143 240.842 457.46 246.792C451.776 252.743 444.631 255.999 437.254 256H31.6966C27.0307 255.998 22.4226 254.694 18.2011 252.179C13.9795 249.664 10.2486 246.002 7.27469 241.452C4.30073 236.903 2.15703 231.579 0.996451 225.861C-0.164125 220.142 -0.312931 214.17 0.56068 208.371L27.0582 32.5931C28.4408 23.4247 32.3071 15.1534 37.9909 9.20409C43.6748 3.25474 50.8204 -0.00018256 58.1968 7.67971e-09H463.752C468.418 0.00157704 473.026 1.30624 477.247 3.82092C481.469 6.33559 485.2 9.99828 488.174 14.5476C491.148 19.0969 493.291 24.4208 494.452 30.1392C495.612 35.8577 495.761 41.8298 494.888 47.6294" fill="#F7F7F7"/>
</svg>
