<svg width="372" height="462" viewBox="0 0 372 462" fill="none" xmlns="http://www.w3.org/2000/svg">
    <path d="M83.5 362L97.5 445L304 447L305 419V371.5L304 336L301.5 303L299 272L294 241L289.5 221.5L284.5 205.5L292 202L299 195.5L303.5 189L304 182L300 172.5L292.5 164L283 159.5L273 160.5L265.271 165L258.5 170.5L248.5 165L247 154L242.5 146L236.5 141.5L226.5 139L216 140L205.5 144.5L207 138.5L208 133L206 127.5L199 124L190 124.5L182 126.5L175 132L168.5 140.5L168 133.5L164 127.5L157.5 125.5L148.5 127L142 131L138 137L136.5 147L134.5 159L131.5 166.5L124 172.5L115.5 170.5L109 165.5L101 160L91.5 158.5L83 160.5L75 167L71.5 174.5L70 182.5L72 190.5L76.5 194.5L84.5 198L91 202.5L95 208.5L86.5 224.5L81 240L77.5 262.5L76.5 297L79 330L83.5 362Z" fill="#FFF7EF"/>
    <path d="M119.096 183.667C147.652 155.516 125.987 134.99 149.005 127.301C172.022 119.611 168.007 141.807 168.007 141.807" stroke="#FFCA99" stroke-width="1.5" stroke-linecap="round" stroke-linejoin="round"/>
    <path d="M284.435 205.363C311.234 276.906 304.46 448.229 304.46 448.229L100.21 460.374L80.4308 342.121C80.4308 342.121 69.1404 264.25 86.076 225.134C93.1892 208.891 102.87 193.896 114.749 180.721C119.968 175.719 125.508 171.061 131.333 166.778" stroke="#FFCA99" stroke-width="1.5" stroke-linecap="round" stroke-linejoin="round"/>
    <path d="M248.594 164.949C251.892 166.806 255.092 168.833 258.18 171.022" stroke="#FFCA99" stroke-width="1.5" stroke-linecap="round" stroke-linejoin="round"/>
    <path d="M94.2767 208.554C93.4885 204.8 90.5487 200.131 81.6655 197.132C64.8151 191.431 69.6295 173.958 75.1043 167.183C80.5791 160.408 93.7654 151.049 112.767 168.619C116.133 171.809 121.011 172.128 124.068 172.235" stroke="#FFCA99" stroke-width="1.5" stroke-linecap="round" stroke-linejoin="round"/>
    <path d="M243.928 174.329C248.018 175.265 254.174 175.393 259.276 170.075C267.797 161.195 282.4 152.697 295.342 167.065C308.283 181.434 306.206 191.962 290.495 202.693C284.914 206.001 275.818 204.969 279.13 223.336" stroke="#FFCA99" stroke-width="1.5" stroke-linecap="round" stroke-linejoin="round"/>
    <path d="M209.622 168.14C209.622 168.14 250.544 189.846 248.414 162.195C246.284 134.543 216.46 131.98 194.465 152.495" stroke="#FFCA99" stroke-width="1.5" stroke-linecap="round" stroke-linejoin="round"/>
    <path d="M204.945 144.647C204.945 144.647 217.172 122.164 192.014 124.121C166.856 126.078 161.498 160.695 161.498 160.695" stroke="#FFCA99" stroke-width="1.5" stroke-linecap="round" stroke-linejoin="round"/>
    <path d="M106.292 190.878C106.292 190.878 111.916 175.649 92.8184 177.052" stroke="#FFCA99" stroke-width="1.5" stroke-linecap="round" stroke-linejoin="round"/>
    <path d="M105.545 181.029C105.545 181.029 87.4915 183.529 91.2621 195.366" stroke="#FFCA99" stroke-width="1.5" stroke-linecap="round" stroke-linejoin="round"/>
    <path d="M260.705 184.827C260.705 184.827 272.166 169.203 285.895 180.041" stroke="#FFCA99" stroke-width="1.5" stroke-linecap="round" stroke-linejoin="round"/>
    <path d="M268.32 198.249C268.32 198.249 281.858 195.813 278.748 188.113C277.215 184.039 275.194 180.164 272.73 176.574" stroke="#FFCA99" stroke-width="1.5" stroke-linecap="round" stroke-linejoin="round"/>
    <path d="M126.594 351.066C126.594 351.066 157.291 333.677 191.205 354.724" stroke="#FFCA99" stroke-width="1.5" stroke-linecap="round" stroke-linejoin="round"/>
    <path d="M117.402 289.595C109.627 289.595 98.0596 283.777 98.0596 267.761C98.0596 249.798 110.617 248.16 113.142 248.022C116.851 247.969 120.432 249.374 123.111 251.936C124.598 253.37 125.766 255.101 126.538 257.016C127.311 258.931 127.671 260.986 127.596 263.049C127.596 273.929 120.747 276.801 117.125 276.801C114.772 276.712 112.546 275.71 110.921 274.008C109.295 272.306 108.399 270.038 108.423 267.686C108.368 266.463 108.569 265.241 109.015 264.1C109.461 262.959 110.141 261.923 111.012 261.061C111.273 260.833 111.587 260.672 111.926 260.593C112.264 260.514 112.617 260.518 112.953 260.606C113.289 260.694 113.598 260.863 113.854 261.098C114.11 261.333 114.304 261.627 114.42 261.954L115.155 264.294C115.282 264.59 115.342 264.91 115.331 265.231C115.32 265.553 115.238 265.868 115.091 266.155C115.091 266.261 115.027 266.304 114.846 266.804C114.732 267.083 114.703 267.39 114.761 267.686C114.77 268.34 115.007 268.97 115.431 269.469C115.854 269.968 116.438 270.304 117.083 270.42C117.488 270.42 121.152 270.218 121.152 263.049C121.217 261.856 121.029 260.663 120.602 259.547C120.174 258.431 119.516 257.418 118.67 256.573C117.256 255.233 115.399 254.457 113.451 254.392C110.735 254.552 104.397 256.158 104.397 267.761C104.397 279.981 112.865 283.214 117.349 283.214C122.185 283.214 131.675 277.141 131.675 263.113C131.675 252.393 125.284 241.545 113.11 241.545C103.375 241.545 93.5647 249.989 93.5647 268.846C93.5562 273.925 94.9255 278.912 97.527 283.278C97.9554 283.983 98.1012 284.824 97.9353 285.633C97.7694 286.441 97.3041 287.157 96.6323 287.638C96.2686 287.879 95.8591 288.044 95.4292 288.121C94.9994 288.198 94.5582 288.187 94.133 288.087C93.7077 287.987 93.3075 287.802 92.9569 287.542C92.6064 287.281 92.313 286.952 92.0948 286.574C88.8609 281.206 87.1591 275.057 87.1739 268.792C87.1739 258.274 89.9433 249.521 95.1837 243.481C97.3887 240.869 100.138 238.77 103.24 237.33C106.342 235.89 109.721 235.143 113.142 235.143C125.54 235.143 138.098 244.714 138.098 263.092C138.087 280.395 126.051 289.595 117.402 289.595Z" fill="white" stroke="#FE7B01" stroke-width="1.5" stroke-miterlimit="10"/>
    <path d="M179.711 296.348C164.65 296.348 149.408 284.649 149.408 262.315C149.408 241.31 163.937 230.122 174.428 230.122C183.791 230.122 197.733 237.152 197.733 256.529C197.733 278.204 182.704 280.161 179.69 280.331C175.291 280.361 171.051 278.692 167.856 275.673C166.087 273.956 164.698 271.888 163.781 269.601C162.864 267.315 162.438 264.861 162.531 262.4C162.531 249.489 170.242 246.043 174.79 246.043C177.514 246.153 180.087 247.319 181.965 249.293C183.842 251.266 184.875 253.893 184.845 256.614C184.909 258.087 184.651 259.556 184.088 260.919C183.525 262.282 182.671 263.506 181.586 264.506C181.302 264.746 180.964 264.911 180.6 264.988C180.236 265.064 179.859 265.049 179.503 264.943C179.147 264.838 178.822 264.645 178.559 264.383C178.296 264.121 178.103 263.798 177.996 263.442L177.315 261.23C177.236 260.855 177.248 260.467 177.348 260.098C177.448 259.728 177.633 259.387 177.89 259.103V259.103C178.039 258.869 178.465 258.497 178.454 256.561C178.467 255.535 178.101 254.54 177.425 253.767C176.748 252.994 175.811 252.497 174.79 252.371C174.194 252.371 168.921 252.647 168.921 262.347C168.84 263.94 169.096 265.532 169.672 267.02C170.249 268.508 171.132 269.858 172.266 270.983C174.172 272.809 176.697 273.853 179.338 273.907C182.96 273.705 191.364 271.589 191.364 256.476C191.364 240.63 180.297 236.45 174.449 236.45C168.155 236.45 155.82 244.235 155.82 262.262C155.82 276.002 164.032 289.913 179.733 289.913C192.237 289.913 204.859 279.161 204.859 255.125C204.871 248.647 203.119 242.287 199.789 236.727C199.363 236.017 199.22 235.174 199.388 234.365C199.556 233.555 200.022 232.838 200.694 232.355C201.055 232.112 201.461 231.944 201.889 231.863C202.317 231.782 202.756 231.789 203.181 231.883C203.606 231.978 204.007 232.158 204.36 232.413C204.712 232.668 205.009 232.992 205.232 233.366C209.183 239.937 211.264 247.461 211.25 255.125C211.25 268.026 207.863 278.757 201.461 286.138C198.8 289.319 195.474 291.881 191.717 293.645C187.96 295.408 183.863 296.331 179.711 296.348V296.348Z" fill="white" stroke="#FE7B01" stroke-width="1.5" stroke-miterlimit="10"/>
    <path d="M22.8706 39.2809C22.7499 39.5292 22.8533 39.8284 23.1016 39.9492C23.35 40.0699 23.6492 39.9665 23.7699 39.7182L22.8706 39.2809ZM197.934 19.2179C198.21 19.2366 198.448 19.0284 198.467 18.7529C198.485 18.4774 198.277 18.2389 198.002 18.2202L197.934 19.2179ZM343.366 82.4806C343.1 82.5544 342.944 82.8299 343.018 83.096C343.092 83.3621 343.368 83.518 343.634 83.4442L343.366 82.4806ZM254.628 25.0469C254.902 25.0853 255.154 24.8948 255.193 24.6213C255.231 24.3479 255.041 24.0951 254.767 24.0566L254.628 25.0469ZM274.109 27.0612C273.837 27.0147 273.579 27.1976 273.532 27.4698C273.486 27.742 273.669 28.0004 273.941 28.0469L274.109 27.0612ZM293.146 31.668C293.417 31.7241 293.681 31.5504 293.737 31.2801C293.793 31.0097 293.62 30.745 293.349 30.6889L293.146 31.668ZM312.433 35.0802C312.166 35.0119 311.893 35.1735 311.825 35.441C311.757 35.7086 311.918 35.9809 312.186 36.0492L312.433 35.0802ZM348.055 47.9814C348.306 48.0955 348.603 47.9842 348.717 47.7328C348.831 47.4814 348.72 47.185 348.468 47.0708L348.055 47.9814ZM364.99 57.4684C364.796 57.2718 364.48 57.2696 364.283 57.4635C364.086 57.6575 364.084 57.974 364.278 58.1706L364.99 57.4684ZM364.565 72.745C364.362 72.932 364.349 73.2484 364.536 73.4515C364.723 73.6547 365.039 73.6678 365.242 73.4808L364.565 72.745ZM351.222 81.0518C351.482 80.9582 351.616 80.6718 351.523 80.4119C351.429 80.1521 351.143 80.0173 350.883 80.1109L351.222 81.0518ZM29.8645 33.6494C30.0976 33.5015 30.1667 33.1925 30.0188 32.9593C29.8709 32.7262 29.5619 32.6571 29.3287 32.805L29.8645 33.6494ZM45.9894 25.9414C45.7239 26.0176 45.5705 26.2945 45.6466 26.5599C45.7228 26.8253 45.9997 26.9788 46.2651 26.9026L45.9894 25.9414ZM63.7398 22.9725C64.0118 22.9245 64.1932 22.6651 64.1452 22.3932C64.0971 22.1212 63.8377 21.9397 63.5658 21.9878L63.7398 22.9725ZM81.3476 19.4343C81.0733 19.4659 80.8765 19.7139 80.9081 19.9882C80.9397 20.2625 81.1876 20.4593 81.462 20.4278L81.3476 19.4343ZM99.3274 18.7733C99.6029 18.7534 99.81 18.514 99.7901 18.2386C99.7702 17.9632 99.5308 17.756 99.2554 17.7759L99.3274 18.7733ZM117.19 16.7888C116.914 16.7996 116.699 17.032 116.71 17.3079C116.721 17.5838 116.953 17.7988 117.229 17.788L117.19 16.7888ZM135.167 17.3455C135.444 17.3424 135.665 17.1161 135.662 16.84C135.659 16.5638 135.433 16.3425 135.156 16.3455L135.167 17.3455ZM153.117 16.3715C152.841 16.3678 152.614 16.5886 152.61 16.8647C152.606 17.1408 152.827 17.3677 153.103 17.3714L153.117 16.3715ZM171.046 17.8188C171.322 17.8287 171.554 17.6131 171.564 17.3371C171.574 17.0612 171.358 16.8294 171.082 16.8194L171.046 17.8188ZM189.034 17.6594C188.759 17.6436 188.522 17.8543 188.506 18.13C188.491 18.4057 188.701 18.642 188.977 18.6578L189.034 17.6594ZM244.938 23.7525C248.21 24.1673 251.441 24.5991 254.628 25.0469L254.767 24.0566C251.576 23.6082 248.34 23.1758 245.064 22.7604L244.938 23.7525ZM273.941 28.0469C280.606 29.1862 287.019 30.3965 293.146 31.668L293.349 30.6889C287.21 29.4148 280.785 28.2024 274.109 27.0612L273.941 28.0469ZM312.186 36.0492C315.445 36.8813 318.589 37.7314 321.61 38.5976L321.885 37.6363C318.854 36.7673 315.701 35.9146 312.433 35.0802L312.186 36.0492ZM339.091 44.2983C342.322 45.5081 345.315 46.7374 348.055 47.9814L348.468 47.0708C345.705 45.8162 342.691 44.5784 339.442 43.3618L339.091 44.2983ZM364.278 58.1706C367.032 60.9625 368.319 63.6914 368.141 66.3225L369.139 66.39C369.344 63.359 367.847 60.3651 364.99 57.4684L364.278 58.1706ZM368.141 66.3225C367.991 68.542 366.8 70.6879 364.565 72.745L365.242 73.4808C367.596 71.3136 368.966 68.9454 369.139 66.39L368.141 66.3225ZM350.883 80.1109C348.583 80.9391 346.073 81.7296 343.366 82.4806L343.634 83.4442C346.361 82.6876 348.895 81.8896 351.222 81.0518L350.883 80.1109ZM23.7699 39.7182C24.7991 37.6016 26.8397 35.5685 29.8645 33.6494L29.3287 32.805C26.2228 34.7756 24.0126 36.9322 22.8706 39.2809L23.7699 39.7182ZM46.2651 26.9026C51.3708 25.4378 57.2245 24.1239 63.7398 22.9725L63.5658 21.9878C57.0246 23.1437 51.1358 24.4649 45.9894 25.9414L46.2651 26.9026ZM81.462 20.4278C87.1038 19.7785 93.0712 19.2254 99.3274 18.7733L99.2554 17.7759C92.9864 18.229 87.0048 18.7833 81.3476 19.4343L81.462 20.4278ZM117.229 17.788C123.029 17.562 129.016 17.4135 135.167 17.3455L135.156 16.3455C128.996 16.4137 122.999 16.5624 117.19 16.7888L117.229 17.788ZM153.103 17.3714C158.972 17.4508 164.959 17.5992 171.046 17.8188L171.082 16.8194C164.988 16.5996 158.993 16.451 153.117 16.3715L153.103 17.3714ZM188.977 18.6578C191.945 18.828 194.931 19.0146 197.934 19.2179L198.002 18.2202C194.995 18.0167 192.005 17.8298 189.034 17.6594L188.977 18.6578ZM22.421 39.0622C22.1795 39.5589 22.3863 40.1573 22.883 40.3988C23.3797 40.6404 23.9781 40.4335 24.2196 39.9368L22.421 39.0622ZM197.9 19.7168C198.451 19.7541 198.928 19.3377 198.966 18.7866C199.003 18.2356 198.586 17.7587 198.035 17.7214L197.9 19.7168ZM343.233 81.9987C342.701 82.1464 342.389 82.6975 342.536 83.2297C342.684 83.7619 343.235 84.0736 343.767 83.926L343.233 81.9987ZM254.559 25.542C255.105 25.6189 255.611 25.2378 255.688 24.6909C255.765 24.144 255.384 23.6383 254.837 23.5615L254.559 25.542ZM274.194 26.5684C273.649 26.4753 273.132 26.8412 273.039 27.3856C272.946 27.9299 273.312 28.4467 273.857 28.5398L274.194 26.5684ZM293.045 32.1576C293.585 32.2698 294.115 31.9224 294.227 31.3816C294.339 30.8409 293.992 30.3115 293.451 30.1993L293.045 32.1576ZM312.557 34.5958C312.022 34.4592 311.477 34.7822 311.341 35.3173C311.204 35.8524 311.527 36.397 312.062 36.5336L312.557 34.5958ZM347.848 48.4366C348.351 48.665 348.944 48.4424 349.172 47.9395C349.401 47.4366 349.178 46.8439 348.675 46.6155L347.848 48.4366ZM365.346 57.1173C364.958 56.7241 364.325 56.7197 363.932 57.1076C363.539 57.4954 363.534 58.1286 363.922 58.5217L365.346 57.1173ZM364.226 72.3772C363.82 72.7512 363.794 73.3838 364.168 73.7902C364.542 74.1965 365.174 74.2227 365.581 73.8486L364.226 72.3772ZM351.391 81.5222C351.911 81.3351 352.18 80.7622 351.993 80.2425C351.806 79.7229 351.233 79.4534 350.714 79.6405L351.391 81.5222ZM30.1323 34.0716C30.5987 33.7757 30.7369 33.1578 30.441 32.6915C30.1451 32.2251 29.5272 32.0869 29.0609 32.3828L30.1323 34.0716ZM45.8515 25.4608C45.3206 25.6131 45.0137 26.1669 45.166 26.6978C45.3183 27.2287 45.8722 27.5356 46.403 27.3832L45.8515 25.4608ZM63.8268 23.4649C64.3707 23.3688 64.7337 22.85 64.6376 22.3061C64.5415 21.7623 64.0227 21.3993 63.4788 21.4954L63.8268 23.4649ZM81.2905 18.9376C80.7418 19.0007 80.3482 19.4967 80.4114 20.0454C80.4745 20.594 80.9705 20.9876 81.5191 20.9245L81.2905 18.9376ZM99.3635 19.272C99.9143 19.2322 100.329 18.7534 100.289 18.2025C100.249 17.6517 99.7702 17.2374 99.2193 17.2772L99.3635 19.272ZM117.171 16.2892C116.619 16.3107 116.189 16.7755 116.211 17.3274C116.232 17.8792 116.697 18.3092 117.249 18.2877L117.171 16.2892ZM135.173 17.8454C135.725 17.8393 136.168 17.3867 136.162 16.8344C136.156 16.2822 135.703 15.8395 135.151 15.8456L135.173 17.8454ZM153.124 15.8716C152.571 15.8641 152.118 16.3057 152.11 16.8579C152.103 17.4102 152.544 17.8639 153.097 17.8714L153.124 15.8716ZM171.028 18.3185C171.58 18.3384 172.044 17.9071 172.064 17.3552C172.084 16.8032 171.652 16.3397 171.1 16.3198L171.028 18.3185ZM189.063 17.1602C188.512 17.1286 188.039 17.55 188.007 18.1013C187.976 18.6527 188.397 19.1253 188.948 19.157L189.063 17.1602ZM244.875 24.2485C248.145 24.6631 251.374 25.0945 254.559 25.542L254.837 23.5615C251.643 23.1127 248.405 22.6801 245.127 22.2644L244.875 24.2485ZM273.857 28.5398C280.516 29.6781 286.923 30.8873 293.045 32.1576L293.451 30.1993C287.305 28.9239 280.875 27.7105 274.194 26.5684L273.857 28.5398ZM312.062 36.5336C315.317 37.3646 318.456 38.2135 321.472 39.0782L322.023 37.1556C318.987 36.2852 315.829 35.4313 312.557 34.5958L312.062 36.5336ZM338.916 44.7665C342.138 45.973 345.12 47.198 347.848 48.4366L348.675 46.6155C345.9 45.3556 342.875 44.1135 339.618 42.8936L338.916 44.7665ZM363.922 58.5217C366.624 61.2612 367.807 63.8576 367.642 66.2887L369.638 66.4238C369.857 63.1928 368.255 60.0664 365.346 57.1173L363.922 58.5217ZM367.642 66.2887C367.503 68.3403 366.401 70.375 364.226 72.3772L365.581 73.8486C367.995 71.6265 369.453 69.1471 369.638 66.4238L367.642 66.2887ZM350.714 79.6405C348.427 80.4638 345.93 81.2506 343.233 81.9987L343.767 83.926C346.505 83.1665 349.051 82.3649 351.391 81.5222L350.714 79.6405ZM24.2196 39.9368C25.1923 37.9363 27.1482 35.9649 30.1323 34.0716L29.0609 32.3828C25.9144 34.3791 23.6194 36.5975 22.421 39.0622L24.2196 39.9368ZM46.403 27.3832C51.4883 25.9243 57.3245 24.6139 63.8268 23.4649L63.4788 21.4954C56.9246 22.6536 51.0183 23.9785 45.8515 25.4608L46.403 27.3832ZM81.5191 20.9245C87.1533 20.2761 93.1136 19.7237 99.3635 19.272L99.2193 17.2772C92.9439 17.7307 86.9554 18.2856 81.2905 18.9376L81.5191 20.9245ZM117.249 18.2877C123.043 18.0618 129.026 17.9135 135.173 17.8454L135.151 15.8456C128.986 15.9138 122.985 16.0626 117.171 16.2892L117.249 18.2877ZM153.097 17.8714C158.961 17.9507 164.945 18.099 171.028 18.3185L171.1 16.3198C165.002 16.0998 159.004 15.9511 153.124 15.8716L153.097 17.8714ZM188.948 19.157C191.914 19.3271 194.899 19.5136 197.9 19.7168L198.035 17.7214C195.027 17.5177 192.036 17.3307 189.063 17.1602L188.948 19.157Z" fill="#FFCA99"/>
    <path d="M44.7017 62.0416C44.4485 61.9313 44.1539 62.0471 44.0436 62.3003C43.9333 62.5534 44.0491 62.8481 44.3022 62.9584L44.7017 62.0416ZM313.565 89.181C313.838 89.1456 314.032 88.8948 313.996 88.621C313.961 88.3471 313.71 88.1538 313.436 88.1892L313.565 89.181ZM51.1407 65.728C51.399 65.8257 51.6875 65.6954 51.7851 65.4371C51.8827 65.1788 51.7525 64.8902 51.4942 64.7926L51.1407 65.728ZM65.4148 69.4842C65.1505 69.4042 64.8714 69.5536 64.7914 69.8179C64.7114 70.0822 64.8608 70.3613 65.1251 70.4413L65.4148 69.4842ZM79.3308 74.3697C79.5985 74.4375 79.8705 74.2755 79.9383 74.0078C80.0061 73.7401 79.844 73.4681 79.5763 73.4003L79.3308 74.3697ZM93.8934 76.7514C93.6235 76.693 93.3573 76.8644 93.2989 77.1343C93.2405 77.4042 93.4119 77.6704 93.6818 77.7288L93.8934 76.7514ZM108.128 80.634C108.4 80.6847 108.661 80.5058 108.712 80.2343C108.762 79.9629 108.583 79.7017 108.312 79.651L108.128 80.634ZM122.806 82.1701C122.533 82.1261 122.276 82.3114 122.232 82.584C122.188 82.8566 122.373 83.1133 122.646 83.1574L122.806 82.1701ZM246.584 92.9288C246.86 92.929 247.084 92.7052 247.084 92.4291C247.084 92.1529 246.861 91.929 246.585 91.9288L246.584 92.9288ZM265.729 91.6736C265.452 91.6813 265.235 91.9113 265.243 92.1873C265.25 92.4633 265.48 92.6809 265.756 92.6732L265.729 91.6736ZM284.917 91.832C285.193 91.8151 285.402 91.5781 285.386 91.3024C285.369 91.0268 285.132 90.817 284.856 90.8338L284.917 91.832ZM303.935 89.2884C303.66 89.3166 303.46 89.5622 303.489 89.8369C303.517 90.1116 303.763 90.3114 304.037 90.2831L303.935 89.2884ZM44.3022 62.9584C46.4453 63.8921 48.7271 64.816 51.1407 65.728L51.4942 64.7926C49.0944 63.8857 46.828 62.9681 44.7017 62.0416L44.3022 62.9584ZM65.1251 70.4413C69.5774 71.7891 74.3213 73.1009 79.3308 74.3697L79.5763 73.4003C74.58 72.1349 69.851 70.8271 65.4148 69.4842L65.1251 70.4413ZM93.6818 77.7288C98.3278 78.7343 103.149 79.7041 108.128 80.634L108.312 79.651C103.341 78.7228 98.5295 77.7548 93.8934 76.7514L93.6818 77.7288ZM122.646 83.1574C125.044 83.5446 127.471 83.9226 129.927 84.2911L130.075 83.3022C127.623 82.9342 125.199 82.5567 122.806 82.1701L122.646 83.1574ZM236.995 92.8609C240.227 92.9046 243.425 92.9271 246.584 92.9288L246.585 91.9288C243.43 91.9271 240.236 91.9047 237.008 91.861L236.995 92.8609ZM265.756 92.6732C272.37 92.4893 278.767 92.2074 284.917 91.832L284.856 90.8338C278.718 91.2086 272.331 91.4899 265.729 91.6736L265.756 92.6732ZM304.037 90.2831C307.312 89.9461 310.49 89.5785 313.565 89.181L313.436 88.1892C310.371 88.5856 307.202 88.9522 303.935 89.2884L304.037 90.2831ZM44.9014 61.5832C44.3951 61.3626 43.8058 61.5943 43.5852 62.1006C43.3646 62.6069 43.5962 63.1962 44.1025 63.4168L44.9014 61.5832ZM313.629 89.6768C314.176 89.606 314.563 89.1046 314.492 88.5569C314.421 88.0091 313.92 87.6225 313.372 87.6933L313.629 89.6768ZM50.9639 66.1958C51.4805 66.391 52.0576 66.1305 52.2528 65.6138C52.4481 65.0972 52.1875 64.5201 51.6709 64.3249L50.9639 66.1958ZM65.5597 69.0057C65.0311 68.8457 64.4729 69.1445 64.3129 69.6731C64.1529 70.2017 64.4517 70.7599 64.9802 70.9199L65.5597 69.0057ZM79.2081 74.8544C79.7434 74.99 80.2874 74.6659 80.423 74.1305C80.5586 73.5952 80.2345 73.0512 79.6991 72.9156L79.2081 74.8544ZM93.9991 76.2627C93.4593 76.1459 92.927 76.4888 92.8102 77.0286C92.6934 77.5683 93.0363 78.1006 93.5761 78.2175L93.9991 76.2627ZM108.037 81.1255C108.579 81.2269 109.102 80.869 109.203 80.3261C109.305 79.7832 108.947 79.2609 108.404 79.1595L108.037 81.1255ZM122.885 81.6765C122.34 81.5885 121.827 81.9591 121.739 82.5043C121.651 83.0495 122.021 83.5629 122.566 83.651L122.885 81.6765ZM246.584 93.4288C247.136 93.4291 247.584 92.9816 247.584 92.4293C247.585 91.8771 247.137 91.4291 246.585 91.4288L246.584 93.4288ZM265.715 91.1738C265.163 91.1891 264.727 91.6491 264.743 92.2012C264.758 92.7533 265.218 93.1884 265.77 93.173L265.715 91.1738ZM284.947 92.331C285.499 92.2974 285.918 91.8232 285.885 91.272C285.851 90.7207 285.377 90.3011 284.826 90.3348L284.947 92.331ZM303.884 88.791C303.334 88.8475 302.935 89.3387 302.991 89.8881C303.048 90.4375 303.539 90.837 304.088 90.7805L303.884 88.791ZM44.1025 63.4168C46.2539 64.3541 48.5435 65.2811 50.9639 66.1958L51.6709 64.3249C49.278 63.4206 47.0194 62.506 44.9014 61.5832L44.1025 63.4168ZM64.9802 70.9199C69.4406 72.2701 74.1919 73.5839 79.2081 74.8544L79.6991 72.9156C74.7094 71.6518 69.9878 70.3461 65.5597 69.0057L64.9802 70.9199ZM93.5761 78.2175C98.2269 79.224 103.052 80.1948 108.037 81.1255L108.404 79.1595C103.437 78.2321 98.6304 77.265 93.9991 76.2627L93.5761 78.2175ZM122.566 83.651C124.966 84.0385 127.395 84.4168 129.853 84.7856L130.15 82.8077C127.699 82.44 125.277 82.0628 122.885 81.6765L122.566 83.651ZM236.988 93.3609C240.223 93.4046 243.422 93.4271 246.584 93.4288L246.585 91.4288C243.432 91.4271 240.241 91.4047 237.015 91.3611L236.988 93.3609ZM265.77 93.173C272.389 92.9889 278.792 92.7068 284.947 92.331L284.826 90.3348C278.693 90.7091 272.312 90.9903 265.715 91.1738L265.77 93.173ZM304.088 90.7805C307.367 90.4431 310.55 90.0749 313.629 89.6768L313.372 87.6933C310.311 88.0891 307.147 88.4553 303.884 88.791L304.088 90.7805Z" fill="#FE7B01"/>
    <path d="M4.58078 56.9892C5.05023 56.8604 5.70234 56.725 6.43424 56.6372M6.43424 56.6372C8.13268 56.4336 10.2608 56.4867 11.5332 57.4759C13.8091 59.2452 16.7262 61.0829 19.8311 61.1595C22.9359 61.2361 38.949 55.8188 46.8646 53.3549C54.0127 51.1299 90.2593 37.8973 98.5277 34.7421M6.43424 56.6372C5.27715 57.7572 2.78342 59.9781 2.06521 59.9015C1.16745 59.8058 0.382828 57.4322 2.90595 55.6656C4.56071 54.507 7.4431 52.8226 10.8041 52.1476M16.3824 52.1407C14.4633 51.7171 12.5678 51.7934 10.8041 52.1476M10.8041 52.1476C10.7724 50.7751 11.2992 48.7844 13.001 47.357M21.4672 45.8127C17.2555 45.1661 14.6058 46.0111 13.001 47.357M13.001 47.357C12.7967 46.4348 13.8808 44.2151 19.8518 42.7144C24.2874 41.5995 51.9117 36.3059 75.3559 31.8744M75.3559 31.8744C83.4711 30.3405 91.0854 28.9098 97.0638 27.7916C98.6838 28.0067 101.57 29.5696 100.153 34.1004C99.9807 34.1807 99.4155 34.4033 98.5277 34.7421M75.3559 31.8744C78.8309 31.724 86.2127 31.2656 87.9402 30.6356M98.5277 34.7421C95.4628 35.3711 91.5561 36.118 87.2766 36.8602M50.1218 39.8348C56.1035 41.5579 73.5953 39.2329 87.2766 36.8602M87.2766 36.8602C79.6649 39.7176 61.2744 44.9677 48.6054 43.1082M55.0482 48.3751L36.4545 54.8823M13.7544 48.8071C14.9443 49.3445 17.4184 50.0328 20.9827 50.3573M64.3804 44.79C59.2311 45.6405 46.1323 47.8122 34.9322 49.6952C29.3021 50.6417 24.5855 50.6853 20.9827 50.3573M20.9827 50.3573C21.9045 51.8496 26.2301 54.1829 36.1583 51.5773M8.45337 54.7303C9.93055 54.5077 12.7795 54.3177 14.9282 54.8304M28.5278 56.2344C25.4165 56.6236 18.7131 57.0455 16.7898 55.6191C16.3032 55.2583 15.6559 55.004 14.9282 54.8304M14.9282 54.8304C15.5837 56.7933 17.7338 60.1471 21.0908 57.8588" stroke="#FE7B01" stroke-width="1.5" stroke-linecap="round" stroke-linejoin="round"/>
    <path d="M328.217 26.0291C328.249 26.5149 328.25 27.1809 328.189 27.9155M328.189 27.9155C328.046 29.6201 327.566 31.694 326.341 32.7413C324.15 34.6144 321.762 37.102 321.062 40.1279C320.363 43.1538 322.446 59.9295 323.266 68.179C324.007 75.6287 329.673 113.797 331.099 122.531M328.189 27.9155C327.325 26.5566 325.651 23.6669 325.871 22.9788C326.145 22.1187 328.628 21.8279 329.851 24.655C330.652 26.5091 331.722 29.6715 331.707 33.0996M330.591 38.5651C331.392 36.7705 331.699 34.8985 331.707 33.0996M331.707 33.0996C333.058 33.3448 334.902 34.2615 335.957 36.2158M335.766 44.8196C337.247 40.8242 336.953 38.0587 335.957 36.2158M335.957 36.2158C336.902 36.2013 338.858 37.71 339.126 43.8608C339.325 48.4301 338.95 76.5545 338.572 100.411M338.572 100.411C338.441 108.669 338.31 116.415 338.202 122.496C337.665 124.04 335.553 126.552 331.401 124.252C331.357 124.067 331.252 123.469 331.099 122.531M338.572 100.411C338.02 103.845 336.983 111.168 337.253 112.987M331.099 122.531C331.1 119.402 331.155 115.425 331.289 111.084M335.854 74.0909C332.962 79.6033 331.719 97.2051 331.289 111.084M331.289 111.084C330.022 103.053 328.581 83.9821 332.953 71.9467M326.497 77.1975L323.865 57.6746M334.385 36.6619C333.619 37.7192 332.447 40.0042 331.412 43.4302M328.13 87.0604C328.333 81.8452 328.843 68.5774 329.253 57.2275C329.459 51.5221 330.365 46.8932 331.412 43.4302M331.412 43.4302C329.764 44.0328 326.608 47.8002 327.162 58.0497M329.65 30.2771C329.571 31.7689 329.184 34.5978 328.249 36.5993M324.136 49.6379C324.381 46.512 325.317 39.8608 327.102 38.264C327.553 37.86 327.932 37.2771 328.249 36.5993M328.249 36.5993C326.194 36.8462 322.476 38.2773 324.042 42.0262" stroke="#FE7B01" stroke-width="1.5" stroke-linecap="round" stroke-linejoin="round"/>
    <path d="M154 140.5L151.5 122.5L172 112L206 119V126.5L204.5 128.5L205 134L203.5 136L195.5 140L178 144L164 144.5L157 143L154 140.5Z" fill="white"/>
    <path d="M142.634 65.476L153.924 139.524C153.924 139.524 153.696 147.587 178.518 143.803C203.34 140.018 205.017 133.775 205.017 133.775L193.727 59.7224" stroke="#E4803A" stroke-width="1.5" stroke-linecap="round" stroke-linejoin="round"/>
    <path d="M144.26 60.1775C144.26 60.1775 151.61 62.3599 165.644 59.6409" stroke="#E4803A" stroke-width="1.5" stroke-linecap="round" stroke-linejoin="round"/>
    <path d="M153.765 65.3825C154.388 65.3793 154.992 65.5992 155.468 66.0024C155.943 66.4057 156.259 66.9657 156.357 67.5812L165.375 126.732C165.436 127.13 165.403 127.537 165.28 127.921C165.158 128.305 164.947 128.655 164.667 128.944C164.386 129.233 164.042 129.453 163.662 129.587C163.282 129.721 162.876 129.765 162.476 129.716L156.641 128.993C156.075 128.924 155.548 128.671 155.139 128.273C154.73 127.876 154.463 127.356 154.378 126.792L145.471 68.3763" stroke="#E4803A" stroke-width="1.5" stroke-linecap="round" stroke-linejoin="round"/>
    <path d="M156.414 67.9649L165.508 127.61C165.609 128.281 165.968 128.887 166.508 129.298C167.049 129.709 167.729 129.893 168.403 129.81L177.155 128.744C177.501 128.702 177.836 128.591 178.139 128.417C178.442 128.243 178.707 128.01 178.918 127.732C179.13 127.454 179.283 127.136 179.369 126.797C179.455 126.459 179.472 126.107 179.419 125.761L170.291 65.8881C170.185 65.2062 169.815 64.5934 169.26 64.1832C168.705 63.773 168.011 63.5987 167.328 63.6983L158.602 64.9898C157.917 65.0942 157.302 65.4663 156.892 66.0242C156.481 66.5822 156.31 67.2803 156.414 67.9649V67.9649Z" stroke="#E4803A" stroke-width="1.5" stroke-linecap="round" stroke-linejoin="round"/>
    <path d="M178.902 61.2335L174.365 62.3013" stroke="#E4803A" stroke-width="1.5" stroke-linecap="round" stroke-linejoin="round"/>
    <path d="M170.68 63.8447C170.49 64.1134 170.354 64.417 170.282 64.7382C170.209 65.0595 170.2 65.3919 170.256 65.7164L179.379 125.551C179.435 125.913 179.566 126.26 179.764 126.568C179.962 126.876 180.222 127.139 180.529 127.339C180.835 127.54 181.18 127.674 181.541 127.733C181.903 127.792 182.272 127.774 182.626 127.681L191.92 125.235C192.544 125.071 193.085 124.682 193.439 124.142C193.793 123.603 193.934 122.952 193.835 122.314L185.606 68.3349" stroke="#E4803A" stroke-width="1.5" stroke-linecap="round" stroke-linejoin="round"/>
    <path d="M185.59 68.2385L193.647 121.085C193.71 121.493 193.868 121.88 194.108 122.215C194.348 122.549 194.665 122.823 195.031 123.012C195.397 123.202 195.802 123.302 196.215 123.305C196.627 123.308 197.034 123.213 197.402 123.029L199.68 121.886C200.172 121.639 200.574 121.242 200.827 120.752C201.08 120.262 201.171 119.705 201.088 119.16" stroke="#E4803A" stroke-width="1.5" stroke-linecap="round" stroke-linejoin="round"/>
    <path d="M188.652 58.4234L186.336 59.2781C185.999 59.4009 185.692 59.5913 185.432 59.8376C185.172 60.084 184.965 60.381 184.825 60.7103" stroke="#E4803A" stroke-width="1.5" stroke-linecap="round" stroke-linejoin="round"/>
    <path d="M193.754 60.3179C193.754 60.3179 200.973 53.9904 210.438 57.2035C219.903 60.4165 221.35 66.0799 223.301 75.6697C225.251 85.2596 227.892 102.582 224.223 111.719C222.947 114.694 216.286 118.078 213.029 119.228C209.772 120.377 207.841 122.059 206.901 124.572C205.961 127.084 205.221 128.697 204.222 128.439" stroke="#E4803A" stroke-width="1.5" stroke-linecap="round" stroke-linejoin="round"/>
    <path d="M200.745 106.363C200.745 106.363 201.957 105.46 203.164 107.594C204.371 109.727 207.018 113.024 211.668 112.021C216.319 111.018 220.839 107.717 220.305 103.225C219.772 98.7322 216.597 72.4942 214.808 69.6629C213.019 66.8315 209.438 65.3759 205.569 66.2899C201.701 67.2039 198.282 69.7917 199.292 77.264C199.623 79.8636 197.988 81.0165 197.095 81.0878" stroke="#E4803A" stroke-width="1.5" stroke-linecap="round" stroke-linejoin="round"/>
    <path d="M143.949 56.1917C143.949 56.1917 144.591 57.9917 142.331 59.7586C142.835 61.3635 144.791 66.2272 142.171 66.311C139.551 66.3949 140.927 62.9729 140.927 62.9729C140.927 62.9729 138.28 63.2166 138.2 60.2804C138.12 57.3441 140.529 57.608 140.529 57.608C140.529 57.608 137.892 56.5357 138.831 54.4083C139.769 52.2809 142.5 52.954 142.5 52.954C142.5 52.954 141.299 49.9249 143.388 49.4507C145.477 48.9765 146.143 50.505 147.206 48.6049C148.27 46.7048 145.679 45.7638 147.235 43.2093C148.32 41.6735 149.497 44.235 151.354 42.9488C153.212 41.6626 151.598 39.6994 153.8 38.9443C156.003 38.1892 155.969 40.0361 157.557 39.0547C159.145 38.0732 159.09 36.3481 161.836 35.9293C164.582 35.5106 165.911 38.4684 167.46 37.2334C169.01 35.9985 171.447 30.4606 180.796 34.6685" stroke="#E4803A" stroke-width="1.5" stroke-linecap="round" stroke-linejoin="round"/>
    <path d="M178.128 37.8905C178.128 37.8905 179.2 34.1994 183.905 34.325C185.257 34.3519 186.581 34.7146 187.758 35.3804C188.935 36.0462 189.928 36.9942 190.648 38.1391" stroke="#E4803A" stroke-width="1.5" stroke-linecap="round" stroke-linejoin="round"/>
    <path d="M177.549 42.1157C177.549 42.1157 179.023 39.3661 181.398 39.0041C183.772 38.6421 185.709 40.6252 185.709 40.6252C185.709 40.6252 191.308 34.1902 194.359 41.4161C196.898 42.1876 197.986 43.457 196.959 46.3891C198.998 46.9732 201.565 48.951 198.76 52.3314C200.706 54.0322 201.289 55.7892 200.263 56.9963" stroke="#E4803A" stroke-width="1.5" stroke-linecap="round" stroke-linejoin="round"/>
    <path d="M197.138 58.2451C197.138 58.2451 194.116 58.2735 192.836 54.8976" stroke="#E4803A" stroke-width="1.5" stroke-linecap="round" stroke-linejoin="round"/>
    <path d="M195.69 73.6321C195.69 73.6321 191.471 54.2631 187.279 55.3258C183.088 56.3886 184.651 60.5167 185.57 62.7457C186.489 64.9747 186.614 69.5945 182.951 70.0968C179.288 70.5991 179.083 64.5777 179.32 62.8686C179.388 62.4679 179.347 62.0565 179.201 61.677C179.056 61.2976 178.812 60.964 178.494 60.711C178.176 60.4581 177.796 60.2949 177.393 60.2386C176.991 60.1822 176.581 60.2347 176.206 60.3906C174.415 61.0959 172.796 64.2827 174.576 68.6977C176.355 73.1127 175.783 75.2536 174.216 75.6697C172.65 76.0858 170.911 72.6459 171.067 66.3534C171.223 60.0609 164.491 57.5898 161.004 57.8577C158.943 59.5381 153.571 61.6238 149.386 57.3117C148.087 59.1397 144.896 58.26 143.989 57.1316" stroke="#E4803A" stroke-width="1.5" stroke-linecap="round" stroke-linejoin="round"/>
    <path d="M153.887 49.0127C153.887 49.0127 152.477 51.2769 154.504 52.5761C156.531 53.8754 158.157 51.8376 158.157 51.8376C158.157 51.8376 157.207 55.6745 160.04 55.6835C162.873 55.6925 162.719 53.4074 162.719 53.4074C162.719 53.4074 162.201 57.1828 164.567 57.0166C166.932 56.8505 168.788 56.6324 169.63 58.8084" stroke="#E4803A" stroke-width="1.5" stroke-linecap="round" stroke-linejoin="round"/>
    <path d="M160.668 55.6279C160.668 55.6279 159.687 56.7372 161.008 57.8587" stroke="#E4803A" stroke-width="1.5" stroke-linecap="round" stroke-linejoin="round"/>
    <path d="M169.018 50.4199C169.018 50.4199 172.989 47.3198 176.424 49.9132C179.025 50.6105 180.516 49.1337 181.109 53.0207" stroke="#E4803A" stroke-width="1.5" stroke-linecap="round" stroke-linejoin="round"/>
    <path d="M179.144 47.315C179.144 47.315 183.534 45.4006 183.482 49.6799" stroke="#E4803A" stroke-width="1.5" stroke-linecap="round" stroke-linejoin="round"/>
    <path d="M159.745 42.7892C159.745 42.7892 163.951 39.1823 166.995 40.7458C170.039 42.3092 167.913 46.7664 170.731 45.7964C173.549 44.8264 175.982 44.4511 177.046 47.8598" stroke="#E4803A" stroke-width="1.5" stroke-linecap="round" stroke-linejoin="round"/>
    <path d="M148.21 50.4272C147.97 50.8034 147.65 51.123 147.274 51.3639C146.898 51.6048 146.474 51.7614 146.032 51.8228C144.442 52.1086 144.313 53.5895 144.32 54.5178C144.328 55.4462 141.902 54.6185 141.374 55.4945C140.846 56.3705 141.379 57.5731 141.379 57.5731" stroke="#E4803A" stroke-width="1.5" stroke-linecap="round" stroke-linejoin="round"/>
    <path d="M208.906 9.93053L205.647 36.7793C205.647 36.7793 204.786 39.5614 213.786 40.6537C222.786 41.7461 223.975 39.7374 223.975 39.7374L227.234 12.8871" stroke="#FFCA99" stroke-linecap="round" stroke-linejoin="round"/>
    <path d="M209.985 8.24512C209.985 8.24512 212.329 9.71727 217.474 10.1334" stroke="#FFCA99" stroke-linecap="round" stroke-linejoin="round"/>
    <path d="M212.786 10.9778C213.003 11.0371 213.192 11.1722 213.318 11.3586C213.444 11.545 213.5 11.7703 213.474 11.994L210.871 33.4411C210.854 33.5855 210.803 33.724 210.723 33.8455C210.643 33.967 210.536 34.0684 210.41 34.1417C210.284 34.215 210.143 34.2581 209.998 34.2678C209.853 34.2775 209.708 34.2535 209.573 34.1976L207.614 33.38C207.424 33.301 207.265 33.1618 207.162 32.9839C207.058 32.806 207.015 32.5991 207.041 32.3948L209.611 11.2142" stroke="#FFCA99" stroke-linecap="round" stroke-linejoin="round"/>
    <path d="M213.457 12.133L210.832 33.7593C210.802 34.0027 210.868 34.2481 211.017 34.4435C211.165 34.6389 211.383 34.7687 211.626 34.8054L214.773 35.2838C214.898 35.3029 215.025 35.2967 215.147 35.2657C215.269 35.2346 215.384 35.1793 215.485 35.1031C215.585 35.0268 215.669 34.9312 215.732 34.8218C215.795 34.7124 215.835 34.5915 215.85 34.4663L218.485 12.7572C218.514 12.5098 218.445 12.2607 218.292 12.0642C218.139 11.8677 217.914 11.7397 217.667 11.7081L214.507 11.3106C214.258 11.2804 214.008 11.3502 213.812 11.5044C213.615 11.6586 213.487 11.8847 213.457 12.133V12.133Z" stroke="#FFCA99" stroke-linecap="round" stroke-linejoin="round"/>
    <path d="M221.931 11.9742L220.25 11.9054" stroke="#FFCA99" stroke-linecap="round" stroke-linejoin="round"/>
    <path d="M218.818 12.0839C218.726 12.1589 218.649 12.2514 218.593 12.3561C218.537 12.4607 218.501 12.5755 218.489 12.6938L215.856 34.3891C215.84 34.5204 215.852 34.6535 215.891 34.7798C215.93 34.9062 215.996 35.0229 216.083 35.1225C216.17 35.222 216.277 35.3021 216.397 35.3576C216.517 35.4132 216.647 35.4428 216.779 35.4447L220.249 35.4958C220.482 35.4995 220.708 35.4166 220.883 35.2633C221.058 35.1101 221.171 34.8972 221.198 34.6659L223.574 15.0939" stroke="#FFCA99" stroke-linecap="round" stroke-linejoin="round"/>
    <path d="M223.577 15.0594L221.252 34.2208C221.234 34.3686 221.251 34.5185 221.302 34.6583C221.353 34.7981 221.437 34.9238 221.546 35.0252C221.655 35.1266 221.786 35.2009 221.929 35.2419C222.072 35.2829 222.223 35.2895 222.369 35.2612L223.272 35.0847C223.467 35.0464 223.645 34.9472 223.781 34.8014C223.917 34.6557 224.002 34.4707 224.026 34.2731" stroke="#FFCA99" stroke-linecap="round" stroke-linejoin="round"/>
    <path d="M225.595 11.9431L224.706 12.0156C224.577 12.0257 224.452 12.0621 224.337 12.1225C224.223 12.183 224.122 12.2662 224.042 12.3671" stroke="#FFCA99" stroke-linecap="round" stroke-linejoin="round"/>
    <path d="M227.186 13.0967C227.186 13.0967 230.31 11.5965 233.29 13.6324C236.27 15.6683 236.224 17.7784 235.972 21.3029C235.72 24.8275 234.958 31.1084 232.795 33.9301C232.063 34.8407 229.418 35.3716 228.173 35.4553C226.929 35.539 226.094 35.9367 225.523 36.7193C224.953 37.5019 224.539 37.9911 224.216 37.8042" stroke="#FFCA99" stroke-linecap="round" stroke-linejoin="round"/>
    <path d="M225.149 29.7888C225.149 29.7888 225.657 29.5925 225.87 30.4515C226.083 31.3106 226.684 32.7141 228.398 32.8165C230.113 32.9189 232.005 32.2097 232.256 30.5954C232.506 28.9811 233.948 19.5477 233.6 18.3894C233.253 17.2311 232.149 16.3773 230.715 16.3199C229.281 16.2624 227.841 16.8307 227.467 19.5274C227.33 20.4637 226.649 20.706 226.332 20.6442" stroke="#FFCA99" stroke-linecap="round" stroke-linejoin="round"/>
    <path d="M210.264 6.82892C210.264 6.82892 210.313 7.51724 209.355 7.91249C209.375 8.51956 209.583 10.4009 208.664 10.1759C207.745 9.95082 208.555 8.89422 208.555 8.89422C208.555 8.89422 207.611 8.72207 207.868 7.6931C208.125 6.66412 208.937 6.98967 208.937 6.98967C208.937 6.98967 208.124 6.36093 208.657 5.71206C209.19 5.06319 210.074 5.56228 210.074 5.56228C210.074 5.56228 209.95 4.39226 210.723 4.43007C211.496 4.46788 211.579 5.06402 212.133 4.50637C212.687 3.94873 211.878 3.37012 212.667 2.63267C213.193 2.20375 213.354 3.20884 214.125 2.94175C214.895 2.67465 214.525 1.83531 215.364 1.78637C216.203 1.73743 216.012 2.37646 216.66 2.18924C217.307 2.00202 217.455 1.39664 218.451 1.51749C219.447 1.63834 219.622 2.79593 220.281 2.5168C220.94 2.23766 222.324 0.548112 225.167 2.91868" stroke="#FFCA99" stroke-linecap="round" stroke-linejoin="round"/>
    <path d="M223.926 3.78084C223.926 3.78084 224.657 2.60106 226.282 3.10133C226.749 3.24187 227.174 3.49648 227.519 3.84224C227.864 4.188 228.117 4.61405 228.256 5.08205" stroke="#FFCA99" stroke-linecap="round" stroke-linejoin="round"/>
    <path d="M223.315 5.19351C223.315 5.19351 224.095 4.38029 224.956 4.48478C225.817 4.58927 226.298 5.46689 226.298 5.46689C226.298 5.46689 228.869 3.77213 229.229 6.5813C230.038 7.09598 230.293 7.64307 229.651 8.56317C230.304 8.96414 231.004 9.90106 229.701 10.8046C230.212 11.5849 230.245 12.2526 229.771 12.5728" stroke="#FFCA99" stroke-linecap="round" stroke-linejoin="round"/>
    <path d="M228.563 12.7042C228.563 12.7042 227.509 12.4208 227.392 11.1225" stroke="#FFCA99" stroke-linecap="round" stroke-linejoin="round"/>
    <path d="M226.567 17.9152C226.567 17.9152 226.979 10.7694 225.418 10.7323C223.857 10.6952 224 12.2826 224.104 13.147C224.207 14.0115 223.802 15.6303 222.48 15.4496C221.157 15.2688 221.67 13.1548 221.918 12.5833C221.981 12.4505 222.006 12.3035 221.993 12.1574C221.979 12.0113 221.926 11.8716 221.84 11.7528C221.754 11.6339 221.638 11.5403 221.503 11.4817C221.369 11.423 221.221 11.4015 221.075 11.4193C220.384 11.4909 219.512 12.4421 219.702 14.1503C219.893 15.8585 219.486 16.5475 218.901 16.5402C218.316 16.5329 218.045 15.1678 218.71 12.9945C219.374 10.8211 217.273 9.30848 216.034 9.06332C215.154 9.44775 213.084 9.65193 212.047 7.74615C211.417 8.25583 210.393 7.64029 210.187 7.15982" stroke="#FFCA99" stroke-linecap="round" stroke-linejoin="round"/>
    <path d="M214.416 5.29612C214.416 5.29612 213.706 5.94677 214.285 6.5953C214.864 7.24383 215.627 6.6929 215.627 6.6929C215.627 6.6929 214.925 7.93517 215.909 8.21321C216.893 8.49125 217.062 7.68156 217.062 7.68156C217.062 7.68156 216.515 8.94433 217.354 9.11608C218.193 9.28784 218.859 9.39207 218.941 10.2305" stroke="#FFCA99" stroke-linecap="round" stroke-linejoin="round"/>
    <path d="M216.134 8.25535C216.134 8.25535 215.685 8.54598 216.036 9.06421" stroke="#FFCA99" stroke-linecap="round" stroke-linejoin="round"/>
    <path d="M219.543 7.25408C219.543 7.25408 221.226 6.56129 222.168 7.79652C223.005 8.29138 223.667 7.92246 223.496 9.33184" stroke="#FFCA99" stroke-linecap="round" stroke-linejoin="round"/>
    <path d="M223.366 7.15698C223.366 7.15698 225.079 6.91714 224.646 8.40039" stroke="#FFCA99" stroke-linecap="round" stroke-linejoin="round"/>
    <path d="M217.059 3.70086C217.059 3.70086 218.872 2.85446 219.779 3.69361C220.686 4.53275 219.514 5.87662 220.588 5.81267C221.662 5.74873 222.545 5.85429 222.584 7.14309" stroke="#FFCA99" stroke-linecap="round" stroke-linejoin="round"/>
    <path d="M212.305 5.23745C212.185 5.34494 212.043 5.42509 211.889 5.4724C211.735 5.51971 211.572 5.53305 211.413 5.51149C210.832 5.45653 210.643 5.95908 210.556 6.28268C210.468 6.60629 209.705 6.08303 209.436 6.33646C209.168 6.58989 209.236 7.05993 209.236 7.05993" stroke="#FFCA99" stroke-linecap="round" stroke-linejoin="round"/>
</svg>
