<svg width="329" height="419" viewBox="0 0 329 419" fill="none" xmlns="http://www.w3.org/2000/svg">
    <path d="M149.5 337L159 335.5L158 323.5L159 314L163 301.5L167.5 294L173.5 284L178 273.5L182.5 259.5L184.5 245.5L185.5 216L187.5 201.5L190.5 189.5L194 184L194.5 179L197 174L201.5 171L205.5 171.5L208.5 170.5L210 173.5L213.5 170L218.5 167.5L222.5 170.5V172.5L227 172L230.5 173.5L234.5 171.5L239.5 174.5L239 178.5L236 182.5L234.5 184.5L239 190.5L245.5 202.5L250 222.5L251 238.5L250 255H255L264 250.5H268L278.5 242.5L285.5 242L291.5 244L296.5 248L301 256.5L302.5 262L301 266H298L293.5 267.5L289.5 270L286 269.5L278.5 272.5L273.5 276.5L274.5 289L298.5 385.5L300.5 386.5L301.5 391.5L299 394L290.5 386.5L284.5 372.5V369.5L283 366.5L281 356L283 354.5L264.5 282L244.5 287L241 301.5L234.5 324L229.5 335.5L228.5 351.5L214 381L173.5 358.5L167.5 352.5L161.5 342.5L156.5 346.5L149.5 351.5L141.5 353L131.5 352L119 348.5L104 342.5L96.5 339.5L87.5 339L80.5 340L72.5 342H69L67 340L67.5 336.5L70.5 332.5L76.5 329L84.5 326L91.5 325.5L104.5 326L118 330L130 335.5L140 337H149.5Z" fill="white"/>
    <path d="M177 353L173.5 340.5L207.5 352L204.5 358L199.5 366.5L197.5 372.5L199 376.5L200.5 366L204.5 359L208.5 351L231 339.5L229 354.5L221 368.5L219 379L228 384.5L242.5 385.5L245 394L258.5 394.5L263 391.5L285 351.5L296.5 365L299 381.5L292.5 384.5L286.5 389L283 395.5L281 397L279.5 396.5L279 391.5L283 383.5L288 379.5L293.5 376.5L294.5 373L290 370.5L289.5 367L288 365.5L279.5 381L272 395.5L267.5 400.5L263 403.5L256 406H242L159 406.5L161 386L167 384.5L170.5 388.5L173 394.5H180.5L177 390L176.5 384.5L177 376L178.5 363L177 353Z" fill="white"/>
    <path d="M235.016 185C234.57 182.797 235.909 182.797 237.248 181.476C238.587 180.154 241.264 175.749 237.248 173.106C234.167 171.079 231.874 172.162 230.369 173.77" stroke="#FFCA99" stroke-width="1.5"/>
    <path d="M205.369 171.693C205.82 171.092 207.084 170.071 208.527 170.791C209.971 171.512 210.031 173.194 209.881 173.945C211.686 171.242 216.288 166.376 220.258 168.539C224.229 170.702 222.364 173.194 220.71 174.396C222.815 172.593 227.297 170.251 230.185 173.495C233.072 176.738 230.034 177.85 227.929 178" stroke="#FFCA99" stroke-width="1.5" stroke-linecap="round" stroke-linejoin="round"/>
    <path d="M161.478 386.036L153.519 387.904L136.198 392.295L131.06 395.389C131.06 395.389 128.757 398.306 128.64 394.896C128.522 391.486 129.568 387.025 134.199 383.219C133.951 379.582 132.899 376.236 136.263 376.151C139.626 376.065 153.33 374.397 159.023 378.034C164.715 381.672 167.276 384.671 167.276 384.671" stroke="#FFCA99" stroke-width="1.5" stroke-miterlimit="10" stroke-linecap="round" stroke-linejoin="round"/>
    <path d="M149.209 418.902C159.58 418.902 167.987 410.562 167.987 400.272C167.987 389.983 159.58 381.64 149.209 381.64C138.839 381.64 130.432 389.983 130.432 400.272C130.432 410.562 138.839 418.902 149.209 418.902Z" fill="#1F1E1D"/>
    <path d="M149.003 411.17C151.112 411.15 153.168 410.506 154.912 409.318C156.656 408.13 158.01 406.452 158.803 404.494C159.597 402.537 159.794 400.388 159.371 398.319C158.947 396.249 157.922 394.352 156.423 392.865C154.925 391.378 153.021 390.369 150.951 389.964C148.881 389.559 146.737 389.777 144.791 390.59C142.844 391.403 141.181 392.774 140.011 394.532C138.841 396.29 138.217 398.355 138.217 400.468C138.223 401.88 138.508 403.277 139.053 404.579C139.599 405.881 140.395 407.063 141.397 408.056C142.398 409.05 143.585 409.837 144.891 410.371C146.196 410.905 147.593 411.177 149.003 411.17Z" fill="#434343"/>
    <path d="M150.5 394.5L168.5 394L170 406.5H151.5L146 405L144 402V398L146.5 396L150.5 394.5Z" fill="white"/>
    <path d="M304.122 418.902C314.493 418.902 322.9 410.562 322.9 400.272C322.9 389.983 314.493 381.64 304.122 381.64C293.752 381.64 285.342 389.983 285.342 400.272C285.342 410.562 293.749 418.902 304.122 418.902Z" fill="#1F1E1D"/>
    <path d="M303.915 411.17C306.024 411.15 308.08 410.506 309.824 409.318C311.568 408.13 312.922 406.452 313.716 404.494C314.509 402.537 314.706 400.388 314.283 398.319C313.859 396.249 312.834 394.352 311.335 392.865C309.837 391.378 307.933 390.369 305.863 389.964C303.793 389.559 301.649 389.777 299.703 390.59C297.756 391.403 296.093 392.774 294.923 394.532C293.753 396.29 293.129 398.355 293.129 400.468C293.135 401.88 293.42 403.277 293.965 404.579C294.511 405.881 295.307 407.063 296.309 408.056C297.31 409.05 298.498 409.837 299.803 410.371C301.108 410.905 302.505 411.177 303.915 411.17Z" fill="#434343"/>
    <path d="M299.5 394.5L297 382.5L303.5 381L305.5 392.5L309 394.5L311.5 399L310.5 403L308 406L304.5 407.5L300.5 406.5L297 403L296.5 398.5L298 395.5L299.5 394.5Z" fill="white"/>
    <path d="M146.236 395.959L137.977 385.864L139.353 384.028L147.613 394.582L146.236 395.959Z" fill="white"/>
    <path d="M130.797 395.802C131.843 391.716 134.222 388.097 137.555 385.519C140.888 382.94 144.985 381.55 149.197 381.569C151.318 381.565 153.425 381.916 155.432 382.605C155.432 382.605 159.069 383.806 161.38 386.056C161.38 386.056 165.764 389.475 166.943 394.323" stroke="#FFCA99" stroke-width="1.5" stroke-miterlimit="10" stroke-linecap="round" stroke-linejoin="round"/>
    <path d="M129.376 386.89H128.377C128.312 386.889 128.247 386.901 128.186 386.925C128.125 386.95 128.07 386.986 128.023 387.032C127.976 387.077 127.939 387.132 127.913 387.192C127.887 387.252 127.874 387.317 127.873 387.383V394.173C127.873 394.306 127.926 394.433 128.019 394.526C128.112 394.62 128.239 394.672 128.371 394.672H129.371C129.503 394.672 129.629 394.62 129.723 394.526C129.816 394.433 129.869 394.306 129.869 394.173V387.383C129.867 387.252 129.815 387.128 129.723 387.036C129.631 386.944 129.507 386.891 129.376 386.89V386.89Z" stroke="#FFCA99" stroke-width="1.5" stroke-miterlimit="10" stroke-linecap="round" stroke-linejoin="round"/>
    <path d="M134.199 383.219C134.199 383.219 142.686 375.301 150.061 375.8" stroke="#FFCA99" stroke-width="1.5" stroke-miterlimit="10" stroke-linecap="round" stroke-linejoin="round"/>
    <path d="M147.823 394.966L139.422 384.255" stroke="#FFCA99" stroke-width="1.5" stroke-miterlimit="10" stroke-linecap="round" stroke-linejoin="round"/>
    <path d="M146.376 395.802L137.633 385.563" stroke="#FFCA99" stroke-width="1.5" stroke-miterlimit="10" stroke-linecap="round" stroke-linejoin="round"/>
    <path d="M213.818 398.625C213.839 398.619 213.862 398.619 213.883 398.625C213.903 398.634 213.921 398.647 213.936 398.663C213.95 398.681 213.96 398.701 213.965 398.722C213.97 398.745 213.97 398.768 213.965 398.79L213.844 399.428C213.836 399.462 213.818 399.493 213.791 399.517C213.764 399.54 213.73 399.552 213.694 399.552H212.857C212.822 399.552 212.789 399.564 212.763 399.588C212.748 399.598 212.736 399.611 212.727 399.626C212.718 399.642 212.712 399.659 212.71 399.676L212.415 401.359C212.405 401.418 212.399 401.477 212.397 401.536C212.397 401.731 212.483 401.831 212.692 401.831H213.225C213.248 401.832 213.27 401.837 213.29 401.846C213.31 401.857 213.328 401.871 213.343 401.888C213.357 401.905 213.367 401.925 213.373 401.947C213.377 401.969 213.377 401.992 213.373 402.014L213.22 402.767C213.214 402.802 213.195 402.832 213.166 402.853C213.141 402.876 213.107 402.889 213.072 402.888H212.309C211.628 402.888 211.2 402.572 211.2 401.917C211.2 401.786 211.212 401.656 211.239 401.527L211.572 399.723C211.576 399.701 211.576 399.678 211.572 399.655C211.566 399.634 211.556 399.614 211.542 399.596C211.527 399.58 211.509 399.567 211.489 399.558C211.47 399.547 211.449 399.542 211.427 399.543H211C210.978 399.548 210.956 399.548 210.935 399.543C210.916 399.533 210.899 399.52 210.885 399.505C210.871 399.488 210.861 399.468 210.855 399.446C210.85 399.425 210.85 399.402 210.855 399.381L210.976 398.737C210.982 398.703 211 398.671 211.026 398.649C211.054 398.628 211.087 398.617 211.121 398.616L213.818 398.625Z" fill="#FFCA99"/>
    <path d="M203.812 398.625H204.812C204.838 398.625 204.864 398.631 204.888 398.643C204.911 398.658 204.93 398.678 204.944 398.702C204.957 398.724 204.964 398.75 204.965 398.776C204.963 398.803 204.955 398.829 204.941 398.852L202.91 402.823C202.898 402.846 202.88 402.864 202.857 402.876C202.835 402.89 202.81 402.897 202.784 402.897H201.366C201.331 402.898 201.297 402.886 201.27 402.864C201.243 402.842 201.225 402.81 201.218 402.776L200.59 398.805C200.584 398.784 200.584 398.761 200.59 398.74C200.595 398.717 200.605 398.696 200.62 398.678C200.636 398.662 200.653 398.648 200.673 398.637C200.694 398.632 200.716 398.632 200.738 398.637H201.64C201.676 398.637 201.71 398.65 201.738 398.673C201.765 398.696 201.784 398.728 201.79 398.764L202.182 401.696C202.203 401.84 202.3 401.828 202.35 401.731L203.68 398.717C203.693 398.692 203.712 398.672 203.736 398.657C203.759 398.643 203.785 398.634 203.812 398.634" fill="#FFCA99"/>
    <path d="M206.986 397.225L206.862 397.872C206.856 397.906 206.837 397.937 206.809 397.958C206.784 397.981 206.751 397.993 206.718 397.993H205.833C205.812 397.993 205.791 397.988 205.771 397.978C205.751 397.969 205.732 397.955 205.718 397.937C205.704 397.92 205.694 397.9 205.689 397.878C205.684 397.856 205.684 397.834 205.689 397.813L205.81 397.172C205.817 397.138 205.836 397.107 205.863 397.084C205.891 397.063 205.925 397.051 205.96 397.051H206.844C206.866 397.047 206.888 397.047 206.909 397.051C206.929 397.061 206.946 397.076 206.959 397.093C206.974 397.109 206.984 397.128 206.989 397.149C206.993 397.17 206.993 397.192 206.989 397.214" fill="#FFCA99"/>
    <path d="M204.753 402.717L205.526 398.746C205.532 398.712 205.549 398.681 205.576 398.658C205.604 398.636 205.638 398.624 205.673 398.622H206.501C206.523 398.618 206.545 398.618 206.566 398.622C206.586 398.633 206.604 398.647 206.619 398.664C206.632 398.682 206.642 398.702 206.649 398.723C206.655 398.745 206.655 398.769 206.649 398.791L205.877 402.762C205.871 402.795 205.853 402.826 205.826 402.847C205.799 402.87 205.765 402.883 205.729 402.883H204.901C204.879 402.887 204.857 402.887 204.836 402.883C204.816 402.873 204.799 402.859 204.786 402.841C204.77 402.826 204.759 402.805 204.756 402.782C204.75 402.761 204.75 402.739 204.756 402.717" fill="#FFCA99"/>
    <path d="M207.107 401.619C207.13 401.585 207.165 401.562 207.204 401.554C207.244 401.548 207.284 401.557 207.316 401.58C207.678 401.86 208.113 402.028 208.569 402.065C208.864 402.065 209.023 401.946 209.023 401.769C209.023 401.335 207.281 400.963 207.275 399.788C207.275 399.012 207.879 398.495 208.822 398.495C209.365 398.502 209.899 398.64 210.376 398.9C210.394 398.91 210.41 398.923 210.423 398.938C210.435 398.954 210.445 398.972 210.453 398.991C210.456 399.011 210.456 399.031 210.453 399.05C210.45 399.071 210.443 399.091 210.432 399.109L210.12 399.7C210.108 399.717 210.094 399.733 210.078 399.747C210.063 399.759 210.044 399.768 210.025 399.774C210.006 399.777 209.986 399.777 209.966 399.774C209.947 399.77 209.928 399.764 209.91 399.756C209.598 399.567 209.245 399.458 208.881 399.437C208.604 399.437 208.422 399.549 208.422 399.732C208.422 400.24 210.19 400.6 210.19 401.684C210.19 402.543 209.601 403.015 208.572 403.015C207.918 403.036 207.276 402.835 206.75 402.445C206.734 402.434 206.721 402.419 206.711 402.403C206.701 402.386 206.694 402.367 206.691 402.348C206.685 402.309 206.694 402.269 206.715 402.236L207.107 401.619Z" fill="#FFCA99"/>
    <path d="M210.538 397.225L210.414 397.872C210.409 397.906 210.391 397.936 210.364 397.958C210.338 397.981 210.305 397.994 210.27 397.993H208.018C207.996 397.993 207.975 397.988 207.956 397.978C207.936 397.97 207.919 397.957 207.906 397.94C207.891 397.923 207.881 397.903 207.876 397.881C207.872 397.859 207.872 397.837 207.876 397.816L208 397.169C208.006 397.136 208.024 397.105 208.05 397.084C208.077 397.063 208.11 397.051 208.145 397.051H210.397C210.417 397.047 210.438 397.047 210.459 397.051C210.479 397.06 210.496 397.074 210.509 397.093C210.524 397.108 210.535 397.127 210.538 397.149C210.543 397.17 210.543 397.192 210.538 397.214" fill="#FFCA99"/>
    <path d="M214.089 397.225L213.965 397.872C213.959 397.906 213.941 397.937 213.915 397.96C213.888 397.981 213.855 397.992 213.821 397.993H211.919C211.898 397.992 211.877 397.987 211.857 397.978C211.837 397.97 211.819 397.957 211.804 397.94C211.792 397.923 211.782 397.904 211.775 397.883C211.77 397.862 211.77 397.84 211.775 397.819L211.899 397.172C211.905 397.137 211.922 397.106 211.949 397.083C211.976 397.062 212.009 397.051 212.043 397.051H213.947C213.968 397.047 213.989 397.047 214.009 397.051C214.029 397.059 214.046 397.072 214.059 397.089C214.073 397.106 214.083 397.125 214.089 397.145C214.093 397.167 214.093 397.189 214.089 397.21" fill="#FFCA99"/>
    <path d="M196.851 401.625C196.874 401.592 196.909 401.57 196.948 401.563C196.968 401.558 196.988 401.558 197.007 401.562C197.026 401.566 197.045 401.574 197.061 401.586C197.423 401.866 197.86 402.035 198.316 402.07C198.611 402.07 198.767 401.952 198.767 401.775C198.767 401.341 197.028 400.969 197.019 399.794C197.019 399.018 197.627 398.501 198.567 398.501C199.11 398.504 199.644 398.64 200.123 398.897C200.141 398.907 200.157 398.92 200.17 398.935C200.184 398.951 200.194 398.969 200.2 398.988C200.203 399.009 200.203 399.03 200.2 399.05C200.197 399.07 200.191 399.088 200.182 399.106L199.867 399.697C199.857 399.715 199.844 399.731 199.829 399.744C199.812 399.755 199.794 399.764 199.775 399.771C199.756 399.775 199.736 399.775 199.716 399.771C199.697 399.769 199.677 399.763 199.66 399.753C199.347 399.565 198.993 399.457 198.629 399.437C198.352 399.437 198.172 399.546 198.172 399.732C198.172 400.24 199.941 400.618 199.941 401.684C199.941 402.546 199.351 403.015 198.325 403.015C197.67 403.036 197.028 402.835 196.5 402.445C196.47 402.42 196.45 402.386 196.441 402.348C196.438 402.329 196.439 402.309 196.443 402.291C196.448 402.272 196.456 402.254 196.468 402.239L196.851 401.625Z" fill="#FFCA99"/>
    <path d="M284.849 351.743L264.061 389.971C263.388 391.226 262.399 392.283 261.192 393.037C259.985 393.79 258.602 394.215 257.181 394.267H151.195C151.195 394.267 147.584 394.196 145.117 396.703C142.65 399.209 144.513 403.431 146.001 404.674C148.032 406.378 151.119 406.295 151.119 406.295L252.081 406.018C252.081 406.018 264.049 406.821 270.744 396.966C274.712 391.123 287.384 366.187 287.384 366.187C287.384 366.187 287.874 364.811 289.277 366.216C290.273 366.697 295.143 366.252 296.543 365.254C297.943 364.256 298.132 363.777 298.132 363.777L294.568 347.539C294.568 347.539 293.849 349.195 290.385 349.795C286.921 350.394 284.572 349.922 284.572 349.922L284.84 351.72" stroke="#FFCA99" stroke-width="1.5" stroke-miterlimit="10" stroke-linecap="round" stroke-linejoin="round"/>
    <path d="M294.578 347.563L291.118 333.943C291.118 333.943 287.448 336.164 283.159 335.933C282.392 335.933 280.983 336.161 281.075 337.705C281.166 339.249 282.711 347.129 283.394 348.401C284.078 349.674 284.574 349.934 284.574 349.934" stroke="#FFCA99" stroke-width="1.5" stroke-miterlimit="10" stroke-linecap="round" stroke-linejoin="round"/>
    <path d="M283.164 335.939C283.164 335.939 270.354 285.412 264.752 263.133" stroke="#FFCA99" stroke-width="1.5" stroke-miterlimit="10" stroke-linecap="round" stroke-linejoin="round"/>
    <path d="M292.707 248.618L295.917 247.667C296.103 247.613 296.276 247.522 296.427 247.4" stroke="#FFCA99" stroke-width="1.5" stroke-miterlimit="10" stroke-linecap="round" stroke-linejoin="round"/>
    <path d="M291.117 333.944L274.465 270.198C274.465 270.198 276.69 269.902 276.567 267.659L275.202 262.011C274.702 259.937 275.016 257.751 276.081 255.903C277.145 254.056 278.878 252.689 280.921 252.085L285.49 250.735" stroke="#FFCA99" stroke-width="1.5" stroke-miterlimit="10" stroke-linecap="round" stroke-linejoin="round"/>
    <path d="M267.5 273C267.5 273 272.264 270.82 274.69 271.612" stroke="#FFCA99" stroke-width="1.5" stroke-miterlimit="10" stroke-linecap="round" stroke-linejoin="round"/>
    <path d="M289.285 366.231L290.052 370.129L294.358 372.195L294.759 374.117C294.759 374.117 293.719 374.354 293.683 376.137C294.323 376.072 296.307 378.794 297.059 382.428C297.81 386.063 301.71 401.947 301.71 401.947C301.71 401.947 302.005 403.901 305.368 403.013C308.732 402.124 306.167 394.696 306.167 394.696C306.167 394.696 303.149 382.068 303.149 379.299C303.149 376.53 301.38 372.804 301.38 372.804L300.44 368.192C300.44 368.192 299.95 367.038 298.93 366.769C298.397 364.903 298.14 363.816 298.14 363.816" stroke="#FFCA99" stroke-width="1.5" stroke-miterlimit="10" stroke-linecap="round" stroke-linejoin="round"/>
    <path d="M294.76 374.096C294.76 374.096 298.84 375.348 301.372 372.797" stroke="#FFCA99" stroke-width="1.5" stroke-miterlimit="10" stroke-linecap="round" stroke-linejoin="round"/>
    <path d="M303.391 381.124C303.391 381.124 308.744 380.657 311.032 381.938C313.319 383.22 316.73 380.619 316.771 379.762C316.812 378.906 317.196 378.519 313.434 376.81C309.673 375.101 306.415 374.401 302.232 374.791" stroke="#FFCA99" stroke-width="1.5" stroke-miterlimit="10" stroke-linecap="round" stroke-linejoin="round"/>
    <path d="M293.684 376.125C293.684 376.125 279.622 381.18 278.762 394.395C278.762 396.774 280.581 398.546 282.806 395.812C285.032 393.078 285.232 390.143 288.215 387.51C291.199 384.876 294.73 382.538 297.059 382.417C297.059 382.417 302.365 382.576 303.193 379.96" stroke="#FFCA99" stroke-width="1.5" stroke-miterlimit="10" stroke-linecap="round" stroke-linejoin="round"/>
    <path d="M305.71 392.658C307.339 393.064 308.78 394.017 309.793 395.357C310.807 396.698 311.332 398.345 311.28 400.026C311.229 401.706 310.605 403.319 309.511 404.595C308.418 405.871 306.921 406.733 305.27 407.039C303.62 407.344 301.914 407.074 300.438 406.274C298.961 405.474 297.803 404.192 297.155 402.64C296.507 401.089 296.409 399.363 296.878 397.748C297.346 396.133 298.352 394.728 299.728 393.765" stroke="#FFCA99" stroke-width="1.5" stroke-miterlimit="10" stroke-linecap="round" stroke-linejoin="round"/>
    <path d="M287.951 251.301C290.971 251.301 293.419 248.849 293.419 245.824C293.419 242.8 290.971 240.348 287.951 240.348C284.931 240.348 282.482 242.8 282.482 245.824C282.482 248.849 284.931 251.301 287.951 251.301Z" stroke="#FFCA99" stroke-width="1.5" stroke-miterlimit="10" stroke-linecap="round" stroke-linejoin="round"/>
    <path d="M257.183 394.267L252.092 406.032" stroke="#FFCA99" stroke-width="1.5" stroke-miterlimit="10" stroke-linecap="round" stroke-linejoin="round"/>
    <path d="M254.363 400.715H230.753M145.412 396.369L149.232 398.327L160.408 398.953L161.628 400.715H177.898" stroke="#FFCA99" stroke-width="1.5" stroke-miterlimit="10" stroke-linecap="round" stroke-linejoin="round"/>
    <path d="M146.129 404.718L149.684 402.15L160.007 402.114L161.628 400.715" stroke="#FFCA99" stroke-width="1.5" stroke-miterlimit="10" stroke-linecap="round" stroke-linejoin="round"/>
    <path d="M149.683 402.151L149.232 398.327" stroke="#FFCA99" stroke-width="1.5" stroke-miterlimit="10" stroke-linecap="round" stroke-linejoin="round"/>
    <path d="M177.525 400.674L183.103 396.021H226.214L231.14 400.721L226.15 404.146H183.229L177.525 400.674Z" stroke="#FFCA99" stroke-width="1.5" stroke-miterlimit="10" stroke-linecap="round" stroke-linejoin="round"/>
    <path d="M167.287 384.672C167.287 384.672 171.659 388.935 172.838 394.232" stroke="#FFCA99" stroke-width="1.5" stroke-miterlimit="10" stroke-linecap="round" stroke-linejoin="round"/>
    <path d="M194.417 183.232C193.499 184.15 192.891 184.767 192.208 185.922C189.579 189.92 184.414 206.635 184.781 241.509C185.24 264.911 170.66 289.192 168.133 292.882C161.631 301.518 158.119 312.042 158.131 322.858C158.131 337.083 163.835 349.713 172.658 357.667C173.79 358.684 174.984 359.63 176.233 360.499C177.213 361.281 178.486 362.127 180 362.931M204 364.827C199.237 366.574 194.623 366.839 190.5 366.295" stroke="#FFCA99" stroke-width="1.5" stroke-miterlimit="10" stroke-linecap="round" stroke-linejoin="round"/>
    <path d="M227.914 178.185C228.281 178.552 232.656 182.926 234.797 185.068C247.645 199.083 251.366 223.641 250.465 248M250.465 268C250.465 302 236.92 327.207 229.5 340C226.181 345.722 221.647 351.762 216.65 356.5" stroke="#FFCA99" stroke-width="1.5" stroke-miterlimit="10" stroke-linecap="round" stroke-linejoin="round"/>
    <path d="M211.856 178.184C210.326 177.114 206.992 174.513 205.89 172.678C204.514 170.384 200.384 169.925 197.172 173.596C193.96 177.267 193.042 183.691 196.713 185.985C200.384 188.28 203.596 187.821 201.76 193.786" stroke="#FFCA99" stroke-width="1.5" stroke-linecap="round"/>
    <path d="M292.965 243.629C292.965 243.629 295.288 248.864 300.04 247.021C304.792 245.179 296.848 235.761 289.877 231.882C282.905 228.003 275.161 227.326 268.384 234.598C261.607 241.87 257.5 245 248 249C234 252 214.642 236.273 210.5 231" stroke="#FFCA99" stroke-width="1.5" stroke-miterlimit="10" stroke-linecap="round" stroke-linejoin="round"/>
    <path d="M282.955 243.685C282.955 243.685 276.47 254.609 271.02 258.668C265.569 262.728 240.979 285.24 194.574 241.999" stroke="#FFCA99" stroke-width="1.5" stroke-miterlimit="10" stroke-linecap="round" stroke-linejoin="round"/>
    <path d="M270.696 232.4C270.696 232.4 254.752 238.923 250.999 239" stroke="#FFCA99" stroke-width="1.5" stroke-miterlimit="10" stroke-linecap="round" stroke-linejoin="round"/>
    <path d="M159.38 310.948C156.51 311.62 139.251 315.315 127.66 309.883C114.985 303.943 88.7553 293.857 69.7183 308.776C65.7181 312.508 66.4079 317.338 69.9954 317.479C69.9954 317.479 74.9065 317.479 78.2051 315.882C81.5037 314.285 92.5874 313.591 98.0055 315.549C103.424 317.506 127.905 329.342 141.188 328.315C149.024 327.709 154.71 323.865 158.056 320.816" stroke="#FFCA99" stroke-width="1.5" stroke-miterlimit="10" stroke-linecap="round" stroke-linejoin="round"/>
    <path d="M221.007 197.28C221.336 197.151 221.622 196.894 221.847 196.624C222.097 196.325 222.241 195.957 222.349 195.582C222.435 195.284 222.495 194.977 222.495 194.667C222.497 193.187 222.013 191.742 221.111 190.56C220.649 189.937 220.059 189.421 219.38 189.047C218.701 188.673 217.949 188.451 217.176 188.395C216.404 188.339 215.628 188.451 214.902 188.722C214.177 188.994 213.518 189.42 212.972 189.97C211.796 191.125 211.08 192.67 210.958 194.316V194.472C210.927 194.774 210.945 195.08 211.014 195.375C211.086 195.663 211.215 195.934 211.395 196.17C211.643 196.515 211.995 196.772 212.4 196.902C212.799 197.024 213.227 197.006 213.614 196.852C213.881 196.742 214.122 196.579 214.325 196.373C214.529 196.16 214.691 195.91 214.802 195.635C214.916 195.354 214.977 195.053 214.982 194.75V194.614C214.953 194.333 214.973 194.049 215.041 193.775C215.127 193.508 215.265 193.261 215.448 193.049C215.617 192.841 215.836 192.678 216.085 192.577C216.321 192.468 216.582 192.421 216.842 192.441C217.101 192.459 217.351 192.543 217.57 192.683C217.802 192.818 217.996 193.009 218.136 193.238C218.288 193.473 218.388 193.738 218.431 194.014C218.452 194.205 218.449 194.397 218.424 194.586C218.4 194.767 218.372 194.948 218.372 195.13C218.372 195.317 218.383 195.595 218.463 195.874C218.541 196.152 218.67 196.412 218.844 196.642C219.01 196.86 219.221 197.04 219.463 197.171C219.697 197.299 219.957 197.375 220.223 197.392C220.49 197.409 220.757 197.371 221.007 197.28Z" stroke="#FFCA99" stroke-width="1.5" stroke-miterlimit="10" stroke-linecap="round" stroke-linejoin="round"/>
    <path d="M228.823 196.296C228.663 196.324 228.499 196.31 228.346 196.255C227.619 196.028 227.318 195.119 227.258 194.693C227.009 193.484 227.128 192.228 227.6 191.088C228.063 190.055 228.838 189.385 229.722 189.214C230.607 189.042 231.568 189.391 232.375 190.182C233.227 191.07 233.796 192.191 234.012 193.403L234.032 193.524C234.082 193.752 234.102 193.985 234.091 194.218C234.08 194.434 234.031 194.647 233.947 194.847C233.851 195.109 233.665 195.329 233.422 195.467C233.31 195.524 233.187 195.556 233.061 195.562C232.936 195.567 232.811 195.546 232.694 195.499C232.517 195.424 232.357 195.312 232.225 195.172C232.088 195.017 231.977 194.842 231.895 194.652C231.798 194.441 231.731 194.217 231.697 193.988L231.677 193.884C231.667 193.666 231.627 193.45 231.556 193.244C231.481 193.051 231.375 192.871 231.244 192.712C231.129 192.571 230.983 192.46 230.816 192.387C230.67 192.321 230.508 192.299 230.35 192.325C230.195 192.358 230.053 192.437 229.944 192.553C229.807 192.678 229.706 192.837 229.649 193.013C229.578 193.208 229.544 193.414 229.549 193.622C229.561 193.839 229.601 194.055 229.669 194.262L229.693 194.38C229.734 194.599 229.745 194.823 229.725 195.045C229.705 195.248 229.654 195.447 229.572 195.635C229.5 195.805 229.391 195.958 229.254 196.081C229.133 196.191 228.984 196.266 228.823 196.296Z" stroke="#FFCA99" stroke-width="1.5" stroke-miterlimit="10" stroke-linecap="round" stroke-linejoin="round"/>
    <path d="M226.781 212C226.781 212 221.355 211.874 216.41 213.066C211.465 214.258 215.374 208.888 218.342 207.297C221.309 205.705 226.478 203.357 231.261 206.324C236.043 209.291 236.471 212.492 234.348 212.36C232.225 212.229 226.781 212 226.781 212Z" stroke="#FFCA99" stroke-width="1.5" stroke-miterlimit="10" stroke-linecap="round" stroke-linejoin="round"/>
    <path d="M304.417 90.9431H230.722C225.481 91.4314 215 88.9885 215 75.3105C215 58.213 230.23 59.1902 232.196 48.9317C234.161 38.6732 245.461 22.0642 264.13 23.0412C282.8 24.0182 284.765 39.65 299.996 40.1392C305.909 40.3291 328 40.1392 328 65.5411C328 85.8627 312.278 90.9431 304.417 90.9431Z" fill="#FFF7EF" stroke="#FE7B01" stroke-width="1.5"/>
    <path d="M90.4174 129.943H16.7217C11.4812 130.431 1 127.988 1 114.31C1 97.213 16.2304 98.1902 18.1957 87.9317C20.1609 77.6732 31.4609 61.0642 50.1304 62.0412C68.8 63.0182 70.7652 78.65 85.9957 79.1392C91.9087 79.3291 114 79.1392 114 104.541C114 124.863 98.2783 129.943 90.4174 129.943Z" fill="#FFF7EF" stroke="#FE7B01" stroke-width="1.5"/>
    <path d="M69.9233 168.641L55.733 191.954C55.2074 192.817 53.8788 192.445 53.8788 191.434V173.576C53.8788 173.023 53.4311 172.576 52.8788 172.576H44.7294C43.9536 172.576 43.4732 171.731 43.8703 171.064L58.0803 147.212C58.6002 146.339 59.9394 146.707 59.9394 147.723V166.121C59.9394 166.673 60.3871 167.121 60.9394 167.121H69.0691C69.8492 167.121 70.3289 167.975 69.9233 168.641Z" fill="#FE7B01"/>
    <path d="M29.0993 158.794L41.4162 152.196C42.1006 151.829 42.1243 150.856 41.4585 150.457L37.7533 148.234C37.2849 147.953 37.1287 147.348 37.4024 146.875L41.718 139.421C42.2297 138.537 41.2432 137.545 40.3564 138.052L28.2284 144.982C27.5349 145.378 27.5629 146.388 28.2773 146.745L31.7158 148.464C32.2313 148.722 32.4228 149.361 32.134 149.859L27.7617 157.412C27.2571 158.283 28.2117 159.27 29.0993 158.794Z" fill="#FE7B01"/>
    <path d="M72.5647 138.263L72.1108 152.787C72.0877 153.528 72.8497 154.035 73.5241 153.729L77.9022 151.739C78.3704 151.526 78.9237 151.703 79.1814 152.148L83.6323 159.836C84.1369 160.707 85.4677 160.371 85.4973 159.364L85.9414 144.263C85.9656 143.441 85.0422 142.943 84.3684 143.415L80.7984 145.914C80.3307 146.241 79.6843 146.111 79.3795 145.629L74.4097 137.76C73.8832 136.926 72.5955 137.277 72.5647 138.263Z" fill="#FE7B01"/>
    <path d="M294.415 111.641L290.552 122.576C290.211 123.541 288.812 123.432 288.625 122.425L287.322 115.39C287.221 114.847 286.699 114.488 286.156 114.589L283.437 115.093C282.684 115.232 282.06 114.509 282.308 113.785L286.144 102.6C286.478 101.627 287.886 101.731 288.073 102.742L289.423 110.025C289.523 110.568 290.045 110.926 290.588 110.826L293.29 110.325C294.047 110.185 294.671 110.916 294.415 111.641Z" fill="#FE7B01"/>
    <path d="M121.409 222.953H182.061C186.374 223.355 195 221.343 195 210.079C195 195.999 182.465 196.804 180.848 188.356C179.23 179.907 169.93 166.229 154.565 167.034C139.2 167.839 137.583 180.712 125.048 181.115C120.181 181.271 102 181.115 102 202.034C102 218.769 114.939 222.953 121.409 222.953Z" fill="#FFF7EF" stroke="#FE7B01" stroke-width="1.5"/>
    <path d="M216.5 115H189C185.5 115 176 113 176 102.5C176 92 184 89.5 188 89.5C192 89.5 195 89 198 84C202 77.6 210 76 213.5 76C220.167 76 233.5 79.9 233.5 95.5C233.5 111.1 222.167 115 216.5 115Z" fill="#FFF7EF" stroke="#FE7B01" stroke-width="1.5"/>
    <path d="M112.061 54H149.365C154.113 54 167 51.2821 167 37.0128C167 22.7436 156.148 19.3462 150.722 19.3462C145.296 19.3462 141.226 18.6667 137.157 11.8718C131.73 3.17436 120.878 1 116.13 1C107.087 1 89 6.3 89 27.5C89 48.7 104.374 54 112.061 54Z" fill="#FFF7EF" stroke="#FE7B01" stroke-width="1.5"/>
    <path d="M228 342.5C222.5 350.833 211.4 369.7 211 378.5C210.5 389.5 210 393.5 206.5 393.5C203 393.5 196 384 200 366" stroke="#FFCA99" stroke-width="1.5"/>
    <path d="M171.5 356.5C174 358.333 179.4 364.7 181 375.5C183 389 187 393.5 190.5 393.5C194 393.5 193.5 388 193.5 385.5C193.5 383 191.5 369.5 197 366.5" stroke="#FFCA99" stroke-width="1.5"/>
</svg>
