<svg width="349" height="310" viewBox="0 0 349 310" fill="none" xmlns="http://www.w3.org/2000/svg">
    <mask id="mask0_2_371" style="mask-type:alpha" maskUnits="userSpaceOnUse" x="9" y="9" width="327" height="293">
        <path d="M108.5 18L100 9H98.5L95 12.5L92.5 9.5L90 11.5L84.5 10L82 12L80.5 10.5L79 10L76.5 12.5L74.5 11L73 11.5L71 18L53.5 79L34.5 147L9.5 235L11.5 238L13.5 236.5L15 238H17L19 237.5L21.5 240L24 239.5L25.5 239L26.5 239.5L27.5 242H29.5L30 243.5H37.5L51 245.5L81.5 251L107.5 256L122 257.5L134.5 256.5L145 253L151 248.5L156 258L161.5 263L173.5 269.5L189 275.5L253 296.5L264.5 299.5L269 298L271.5 300.5L274.5 299L277.5 301L279.5 299.5H281L283.5 302L285.5 301L290.5 282L307 206.5L328 114L336 78L335 75H331.5L331 73L329.5 71.5L326.5 71L324 68H320L318 66L316 63L310 64.5L293 66.5L280.5 67.5L263.5 67L237.5 63.5L218 62L202.5 61.5L187 54L157 43L132.5 31.5L108.5 18Z" fill="#FFF7EF"/>
    </mask>
    <g mask="url(#mask0_2_371)">
        <rect x="255.635" y="117.812" width="5.45515" height="1.32246" rx="0.66123" transform="rotate(12.3253 255.635 117.812)" fill="#D9D9D9"/>
        <path d="M265.332 101.932L265.825 104.785C265.894 105.196 266.072 108.273 266.012 108.639C265.952 109.004 267.76 120.36 267.876 120.919C267.992 121.478 269.803 135.8 269.974 137.279C270.145 138.759 271.251 148.977 271.251 148.977M275.569 150.019C275.569 150.019 273.278 137.882 273.046 136.864C272.814 135.845 269.952 124.414 270.038 123.859C270.123 123.305 268.645 117.53 268.343 116.595C268.042 115.66 267.475 112.708 267.386 112.02C267.297 111.332 266.533 107.685 266.38 106.486C266.227 105.286 265.429 101.971 265.429 101.971L265.281 101.928L265.333 102.299C265.333 102.299 265.721 105.025 265.617 106.116C265.512 107.206 265.633 108.399 265.631 109.739C265.629 111.079 265.856 112.283 266.2 114.443C266.543 116.603 269.29 147.829 269.29 147.829" stroke="#1F1E1D" stroke-miterlimit="10"/>
        <path d="M215.132 148.303L215.616 143.104L254.355 110.381L254.348 111.496L215.132 148.303Z" fill="#FFE0C4"/>
        <path d="M225.329 106.283L225.098 105.705L254.64 102.326L254.631 102.543L225.329 106.283Z" fill="#FFE0C4"/>
        <path d="M226.078 101.587L226.047 101.448L254.704 101.17L254.696 101.244L226.078 101.587Z" fill="#FFE0C4"/>
        <path d="M257.649 118.284L255.93 117.908C255.839 117.888 255.744 117.905 255.666 117.955C255.588 118.005 255.533 118.084 255.513 118.175L255.397 118.706C255.378 118.796 255.395 118.891 255.445 118.969C255.495 119.047 255.574 119.102 255.665 119.122L256.971 119.407" stroke="#D9D9D9" stroke-miterlimit="10"/>
        <path d="M259.12 119.873L260.332 120.138C260.377 120.148 260.423 120.149 260.469 120.14C260.514 120.132 260.557 120.115 260.596 120.091C260.634 120.066 260.668 120.034 260.694 119.996C260.72 119.958 260.739 119.916 260.749 119.871L260.864 119.344C260.873 119.299 260.874 119.253 260.866 119.208C260.858 119.162 260.841 119.119 260.816 119.081C260.792 119.042 260.759 119.009 260.722 118.982C260.684 118.956 260.641 118.938 260.597 118.928L258.927 118.563" stroke="#D9D9D9" stroke-miterlimit="10"/>
        <path d="M271.344 96.3554C271.49 95.2963 271.61 94.4324 271.642 94.186C271.642 94.186 271.642 94.186 271.644 94.1772C271.646 94.1683 271.653 94.1356 271.649 94.1122C271.814 92.0498 271.719 90.7082 271.608 89.8838C271.58 89.6708 271.636 89.4553 271.763 89.2823C271.89 89.1092 272.079 88.992 272.291 88.9552C273.632 88.72 274.517 87.6296 273.649 86.2462C272.917 85.0798 271.613 85.6164 270.913 86.0326C270.765 86.1208 270.594 86.1608 270.422 86.147C270.251 86.1332 270.088 86.0663 269.956 85.9555L268.093 84.3929C268.085 84.3866 268.079 84.3781 268.077 84.3685C268.074 84.3589 268.074 84.3487 268.077 84.3392C268.08 84.3296 268.085 84.3211 268.093 84.3148C268.101 84.3085 268.11 84.3047 268.12 84.3038C268.476 84.2626 269.454 84.0948 268.821 83.5153C268.283 83.0279 267.411 83.2548 266.934 83.4384C266.923 83.4427 266.91 83.4429 266.899 83.4392C266.888 83.4354 266.878 83.4278 266.871 83.4176C266.865 83.4075 266.862 83.3955 266.864 83.3836C266.865 83.3718 266.871 83.3608 266.88 83.3526C267.236 83.0211 267.71 82.4088 266.942 81.9848C266.042 81.4897 264.784 82.4575 264.359 82.8217C264.351 82.8291 264.34 82.8335 264.329 82.8343C264.318 82.8351 264.307 82.8323 264.297 82.8262C264.288 82.8201 264.281 82.8111 264.277 82.8006C264.273 82.7901 264.273 82.7786 264.276 82.7678C264.359 82.4861 264.44 81.9768 263.994 81.8993C263.213 81.7722 262.806 82.4994 262.549 83.105C262.487 83.2439 262.395 83.3674 262.28 83.4666C262.164 83.5659 262.029 83.6384 261.882 83.679C261.57 83.771 261.268 83.893 260.98 84.0433C260.789 84.1377 260.568 84.1545 260.364 84.09C260.16 84.0255 259.989 83.8848 259.886 83.6973C259.233 82.4979 257.935 82.2024 257.099 83.2203C256.29 84.2096 256.811 85.0062 257.698 85.7732C257.85 85.9075 257.948 86.0931 257.972 86.2947C257.997 86.4964 257.946 86.6999 257.83 86.8666C256.995 88.0946 256.291 90.4251 255.784 92.5224C255.77 92.5854 255.757 92.6485 255.743 92.7128L255.736 92.7443C255.698 92.9157 255.661 93.0846 255.642 93.252C255.469 94.3883 255.31 95.5276 255.11 96.6594C254.535 99.9344 254.08 115.358 254.484 116.308C255.285 118.185 256.3 117.933 257.166 117.607C257.69 117.41 257.932 116.677 257.987 116.001C258.019 115.611 257.64 111.104 259.575 111.065C259.746 111.063 259.917 111.062 260.088 111.045L260.786 110.978C262.8 110.702 259.279 115.821 259.176 116.495C258.987 117.723 259.522 118.611 261.02 118.939C263.253 119.427 269.415 106.712 270.621 101.372C270.819 100.471 271.097 98.1291 271.344 96.3554ZM263.69 90.5202C263.65 90.7017 263.54 90.86 263.383 90.9603C263.227 91.0606 263.037 91.0946 262.855 91.055C262.673 91.0153 262.515 90.9051 262.415 90.7487C262.314 90.5922 262.28 90.4024 262.32 90.2209L262.324 90.2007C262.327 90.1929 262.328 90.1849 262.329 90.1767C262.402 89.7845 262.211 89.4232 261.896 89.3543C261.581 89.2854 261.253 89.5387 261.157 89.9258C261.154 89.9353 261.152 89.945 261.15 89.9548L261.147 89.9699C261.107 90.1512 260.997 90.3093 260.84 90.4096C260.684 90.5098 260.494 90.544 260.312 90.5047C260.131 90.4647 259.973 90.3545 259.873 90.1981C259.773 90.0418 259.739 89.8522 259.778 89.6709L259.788 89.6267C259.836 89.3622 259.937 89.11 260.084 88.8853C260.232 88.6606 260.423 88.4679 260.647 88.3187C260.871 88.1696 261.122 88.067 261.387 88.0172C261.651 87.9674 261.923 87.9713 262.186 88.0287C262.448 88.0861 262.697 88.1959 262.916 88.3514C263.136 88.507 263.322 88.7051 263.463 88.934C263.604 89.1629 263.698 89.4178 263.738 89.6836C263.778 89.9495 263.765 90.2207 263.698 90.4811L263.69 90.5202ZM268.783 91.633C268.743 91.8142 268.633 91.9722 268.477 92.0723C268.321 92.1724 268.131 92.2064 267.95 92.1668C267.768 92.1272 267.61 92.0172 267.51 91.8611C267.41 91.705 267.376 91.5154 267.415 91.3343L267.42 91.3141C267.423 91.3064 267.425 91.2984 267.425 91.2901C267.499 90.8982 267.308 90.5316 266.993 90.4627C266.677 90.3938 266.351 90.6474 266.255 91.0344C266.252 91.0439 266.25 91.0536 266.248 91.0634L266.245 91.0785C266.205 91.26 266.095 91.4184 265.939 91.5186C265.782 91.6189 265.592 91.653 265.41 91.6133C265.229 91.5736 265.07 91.4634 264.97 91.307C264.87 91.1506 264.835 90.9607 264.875 90.7792L264.885 90.7351C264.933 90.4706 265.033 90.2184 265.181 89.9937C265.329 89.7689 265.52 89.5762 265.744 89.4271C265.968 89.2779 266.219 89.1754 266.483 89.1255C266.748 89.0757 267.02 89.0796 267.282 89.137C267.545 89.1945 267.794 89.3042 268.013 89.4598C268.233 89.6153 268.418 89.8134 268.56 90.0423C268.701 90.2712 268.794 90.5262 268.835 90.792C268.875 91.0578 268.862 91.329 268.795 91.5894L268.783 91.633Z" fill="#FFB673" stroke="#FE7B01" stroke-miterlimit="10"/>
        <rect x="261.632" y="99.6633" width="1.48777" height="19.341" transform="rotate(12.3253 261.632 99.6633)" fill="#FE7B01"/>
        <rect x="258.28" y="115.006" width="1.48777" height="1.98369" transform="rotate(12.3253 258.28 115.006)" fill="#1F1E1D"/>
        <path d="M267.817 101.269L267.943 101.297C268.007 101.311 268.074 101.312 268.138 101.3C268.203 101.289 268.264 101.264 268.32 101.229C268.375 101.194 268.423 101.148 268.46 101.094C268.498 101.04 268.524 100.979 268.538 100.915V100.915C268.566 100.786 268.542 100.651 268.47 100.539C268.399 100.428 268.286 100.349 268.156 100.321L267.962 100.278C267.962 100.278 267.977 100.975 267.817 101.269Z" fill="#1F1E1D"/>
        <path d="M258.818 99.3026L266.02 100.876L266.328 99.9213L258.928 98.3044L258.818 99.3026Z" fill="#1F1E1D"/>
        <path d="M256.972 98.8992L256.748 98.8504C256.684 98.8364 256.623 98.8099 256.57 98.7725C256.516 98.735 256.47 98.6874 256.434 98.6321C256.399 98.5769 256.375 98.5153 256.363 98.4508C256.351 98.3862 256.353 98.32 256.367 98.256C256.395 98.1268 256.474 98.0142 256.585 97.9427C256.697 97.8713 256.832 97.8469 256.961 97.8748L257.272 97.9426C257.22 98.1525 257.155 98.3589 257.077 98.5605C257.027 98.6682 256.991 98.7821 256.972 98.8992Z" fill="#1F1E1D"/>
        <path d="M258.701 118.581L257.879 118.402C257.518 118.323 257.162 118.551 257.083 118.912L255.95 124.095C255.872 124.456 256.1 124.812 256.461 124.891L257.283 125.07C257.644 125.149 258.001 124.921 258.079 124.56L259.212 119.377C259.291 119.016 259.062 118.66 258.701 118.581Z" fill="#1F1E1D" stroke="#1F1E1D" stroke-miterlimit="10"/>
        <path d="M261.83 102.321C262.084 102.376 262.335 102.215 262.391 101.961C262.446 101.707 262.285 101.456 262.031 101.401C261.777 101.345 261.525 101.506 261.47 101.76C261.414 102.014 261.576 102.265 261.83 102.321Z" fill="#FE7B01"/>
        <path d="M252.338 129.628C251.887 129.794 251.796 130.392 252.177 130.685V130.685C252.358 130.823 252.601 130.85 252.807 130.753L254.392 130.012C254.762 129.839 255.202 129.986 255.392 130.347V130.347C255.66 130.853 255.297 131.462 254.725 131.469L253.139 131.486C252.683 131.492 252.275 131.772 252.108 132.196L252.008 132.447C251.76 133.076 252.234 133.755 252.91 133.738L253.184 133.73C253.526 133.722 253.803 133.449 253.818 133.107L253.819 133.082C253.833 132.738 254.124 132.47 254.469 132.483V132.483C255.067 132.507 255.293 133.277 254.803 133.621L252.066 135.539C251.495 135.939 251.557 136.804 252.179 137.119V137.119C252.492 137.278 252.868 137.245 253.149 137.035L257.855 133.52C258.709 132.882 258.913 131.685 258.317 130.801L257.55 129.66C257.133 129.041 256.406 128.705 255.664 128.789L254.333 128.941C254.209 128.955 254.087 128.984 253.969 129.028L252.338 129.628Z" fill="#FFCA99"/>
        <path d="M257.595 135.032C257.192 135.476 257.494 136.101 258.081 136.229V136.229C258.577 136.337 259.074 136.028 259.397 135.637C259.777 135.177 260.445 134.731 261.553 134.973C262.624 135.207 263.053 135.819 263.219 136.349C263.371 136.835 263.693 137.331 264.19 137.439V137.439C264.835 137.58 265.38 137.041 265.08 136.453C264.605 135.522 263.624 134.351 261.632 133.916C259.532 133.457 258.27 134.29 257.595 135.032Z" fill="#FFCA99"/>
        <path d="M262.802 138.886C263.119 138.422 263.654 138.079 264.208 138.173V138.173C264.872 138.285 265.272 138.953 264.918 139.525C264.257 140.594 262.92 141.956 260.537 141.435C258.168 140.918 257.256 139.201 256.905 138C256.726 137.384 257.29 136.896 257.916 137.033V137.033C258.375 137.133 258.699 137.547 258.815 138.003C258.989 138.687 259.441 139.602 260.61 139.857C261.705 140.096 262.403 139.473 262.802 138.886Z" fill="#FFCA99"/>
        <path d="M248.162 132.876C248.31 133.512 248.566 134.293 249.204 134.433V134.433C249.68 134.537 250.16 134.26 250.163 133.773C250.17 132.88 249.787 131.532 247.567 131.047C245.605 130.618 243.902 131.254 242.801 131.878C242.2 132.219 242.388 133.016 243.062 133.17V133.17C243.36 133.238 243.671 133.144 243.909 132.951C244.493 132.478 245.708 131.692 247.056 131.986C247.779 132.145 248.074 132.499 248.162 132.876Z" fill="#FFCA99"/>
        <path d="M240.547 134.151C240.716 133.738 241.171 133.557 241.607 133.65V133.65C242.321 133.803 242.638 134.635 242.728 135.359C242.784 135.818 243.057 136.253 243.815 136.418C245.151 136.71 246.474 135.786 247.123 135.231C247.39 135.002 247.747 134.89 248.091 134.965V134.965C248.826 135.125 249.08 135.976 248.465 136.41C247.268 137.254 245.283 138.194 242.808 137.654C239.841 137.005 240.14 135.15 240.547 134.151Z" fill="#FFCA99"/>
        <path d="M256.575 128.24C256.773 128.103 257.018 127.976 257.253 128.027V128.027C257.627 128.109 257.827 127.817 257.502 127.615C257.214 127.437 256.782 127.251 256.134 127.109C255.404 126.95 254.834 126.945 254.415 126.995C254.084 127.034 254.108 127.367 254.434 127.438V127.438C254.658 127.487 254.785 127.753 254.886 127.96C254.967 128.124 255.156 128.294 255.571 128.385C256.055 128.491 256.376 128.379 256.575 128.24Z" fill="#FFCA99"/>
        <path d="M40 193.5C49.2 165.1 83.5 58.6667 99.5 9L97.5 -1L53.5 -22.5L-15 202.5L0 288.5L25 239C26.1667 235.667 30.8 221.9 40 193.5Z" fill="#FFE0C4"/>
        <path d="M312.5 82L315 63L360.5 48L295.5 310.5L265 303L266 292L269 267.5L273.5 244.5L280 219L295.5 156L306.5 113.5L312.5 82Z" fill="#FFE0C4"/>
    </g>
    <g clip-path="url(#clip0_2_371)">
        <path d="M81.9135 182.281C81.9135 182.281 81.995 178.424 78.2962 175.996C74.5975 173.569 70.4531 175.264 69.3271 176.187C69.9054 177.138 71.1718 179.038 71.1718 179.038L81.9135 182.281Z" fill="#B9B9B9"/>
        <path d="M74.0536 187.415C76.7522 188.001 79.4146 186.288 80.0002 183.59C80.5858 180.891 78.8728 178.229 76.1742 177.643C73.4756 177.057 70.8132 178.77 70.2276 181.469C69.642 184.168 71.355 186.83 74.0536 187.415Z" fill="#B9B9B9"/>
        <path d="M75.7694 178.929C76.661 179.123 77.4377 179.67 77.9289 180.449C78.4202 181.228 78.5859 182.175 78.3898 183.083C78.1918 183.991 77.6482 184.785 76.8783 185.29C76.1083 185.796 75.1749 185.971 74.2829 185.779C73.3912 185.584 72.6144 185.038 72.1229 184.259C71.6315 183.48 71.4655 182.532 71.6614 181.623C71.8597 180.716 72.4035 179.922 73.1736 179.417C73.9438 178.911 74.8773 178.736 75.7694 178.929V178.929ZM76.331 176.341C75.5554 176.172 74.7537 176.161 73.9716 176.308C73.1894 176.454 72.4422 176.756 71.7726 177.195C71.103 177.634 70.5241 178.203 70.0689 178.868C69.6138 179.533 69.2913 180.282 69.1199 181.072C68.9486 181.862 68.9316 182.677 69.0701 183.471C69.2086 184.265 69.4999 185.022 69.9272 185.7C70.3544 186.377 70.9094 186.961 71.5605 187.419C72.2115 187.876 72.9457 188.199 73.7213 188.367C74.4968 188.535 75.2985 188.546 76.0805 188.4C76.8626 188.253 77.6098 187.951 78.2793 187.512C78.9488 187.073 79.5277 186.504 79.9827 185.839C80.4377 185.174 80.76 184.425 80.9313 183.635C81.1028 182.845 81.1198 182.03 80.9814 181.236C80.843 180.442 80.5519 179.685 80.1247 179.008C79.6975 178.33 79.1426 177.746 78.4917 177.288C77.8407 176.831 77.1065 176.509 76.331 176.341V176.341Z" fill="#1F1E1D"/>
        <path d="M109.774 182.322L108.041 182.502C108.014 182.505 107.986 182.502 107.96 182.494C107.934 182.486 107.91 182.473 107.889 182.455C107.868 182.437 107.851 182.415 107.838 182.39C107.826 182.365 107.818 182.338 107.817 182.31L107.61 179.457L101.316 187.87C100.975 188.361 100.501 188.741 99.9513 188.96C99.4017 189.18 98.8018 189.23 98.227 189.104L74.7292 184.005C74.3124 183.914 73.9492 183.659 73.7194 183.295C73.4897 182.931 73.4122 182.488 73.504 182.063C73.5492 181.853 73.6349 181.653 73.7562 181.476C73.8774 181.299 74.0318 181.148 74.2104 181.031C74.3884 180.914 74.5873 180.833 74.7956 180.794C75.0039 180.755 75.2174 180.758 75.4239 180.803L98.61 185.835L107.243 173.582L105.805 151.553L105.65 149.163C105.633 148.908 105.709 148.654 105.862 148.449C106.015 148.244 106.235 148.101 106.482 148.048L109.958 147.306L109.612 148.366L108.389 148.674C108.24 148.71 108.106 148.794 108.007 148.913C107.907 149.032 107.848 149.18 107.837 149.335C107.831 149.461 107.833 149.586 107.844 149.711C107.852 149.818 107.892 150.393 107.957 151.323C108.371 157.567 109.808 179.745 109.957 182.097C109.961 182.151 109.944 182.205 109.91 182.247C109.876 182.289 109.827 182.316 109.774 182.322V182.322Z" fill="#FE7B01"/>
        <path d="M110.052 186.368C110.944 186.562 111.72 187.109 112.212 187.888C112.703 188.667 112.869 189.614 112.672 190.523C112.474 191.431 111.931 192.224 111.161 192.73C110.391 193.235 109.458 193.411 108.565 193.218C107.674 193.023 106.897 192.477 106.406 191.698C105.914 190.919 105.748 189.971 105.944 189.063C106.142 188.155 106.686 187.361 107.456 186.856C108.226 186.351 109.16 186.175 110.052 186.368V186.368ZM110.614 183.78C109.838 183.611 109.036 183.6 108.254 183.747C107.472 183.893 106.725 184.195 106.055 184.634C105.386 185.074 104.807 185.642 104.352 186.307C103.896 186.973 103.574 187.721 103.403 188.511C103.231 189.301 103.214 190.116 103.353 190.91C103.491 191.704 103.782 192.461 104.21 193.139C104.637 193.816 105.192 194.4 105.843 194.858C106.494 195.316 107.228 195.638 108.004 195.806C108.779 195.974 109.581 195.986 110.363 195.839C111.145 195.692 111.892 195.391 112.562 194.951C113.231 194.512 113.81 193.943 114.265 193.278C114.72 192.613 115.043 191.864 115.214 191.074C115.385 190.285 115.402 189.469 115.264 188.675C115.126 187.881 114.835 187.124 114.407 186.447C113.98 185.769 113.425 185.185 112.774 184.728C112.123 184.27 111.389 183.948 110.614 183.78V183.78Z" fill="#1F1E1D"/>
        <path d="M108.041 182.503L108.484 189.525C108.491 189.635 108.519 189.742 108.567 189.84C108.614 189.938 108.681 190.025 108.762 190.097C108.843 190.169 108.938 190.223 109.04 190.257C109.142 190.292 109.25 190.305 109.358 190.297V190.297C109.572 190.28 109.771 190.178 109.913 190.014C110.056 189.85 110.129 189.636 110.119 189.418L109.774 182.322L108.041 182.503Z" fill="#1F1E1D"/>
        <path d="M98.61 185.835L96.4944 188.728L82.3791 185.665L83.0738 182.463L98.61 185.835Z" fill="#1F1E1D"/>
        <path d="M107.84 149.336C107.834 149.461 107.836 149.587 107.847 149.712C107.855 149.819 107.895 150.394 107.96 151.324L105.805 151.553L105.65 149.163C105.633 148.908 105.709 148.654 105.862 148.449C106.015 148.244 106.235 148.101 106.482 148.048L109.958 147.306L109.612 148.366L108.389 148.674C108.24 148.711 108.107 148.795 108.008 148.914C107.91 149.033 107.851 149.181 107.84 149.336V149.336Z" fill="#1F1E1D"/>
        <path d="M110.034 149.295C110.595 149.417 111.15 149.052 111.274 148.481C111.398 147.91 111.044 147.348 110.483 147.227C109.922 147.105 109.367 147.469 109.243 148.04C109.119 148.612 109.474 149.173 110.034 149.295Z" fill="#1F1E1D"/>
    </g>
    <path d="M151.153 248.216C151.153 248.216 141.187 262.474 101.58 254.828C61.9732 247.181 40.4364 242.67 30.2094 243.331C29.9488 242.391 29.7777 241.867 28.8928 242.213C28.0079 242.559 27.2835 242.223 27.2863 241.546C27.289 240.869 26.9324 238.692 25.356 239.231C23.7796 239.77 21.9536 240.493 21.2244 239.692C20.4951 238.892 19.902 237.086 18.5407 237.321C17.1795 237.557 16.4771 238.864 15.3273 238.307C14.1775 237.751 14.7115 236.696 13.5913 236.844C12.4712 236.991 12.9006 237.88 11.8081 237.732C10.7155 237.585 9.56326 235.385 9.56326 235.385L72.4745 11.7475C72.7444 11.4995 73.07 11.3196 73.4239 11.2231C73.7779 11.1265 74.15 11.1161 74.509 11.1926C75.6948 11.4798 75.1821 12.6082 76.1785 12.5474C77.175 12.4867 78.2675 9.67117 79.6214 9.96994C80.9752 10.2687 80.3433 11.607 81.9933 11.7923C83.6433 11.9776 83.5493 9.66418 84.9334 9.99952C86.3175 10.3349 88.6507 11.1682 89.546 10.9806C90.4414 10.793 91.5152 9.42534 92.604 9.68914C93.6928 9.95294 93.8122 11.9801 95.0537 12.1785C96.2951 12.3769 97.83 8.72313 99.559 9.00558C101.288 9.28803 108.27 24.1386 164.164 45.264C197.497 57.1317 202.243 61.4738 202.243 61.4738C202.243 61.4738 220.202 60.8342 250.889 65.4616C281.575 70.0891 308.731 65.3176 313.997 63.4011C317.097 62.1588 317.62 65.1024 318.373 66.2451C318.782 66.8517 319.346 67.3385 320.006 67.6553C320.666 67.972 321.398 68.1071 322.128 68.0467C322.825 67.9344 323.54 68.0849 324.133 68.4691C324.726 68.8532 325.155 69.4436 325.336 70.1253C325.846 71.7109 327.319 71.5803 328.326 71.3954C328.638 71.3489 328.957 71.3665 329.262 71.4473C329.568 71.5281 329.854 71.6702 330.103 71.8651C330.351 72.06 330.557 72.3034 330.709 72.5805C330.86 72.8576 330.953 73.1626 330.982 73.4766C331.137 75.0934 332.093 75.1202 333.001 75.0624C333.909 75.0045 336.848 75.3121 336.158 78.1571C335.469 81.002 286.149 299.852 286.149 299.852C286.127 300.133 286.039 300.405 285.892 300.646C285.745 300.886 285.543 301.089 285.302 301.236C285.062 301.384 284.79 301.472 284.508 301.495C284.226 301.517 283.943 301.473 283.682 301.365C281.46 300.719 282.492 299.424 280.983 299.278C279.475 299.132 278.865 301.63 277.136 301.046C275.407 300.461 276.064 299.08 274.97 298.815C273.877 298.55 273.292 300.943 271.622 300.539C269.952 300.134 270.398 298.292 268.796 298.09C267.195 297.887 265.908 299.929 264.298 299.539C262.688 299.149 189.972 277.116 177.915 271.743C165.857 266.37 156.534 262.839 151.153 248.216Z" stroke="#FE7B01" stroke-width="1.5" stroke-miterlimit="10"/>
    <path d="M202.243 61.4737L151.153 248.216" stroke="#FE7B01" stroke-width="1.5" stroke-miterlimit="10"/>
    <path d="M144.243 253.248C146.067 252.956 147.934 253.046 149.722 253.513C151.545 254.06 153.293 254.832 154.924 255.811" stroke="#FE7B01" stroke-width="1.5" stroke-miterlimit="10"/>
    <path d="M83.8444 10.4612C83.8444 10.4612 71.9485 4.68413 70.4861 3.60363C69.0236 2.52313 67.3347 1.77277 66.6917 4.64843C66.0487 7.5241 5.27715 226.383 3.10786 232.977C0.93857 239.572 0.835399 239.776 4.66747 239.725C8.49954 239.674 27.2862 241.545 27.2862 241.545" stroke="#FE7B01" stroke-width="1.5" stroke-miterlimit="10"/>
    <path d="M315.204 63.1918C315.204 63.1918 311.539 97.3116 299.471 141.941C287.403 186.569 270.877 253.064 268.27 272.453C265.663 291.843 265.392 299.536 265.392 299.536C265.392 299.536 284.191 307.503 288.141 308.801C292.091 310.099 291.368 307.579 291.797 305.1C292.227 302.621 313.519 208.449 316.462 196.3C319.406 184.152 344.251 75.1712 344.84 72.7406C345.429 70.3099 344.694 69.6152 342.539 69.678L325.335 70.1252" stroke="#FE7B01" stroke-width="1.5" stroke-miterlimit="10"/>
    <path d="M320.43 67.7764C320.43 67.7764 312.668 122.996 304.284 151.796C295.9 180.596 272.484 275.813 269.639 293.342" stroke="#FE7B01" stroke-width="1.5" stroke-miterlimit="10"/>
    <path d="M325.162 74.6543C325.162 74.6543 312.745 129.292 307.5 149.792C302.255 170.292 283.745 250.079 281.729 262.915" stroke="#FE7B01" stroke-width="1.5" stroke-miterlimit="10"/>
    <path d="M277.127 301.043C277.127 301.043 292.219 240.766 297.092 220.654C301.965 200.541 328.838 83.2109 328.838 83.2109" stroke="#FE7B01" stroke-width="1.5" stroke-miterlimit="10"/>
    <path d="M88.4789 18.2616C88.4789 18.2616 42.3752 189.441 35.2762 207.835C28.1773 226.229 25.3546 239.231 25.3546 239.231" stroke="#FE7B01" stroke-width="1.5" stroke-miterlimit="10"/>
    <path d="M27.621 206.936C27.621 206.936 59.182 101.103 62.0306 89.3455C64.8791 77.5882 83.3408 14.3312 83.3408 14.3312" stroke="#FE7B01" stroke-width="1.5" stroke-miterlimit="10"/>
    <path d="M76.1784 12.547C76.1784 12.547 58.7527 91.1245 43.4565 134.26C28.1603 177.395 13.5867 236.862 13.5867 236.862" stroke="#FE7B01" stroke-width="1.5" stroke-miterlimit="10"/>
    <path d="M101.241 47.3168C101.241 47.3168 105.85 42.2744 110.399 43.718C114.948 45.1615 112.274 51.3959 116.557 52.9927C120.841 54.5896 122.833 52.2092 126.357 53.7123C127.395 54.1711 128.312 54.867 129.032 55.744C129.753 56.6209 130.257 57.6545 130.505 58.7614" stroke="#FE7B01" stroke-width="1.5" stroke-miterlimit="10"/>
    <path d="M96.207 62.3398C96.207 62.3398 96.8182 69.6792 104.053 71.1687C111.288 72.6582 110.128 66.5295 114.717 67.4145C119.306 68.2994 117.418 75.7575 125.995 77.2725C134.572 78.7874 131.856 74.2474 136.523 75.2732C141.189 76.299 141.954 83.9041 148.091 84.8853C154.229 85.8665 153.197 83.0049 156.475 83.7683C159.752 84.5317 159.395 88.3632 159.395 88.3632" stroke="#FE7B01" stroke-width="1.5" stroke-miterlimit="10"/>
    <path d="M89.1623 87.416C89.1623 87.416 97.5521 92.7139 104.468 86.0651C106.012 90.9595 107.079 95.7209 111.871 96.744C116.664 97.7671 118.012 93.4594 121.71 94.4502C125.408 95.4411 125.718 101.561 125.718 101.561" stroke="#FE7B01" stroke-width="1.5" stroke-miterlimit="10"/>
    <path d="M136.062 103.957C136.062 103.957 139.217 101.042 142.611 102.056C146.005 103.07 145.51 107.883 149.721 109.183C153.932 110.484 156.797 107.909 161.485 109.265C166.173 110.62 167.179 113.167 167.179 113.167" stroke="#FE7B01" stroke-width="1.5" stroke-miterlimit="10"/>
    <path d="M80.8495 103.102C80.8495 103.102 81.5148 107.546 84.6322 108.382C87.7496 109.217 89.6018 105.447 92.9778 106.351C96.3538 107.256 96.1076 113.405 99.3488 114.461C102.59 115.518 104.871 109.815 111.051 112.04C117.232 114.265 114.61 120.227 119.273 121.555C123.937 122.883 124.942 117.047 135.614 120.188C146.286 123.33 140.784 126.613 150.657 129.692" stroke="#FE7B01" stroke-width="1.5" stroke-miterlimit="10"/>
    <path d="M210.189 168.465C210.189 168.465 216.554 165.962 220.589 167.043C224.623 168.124 222.614 172.249 227.691 173.265C232.768 174.28 234.431 168.929 239.244 170.093C242.327 170.92 242.533 174.385 242.533 174.385" stroke="#FE7B01" stroke-width="1.5" stroke-miterlimit="10"/>
    <path d="M254.31 178.376C254.31 178.376 257.775 172.374 261.112 173.268C264.449 174.162 263.442 181.236 267.609 182.352C271.775 183.468 274.349 177.98 274.349 177.98" stroke="#FE7B01" stroke-width="1.5" stroke-miterlimit="10"/>
    <path d="M209.025 188.207C210.727 189.363 212.769 189.91 214.821 189.76C218.213 189.494 220.819 186.557 223.089 187.275C225.36 187.993 224.704 192.841 230.282 194.017C235.86 195.193 239.9 190.495 241.403 190.898C242.906 191.3 242.473 197.284 250.897 199.432C259.32 201.579 261.853 195.307 264.951 196.137C268.049 196.967 268.706 201.639 268.706 201.639" stroke="#FE7B01" stroke-width="1.5" stroke-miterlimit="10"/>
    <path d="M207.537 203.752C207.537 203.752 212.718 211.987 217.933 212.527C223.148 213.068 225.987 208.053 230.68 209.311" stroke="#FE7B01" stroke-width="1.5" stroke-miterlimit="10"/>
    <path d="M242.359 214.9C243.054 214.416 243.847 214.089 244.682 213.943C245.517 213.797 246.374 213.835 247.193 214.054C249.988 214.803 248.807 219.62 252.505 220.611C256.203 221.602 259.756 219.133 259.756 219.133" stroke="#FE7B01" stroke-width="1.5" stroke-miterlimit="10"/>
    <path d="M262.209 240.758C262.209 240.758 254.515 246.29 248.052 244.026C241.589 241.761 243.473 232.74 248.148 233.675C252.824 234.609 249.696 244.68 237.195 240.579C232.648 239.146 232.37 230.193 228.347 229.225C224.324 228.257 223.057 234.973 217.122 233.941C211.186 232.91 211.054 225.365 211.054 225.365" stroke="#FE7B01" stroke-width="1.5" stroke-miterlimit="10"/>
    <path d="M204.938 249.196C204.938 249.196 205.702 252.534 208.248 253.217C210.795 253.899 211.685 248.393 217.441 250.133C220.846 251.239 218.015 256.711 223.011 258.441C228.006 260.171 234.38 256.035 234.38 256.035" stroke="#FE7B01" stroke-width="1.5" stroke-miterlimit="10"/>
    <path d="M245.269 259.401C245.269 259.401 246.437 263.025 248.812 263.568C251.187 264.11 253.645 259.191 255.679 259.736C257.713 260.281 254.391 264.776 260.556 266.788" stroke="#FE7B01" stroke-width="1.5" stroke-miterlimit="10"/>
    <defs>
        <clipPath id="clip0_2_371">
            <rect width="48" height="48" fill="white" transform="translate(77.1797 140) rotate(12.2432)"/>
        </clipPath>
    </defs>
</svg>
