<svg width="334" height="449" viewBox="0 0 334 449" fill="none" xmlns="http://www.w3.org/2000/svg">
    <path d="M56.437 159.317L52.8765 164.172L46.0235 144.729L43.8204 121.332L44.0303 102.228L47.4145 84.8344L54.6583 71.0947L55.8236 67.4695L61.4043 57.402L70.0187 47.551L80.2203 38.555L94.4511 29.6817L111.809 22.0206L131.797 15.6186L149.22 13.9779L166.333 14.3754L182.637 16.8577L192.517 20.4473L196.875 24.0547L207.159 26.6017L220.758 32.3521L260.624 55.7176L291.248 76.94L302.001 84.465L302.329 87.9496L301.07 90.5792L295.472 95.1241L279.607 102.645L265.997 107.442L262.342 111.301L257.306 121.82L248.263 111.12L241.37 107.25L230.495 103.754L216.632 100.539L195.941 99.4743L171.549 101.771L158.109 103.037L149.88 106.323L142.835 111.506L137.828 117L133.102 125.48L128.5 129.931L124.019 130.353L118.45 129.873L110.298 128.632L103.826 129.241L100.839 129.523L95.1292 127.549L89.6356 122.542L83.662 123.105L79.3225 125.02L75.1704 128.926L72.5296 138.215L70.621 149.946L62.5803 155.223L56.437 159.317Z" fill="#FFF7EF"/>
    <mask id="mask0_1214_485" style="mask-type:alpha" maskUnits="userSpaceOnUse" x="43" y="13" width="260" height="152">
        <path d="M56.437 159.317L52.8765 164.172L46.0235 144.729L43.8204 121.332L44.0303 102.228L47.4145 84.8344L54.6583 71.0947L55.8236 67.4695L61.4043 57.402L70.0187 47.551L80.2203 38.555L94.4511 29.6817L111.809 22.0206L131.797 15.6186L149.22 13.9779L166.333 14.3754L182.637 16.8577L192.517 20.4473L196.875 24.0547L207.159 26.6017L220.758 32.3521L260.624 55.7176L291.248 76.94L302.001 84.465L302.329 87.9496L301.07 90.5792L295.472 95.1241L279.607 102.645L265.997 107.442L262.342 111.301L257.306 121.82L248.263 111.12L241.37 107.25L230.495 103.754L216.632 100.539L195.941 99.4743L171.549 101.771L158.109 103.037L149.88 106.323L142.835 111.506L137.828 117L133.102 125.48L128.5 129.931L124.019 130.353L118.45 129.873L110.298 128.632L103.826 129.241L100.839 129.523L95.1292 127.549L89.6356 122.542L83.662 123.105L79.3225 125.02L75.1704 128.926L72.5296 138.215L70.621 149.946L62.5803 155.223L56.437 159.317Z" fill="#FFF7EF"/>
    </mask>
    <g mask="url(#mask0_1214_485)">
        <circle cx="110.161" cy="100.521" r="10" transform="rotate(-5.37942 110.161 100.521)" fill="#FFCA99" fill-opacity="0.5"/>
        <circle cx="57.5698" cy="75.3408" r="5" transform="rotate(-5.37942 57.5698 75.3408)" fill="#FFCA99" fill-opacity="0.5"/>
        <circle cx="46.6659" cy="119.557" r="16" transform="rotate(-5.37942 46.6659 119.557)" fill="#FFCA99" fill-opacity="0.5"/>
        <circle cx="149.584" cy="28.5076" r="16" transform="rotate(-5.37942 149.584 28.5076)" fill="#FFCA99" fill-opacity="0.5"/>
        <circle cx="231.236" cy="52.9608" r="16" transform="rotate(-5.37942 231.236 52.9608)" fill="#FFCA99" fill-opacity="0.5"/>
        <circle cx="194.386" cy="24.289" r="5" transform="rotate(-5.37942 194.386 24.289)" fill="#FFCA99" fill-opacity="0.5"/>
        <circle cx="275.654" cy="97.9945" r="13" transform="rotate(-5.37942 275.654 97.9945)" fill="#FFCA99" fill-opacity="0.5"/>
        <circle cx="105.496" cy="29.6459" r="8" transform="rotate(-5.37942 105.496 29.6459)" fill="#FFCA99" fill-opacity="0.5"/>
        <circle cx="164.451" cy="90.3866" r="8" transform="rotate(-5.37942 164.451 90.3866)" fill="#FFCA99" fill-opacity="0.5"/>
    </g>
    <path d="M96.4631 77.7047L90.1792 80.3053L88.8555 76.9144L89.5698 73.8339L92.9138 72.0124L99.4789 72.3986L106.589 73.2357L96.4631 77.7047Z" fill="white"/>
    <path d="M150.475 37.966L154.241 40.6246L186.54 47.6275L184.719 44.2835L178.868 40.8167L170.481 37.0866L156.215 34.9145L150.335 36.4726L150.475 37.966Z" fill="white"/>
    <path d="M93.9155 137.873C93.9155 137.873 90.2541 145.667 82.9058 142.416C75.5575 139.165 73.6473 128.814 60.0971 135.614C46.5469 142.415 36.6203 151.737 40.134 166.059C43.6476 180.382 61.4528 190.7 80.4543 193.249C92.7733 194.902 93.0694 202.012 91.754 206.808" stroke="#FFCA99" stroke-width="1.5" stroke-miterlimit="10" stroke-linecap="round" stroke-linejoin="round"/>
    <path d="M109.8 128.679L102.878 129.833L103.985 136.257L106.041 142.09L106.105 148.111L103.681 154.365L100.016 168.773L98.1071 180.503L98.7053 197.522L100.281 208.924L102.853 220.233L86.7938 209.692L79.713 203.83L73.9988 196L73.498 192L67.498 190.5L69.4986 198L76.8378 210.63L83.8427 221.019L97.647 234.283L105.723 240.051L104.06 243.723L106.333 246.523L115.686 255.184L117.179 255.043L120.43 252.226L133.999 263.002L148.237 270.198L163.329 275.808L174.703 279.257L191.007 281.74L205.631 282.371L221.157 281.914L241.022 279.541L253.777 276.331L264.26 270.322L272.704 264.002L281.77 253.607L286.091 246.169L290.085 235.246L289.927 228.23L288.444 217.823L285.563 208.553L279.553 198.07L281.803 221.964L282.928 233.911L282.946 239.434L280.071 246.233L272.142 258.029L263.34 265.889L256.248 270.574L246.977 273.456L221.045 275.396L194.24 273.4L176.348 270.062L161.349 265.448L148.201 259.153L136.406 251.224L130.321 245.268L129.946 241.286L127.129 238.036L123.316 234.879L121.372 235.565L118.367 230.323L111.878 225.41L107.831 219.764L104.668 207.507L104.116 190.986L106.675 170.154L108.987 157.381L112.389 145.51L114.532 136.268L114.825 128.708L109.8 128.679Z" fill="#FFE0C4"/>
    <path d="M283.802 250.364C285.155 284.702 284.539 327.258 280.933 379.99" stroke="#FFCA99" stroke-width="1.5" stroke-miterlimit="10" stroke-linecap="round" stroke-linejoin="round"/>
    <path d="M263.178 110.414C264.248 103.98 251.263 97.2012 232.56 95.4939C213.857 93.7865 167.887 97.6386 153.518 98.8725C139.149 100.106 132.549 102.52 127.411 112.801C122.273 123.083 111.592 126.903 102.455 128.225C93.3184 129.547 90.9031 123.249 87.1965 119.357C83.4899 115.464 80.4552 117.111 67.7404 120.735C55.0257 124.359 55.9545 147.151 55.6641 152.658C55.5003 155.761 55.9665 157.354 56.4005 159.823" stroke="#FE7B01" stroke-width="1.5" stroke-miterlimit="10" stroke-linecap="round" stroke-linejoin="round"/>
    <path d="M257.307 121.821C258.781 117.141 262.627 109.493 266.171 107.729C269.714 105.965 296.836 96.4777 301.344 90.9159C305.851 85.3541 296.991 80.332 294.194 78.5652C291.396 76.7983 222.573 25.9919 196.502 23.7249C193.848 17.0609 164.339 12.4143 143.386 14.2182C122.433 16.0221 67.0595 33.672 55.0922 70.4756C48.6947 80.2683 38.8028 98.8958 46.1078 142.025C47.2442 148.114 49.9611 156.607 53.1678 163.643" stroke="#FE7B01" stroke-width="1.5" stroke-miterlimit="10" stroke-linecap="round" stroke-linejoin="round"/>
    <path d="M77.2777 59.508C77.2777 59.508 84.657 55.7638 120.564 66.8332C127.172 68.8489 120.916 70.5685 114.448 71.4275C107.979 72.2866 96.3158 78.0338 90.7294 80.198C85.1429 82.3621 73.9851 80.1404 70.3385 78.8496C66.6919 77.5587 64.488 75.5091 67.9808 71.158C71.4736 66.8069 77.2777 59.508 77.2777 59.508Z" stroke="#FE7B01" stroke-width="1.5" stroke-miterlimit="10" stroke-linecap="round" stroke-linejoin="round"/>
    <path d="M120.716 252.142C120.716 252.142 159.411 292.904 240.08 279.636C272.7 274.203 291.826 245.924 290.063 227.201C288.3 208.479 279.547 197 279.547 197" stroke="#FE7B01" stroke-width="1.5" stroke-linecap="round" stroke-linejoin="round"/>
    <path d="M90.7325 80.1936C90.7325 80.1936 86.3412 72.9165 93.4442 72.1708C97.6456 71.7203 101.893 72.2955 105.822 73.8469" stroke="#FE7B01" stroke-width="1.5" stroke-miterlimit="10" stroke-linecap="round" stroke-linejoin="round"/>
    <path d="M205.568 164.943L205.561 164.957C204.61 167.006 202.89 168.601 200.772 169.396C199.773 169.736 198.714 169.866 197.662 169.777C196.606 169.683 195.583 169.361 194.664 168.832L194.66 168.83C193.711 168.292 192.887 167.559 192.242 166.681L192.238 166.676C191.547 165.75 191.035 164.703 190.729 163.588C190.428 162.45 190.33 161.268 190.44 160.095L190.441 160.093L190.497 159.473C190.837 158.22 190.953 156.917 190.842 155.624C190.841 155.612 190.839 155.6 190.838 155.589C190.662 154.275 190.206 153.015 189.501 151.893C188.85 150.788 187.938 149.859 186.845 149.187C185.8 148.49 184.597 148.066 183.346 147.951C182.095 147.836 180.835 148.035 179.68 148.53C178.482 148.99 177.415 149.738 176.573 150.706C175.694 151.689 175.019 152.838 174.591 154.084C174.586 154.098 174.582 154.112 174.578 154.126C174.228 155.378 174.103 156.682 174.209 157.977L174.162 158.497C174.161 158.509 174.16 158.521 174.16 158.533C174.108 159.758 173.832 160.963 173.345 162.089C172.868 163.181 172.186 164.171 171.336 165.006C170.507 165.814 169.523 166.446 168.443 166.864C166.901 167.441 165.208 167.478 163.643 166.969C162.034 166.417 160.649 165.361 159.692 163.959C159.688 163.953 159.683 163.946 159.679 163.94C158.981 162.982 158.487 161.891 158.225 160.736C157.969 159.523 157.917 158.275 158.073 157.045C158.074 157.037 158.075 157.028 158.076 157.02L158.138 156.343C158.138 156.342 158.138 156.341 158.138 156.34C158.851 149.204 162.061 142.617 167.057 138.012C172.117 133.373 178.56 131.12 184.989 131.708C191.417 132.295 197.335 135.686 201.461 141.169C205.467 146.493 207.424 153.394 206.901 160.404C206.887 160.591 206.839 160.78 206.759 160.961C206.617 161.282 206.535 161.612 206.49 161.931C206.345 162.977 206.034 163.993 205.568 164.943Z" stroke="#FFCA99" stroke-width="1.5" stroke-linecap="round" stroke-linejoin="round"/>
    <path d="M229.438 164.604C229.433 164.542 229.421 164.482 229.402 164.423L229.237 163.92C228.914 158.405 230.093 153.135 232.552 149.094C235.025 145.031 238.49 142.713 242.167 142.474C245.843 142.235 249.625 144.122 252.561 147.798C255.5 151.475 257.386 156.647 257.777 162.178C257.777 162.178 257.778 162.179 257.778 162.18L257.812 162.708L257.813 162.728C257.901 163.675 257.864 164.629 257.703 165.567C257.556 166.408 257.262 167.218 256.834 167.958C256.832 167.962 256.83 167.966 256.827 167.97C256.824 167.976 256.821 167.983 256.817 167.989C256.342 168.91 255.558 169.635 254.603 170.04C254.194 170.188 253.758 170.247 253.324 170.212C252.885 170.177 252.459 170.047 252.075 169.832C251.435 169.469 250.878 168.976 250.44 168.385C249.931 167.688 249.54 166.913 249.281 166.091L249.279 166.087C248.991 165.191 248.834 164.26 248.811 163.32C248.811 163.309 248.81 163.298 248.809 163.287L248.782 162.884C248.852 161.887 248.785 160.885 248.581 159.906C248.579 159.896 248.577 159.887 248.574 159.877C248.335 158.921 247.937 158.012 247.397 157.188C246.92 156.413 246.256 155.769 245.467 155.315C244.75 154.866 243.911 154.649 243.066 154.693L243.048 154.695C242.206 154.758 241.403 155.075 240.746 155.604C240.023 156.158 239.448 156.88 239.072 157.707C238.632 158.596 238.354 159.556 238.252 160.542L238.25 160.563C238.175 161.561 238.237 162.565 238.436 163.546L238.467 164.024C238.467 164.024 238.467 164.024 238.467 164.024C238.526 164.924 238.462 165.828 238.277 166.712C238.102 167.521 237.797 168.296 237.374 169.008L237.374 169.008L237.37 169.014C237.026 169.606 236.556 170.115 235.994 170.506L235.99 170.508C235.521 170.838 234.97 171.033 234.397 171.071C233.82 171.1 233.245 170.978 232.73 170.716C231.613 170.141 230.605 168.921 230 167.24L229.999 167.238C229.691 166.39 229.502 165.503 229.438 164.604Z" stroke="#FFCA99" stroke-width="1.5" stroke-linecap="round" stroke-linejoin="round"/>
    <path d="M283.069 235.628C279.19 169.743 267.623 137.553 257.256 121.826" stroke="#FFCA99" stroke-width="1.5" stroke-miterlimit="10" stroke-linecap="round" stroke-linejoin="round"/>
    <path d="M89.7816 122.512C89.7816 122.512 78.0432 120.345 74.5291 131.343C71.015 142.341 70.8108 150.278 70.8108 150.278" stroke="#FE7B01" stroke-width="1.5" stroke-miterlimit="10" stroke-linecap="round" stroke-linejoin="round"/>
    <path d="M102.882 129.681C102.882 129.681 103.402 136.061 105.698 140.032C107.995 144.004 104.62 153.658 103.031 157.203C101.443 160.748 90.281 197.268 109.073 234.94" stroke="#FE7B01" stroke-width="1.5" stroke-miterlimit="10" stroke-linecap="round" stroke-linejoin="round"/>
    <path d="M114.595 128.928C114.595 128.928 115.589 134.329 112.952 142.976L110.299 151.628C110.299 151.628 101.269 186.97 104.942 208.835C108.615 230.699 118.379 225.035 121.113 235.46C121.113 235.46 122.892 234.346 124.37 235.68C125.848 237.013 131.322 240.974 130.161 243.659C129 246.345 124.509 248.237 122.594 250.075C120.679 251.912 118.024 255.715 116.564 255.18C115.103 254.644 109.475 248.426 107.085 247.178C104.694 245.931 103.614 243.914 104.775 241.716C105.936 239.519 106.894 236.852 109.606 236.155C112.318 235.457 114.717 232.701 117.472 233.768C120.226 234.836 121.098 235.461 121.098 235.461" stroke="#FE7B01" stroke-width="1.5" stroke-linecap="round" stroke-linejoin="round"/>
    <path d="M103.294 220.791C103.294 220.791 83.7559 208.13 78.5664 203.055C77.2109 201.703 74.3 197.6 73.5 192" stroke="#FE7B01" stroke-width="1.5" stroke-miterlimit="10" stroke-linecap="round" stroke-linejoin="round"/>
    <path d="M105.453 240.475C80.8142 223.549 71.0469 201.501 71.0469 201.501C69.8646 198.667 67.5 192.5 67.5 190.5" stroke="#FE7B01" stroke-width="1.5" stroke-linecap="round" stroke-linejoin="round"/>
    <path d="M55.0469 138.5L46 146L50 167.5L74.0469 149L75 136L71.0469 134H64.0469L55.0469 138.5Z" fill="white"/>
    <path d="M93.9155 137.873C93.9155 137.873 90.2541 145.667 82.9058 142.416C75.5575 139.165 73.6473 128.814 60.0971 135.614C46.5469 142.415 36.6203 151.737 40.134 166.059C43.6476 180.382 61.4528 190.7 80.4543 193.249" stroke="#FFCA99" stroke-width="1.5" stroke-miterlimit="10" stroke-linecap="round" stroke-linejoin="round"/>
    <path d="M79.1895 160.613C79.1895 160.613 67.7286 144.99 53.9991 155.827" stroke="#FFCA99" stroke-width="1.5" stroke-linecap="round" stroke-linejoin="round"/>
    <path d="M71.5742 174.035C71.5742 174.035 58.0364 171.6 61.1466 163.9C62.6797 159.826 64.7003 155.951 67.1646 152.361" stroke="#FFCA99" stroke-width="1.5" stroke-linecap="round" stroke-linejoin="round"/>
    <path d="M115.389 233.622C115.389 233.622 113.763 236.278 119.34 240.306C124.916 244.334 126.662 247.165 126.662 247.165" stroke="#FE7B01" stroke-width="1.5" stroke-linecap="round" stroke-linejoin="round"/>
    <path d="M121.119 235.458C121.119 235.458 130.416 241.731 129.122 245.087" stroke="#FE7B01" stroke-width="1.5" stroke-linecap="round" stroke-linejoin="round"/>
    <path d="M129.752 244.397C129.752 244.397 156.035 281.852 244.92 273.763C265.416 271.275 283.701 246.655 283.071 235.628" stroke="#FE7B01" stroke-width="1.5" stroke-linecap="round" stroke-linejoin="round"/>
    <path d="M190.552 218.023C190.552 218.023 209.585 223.117 228.049 223.147C246.513 223.178 228.122 238.772 216.291 241.843C204.461 244.914 184.217 248.77 169.89 234.207C155.563 219.645 156.792 207.989 164.169 210.271C171.545 212.552 190.552 218.023 190.552 218.023Z" stroke="#FFCA99" stroke-width="1.5" stroke-miterlimit="10" stroke-linecap="round" stroke-linejoin="round"/>
    <path d="M52.5 183C52.5 183 15.3183 249.247 40.2027 447.601" stroke="#FFCA99" stroke-width="1.5" stroke-miterlimit="10" stroke-linecap="round" stroke-linejoin="round"/>
    <path d="M302.131 89.7159C302.131 89.7159 298.957 68.285 198.828 72.4995" stroke="#FE7B01" stroke-width="1.5" stroke-miterlimit="10" stroke-linecap="round" stroke-linejoin="round"/>
    <path d="M118.272 34.364C118.272 34.364 182.055 44.8541 192.113 48.8521C187.359 38.4637 162.6 21.2533 139.409 23.1833C116.218 25.1133 108.006 32.2814 118.272 34.364Z" stroke="#FE7B01" stroke-width="1.5" stroke-miterlimit="10" stroke-linecap="round" stroke-linejoin="round"/>
    <path d="M153.735 40.4225C153.735 40.4225 145.44 36.57 154.183 35.5199C162.925 34.4698 181.608 39.1553 187.362 47.323" stroke="#FE7B01" stroke-width="1.5" stroke-miterlimit="10" stroke-linecap="round" stroke-linejoin="round"/>
    <path d="M196.5 23.7251C196.5 23.7251 211.145 35.6892 236.789 45.7408" stroke="#FE7B01" stroke-width="1.5" stroke-miterlimit="10" stroke-linecap="round" stroke-linejoin="round"/>
    <path d="M94.7602 127.157C94.7602 127.157 95.9203 131.008 107.466 129.129C119.012 127.249 122.623 133.435 129.324 128.908C136.025 124.382 139.355 104.892 162.526 102.21C185.696 99.5286 217.985 96.9334 239.334 106.94C242.508 108.65 250.547 114.02 257.308 121.82" stroke="#FE7B01" stroke-width="1.5" stroke-miterlimit="10" stroke-linecap="round"/>
</svg>
