<svg width="257" height="402" viewBox="0 0 257 402" fill="none" xmlns="http://www.w3.org/2000/svg">
    <path d="M245.001 329.728L245.001 329.729C247.025 353.825 249.554 385.396 250.008 398.799L250.008 398.809L250.009 398.819C250.055 399.58 250.109 400.393 250.167 401.25H18.2364C17.8366 394.606 17.492 387.902 17.1926 381.266C16.7004 369.598 15.8671 358.009 15.0345 346.43C14.7539 342.528 14.4734 338.626 14.206 334.724L14.2054 334.715L14.2047 334.707C13.9961 332.411 13.9126 330.106 13.9543 327.801H13.9545V327.787V324.724C14.3342 310.235 15.2062 294.83 16.9789 280.738C18.7529 266.635 21.4228 253.902 25.3749 244.722C26 243.394 26.3585 241.957 26.43 240.491C26.5017 239.021 26.2832 237.551 25.7871 236.165L25.7848 236.159C24.7384 233.316 22.6657 230.968 19.9751 229.578L19.9693 229.575C12.4838 225.79 6.36527 221.871 3.16438 217.016C1.57846 214.611 0.710977 211.977 0.751349 208.997C0.791855 206.007 1.74726 202.617 3.89213 198.713C8.14193 190.977 14.8994 187.153 22.1504 186.942C29.4237 186.731 37.2831 190.155 43.6652 197.108L43.6652 197.108L43.673 197.116C45.8939 199.463 48.9021 200.907 52.1213 201.172C55.3557 201.471 58.5884 200.583 61.2168 198.674L61.2262 198.667L61.2353 198.66C64.8504 195.859 68.7224 193.407 72.7993 191.336C74.8479 190.355 76.6557 188.936 78.0944 187.178C79.5041 185.489 80.4781 183.479 80.9309 181.326C81.8648 177.04 83.1707 172.318 85.6128 168.605C88.0298 164.931 91.5468 162.258 96.9838 161.986C98.5153 161.921 99.6164 162.273 100.422 162.84C101.235 163.411 101.813 164.246 102.211 165.251C103.009 167.264 103.031 169.812 102.886 171.741C102.826 171.995 102.835 172.262 102.912 172.513L103.049 172.954L103.504 173.031C103.65 173.055 103.799 173.062 103.947 173.051C104.179 173.09 104.419 173.077 104.647 173.012L104.739 172.985L104.822 172.936L105.226 172.697L105.342 172.629L105.427 172.524C107.838 169.546 112.71 164.02 118.735 159.727C124.782 155.417 131.827 152.463 138.657 154.312C141.613 155.125 143.442 156.281 144.513 157.566C145.572 158.838 145.949 160.306 145.867 161.879C145.701 165.093 143.624 168.644 141.641 171.321L141.564 171.424L141.527 171.547C141.465 171.75 141.447 171.962 141.474 172.171C141.43 172.413 141.455 172.665 141.548 172.898L141.672 173.207L141.985 173.322C142.22 173.409 142.472 173.43 142.715 173.388C142.935 173.419 143.16 173.401 143.375 173.336L143.464 173.308L143.543 173.26C146.627 171.391 151.025 169.14 155.761 167.938C160.499 166.734 165.489 166.602 169.844 168.846C172.504 170.262 173.421 171.508 173.569 172.45C173.711 173.36 173.181 174.347 171.946 175.395C170.736 176.421 169.026 177.35 167.269 178.127C165.523 178.899 163.778 179.5 162.532 179.883L162.399 179.924L162.289 180.01L161.985 180.25L161.761 180.425L161.71 180.704C161.68 180.869 161.673 181.036 161.689 181.202C161.666 181.387 161.675 181.576 161.717 181.759L161.851 182.341H162.448H162.579L193.696 197.517L193.705 197.521C196.071 198.636 198.706 199.054 201.301 198.726C203.893 198.426 206.337 197.364 208.325 195.674L208.334 195.666C212.578 191.941 218.817 187.445 225.682 185.505C232.5 183.579 239.916 184.173 246.699 190.593C254.917 198.402 256.645 206.274 254.269 212.964C251.869 219.721 245.207 225.499 236.172 228.878C233.161 229.993 230.695 232.224 229.282 235.108L229.281 235.111C228.608 236.497 228.228 238.007 228.164 239.547C228.1 241.085 228.353 242.621 228.908 244.057C235.575 261.924 240.143 280.507 242.52 299.43V300.237V300.271L242.523 300.304C242.824 303.658 243.837 315.556 245.001 329.728ZM61.5942 276.904C61.5942 294.126 72.4358 308.425 86.1826 308.425C99.9293 308.425 110.774 294.126 110.774 276.904C110.774 259.682 99.9294 245.381 86.1826 245.381C72.4357 245.381 61.5942 259.682 61.5942 276.904ZM147.169 276.904C147.169 294.126 158.013 308.425 171.76 308.425C185.507 308.425 196.349 294.126 196.349 276.904C196.349 259.682 185.507 245.381 171.76 245.381C158.013 245.381 147.169 259.682 147.169 276.904Z" fill="#FFF7EF" stroke="#FFCA99" stroke-width="1.5"/>
    <path d="M122.827 136.656C122.827 136.656 119.267 134.183 116.3 137.032C113.333 139.88 115.868 142.837 119.646 142.192C121.211 144.879 125.147 146.815 126.712 142.3C130.326 141.116 131.189 137.838 129.525 135.742C127.861 133.646 122.827 136.656 122.827 136.656Z" fill="#FFE0C4" stroke="#FE7B01" stroke-width="1.5" stroke-linecap="round" stroke-linejoin="round"/>
    <path d="M147.059 114.026C147.059 114.026 142.902 105.04 135.195 107.393C127.489 109.745 129.805 116.398 129.805 116.398C129.805 116.398 123.481 120.372 127.139 123.064C130.796 125.755 134.395 122.848 134.395 122.848C134.395 122.848 136.364 127.78 142.045 127.051C147.726 126.322 146.157 120.942 146.157 120.942C146.157 120.942 152.344 122.848 153.514 118.354C154.685 113.86 148.903 113.534 147.046 114.041" fill="#FFE0C4"/>
    <path d="M147.059 114.026C147.059 114.026 142.902 105.04 135.195 107.393C127.489 109.745 129.805 116.398 129.805 116.398C129.805 116.398 123.481 120.372 127.139 123.064C130.796 125.755 134.395 122.848 134.395 122.848C134.395 122.848 136.364 127.78 142.045 127.051C147.726 126.322 146.157 120.942 146.157 120.942C146.157 120.942 152.344 122.848 153.514 118.354C154.685 113.86 148.903 113.534 147.046 114.041" stroke="#FE7B01" stroke-width="1.5" stroke-linecap="round" stroke-linejoin="round"/>
    <path d="M192.852 5.83153C176.06 5.61589 166.941 -2.2249 147.248 2.52572C127.555 7.27634 131.493 19.6693 125.274 28.5517C119.054 37.434 108.277 42.189 111.592 56.4387C114.908 70.6883 124.445 73.3753 137.505 76.8881C150.565 80.4009 152.221 87.4223 167.975 89.2811C183.73 91.1399 195.754 85.5634 210.679 83.7046C225.605 81.8457 236.177 88.0412 247.577 74.8222C258.977 61.6033 260.222 40.7506 244.467 37.0221C228.713 33.2937 229.535 25.041 226.847 15.1257C224.159 5.21048 192.852 5.83153 192.852 5.83153Z" fill="#FFE0C4" stroke="#FE7B01" stroke-width="1.5" stroke-linecap="round" stroke-linejoin="round"/>
    <g clip-path="url(#clip0_1219_617)">
        <path d="M152.272 56.1508C152.68 55.7069 153.174 55.356 153.722 55.1205C154.269 54.885 154.859 54.7702 155.452 54.7833C156.049 54.7633 156.644 54.8695 157.2 55.0952C157.756 55.321 158.261 55.6615 158.685 56.0961C159.501 56.9756 159.957 58.1464 159.957 59.3643C159.957 60.5822 159.501 61.7531 158.685 62.6325C158.276 63.0764 157.782 63.4274 157.235 63.6628C156.687 63.8983 156.098 64.0132 155.505 64C154.908 64.0111 154.315 63.8955 153.764 63.6602C153.212 63.425 152.713 63.0752 152.298 62.6325C151.873 62.213 151.535 61.7075 151.307 61.1476C151.079 60.5877 150.966 59.9853 150.973 59.378C150.969 58.7777 151.082 58.1827 151.305 57.6283C151.528 57.0739 151.857 56.5714 152.272 56.1508ZM159.268 51.2553H154.63L157.784 25H166L159.268 51.2553Z" fill="#FE7B01"/>
    </g>
    <g clip-path="url(#clip1_1219_617)">
        <path d="M175.272 56.1508C175.68 55.7069 176.174 55.356 176.722 55.1205C177.269 54.885 177.859 54.7702 178.452 54.7833C179.049 54.7633 179.644 54.8695 180.2 55.0952C180.756 55.321 181.261 55.6615 181.685 56.0961C182.501 56.9756 182.957 58.1464 182.957 59.3643C182.957 60.5822 182.501 61.7531 181.685 62.6325C181.276 63.0764 180.782 63.4274 180.235 63.6628C179.687 63.8983 179.098 64.0132 178.505 64C177.908 64.0111 177.315 63.8955 176.764 63.6602C176.212 63.425 175.713 63.0752 175.298 62.6325C174.873 62.213 174.535 61.7075 174.307 61.1476C174.079 60.5877 173.966 59.9853 173.973 59.378C173.969 58.7777 174.082 58.1827 174.305 57.6283C174.528 57.0739 174.857 56.5714 175.272 56.1508ZM182.268 51.2553H177.63L180.784 25H189L182.268 51.2553Z" fill="#FE7B01"/>
    </g>
    <g clip-path="url(#clip2_1219_617)">
        <path d="M198.272 56.1508C198.68 55.7069 199.174 55.356 199.722 55.1205C200.269 54.885 200.859 54.7702 201.452 54.7833C202.049 54.7633 202.644 54.8695 203.2 55.0952C203.756 55.321 204.261 55.6615 204.685 56.0961C205.501 56.9756 205.957 58.1464 205.957 59.3643C205.957 60.5822 205.501 61.7531 204.685 62.6325C204.276 63.0764 203.782 63.4274 203.235 63.6628C202.687 63.8983 202.098 64.0132 201.505 64C200.908 64.0111 200.315 63.8955 199.764 63.6602C199.212 63.425 198.713 63.0752 198.298 62.6325C197.873 62.213 197.535 61.7075 197.307 61.1476C197.079 60.5877 196.966 59.9853 196.973 59.378C196.969 58.7777 197.082 58.1827 197.305 57.6283C197.528 57.0739 197.857 56.5714 198.272 56.1508ZM205.268 51.2553H200.63L203.784 25H212L205.268 51.2553Z" fill="#FE7B01"/>
    </g>
    <path d="M110.173 102.06C114.194 102.11 116.377 103.988 121.093 102.851C125.808 101.715 124.865 98.7542 126.354 96.6193C127.843 94.4845 130.424 93.3545 129.63 89.9344C128.836 86.5143 126.553 85.8868 123.426 85.0565C120.299 84.2263 119.9 82.5335 116.128 82.0893C112.356 81.6451 109.478 82.9799 105.905 83.4241C102.332 83.8683 99.7982 82.3869 97.0693 85.5504C94.3404 88.7139 94.0396 93.7125 97.8137 94.6074C101.588 95.5023 101.387 97.4754 102.034 99.8497C102.681 102.224 110.173 102.06 110.173 102.06Z" fill="#FFE0C4" stroke="#FE7B01" stroke-width="1.5" stroke-linecap="round" stroke-linejoin="round"/>
    <defs>
        <clipPath id="clip0_1219_617">
            <rect width="15" height="39" fill="white" transform="translate(151 25)"/>
        </clipPath>
        <clipPath id="clip1_1219_617">
            <rect width="15" height="39" fill="white" transform="translate(174 25)"/>
        </clipPath>
        <clipPath id="clip2_1219_617">
            <rect width="15" height="39" fill="white" transform="translate(197 25)"/>
        </clipPath>
    </defs>
</svg>
