<svg width="40" height="40" viewBox="0 0 40 40" fill="none" xmlns="http://www.w3.org/2000/svg">
<g clip-path="url(#clip0_2_3772)">
<path d="M11.3269 33.5964C11.3269 33.5964 10.7116 30.4407 7.2705 29.1175C3.82935 27.7944 0.75381 29.9072 0 30.858C0.638854 31.5297 2.00608 32.8538 2.00608 32.8538L11.3269 33.5964Z" fill="#B9B9B9"/>
<path d="M5.83317 39.1668C8.13436 39.1668 9.99984 37.3013 9.99984 35.0002C9.99984 32.699 8.13436 30.8335 5.83317 30.8335C3.53198 30.8335 1.6665 32.699 1.6665 35.0002C1.6665 37.3013 3.53198 39.1668 5.83317 39.1668Z" fill="#B9B9B9"/>
<path d="M5.73073 31.9519C6.49121 31.9527 7.22032 32.2607 7.75806 32.8082C8.2958 33.3558 8.59823 34.0982 8.59898 34.8726C8.59823 35.647 8.2958 36.3894 7.75806 36.937C7.22032 37.4846 6.49121 37.7925 5.73073 37.7933C4.97017 37.7925 4.24095 37.4846 3.70307 36.9371C3.16518 36.3895 2.86254 35.6471 2.86154 34.8726C2.86254 34.0981 3.16518 33.3557 3.70307 32.8082C4.24095 32.2606 4.97017 31.9527 5.73073 31.9519ZM5.73073 29.7451C5.06939 29.745 4.4145 29.8775 3.80346 30.1351C3.19242 30.3928 2.6372 30.7704 2.16952 31.2466C1.70184 31.7227 1.33084 32.288 1.07773 32.9102C0.824614 33.5323 0.694336 34.1992 0.694336 34.8726C0.694336 35.546 0.824614 36.2129 1.07773 36.835C1.33084 37.4572 1.70184 38.0225 2.16952 38.4986C2.6372 38.9748 3.19242 39.3524 3.80346 39.6101C4.4145 39.8677 5.06939 40.0002 5.73073 40.0001C6.39203 40.0002 7.04688 39.8677 7.65786 39.6101C8.26885 39.3524 8.824 38.9747 9.29161 38.4986C9.75922 38.0224 10.1301 37.4571 10.3831 36.835C10.6361 36.2128 10.7663 35.546 10.7662 34.8726C10.7663 34.1992 10.6361 33.5324 10.3831 32.9103C10.1301 32.2881 9.75922 31.7228 9.29161 31.2466C8.824 30.7705 8.26885 30.3928 7.65786 30.1352C7.04688 29.8775 6.39203 29.745 5.73073 29.7451Z" fill="#1F1E1D"/>
<path d="M34.0232 28.7058L32.6438 29.1586C32.6221 29.1659 32.5991 29.1686 32.5764 29.1667C32.5536 29.1647 32.5315 29.1581 32.5113 29.1473C32.4911 29.1365 32.4732 29.1216 32.4587 29.1036C32.4442 29.0856 32.4335 29.0649 32.427 29.0425L31.7543 26.7551L28.1152 34.7189C27.9251 35.1792 27.6056 35.572 27.1969 35.8479C26.7881 36.1237 26.3084 36.2704 25.818 36.2694H5.78078C5.42533 36.2694 5.08443 36.1257 4.833 35.8698C4.58157 35.614 4.44019 35.2669 4.43994 34.905C4.43958 34.7257 4.47413 34.548 4.54157 34.3823C4.60901 34.2167 4.70801 34.0662 4.83287 33.9398C4.95709 33.8126 5.10481 33.7118 5.26751 33.6431C5.43021 33.5745 5.60466 33.5393 5.78078 33.5396H25.5523L30.4172 22.0354L25.3535 4.35018L24.8051 2.43121C24.7463 2.22585 24.7627 2.00579 24.851 1.81174C24.9394 1.6177 25.0938 1.46282 25.2856 1.37577L27.9852 0.157227L27.891 1.08121L26.9487 1.54848C26.8339 1.60458 26.7398 1.69656 26.6799 1.81099C26.6201 1.92543 26.5977 2.05633 26.6161 2.18462C26.6333 2.28791 26.6576 2.38986 26.6887 2.48974C26.7141 2.57513 26.8479 3.03664 27.0656 3.78216C28.5063 8.79356 33.5954 26.6016 34.1325 28.4908C34.1454 28.5341 34.1411 28.5808 34.1207 28.6209C34.1003 28.661 34.0653 28.6915 34.0232 28.7058Z" fill="#FE7B01"/>
<path d="M34.9646 31.9519C35.7251 31.9527 36.4542 32.2607 36.992 32.8082C37.5297 33.3558 37.8321 34.0982 37.8329 34.8726C37.8321 35.647 37.5297 36.3894 36.992 36.937C36.4542 37.4846 35.7251 37.7925 34.9646 37.7933C34.2041 37.7925 33.4748 37.4846 32.937 36.9371C32.3991 36.3895 32.0964 35.6471 32.0954 34.8726C32.0964 34.0981 32.3991 33.3557 32.937 32.8082C33.4748 32.2606 34.2041 31.9527 34.9646 31.9519ZM34.9646 29.7451C34.3033 29.745 33.6484 29.8775 33.0373 30.1351C32.4263 30.3928 31.8711 30.7704 31.4034 31.2466C30.9357 31.7227 30.5647 32.288 30.3116 32.9102C30.0585 33.5323 29.9282 34.1992 29.9282 34.8726C29.9282 35.546 30.0585 36.2129 30.3116 36.835C30.5647 37.4572 30.9357 38.0225 31.4034 38.4986C31.8711 38.9748 32.4263 39.3524 33.0373 39.6101C33.6484 39.8677 34.3033 40.0002 34.9646 40.0001C35.6259 40.0002 36.2808 39.8677 36.8917 39.6101C37.5027 39.3524 38.0579 38.9747 38.5255 38.4986C38.9931 38.0224 39.364 37.4571 39.617 36.835C39.87 36.2128 40.0002 35.546 40.0001 34.8726C40.0002 34.1992 39.87 33.5324 39.617 32.9103C39.364 32.2881 38.9931 31.7228 38.5255 31.2466C38.0579 30.7705 37.5027 30.3928 36.8917 30.1352C36.2808 29.8775 35.6259 29.745 34.9646 29.7451Z" fill="#1F1E1D"/>
<path d="M32.6436 29.1599L34.2454 34.8007C34.2704 34.8886 34.3122 34.9706 34.3684 35.042C34.4246 35.1134 34.4941 35.1729 34.5728 35.2169C34.6516 35.2609 34.7381 35.2887 34.8275 35.2986C34.9168 35.3085 35.0072 35.3004 35.0934 35.2747C35.2646 35.2229 35.4091 35.105 35.4959 34.9461C35.5827 34.7872 35.605 34.6 35.558 34.4246L34.023 28.7061L32.6436 29.1599Z" fill="#1F1E1D"/>
<path d="M25.5524 33.5396L24.3407 36.2693H12.3042V33.5396H25.5524Z" fill="#1F1E1D"/>
<path d="M26.619 2.18462C26.6362 2.28791 26.6605 2.38986 26.6916 2.48974C26.717 2.57513 26.8508 3.03664 27.0685 3.78216L25.3536 4.35018L24.8052 2.43121C24.7464 2.22585 24.7628 2.00579 24.8511 1.81174C24.9395 1.6177 25.0939 1.46282 25.2857 1.37577L27.9853 0.157227L27.8911 1.08121L26.9488 1.54848C26.8346 1.60503 26.741 1.6972 26.6817 1.81159C26.6224 1.92599 26.6004 2.05666 26.619 2.18462Z" fill="#1F1E1D"/>
<path d="M28.3987 1.76353C28.8769 1.76353 29.2646 1.36875 29.2646 0.881767C29.2646 0.394781 28.8769 0 28.3987 0C27.9204 0 27.5327 0.394781 27.5327 0.881767C27.5327 1.36875 27.9204 1.76353 28.3987 1.76353Z" fill="#1F1E1D"/>
</g>
<defs>
<clipPath id="clip0_2_3772">
<rect width="40" height="40" fill="white"/>
</clipPath>
</defs>
</svg>
