<svg width="25" height="47" viewBox="0 0 25 47" fill="none" xmlns="http://www.w3.org/2000/svg">
<rect x="1" y="1" width="23" height="41" rx="2" fill="white"/>
<rect x="5" y="8" width="15" height="27" rx="2" fill="#FFDFC2"/>
<rect x="7" y="23" width="11" height="1" rx="0.5" fill="#FE7B01"/>
<rect x="7" y="25" width="11" height="1" rx="0.5" fill="#FE7B01"/>
<rect x="7" y="27" width="11" height="1" rx="0.5" fill="#FE7B01"/>
<path d="M15.7533 17.3065L13.62 13.4665C13.3333 12.9498 12.9367 12.6665 12.5 12.6665C12.0633 12.6665 11.6667 12.9498 11.38 13.4665L9.24666 17.3065C8.97666 17.7965 8.94666 18.2665 9.16333 18.6365C9.37999 19.0065 9.80666 19.2098 10.3667 19.2098H14.6333C15.1933 19.2098 15.62 19.0065 15.8367 18.6365C16.0533 18.2665 16.0233 17.7932 15.7533 17.3065ZM12.25 14.9998C12.25 14.8632 12.3633 14.7498 12.5 14.7498C12.6367 14.7498 12.75 14.8632 12.75 14.9998V16.6665C12.75 16.8032 12.6367 16.9165 12.5 16.9165C12.3633 16.9165 12.25 16.8032 12.25 16.6665V14.9998ZM12.7367 17.9032C12.72 17.9165 12.7033 17.9298 12.6867 17.9432C12.6667 17.9565 12.6467 17.9665 12.6267 17.9732C12.6067 17.9832 12.5867 17.9898 12.5633 17.9932C12.5433 17.9965 12.52 17.9998 12.5 17.9998C12.48 17.9998 12.4567 17.9965 12.4333 17.9932C12.4133 17.9898 12.3933 17.9832 12.3733 17.9732C12.3533 17.9665 12.3333 17.9565 12.3133 17.9432C12.2967 17.9298 12.28 17.9165 12.2633 17.9032C12.2033 17.8398 12.1667 17.7532 12.1667 17.6665C12.1667 17.5798 12.2033 17.4932 12.2633 17.4298C12.28 17.4165 12.2967 17.4032 12.3133 17.3898C12.3333 17.3765 12.3533 17.3665 12.3733 17.3598C12.3933 17.3498 12.4133 17.3432 12.4333 17.3398C12.4767 17.3298 12.5233 17.3298 12.5633 17.3398C12.5867 17.3432 12.6067 17.3498 12.6267 17.3598C12.6467 17.3665 12.6667 17.3765 12.6867 17.3898C12.7033 17.4032 12.72 17.4165 12.7367 17.4298C12.7967 17.4932 12.8333 17.5798 12.8333 17.6665C12.8333 17.7532 12.7967 17.8398 12.7367 17.9032Z" fill="#FE7B01"/>
<path d="M21.5928 0H3.40715C2.50352 0 1.6369 0.360139 0.99793 1.00117C0.358964 1.64221 0 2.51162 0 3.41818V43.5818C0 44.4884 0.358964 45.3578 0.99793 45.9988C1.6369 46.6399 2.50352 47 3.40715 47H21.5928C22.4965 47 23.3631 46.6399 24.0021 45.9988C24.641 45.3578 25 44.4884 25 43.5818V3.41818C25 2.51162 24.641 1.64221 24.0021 1.00117C23.3631 0.360139 22.4965 0 21.5928 0ZM12.6917 45.9831C12.321 45.9831 11.9587 45.8728 11.6506 45.6663C11.3424 45.4597 11.1022 45.1661 10.9604 44.8225C10.8185 44.479 10.7814 44.101 10.8537 43.7363C10.926 43.3717 11.1045 43.0367 11.3666 42.7737C11.6287 42.5108 11.9626 42.3318 12.3261 42.2592C12.6896 42.1867 13.0664 42.2239 13.4088 42.3662C13.7512 42.5085 14.0439 42.7495 14.2498 43.0586C14.4557 43.3678 14.5656 43.7313 14.5656 44.1031C14.5667 44.3503 14.519 44.5953 14.4252 44.8239C14.3315 45.0525 14.1935 45.2602 14.0192 45.435C13.845 45.6098 13.638 45.7482 13.4101 45.8423C13.1822 45.9364 12.9381 45.9842 12.6917 45.9831ZM23.322 38.7536C23.322 39.4086 23.0626 40.0368 22.601 40.4999C22.1393 40.9631 21.5132 41.2233 20.8603 41.2233H4.14823C3.82536 41.2244 3.50543 41.1616 3.20681 41.0384C2.9082 40.9152 2.63678 40.7341 2.40808 40.5055C2.17938 40.2768 1.99792 40.0051 1.8741 39.706C1.75029 39.4068 1.68655 39.0861 1.68655 38.7622V3.91382C1.6888 3.25952 1.94886 2.63268 2.41003 2.17002C2.8712 1.70736 3.49605 1.44644 4.14823 1.44418H7.11244C7.28639 1.44418 7.45321 1.51351 7.57621 1.63691C7.69921 1.7603 7.76833 1.92768 7.76833 2.10219V2.79437C7.77057 2.96966 7.84154 3.13701 7.96589 3.26017C8.09025 3.38333 8.25799 3.45239 8.43273 3.45237H16.3799C16.5532 3.45016 16.7187 3.38012 16.8412 3.2572C16.9638 3.13428 17.0336 2.96819 17.0358 2.79437V2.10219C17.0358 1.92915 17.1037 1.76306 17.2249 1.6399C17.346 1.51675 17.5107 1.44643 17.6831 1.44418H20.8262C21.4791 1.44418 22.1053 1.70438 22.5669 2.16753C23.0286 2.63067 23.2879 3.25883 23.2879 3.91382L23.322 38.7536Z" fill="black"/>
</svg>
