<svg width="40" height="40" viewBox="0 0 40 40" fill="none" xmlns="http://www.w3.org/2000/svg">
<path d="M36.2677 26.5335L25.601 7.3335C24.1677 4.75016 22.1843 3.3335 20.001 3.3335C17.8177 3.3335 15.8343 4.75016 14.4009 7.3335L3.73427 26.5335C2.38427 28.9835 2.23427 31.3335 3.31761 33.1835C4.40094 35.0335 6.53427 36.0502 9.33427 36.0502H30.6677C33.4677 36.0502 35.601 35.0335 36.6843 33.1835C37.7677 31.3335 37.6177 28.9668 36.2677 26.5335ZM18.751 15.0002C18.751 14.3168 19.3177 13.7502 20.001 13.7502C20.6843 13.7502 21.251 14.3168 21.251 15.0002V23.3335C21.251 24.0168 20.6843 24.5835 20.001 24.5835C19.3177 24.5835 18.751 24.0168 18.751 23.3335V15.0002ZM21.1843 29.5168C21.101 29.5835 21.0177 29.6502 20.9343 29.7168C20.8343 29.7835 20.7343 29.8335 20.6343 29.8668C20.5343 29.9168 20.4343 29.9502 20.3177 29.9668C20.2177 29.9835 20.101 30.0002 20.001 30.0002C19.901 30.0002 19.7843 29.9835 19.6677 29.9668C19.5677 29.9502 19.4677 29.9168 19.3677 29.8668C19.2677 29.8335 19.1677 29.7835 19.0677 29.7168C18.9843 29.6502 18.901 29.5835 18.8177 29.5168C18.5177 29.2002 18.3343 28.7668 18.3343 28.3335C18.3343 27.9002 18.5177 27.4668 18.8177 27.1502C18.901 27.0835 18.9843 27.0168 19.0677 26.9502C19.1677 26.8835 19.2677 26.8335 19.3677 26.8002C19.4677 26.7502 19.5677 26.7168 19.6677 26.7002C19.8843 26.6502 20.1177 26.6502 20.3177 26.7002C20.4343 26.7168 20.5343 26.7502 20.6343 26.8002C20.7343 26.8335 20.8343 26.8835 20.9343 26.9502C21.0177 27.0168 21.101 27.0835 21.1843 27.1502C21.4843 27.4668 21.6677 27.9002 21.6677 28.3335C21.6677 28.7668 21.4843 29.2002 21.1843 29.5168Z" fill="#FE7B01"/>
</svg>
