<svg width="42" height="52" viewBox="0 0 42 52" fill="none" xmlns="http://www.w3.org/2000/svg">
<g clip-path="url(#clip0_2_3802)">
<path d="M7.4205 29.8289C4.67634 31.2348 3.25802 30.3913 2.50774 29.2768C1.52622 27.8199 1.99385 26.3476 4.0494 24.5482C3.6126 23.9552 3.21691 23.3264 2.73385 22.7692C2.35962 22.325 2.08453 21.8069 1.92683 21.249C1.76914 20.6911 1.73243 20.1063 1.81913 19.5332C1.90715 18.776 2.04969 18.026 2.24566 17.289C2.46663 16.3637 2.09663 15.009 1.3001 14.5132C0.652917 14.0535 0.209266 13.3629 0.061797 12.5856C-0.0856721 11.8083 0.0744485 11.0044 0.508719 10.3417C1.04551 9.33263 1.82384 8.47057 2.77496 7.83169C2.99402 7.70621 3.2246 7.60179 3.46357 7.51984C3.81009 7.35369 4.18154 7.24491 4.56329 7.19778C5.11829 7.21763 5.66957 7.29648 6.20773 7.43295C6.51548 7.52878 6.8146 7.65019 7.10189 7.7959C7.03043 7.15085 6.99612 6.50227 6.99912 5.85332C7.00286 5.12415 7.21695 4.41137 7.61594 3.79969C8.01494 3.18801 8.58206 2.70314 9.24994 2.40267C9.53541 2.26311 9.84574 2.18088 10.1632 2.1607C10.4806 2.14053 10.7989 2.1828 11.0999 2.28509C11.881 2.5458 11.8656 2.52024 12.1791 1.73809C12.2999 1.39924 12.4888 1.08847 12.7345 0.824773C12.9801 0.561076 13.2772 0.350002 13.6077 0.204469C13.9426 0.0580113 14.3101 0.000622779 14.674 0.037915C15.038 0.0752073 15.3859 0.205899 15.6838 0.417202C15.9817 0.628505 16.2193 0.913169 16.3734 1.2433C16.5274 1.57342 16.5926 1.93769 16.5626 2.30042C16.5645 2.43574 16.5765 2.57073 16.5985 2.70428C17.0713 2.36177 17.4876 2.09083 17.8678 1.77388C18.8507 0.847701 20.1631 0.347576 21.5164 0.383395C22.7395 0.460076 24.1886 1.26778 24.3325 2.67871C24.3202 3.37045 24.2183 4.05772 24.0293 4.72354C24.3274 4.64175 24.7796 4.50372 25.237 4.40659C27.3645 3.94139 28.5721 4.64174 29.1939 6.67124C29.4046 7.35114 29.4508 7.38182 30.1138 7.04442C30.6213 6.76048 31.1939 6.61133 31.7762 6.61133C32.3585 6.61133 32.931 6.76048 33.4386 7.04442C35.0779 7.90836 35.561 10.1986 34.0399 11.3999C33.3237 12.0465 32.4283 12.4634 31.4704 12.5961C31.2327 12.6379 30.9989 12.6994 30.7715 12.7802C30.8794 13.2556 30.9565 13.6748 31.0696 14.0837C31.2411 14.5302 31.2417 15.0238 31.0711 15.4706C30.9005 15.9174 30.5708 16.2862 30.1446 16.5069C29.2093 17.0181 28.197 17.3861 27.2411 17.8053C27.0202 18.1223 26.7889 18.4648 26.5371 18.7869C26.4861 18.8811 26.4572 18.9855 26.4525 19.0924C26.4478 19.1993 26.4675 19.3059 26.5099 19.4042C26.5524 19.5025 26.6167 19.59 26.6979 19.6601C26.7791 19.7302 26.8752 19.7812 26.979 19.8093C27.4929 19.9473 27.9811 20.0138 28.4796 20.1109C29.4097 20.2898 30.2679 20.571 30.7407 21.5065C30.896 21.7819 30.9876 22.0883 31.009 22.4034C31.0304 22.7184 30.981 23.0343 30.8644 23.328C30.7478 23.6217 30.5669 23.8859 30.3348 24.1014C30.1028 24.3168 29.8254 24.4782 29.5228 24.5737C29.1733 24.7015 28.8393 24.8651 28.495 25.0083C28.495 25.0798 28.495 25.136 28.5258 25.1463C29.754 25.7393 30.0675 26.3936 29.6975 27.7023C29.5469 28.3266 29.2281 28.8982 28.7754 29.3558C28.3227 29.8133 27.7532 30.1395 27.1281 30.2992L26.5525 30.4577C26.7999 30.6125 27.0368 30.7833 27.2617 30.9689C28.2895 31.9913 28.2483 33.1773 27.8218 34.3991C27.6317 34.941 27.6625 35.1659 28.2483 35.3653C28.6787 35.518 29.0543 35.7934 29.3285 36.157C29.6026 36.5206 29.7631 36.9564 29.79 37.4101C29.8474 37.792 29.789 38.1822 29.6224 38.5309C29.4559 38.8797 29.1886 39.1711 28.8547 39.3681C28.3463 39.6535 27.7577 39.765 27.1794 39.6856C26.6011 39.6062 26.0649 39.3402 25.6532 38.9284C25.2749 38.5384 25.0433 38.0305 24.9974 37.4905C24.9516 36.9504 25.0942 36.4111 25.4014 35.9634C25.4836 35.8356 25.5761 35.7129 25.6892 35.5596C25.5976 35.5037 25.5013 35.4558 25.4014 35.4164C24.276 35.1506 23.1455 34.9052 22.0149 34.6292C21.0282 34.4042 20.6223 34.5474 20.2163 35.4573C19.7538 36.4716 19.3539 37.513 19.0189 38.5757C18.8187 39.113 18.8225 39.7045 19.0297 40.2392C19.237 40.7739 19.6333 41.2149 20.1444 41.4794C20.6025 41.7033 21.0264 41.9907 21.4034 42.3331C21.6356 42.5458 21.8231 42.8023 21.9549 43.0877C22.0868 43.373 22.1603 43.6816 22.1713 43.9955C22.1823 44.3093 22.1305 44.6223 22.019 44.9161C21.9074 45.2099 21.7384 45.4787 21.5216 45.707C21.2569 46.0147 21.0388 46.3591 20.8741 46.7294C20.797 46.8474 20.747 46.9808 20.7278 47.1202C20.7085 47.2596 20.7204 47.4015 20.7626 47.5358C20.8048 47.6701 20.8763 47.7934 20.972 47.897C21.0676 48.0007 21.1851 48.082 21.316 48.1353C22.5031 48.7998 22.5904 49.6178 22.1382 50.8907C22.0583 51.1907 21.8788 51.455 21.6287 51.6406C21.3787 51.8263 21.0729 51.9223 20.761 51.9131C20.2158 51.8916 19.6792 51.7703 19.1782 51.5552C18.877 51.4224 18.6342 51.1858 18.4945 50.8889C18.3547 50.5921 18.3275 50.2551 18.4177 49.9398C18.4794 49.6331 18.5564 49.3264 18.6181 49.0197C18.7436 48.5822 18.7056 48.1143 18.5109 47.7026C18.3163 47.2909 17.9783 46.9634 17.5595 46.7806C17.4927 46.7448 17.4207 46.7039 17.3488 46.6732C15.581 46.0291 15.5913 44.659 16.1823 43.1459C16.476 42.5499 16.8494 41.9962 17.2923 41.4998C17.8062 40.8045 17.9603 40.2933 17.6623 39.8588C17.6154 39.7606 17.549 39.673 17.467 39.6011C17.385 39.5292 17.2892 39.4747 17.1855 39.4407C17.0817 39.4068 16.972 39.3942 16.8632 39.4037C16.7543 39.4131 16.6486 39.4445 16.5523 39.4959C16.4475 39.5487 16.3372 39.5898 16.2234 39.6185C14.8462 39.9457 13.7208 39.6186 13.5871 38.0236C13.5203 37.2057 13.4946 36.3826 13.4021 35.5698C13.2017 33.8317 12.3744 33.116 10.6066 33.0137C10.139 33.0137 9.66619 33.0137 9.19341 33.0137C8.00633 33.0137 7.58495 32.6099 7.49759 31.4086C7.50273 30.882 7.46675 30.3606 7.4205 29.8289Z" fill="white"/>
<path d="M29.5999 44.2912C29.4188 44.3056 29.2366 44.282 29.0653 44.2218C28.894 44.1616 28.7373 44.0661 28.6055 43.9417C28.4736 43.8173 28.3696 43.6667 28.3001 43.4997C28.2306 43.3327 28.1972 43.153 28.2021 42.9723C28.2021 42.2515 29.0449 41.5818 29.9031 41.5869C30.2591 41.5926 30.6016 41.7236 30.8697 41.9566C31.1378 42.1897 31.3143 42.5097 31.3677 42.8598C31.4037 43.6471 30.5968 44.2963 29.5999 44.2912Z" fill="#D4D7CF"/>
<path d="M6.84514 36.5359C6.54499 36.5615 6.2445 36.4909 5.9875 36.3346C5.73051 36.1782 5.53046 35.9443 5.41653 35.6669C5.3287 35.491 5.30224 35.291 5.34132 35.0984C5.3804 34.9059 5.4828 34.7318 5.63236 34.6036C6.14625 34.0924 7.5543 34.0924 7.92944 34.6956C8.11478 35.0214 8.16983 35.4047 8.08361 35.7691C7.90889 36.3672 7.32305 36.4695 6.84514 36.5359Z" fill="#D4D7CF"/>
<path d="M27.1279 13.7157C28.1814 13.2045 28.1146 12.2127 28.2996 11.2874C28.7723 12.4632 29.3273 13.6083 29.1989 14.917C29.0961 15.9394 28.1711 16.3944 27.5544 17.0436C27.2113 17.3641 26.8886 17.7056 26.5883 18.066C26.4486 18.2224 26.3542 18.4137 26.3152 18.6193C26.2762 18.8249 26.294 19.0371 26.3668 19.2334C26.4397 19.4297 26.5647 19.6027 26.7286 19.7338C26.8925 19.8649 27.0891 19.9493 27.2975 19.9779C27.9139 20.0986 28.523 20.254 29.1218 20.4431C29.621 20.6058 30.0751 20.8824 30.4476 21.2509C31.4754 22.442 31.0694 23.8376 29.5586 24.5379C29.1526 24.7271 28.7415 24.8958 28.3304 25.0747C28.3715 25.1411 28.3766 25.1923 28.4023 25.2025C29.8515 25.7955 30.2215 27.1553 29.3273 28.6071C29.0821 29.0565 28.742 29.4477 28.3304 29.7539C27.9188 30.0601 27.4455 30.274 26.9429 30.381C26.81 30.4169 26.6795 30.4613 26.5523 30.5139C26.8949 30.7557 27.2148 31.0277 27.5082 31.3268C28.2841 32.2827 28.2019 33.3716 27.8371 34.4451C27.5904 35.1659 27.5647 35.1608 28.2893 35.4675C29.9029 36.1577 30.3448 38.2383 29.1012 39.2709C28.6165 39.6122 28.0316 39.7838 27.4382 39.7588C26.8449 39.7338 26.2767 39.5137 25.8226 39.1329C25.4017 38.7695 25.1279 38.2664 25.0523 37.7171C24.9767 37.1679 25.1043 36.61 25.4115 36.1474C25.5091 35.9838 25.6171 35.8254 25.7044 35.6771C25.6633 35.6056 25.6479 35.5544 25.6222 35.5442C24.3632 35.2426 23.1144 34.9001 21.8451 34.6496C20.951 34.4707 20.5964 34.6496 20.2469 35.4675C19.7561 36.596 19.3306 37.7515 18.9725 38.9284C18.8193 39.412 18.8431 39.934 19.0397 40.4018C19.2362 40.8696 19.5929 41.2531 20.0465 41.4844C20.2983 41.6327 20.5604 41.7861 20.8122 41.919C22.0353 42.5478 22.7444 44.4341 21.6139 45.6201C21.3179 45.9352 21.078 46.2983 20.9047 46.6936C20.5707 47.4451 20.766 47.9052 21.5728 48.4624C22.3796 49.0196 22.5337 49.449 22.3436 50.3028C22.174 51.0696 21.8554 51.7393 21.0178 51.9386C20.6216 52.0336 20.2069 52.0201 19.8179 51.8995C19.4288 51.7789 19.0798 51.5557 18.8081 51.2536C18.5748 50.9289 18.4523 50.5383 18.4586 50.1392C18.4794 49.791 18.5468 49.4472 18.659 49.1168C18.788 48.6994 18.7649 48.2503 18.5938 47.8482C18.4228 47.4462 18.1147 47.117 17.7238 46.9186C17.5747 46.8266 17.4206 46.7397 17.2664 46.6528C15.8326 45.8604 15.437 44.5006 16.2746 43.0743C16.7011 42.3484 17.2304 41.6889 17.6826 40.9783C17.7987 40.8198 17.8619 40.6291 17.8636 40.4329C17.8653 40.2368 17.8054 40.0451 17.6921 39.8845C17.5789 39.724 17.418 39.6027 17.232 39.5376C17.046 39.4724 16.8442 39.4668 16.6549 39.5214C16.2667 39.6584 15.8626 39.746 15.4524 39.7821C15.236 39.8133 15.0155 39.7984 14.8054 39.7384C14.5953 39.6783 14.4004 39.5745 14.2337 39.4338C14.067 39.2932 13.9323 39.1188 13.8385 38.9224C13.7448 38.726 13.694 38.5119 13.6897 38.2945C13.5767 37.3846 13.5047 36.4695 13.4585 35.5493C13.366 33.8623 12.3022 33.2284 10.8325 33.1109C10.2878 33.0649 9.73281 33.1109 9.18295 33.1109C8.26823 33.1109 7.8417 32.799 7.64129 31.8891C7.51282 31.2501 7.50254 30.5804 7.43059 29.8698C6.95782 30.0692 6.54157 30.2686 6.10476 30.427C5.45499 30.7001 4.72865 30.7338 4.05616 30.522C3.38368 30.3103 2.8091 29.867 2.43561 29.2717C2.07764 28.6325 1.96117 27.887 2.10724 27.1699C2.2533 26.4527 2.65228 25.8112 3.23214 25.361C4.09033 24.6504 4.10574 24.635 3.40686 23.7507C2.76964 22.9532 2.0913 22.1813 1.86519 21.1486C1.61339 20.0086 1.91144 18.9044 2.12727 17.79C2.20481 17.3732 2.36751 16.9767 2.60528 16.625C2.84305 16.2732 3.15085 15.9738 3.50963 15.7452C4.17768 15.28 4.94338 15.3413 5.71421 15.2339L5.23116 17.4935L5.44185 17.6162C6.28463 14.1706 8.55087 14.2115 11.1666 15.2237C11.3464 14.9221 11.4903 14.6512 11.6547 14.3905C11.8238 14.0741 12.0707 13.8056 12.3723 13.6098C12.674 13.4141 13.0205 13.2975 13.3797 13.2709C13.7388 13.2444 14.0989 13.3088 14.4263 13.458C14.7537 13.6073 15.0377 13.8366 15.252 14.1246C15.5397 14.4467 15.7658 14.7994 16.0742 15.1215C16.1853 15.2186 16.3122 15.2964 16.4493 15.3515C16.5287 15.2275 16.5909 15.0933 16.6343 14.9528C16.6678 14.4216 16.5339 13.8932 16.251 13.4414C15.9682 12.9896 15.5507 12.6369 15.0567 12.4325C14.0752 12.0133 13.0422 11.8089 12.0556 12.407C11.6439 12.7211 11.2541 13.0627 10.8891 13.4294C10.7402 13.5634 10.545 13.6349 10.3443 13.6288C8.86434 13.2505 7.52823 13.4345 6.45935 14.6103C6.15101 14.9477 5.89407 14.9681 5.57546 14.6563C4.8663 13.9559 4.09033 13.3118 3.45825 12.5501C3.27547 12.3103 3.14816 12.0333 3.0854 11.7389C3.02265 11.4445 3.02599 11.1399 3.0952 10.8469C3.16441 10.554 3.29778 10.2798 3.48579 10.044C3.67379 9.8082 3.9118 9.6166 4.18282 9.48286C4.77796 9.23719 5.41987 9.12378 6.06365 9.15058C6.96295 9.18637 7.34837 9.84072 7.13254 10.72C7.02354 11.0123 6.9477 11.3158 6.90643 11.6248C6.92341 11.9958 7.03481 12.3564 7.23018 12.6728C7.57962 9.92251 9.72767 9.49821 11.8552 8.86942L11.0792 10.6433L11.2899 10.7813C11.4872 10.6114 11.6601 10.4153 11.8038 10.1986C11.9643 9.78148 12.245 9.42077 12.6106 9.16161C12.9762 8.90245 13.4106 8.75636 13.8593 8.74162C14.661 8.71606 15.4627 8.74162 16.2643 8.74162H17.0917C16.9127 8.27639 16.5886 7.88043 16.1668 7.6118C15.7451 7.34316 15.248 7.21598 14.7483 7.24889C13.8812 7.3565 13.0775 7.75715 12.4718 8.38377C12.428 8.4464 12.3713 8.49912 12.3056 8.53845C12.2398 8.57779 12.1665 8.60286 12.0903 8.61203C12.0141 8.6212 11.9369 8.61426 11.8636 8.59167C11.7903 8.56907 11.7226 8.53132 11.665 8.4809C10.8857 8.03779 9.99043 7.83829 9.09559 7.90835C8.43268 7.93902 8.34531 7.81123 8.37614 7.16199C8.43781 5.8533 9.84586 4.35546 11.1563 4.30945C11.6352 4.35137 12.1067 4.45446 12.5592 4.61618C12.8521 3.44551 13.3711 2.97009 14.4606 2.87296C14.7369 2.83794 15.0172 2.89396 15.2585 3.03244C15.4998 3.17093 15.6888 3.38425 15.7967 3.63977C16.0176 4.05896 15.9046 4.289 15.4318 4.39124C15.1398 4.41288 14.8567 4.50115 14.6045 4.6492C14.3523 4.79726 14.1377 5.00112 13.9775 5.24497C14.6255 5.28458 15.2706 5.36138 15.9097 5.475C16.5169 5.65309 17.1124 5.86821 17.6929 6.11913C17.5942 5.87645 17.4665 5.64647 17.3126 5.43411C16.9889 5.06604 17.0608 4.81555 17.3949 4.50371C17.7661 4.14804 18.241 3.91841 18.7515 3.8477C19.262 3.77699 19.7819 3.86883 20.2367 4.11009C21.2233 4.51905 21.9633 5.48523 21.8965 6.39518C21.8163 6.82964 21.6905 7.25454 21.5214 7.66297C22.1087 7.36555 22.7107 7.0977 23.3251 6.86038C23.9635 6.61986 24.6332 6.4718 25.3139 6.42074C26.3416 6.39006 26.7373 7.30001 26.8555 8.04637C26.8555 8.13328 26.5986 8.34798 26.4598 8.34798C26.1309 8.34798 25.8021 8.23041 25.4732 8.22018C25.2097 8.25295 24.9509 8.31644 24.7023 8.40934C25.0147 8.70394 25.3423 8.98207 25.6839 9.2426C26.4279 9.79435 27.0026 10.5414 27.3437 11.3999C27.6675 12.2025 27.4054 12.954 27.1279 13.7157Z" fill="#C0C2B8"/>
<path d="M29.6871 45.0936C29.511 45.106 29.3342 45.0835 29.1669 45.0274C28.9997 44.9712 28.8453 44.8825 28.7128 44.7664C28.5804 44.6503 28.4724 44.5092 28.3953 44.3512C28.3182 44.1932 28.2735 44.0216 28.2637 43.8462C28.3365 43.4727 28.5292 43.1328 28.8127 42.8775C29.0962 42.6222 29.4554 42.4652 29.8362 42.4302C30.607 42.4302 31.4292 43.0896 31.3778 43.7133C31.3041 44.1044 31.0943 44.4571 30.7851 44.7096C30.4759 44.962 30.0871 45.098 29.6871 45.0936Z" fill="#C0C2B8"/>
<path d="M5.68885 34.6597C5.92524 35.6258 6.4751 36.0297 7.23051 35.8457C7.79579 35.7076 7.91912 35.4009 7.71357 34.6852C7.81538 34.7526 7.90268 34.8395 7.97034 34.9408C8.03801 35.0421 8.08468 35.1558 8.10765 35.2753C8.13062 35.3948 8.12941 35.5176 8.1041 35.6366C8.07879 35.7556 8.02988 35.8684 7.96023 35.9684C7.73426 36.2684 7.40241 36.4721 7.03149 36.5385C6.66058 36.6049 6.27815 36.5291 5.96121 36.3262C5.34969 35.9479 5.23663 35.36 5.68885 34.6597Z" fill="#C0C2B8"/>
<path d="M22.1794 20.9137C22.0766 20.6376 21.979 20.3616 21.8557 20.0906C21.6912 19.7226 21.4908 19.3187 21.8557 18.9864C22.0119 18.8688 22.2007 18.8018 22.3965 18.7945C22.5923 18.7872 22.7856 18.8399 22.9502 18.9455C23.2875 19.0728 23.5894 19.2784 23.8307 19.5452C24.072 19.8119 24.2459 20.1321 24.3377 20.4791C24.497 21.0721 24.2761 21.5425 23.5823 21.5629C23.3513 21.5836 23.1214 21.6161 22.8937 21.66C23.3549 22.223 23.903 22.7096 24.5176 23.1016L24.6307 23.0352C24.5793 22.8767 24.533 22.7131 24.4816 22.5546C24.3172 22.0434 24.5176 21.7265 25.0418 21.706C25.3532 21.6933 25.6645 21.7348 25.9616 21.8287C26.6147 22.0337 27.1806 22.4492 27.5701 23.0096C27.6677 23.1374 27.8527 23.2755 27.8373 23.393C27.82 23.7462 27.7363 24.0929 27.5906 24.4154C27.4364 24.6773 27.2236 24.9002 26.9687 25.0669C26.7138 25.2336 26.4237 25.3395 26.1209 25.3765C25.7433 25.4614 25.3569 25.5008 24.9698 25.4941C24.4704 25.4479 23.9686 25.5537 23.5309 25.7974C23.0932 26.0412 22.7402 26.4114 22.5186 26.859C22.2934 27.2428 21.9604 27.5527 21.5605 27.7507C21.1606 27.9486 20.7113 28.0261 20.2677 27.9734C20.1049 27.9619 19.9486 27.905 19.8168 27.8091C19.685 27.7133 19.5831 27.5824 19.5226 27.4316C19.348 27.0872 19.1488 26.7558 18.9265 26.4398C18.7873 26.2381 18.6016 26.0724 18.3848 25.9566C18.1681 25.8408 17.9266 25.7783 17.6807 25.7743C17.4347 25.7703 17.1913 25.8249 16.9709 25.9336C16.7505 26.0422 16.5594 26.2018 16.4136 26.3989C16.2235 26.675 16.244 26.721 16.5472 26.8692C16.7648 26.9617 16.9674 27.0857 17.1485 27.2373C17.6623 27.7178 17.4979 28.3926 16.8196 28.8629C16.2829 29.1945 15.6678 29.3797 15.0364 29.3997C13.5769 29.5326 12.1124 29.6604 10.6478 29.7576C10.3346 29.759 10.0235 29.7072 9.72793 29.6042C9.1164 29.4202 8.99307 28.9805 9.36821 28.4693C9.5139 28.296 9.69418 28.1548 9.89764 28.0544C10.1011 27.9541 10.3233 27.8969 10.5501 27.8865C10.9004 27.8408 11.2449 27.7586 11.5779 27.6412C11.7467 27.5893 11.8879 27.473 11.9707 27.3178C12.0536 27.1626 12.0712 26.9811 12.0199 26.813C12.0148 26.6288 11.9478 26.4515 11.8294 26.3097C11.7111 26.1679 11.5483 26.0697 11.3672 26.0309C10.9664 25.9593 10.5553 25.9388 10.1442 25.8877C9.84451 25.8633 9.54725 25.8155 9.25515 25.7446C9.1257 25.7143 9.00417 25.6571 8.89858 25.5767C8.793 25.4962 8.70576 25.3944 8.64263 25.278C8.57949 25.1616 8.5419 25.0332 8.53232 24.9012C8.52275 24.7693 8.54142 24.6368 8.5871 24.5126C8.72071 24.1189 8.94168 23.7509 9.10098 23.3624C9.13491 23.2814 9.15237 23.1945 9.15237 23.1068C9.15237 23.019 9.13491 22.9321 9.10098 22.8512C9.01362 22.7438 8.76182 22.7233 8.5871 22.7336C7.90604 22.8195 7.27592 23.1374 6.80391 23.6333C6.51698 23.8902 6.19734 24.1085 5.85321 24.2825C5.56454 24.3798 5.24991 24.3672 4.96998 24.2473C4.69004 24.1275 4.46464 23.9087 4.33725 23.6333C4.29669 23.4871 4.30425 23.3318 4.3588 23.1901C4.41336 23.0484 4.51205 22.9279 4.64044 22.846C4.96044 22.5894 5.29317 22.3488 5.63738 22.1252C6.03821 21.8747 6.09475 21.4402 6.26947 21.0721C6.30544 21.0006 6.19752 20.8472 6.13585 20.7399C5.9303 20.4025 5.69905 20.0804 5.51919 19.7175C5.39072 19.467 5.49349 19.3187 5.78127 19.3238C6.51215 19.3352 7.22916 19.1248 7.83682 18.7206C7.99309 18.579 8.18944 18.4888 8.39911 18.4623C8.60877 18.4358 8.82156 18.4742 9.00848 18.5723C9.30139 18.7615 9.32709 18.8944 9.04959 19.0835C8.77209 19.2727 8.56654 19.4107 8.33015 19.5948L7.81626 19.9475L7.93446 20.0957C8.23551 20.1119 8.53401 20.0331 8.78751 19.8708C9.56857 19.3776 10.4845 19.1382 11.4083 19.1858C12.0353 19.2574 12.6674 19.3085 13.2994 19.3698L13.6026 19.3954C13.4815 19.1772 13.3035 18.9956 13.0874 18.8697C12.8712 18.7437 12.6249 18.6781 12.3744 18.6797C11.9274 18.6541 11.47 18.7053 11.0178 18.7206C10.9562 18.7257 10.8943 18.7257 10.8328 18.7206C11.0846 17.6113 14.2707 16.6758 15.1032 17.4937L13.8236 18.2963L13.875 18.4088C15.2014 17.766 16.6656 17.4553 18.1403 17.5039C17.9347 17.4681 17.724 17.4221 17.5185 17.3915L16.763 17.2994C17.8713 16.9609 19.0213 16.7768 20.1804 16.7524C21.1311 16.7524 21.5525 17.2637 21.4394 18.2094C21.3932 18.5672 21.3161 18.5979 20.9769 18.5008C20.7326 18.4454 20.4807 18.4316 20.2318 18.4599C20.69 18.7443 21.0866 19.1168 21.3981 19.5558C21.7096 19.9947 21.9298 20.4912 22.0458 21.0159L22.1794 20.9137Z" fill="#E1E2DC"/>
</g>
<defs>
<clipPath id="clip0_2_3802">
<rect width="42" height="52" fill="white"/>
</clipPath>
</defs>
</svg>
