<svg width="30" height="57" viewBox="0 0 30 57" fill="none" xmlns="http://www.w3.org/2000/svg">
<g clip-path="url(#clip0_2_3788)">
<rect x="5" y="7" width="20" height="24" fill="white"/>
<path d="M18.0699 14.2602C18.0818 14.5688 18.027 14.8763 17.9093 15.1619C17.7917 15.4474 17.6139 15.7043 17.388 15.9149C17.1622 16.1256 16.8936 16.2851 16.6006 16.3826C16.3076 16.4802 15.9969 16.5135 15.6899 16.4802H13.4599C13.2047 16.4483 12.9459 16.4973 12.7199 16.6202L12.6699 16.5602C12.7729 16.2997 12.8172 16.0198 12.7999 15.7402V12.7402C12.8178 12.4704 12.7734 12.2 12.6699 11.9502H12.7199C12.949 12.0637 13.2059 12.1089 13.4599 12.0802H15.6899C15.9938 12.0458 16.3016 12.0769 16.5924 12.1715C16.8833 12.2661 17.1505 12.422 17.376 12.6286C17.6016 12.8351 17.7802 13.0877 17.8999 13.3691C18.0196 13.6506 18.0776 13.9544 18.0699 14.2602Z" fill="#3772FF"/>
<path d="M17 34H12V56H17V34Z" fill="#DEE2EA"/>
<path d="M17 34H12V38H17V34Z" fill="#B0B7C4"/>
<path d="M25.88 0H4.08C2.997 0.00264793 1.95926 0.434725 1.1944 1.20146C0.429535 1.9682 -3.23707e-06 3.00699 0 4.09V30.94C-3.23707e-06 32.023 0.429535 33.0618 1.1944 33.8285C1.95926 34.5953 2.997 35.0273 4.08 35.03H25.88C26.9647 35.03 28.0051 34.5991 28.7721 33.8321C29.5391 33.065 29.97 32.0247 29.97 30.94V4.09C29.97 3.00526 29.5391 1.96495 28.7721 1.19793C28.0051 0.430906 26.9647 0 25.88 0ZM15.77 20H13.46C13.2048 20.0318 12.946 19.9829 12.72 19.86L12.67 19.92C12.7735 20.1699 12.8179 20.4402 12.8 20.71V27.07H8.69V8.54H15.56C19.71 8.54 22.12 10.63 22.12 14.26C22.12 17.89 19.77 20.01 15.77 20.01V20Z" fill="#3772FF"/>
</g>
<defs>
<clipPath id="clip0_2_3788">
<rect width="29.97" height="56.18" fill="white"/>
</clipPath>
</defs>
</svg>
