<svg width="366" height="193" viewBox="0 0 366 193" fill="none" xmlns="http://www.w3.org/2000/svg">
<mask id="path-1-inside-1_2_4104" fill="white">
<path d="M441.465 35.903L416.191 168.423C414.873 175.335 411.186 181.572 405.765 186.058C400.344 190.544 393.528 192.999 386.492 193H30.2336C25.7831 192.999 21.3876 192.015 17.361 190.119C13.3343 188.224 9.7756 185.462 6.93892 182.032C4.10223 178.603 2.05747 174.589 0.950458 170.278C-0.15655 165.967 -0.298487 161.464 0.534801 157.092L25.8093 24.5722C27.1281 17.66 30.8159 11.4243 36.2374 6.93902C41.6589 2.45377 48.4746 -0.000137633 55.5107 5.78978e-09L411.766 0C416.217 0.00118894 420.613 0.984786 424.639 2.88061C428.666 4.77644 432.224 7.53776 435.061 10.9675C437.898 14.3973 439.943 18.411 441.05 22.7222C442.157 27.0333 442.298 31.5357 441.465 35.9081"/>
</mask>
<path d="M416.191 168.423L415.208 168.235V168.236L416.191 168.423ZM386.492 193V194H386.492L386.492 193ZM30.2336 193L30.2333 194H30.2336V193ZM0.534801 157.092L-0.447493 156.905L-0.447518 156.905L0.534801 157.092ZM25.8093 24.5722L24.827 24.3848L24.827 24.3848L25.8093 24.5722ZM55.5107 5.78978e-09L55.5106 1H55.5107V5.78978e-09ZM411.766 0L411.767 -1H411.766V0ZM440.483 35.7157L415.208 168.235L417.173 168.61L442.448 36.0904L440.483 35.7157ZM415.208 168.236C413.934 174.92 410.369 180.95 405.127 185.288L406.402 186.829C412.003 182.194 415.812 175.751 417.173 168.61L415.208 168.236ZM405.127 185.288C399.886 189.626 393.295 191.999 386.492 192L386.492 194C393.761 193.999 400.802 191.463 406.402 186.829L405.127 185.288ZM386.492 192H30.2336V194H386.492V192ZM30.2339 192C25.9305 191.999 21.6804 191.048 17.7869 189.215L16.935 191.024C21.0948 192.983 25.6356 193.999 30.2333 194L30.2339 192ZM17.7869 189.215C13.8934 187.382 10.4524 184.712 7.7095 181.395L6.16833 182.67C9.09881 186.213 12.7752 189.066 16.935 191.024L17.7869 189.215ZM7.7095 181.395C4.96661 178.079 2.98945 174.198 1.91904 170.029L-0.0181205 170.527C1.12548 174.98 3.23784 179.127 6.16833 182.67L7.7095 181.395ZM1.91904 170.029C0.848625 165.86 0.711381 161.507 1.51712 157.279L-0.447518 156.905C-1.30835 161.422 -1.16173 166.073 -0.0181205 170.527L1.91904 170.029ZM1.5171 157.279L26.7916 24.7595L24.827 24.3848L-0.447493 156.905L1.5171 157.279ZM26.7916 24.7596C28.0667 18.076 31.6326 12.0464 36.8748 7.70952L35.5999 6.16852C29.9992 10.8021 26.1894 17.2441 24.827 24.3848L26.7916 24.7596ZM36.8748 7.70952C42.117 3.3726 48.7074 0.999867 55.5106 1L55.5107 -1C48.2419 -1.00014 41.2007 1.53493 35.5999 6.16852L36.8748 7.70952ZM55.5107 1H411.766V-1H55.5107V1ZM411.766 1C416.069 1.00115 420.32 1.95222 424.213 3.78535L425.065 1.97587C420.905 0.0173518 416.364 -0.998772 411.767 -1L411.766 1ZM424.213 3.78535C428.107 5.61848 431.548 8.28849 434.29 11.6049L435.832 10.3302C432.901 6.78703 429.225 3.9344 425.065 1.97587L424.213 3.78535ZM434.29 11.6049C437.033 14.9212 439.011 18.8022 440.081 22.9709L442.018 22.4734C440.875 18.0197 438.762 13.8734 435.832 10.3302L434.29 11.6049ZM440.081 22.9709C441.151 27.1395 441.289 31.4931 440.483 35.7209L442.448 36.0953C443.308 31.5784 443.162 26.9272 442.018 22.4734L440.081 22.9709Z" fill="#FE7B01" fill-opacity="0.24" mask="url(#path-1-inside-1_2_4104)"/>
</svg>
