<svg width="82" height="48" viewBox="0 0 82 48" fill="none" xmlns="http://www.w3.org/2000/svg">
    <mask id="path-1-inside-1_1_598" fill="white">
        <path d="M81.8676 8.92925L75.6097 41.8875C75.2834 43.6067 74.3705 45.1578 73.0283 46.2736C71.686 47.3893 69.9985 47.9998 68.2563 48H7.48578C6.38383 47.9997 5.29553 47.7551 4.29854 47.2836C3.30154 46.8121 2.42042 46.1253 1.71806 45.2723C1.0157 44.4193 0.509425 43.4211 0.235332 42.3489C-0.0387615 41.2767 -0.0739047 40.1569 0.132416 39.0695L6.39033 6.11121C6.71686 4.39213 7.62995 2.84127 8.9723 1.72577C10.3147 0.610264 12.0022 -3.423e-05 13.7443 1.43995e-09H74.5142C75.6162 0.000295695 76.7045 0.244921 77.7015 0.716422C78.6985 1.18792 79.5796 1.87468 80.2819 2.72768C80.9843 3.58068 81.4906 4.5789 81.7647 5.65111C82.0388 6.72332 82.0739 7.84309 81.8676 8.93051"/>
    </mask>
    <path d="M75.6097 41.8875L74.6272 41.701L74.6272 41.7011L75.6097 41.8875ZM68.2563 48V49H68.2564L68.2563 48ZM7.48578 48L7.48551 49H7.48578V48ZM0.132416 39.0695L-0.850031 38.8829L-0.850057 38.8831L0.132416 39.0695ZM6.39033 6.11121L5.4079 5.92461L5.40789 5.92467L6.39033 6.11121ZM13.7443 1.43995e-09L13.7443 1H13.7443V1.43995e-09ZM74.5142 1.43995e-09L74.5145 -1H74.5142V1.43995e-09ZM80.8851 8.74271L74.6272 41.701L76.5921 42.0741L82.85 9.11579L80.8851 8.74271ZM74.6272 41.7011C74.3442 43.1928 73.5522 44.5377 72.389 45.5045L73.6675 47.0426C75.1888 45.778 76.2227 44.0207 76.5922 42.074L74.6272 41.7011ZM72.389 45.5045C71.226 46.4713 69.7644 46.9999 68.2562 47L68.2564 49C70.2325 48.9998 72.1461 48.3072 73.6675 47.0426L72.389 45.5045ZM68.2563 47H7.48578V49H68.2563V47ZM7.48605 47C6.53198 46.9997 5.58959 46.788 4.72606 46.3796L3.87102 48.1876C5.00148 48.7222 6.23568 48.9997 7.48551 49L7.48605 47ZM4.72606 46.3796C3.86251 45.9712 3.09893 45.3762 2.49004 44.6367L0.946081 45.908C1.74191 46.8745 2.74057 47.653 3.87102 48.1876L4.72606 46.3796ZM2.49004 44.6367C1.88114 43.8972 1.44198 43.0315 1.20418 42.1012L-0.733513 42.5966C-0.423128 43.8107 0.150268 44.9415 0.946081 45.908L2.49004 44.6367ZM1.20418 42.1012C0.966374 41.171 0.935876 40.1994 1.11489 39.2559L-0.850057 38.8831C-1.08369 40.1144 -1.0439 41.3824 -0.733513 42.5966L1.20418 42.1012ZM1.11486 39.256L7.37278 6.29775L5.40789 5.92467L-0.850031 38.8829L1.11486 39.256ZM7.37277 6.29782C7.65608 4.80624 8.44817 3.46154 9.61143 2.49487L8.33318 0.956667C6.81173 2.221 5.77764 3.97803 5.4079 5.92461L7.37277 6.29782ZM9.61143 2.49487C10.7746 1.52828 12.2362 0.99997 13.7443 1L13.7443 -1C11.7683 -1.00004 9.85472 -0.307749 8.33318 0.956667L9.61143 2.49487ZM13.7443 1H74.5142V-1H13.7443V1ZM74.514 1C75.468 1.00026 76.4104 1.21204 77.274 1.62043L78.129 -0.187582C76.9986 -0.722201 75.7643 -0.999665 74.5145 -1L74.514 1ZM77.274 1.62043C78.1375 2.02882 78.9011 2.62383 79.51 3.36332L81.0539 2.09203C80.2581 1.12552 79.2595 0.34703 78.129 -0.187582L77.274 1.62043ZM79.51 3.36332C80.1189 4.10282 80.558 4.96853 80.7958 5.89878L82.7335 5.40344C82.4231 4.18926 81.8497 3.05853 81.0539 2.09203L79.51 3.36332ZM80.7958 5.89878C81.0336 6.82902 81.0641 7.8006 80.8851 8.7441L82.8501 9.11692C83.0837 7.88557 83.0439 6.61761 82.7335 5.40344L80.7958 5.89878Z" fill="#DEDEDE" mask="url(#path-1-inside-1_1_598)"/>
</svg>
