<svg width="72" height="56" viewBox="0 0 72 56" fill="none" xmlns="http://www.w3.org/2000/svg">
    <path d="M71.8448 10.4175L64.5117 48.8688C64.1294 50.8745 63.0596 52.6841 61.4868 53.9858C59.9139 55.2875 57.9364 55.9998 55.8949 56H8.77199C7.4807 55.9997 6.20541 55.7143 5.03712 55.1642C3.86882 54.6141 2.8363 53.8129 2.01326 52.8177C1.19022 51.8225 0.596954 50.658 0.275766 49.407C-0.0454215 48.1561 -0.0866031 46.8497 0.155167 45.5811L7.48832 7.12975C7.87095 5.12416 8.94093 3.31482 10.5139 2.0134C12.0869 0.711975 14.0645 -3.9935e-05 16.1059 1.67994e-09H63.228C64.5193 0.000344978 65.7946 0.285741 66.9629 0.835826C68.1312 1.38591 69.1637 2.18712 69.9868 3.18229C70.8098 4.17746 71.4031 5.34205 71.7242 6.59296C72.0454 7.84387 72.0866 9.15027 71.8448 10.4189" fill="#FE7B01"/>
    <path d="M29.8667 20.4267L41.1867 16.6534C46.2667 14.96 49.0267 17.7334 47.3467 22.8134L43.5733 34.1333C41.04 41.7467 36.88 41.7467 34.3467 34.1333L33.2267 30.7733L29.8667 29.6533C22.2533 27.12 22.2533 22.9734 29.8667 20.4267Z" stroke="white" stroke-width="1.5" stroke-linecap="round" stroke-linejoin="round"/>
    <path d="M33.48 30.2001L38.2533 25.4135" stroke="white" stroke-width="1.5" stroke-linecap="round" stroke-linejoin="round"/>
</svg>
