<svg width="35" height="35" viewBox="0 0 35 35" fill="none" xmlns="http://www.w3.org/2000/svg">
    <path d="M34.6865 17.7065C34.6892 19.1075 34.5148 20.5033 34.1673 21.8605C33.1543 25.881 30.707 29.3927 27.286 31.7347C23.865 34.0767 19.7061 35.0876 15.5919 34.5772C11.4777 34.0667 7.69182 32.0701 4.94671 28.9631C2.2016 25.856 0.686523 21.8528 0.686523 17.7065C0.686523 13.5603 2.2016 9.55705 4.94671 6.45001C7.69182 3.34296 11.4777 1.34635 15.5919 0.835904C19.7061 0.325459 23.865 1.33636 27.286 3.67839C30.707 6.02041 33.1543 9.53209 34.1673 13.5526C34.513 14.9102 34.6875 16.3057 34.6865 17.7065Z" fill="#FFE8D3"/>
    <path d="M27.806 23.2911C27.7014 21.9463 27.6178 20.8555 27.5969 20.5379C27.5924 20.5098 27.5924 20.4812 27.5969 20.4532C27.3887 18.683 26.996 16.9402 26.4256 15.2537C26.3355 14.9977 26.346 14.7164 26.455 14.468C26.564 14.2197 26.7632 14.0232 27.0113 13.9194C28.5799 13.284 29.3641 11.6956 27.9419 10.2237C26.7393 8.98472 25.2962 9.99071 24.5538 10.7002C24.3962 10.8454 24.1987 10.9384 23.9875 10.9668C23.7763 10.9952 23.5616 10.9576 23.3721 10.859L20.7055 9.41888C20.6943 9.41394 20.6848 9.4058 20.6781 9.39545C20.6714 9.38511 20.6678 9.37301 20.6678 9.36065C20.6678 9.34828 20.6714 9.33619 20.6781 9.32584C20.6848 9.3155 20.6943 9.30732 20.7055 9.30238C21.1238 9.15413 22.2741 8.68819 21.3434 8.14813C20.9546 8.00523 20.5356 7.96817 20.1282 8.04064C19.7208 8.11312 19.3393 8.2926 19.0219 8.56113C19.0094 8.57237 18.993 8.57812 18.9763 8.57713C18.9596 8.57614 18.9441 8.56847 18.933 8.55583C18.9219 8.5432 18.9162 8.5266 18.9172 8.50972C18.9182 8.49284 18.9257 8.47707 18.9382 8.46583C19.2833 7.95754 19.6912 7.07859 18.6454 6.76091C17.4219 6.40086 16.1461 7.92577 15.7278 8.4976C15.7278 8.4976 15.6128 8.49758 15.6128 8.44463C15.6128 8.08459 15.6128 7.38568 15.0376 7.44922C14.0547 7.51275 13.7619 8.5082 13.605 9.33418C13.5668 9.52113 13.4878 9.69704 13.3738 9.84911C13.2598 10.0012 13.1137 10.1255 12.9462 10.2131C12.5777 10.4139 12.2277 10.6478 11.9004 10.912C11.6911 11.0729 11.4296 11.1481 11.168 11.1225C10.9064 11.097 10.6638 10.9727 10.4887 10.7743C9.36974 9.47183 7.71749 9.46123 6.96456 10.9332C6.21163 12.4051 7.09009 13.2099 8.37634 13.9194C8.59506 14.0466 8.76098 14.2495 8.84361 14.4908C8.92624 14.7321 8.92001 14.9955 8.82599 15.2325C8.12059 17.673 7.78906 20.2087 7.843 22.7511C7.83801 22.8322 7.83801 22.9135 7.843 22.9946C7.843 23.217 7.843 23.4394 7.843 23.6512C7.93712 25.1019 8.04169 26.5421 8.10443 27.9929C8.16718 29.4436 8.22988 30.6402 8.324 31.9004C11.3292 33.8818 14.8733 34.8569 18.4555 34.6877C22.0377 34.5186 25.4769 33.2139 28.287 30.9579C28.287 30.4284 28.287 29.9731 28.2138 29.6342C28.1929 28.5012 28.0256 25.5361 27.806 23.2911ZM16.9513 18.1552C16.9277 18.373 16.8256 18.5744 16.6644 18.7207C16.5033 18.8669 16.2945 18.9478 16.0781 18.9478C15.8617 18.9478 15.653 18.8669 15.4918 18.7207C15.3307 18.5744 15.2285 18.373 15.2049 18.1552V18.1023C15.2278 17.9899 15.2257 17.8738 15.1987 17.7623C15.1717 17.6509 15.1205 17.5469 15.0489 17.458C14.9773 17.369 14.8871 17.2974 14.7848 17.2481C14.6824 17.1989 14.5706 17.1733 14.4573 17.1733C14.344 17.1733 14.2321 17.1989 14.1297 17.2481C14.0274 17.2974 13.9371 17.369 13.8655 17.458C13.7939 17.5469 13.7428 17.6509 13.7158 17.7623C13.6888 17.8738 13.6867 17.9899 13.7095 18.1023V18.1552C13.7095 18.3883 13.6181 18.6119 13.4553 18.7767C13.2925 18.9415 13.0718 19.0341 12.8416 19.0341C12.6114 19.0341 12.3906 18.9415 12.2279 18.7767C12.0651 18.6119 11.9737 18.3883 11.9737 18.1552V18.1023C11.9737 17.4339 12.2359 16.7928 12.7026 16.3202C13.1694 15.8475 13.8024 15.582 14.4625 15.582C15.1226 15.582 15.7556 15.8475 16.2223 16.3202C16.6891 16.7928 16.9513 17.4339 16.9513 18.1023V18.1552ZM23.4453 18.1552C23.4488 18.3322 23.3994 18.5062 23.3037 18.6543C23.2079 18.8024 23.0702 18.9178 22.9086 18.9854C22.747 19.0529 22.569 19.0694 22.3979 19.0328C22.2268 18.9961 22.0707 18.908 21.9499 18.78C21.8695 18.6977 21.806 18.6002 21.7629 18.493C21.7198 18.3857 21.6981 18.271 21.6989 18.1552V18.1023C21.7218 17.9899 21.7197 17.8738 21.6927 17.7623C21.6657 17.6509 21.6145 17.5469 21.5429 17.458C21.4714 17.369 21.3811 17.2974 21.2788 17.2481C21.1764 17.1989 21.0645 17.1733 20.9512 17.1733C20.8379 17.1733 20.726 17.1989 20.6237 17.2481C20.5213 17.2974 20.4311 17.369 20.3595 17.458C20.2879 17.5469 20.2368 17.6509 20.2098 17.7623C20.1828 17.8738 20.1807 17.9899 20.2036 18.1023V18.1552C20.2036 18.3893 20.1125 18.614 19.95 18.7805C19.7875 18.947 19.5667 19.0419 19.3356 19.0447C19.1003 19.043 18.8751 18.948 18.7082 18.78C18.6278 18.6977 18.5642 18.6002 18.5211 18.493C18.478 18.3857 18.4563 18.271 18.4571 18.1552V18.1023C18.4982 17.4607 18.7789 16.859 19.2421 16.4193C19.7053 15.9797 20.3163 15.735 20.9512 15.735C21.5861 15.735 22.1972 15.9797 22.6604 16.4193C23.1236 16.859 23.4042 17.4607 23.4453 18.1023V18.1552Z" fill="#FE7B01"/>
</svg>
