<svg width="82" height="48" viewBox="0 0 82 48" fill="none" xmlns="http://www.w3.org/2000/svg">
    <path d="M81.8676 8.92925L75.6097 41.8875C75.2834 43.6067 74.3705 45.1578 73.0283 46.2736C71.686 47.3893 69.9985 47.9998 68.2563 48H7.48578C6.38383 47.9997 5.29553 47.7551 4.29854 47.2836C3.30154 46.8121 2.42042 46.1253 1.71806 45.2723C1.0157 44.4193 0.509425 43.4211 0.235332 42.3489C-0.0387615 41.2767 -0.0739047 40.1569 0.132416 39.0695L6.39033 6.11121C6.71686 4.39213 7.62995 2.84127 8.9723 1.72577C10.3147 0.610264 12.0022 -3.423e-05 13.7443 1.43995e-09H74.5142C75.6162 0.000295695 76.7045 0.244921 77.7015 0.716422C78.6985 1.18792 79.5796 1.87468 80.2819 2.72768C80.9843 3.58068 81.4906 4.5789 81.7647 5.65111C82.0388 6.72332 82.0739 7.84309 81.8676 8.93051" fill="#FE7B01"/>
</svg>
