<svg width="85" height="48" viewBox="0 0 85 48" fill="none" xmlns="http://www.w3.org/2000/svg">
    <g clip-path="url(#clip0_2_5)">
        <path d="M84.8671 8.92925L78.5861 41.8875C78.2587 43.6067 77.3424 45.1578 75.9952 46.2735C74.648 47.3893 72.9542 47.9998 71.2056 48H-4.4866C-5.59262 47.9997 -6.68493 47.7551 -7.6856 47.2836C-8.68628 46.8121 -9.57065 46.1253 -10.2756 45.2723C-10.9805 44.4193 -11.4887 43.4211 -11.7638 42.3489C-12.0389 41.2767 -12.0742 40.1569 -11.8671 39.0695L-5.58609 6.11121C-5.25836 4.39214 -4.3419 2.84127 -2.99459 1.72577C-1.64729 0.610264 0.0465063 -3.423e-05 1.79504 1.43995e-09H77.4866C78.5926 0.000295695 79.6849 0.244921 80.6856 0.716422C81.6863 1.18792 82.5706 1.87468 83.2756 2.72768C83.9805 3.58068 84.4887 4.5789 84.7638 5.65111C85.0389 6.72332 85.0742 7.84309 84.8671 8.93051" fill="white"/>
        <path d="M42.57 17.9299L36.5 23.9999L42.57 30.0699" stroke="#292D32" stroke-width="1.5" stroke-miterlimit="10" stroke-linecap="round" stroke-linejoin="round"/>
        <path d="M53.5 24H36.67" stroke="#292D32" stroke-width="1.5" stroke-miterlimit="10" stroke-linecap="round" stroke-linejoin="round"/>
    </g>
    <defs>
        <clipPath id="clip0_2_5">
            <rect width="85" height="48" fill="white"/>
        </clipPath>
    </defs>
</svg>
