<svg width="48" height="48" viewBox="0 0 48 48" fill="none" xmlns="http://www.w3.org/2000/svg">
<rect width="48" height="48" rx="16" fill="#3772FF"/>
<path d="M14.5 22C15.1667 19.6667 18.3 15 25.5 15C30.5 15 33.3482 18.5 33.3482 22M14.5 22H33.3482M14.5 22C15.8193 24.3747 18.1132 25.2177 20.5 25.4109M33.3482 22C33.3482 25.0414 31.5 27 31 27C30.7051 27 30.4102 26.1305 29.5 25.5196M19 19.5C21 17.8333 25.2 15.8 30 19M29.5 25.5196C28.8668 25.0947 27.9359 24.7949 26.5 25C24.847 25.2361 22.6363 25.5838 20.5 25.4109M29.5 25.5196L25.5 29.5M25.5 29.5L20.5 25.4109M25.5 29.5L24.5 34" stroke="white" stroke-width="1.5" stroke-linecap="round" stroke-linejoin="round"/>
</svg>
