<svg width="40" height="39" viewBox="0 0 40 39" fill="none" xmlns="http://www.w3.org/2000/svg">
    <path d="M36.9943 11.8369C38.4181 11.3027 39.4672 10.3928 39.8419 9.33264C40.2166 8.28085 39.9418 7.03705 38.6512 5.80996C37.5854 4.79155 36.4198 4.69973 35.3456 5.00859C34.2715 5.3091 33.289 6.01865 32.6229 6.60298C32.3065 6.8701 31.9235 7.03705 31.5155 7.08714C31.4239 7.09549 31.3407 7.10383 31.2491 7.10383C30.9327 7.10383 30.6163 7.02871 30.3248 6.89514L25.4289 4.50773H25.3207L25.2957 4.41591C25.2957 4.41591 25.2874 4.35747 25.2957 4.32408C25.2874 4.29904 25.2874 4.274 25.2957 4.24896V4.20722L25.3373 4.17383L25.3873 4.14044L25.4039 4.12374H25.4289C25.6204 4.05696 25.8952 3.96514 26.17 3.83992C26.4447 3.72306 26.7112 3.5728 26.9027 3.4142C27.1025 3.24724 27.1858 3.08864 27.1608 2.94673C27.1358 2.79647 26.9943 2.60448 26.578 2.37909C25.8869 2.02849 25.1042 2.04519 24.3631 2.23718C23.6138 2.42918 22.9227 2.77978 22.4397 3.07194H22.4314L22.4148 3.08864C22.4148 3.08864 22.3481 3.09699 22.3148 3.09699C22.2732 3.10533 22.2316 3.09699 22.1983 3.08864L22.1483 3.0636L22.1233 3.02186C22.1233 3.02186 22.1067 2.93838 22.115 2.90499C22.115 2.8716 22.115 2.83821 22.1233 2.80482V2.78812L22.14 2.77143C22.4564 2.3457 22.7811 1.78641 22.8061 1.28556C22.8228 1.03513 22.7561 0.801395 22.5896 0.601053C22.4231 0.400711 22.14 0.217063 21.6737 0.0918492C20.5996 -0.200317 19.4922 0.267149 18.543 0.943305C17.5938 1.61946 16.8277 2.48761 16.4531 2.96342L16.4364 2.98012H16.4198L16.3531 3.02186H16.3448L16.3282 3.03855C16.3282 3.03855 16.2532 3.0469 16.2199 3.03855C16.1949 3.0469 16.17 3.0469 16.145 3.03855H16.0784L16.0534 2.95508C16.0534 2.95508 16.0451 2.87995 16.0534 2.83821C16.0784 2.52935 16.07 2.12866 15.9451 1.81146C15.8869 1.65285 15.7953 1.52764 15.6621 1.43581C15.5372 1.34399 15.3623 1.28556 15.1208 1.30225C14.2715 1.34399 13.7137 1.76137 13.339 2.3457C12.956 2.93003 12.7478 3.67297 12.5979 4.34913C12.5313 4.68303 12.3731 5.00024 12.1566 5.26736C11.9318 5.54283 11.6487 5.76822 11.324 5.92682C10.6829 6.25238 10.075 6.63637 9.50885 7.07879H9.50052C9.09253 7.3793 8.58462 7.52121 8.07671 7.47113C7.5688 7.42939 7.09419 7.20401 6.74448 6.83671C5.74532 5.73483 4.50468 5.20058 3.36397 5.23397C2.22325 5.26736 1.1658 5.86839 0.491361 7.08714C0.158305 7.70486 0.00843008 8.23911 0.00010369 8.70657C-0.0082227 9.17404 0.133326 9.59142 0.383118 9.96706C0.882702 10.735 1.84856 11.3528 3.02258 11.9454C3.44723 12.1708 3.77196 12.5381 3.93849 12.9889C4.01343 13.2059 4.04673 13.4397 4.0384 13.6651C4.02175 13.8988 3.97179 14.1242 3.87188 14.3329C3.2474 15.777 2.83108 17.7888 2.54798 20.0092C2.27321 22.2297 2.13166 24.6588 2.07338 26.9377V27.6139C2.07338 27.9144 2.09003 28.2149 2.11501 28.5154C2.15664 29.1332 2.19827 29.7425 2.24823 30.3603C2.37313 32.18 2.50635 34.0082 2.58129 35.8446C2.63124 36.8964 2.68953 37.9482 2.74781 39H39.2008C39.1841 38.8581 39.1758 38.7329 39.1758 38.616C39.1009 36.4957 38.7012 31.5206 38.3848 27.7308C38.2932 26.6122 38.2099 25.5854 38.135 24.7757C38.0684 23.9576 38.0184 23.3566 37.9934 23.0895V22.9559C37.6188 19.9758 36.9027 17.0458 35.8536 14.2327C35.7703 14.0073 35.7287 13.7652 35.737 13.5231C35.737 13.2727 35.8119 13.039 35.9118 12.8219C36.1367 12.3628 36.528 12.0122 36.9943 11.8369ZM9.5588 19.4082C9.5588 16.6952 11.2657 14.4414 13.4306 14.4414C15.5954 14.4414 17.294 16.6952 17.294 19.4082C17.294 22.1212 15.5871 24.375 13.4306 24.375C11.274 24.375 9.5588 22.1212 9.5588 19.4082ZM27.1275 33.2068C27.1275 33.4906 27.0692 33.7661 26.9693 34.0248C26.8611 34.2836 26.7029 34.5257 26.503 34.726C26.3032 34.918 26.07 35.0766 25.8119 35.1852C25.5538 35.2937 25.279 35.3521 25.0043 35.3521C24.7295 35.3521 24.4464 35.2937 24.1883 35.1852C23.9302 35.0766 23.697 34.918 23.4972 34.726C23.2974 34.5257 23.1392 34.2836 23.0392 34.0248C22.931 33.7661 22.8727 33.4906 22.8727 33.2068V33.14C22.8727 33.14 22.881 33.0899 22.8727 33.0649C22.9227 32.7978 22.9143 32.5139 22.8394 32.2552C22.7728 31.988 22.6479 31.746 22.473 31.5373C22.2982 31.3286 22.0817 31.1533 21.8402 31.0364C21.5904 30.9279 21.324 30.8611 21.0576 30.8611C20.7911 30.8611 20.5163 30.9279 20.2665 31.0364C20.0251 31.1533 19.8086 31.3286 19.6337 31.5373C19.4589 31.746 19.334 31.988 19.2674 32.2552C19.1924 32.5139 19.1841 32.7978 19.2341 33.0649V33.2068C19.2341 33.4906 19.1758 33.7661 19.0759 34.0248C18.9676 34.2836 18.8094 34.5257 18.6096 34.726C18.4098 34.918 18.1766 35.0766 17.9185 35.1852C17.6604 35.2937 17.3856 35.3521 17.1108 35.3521C16.8361 35.3521 16.553 35.2937 16.2949 35.1852C16.0367 35.0766 15.8036 34.918 15.6038 34.726C15.4039 34.5257 15.2457 34.2836 15.1458 34.0248C15.0376 33.7661 14.9793 33.4906 14.9793 33.2068V33.0649C15.0376 31.4788 15.7037 29.9679 16.8361 28.866C17.9685 27.7642 19.4839 27.1464 21.0576 27.1464C22.6312 27.1464 24.1466 27.7642 25.279 28.866C26.4114 29.9679 27.0775 31.4788 27.1358 33.0649V33.2068H27.1275ZM26.8694 24.375C24.7045 24.375 23.0059 22.1212 23.0059 19.4082C23.0059 16.6952 24.7045 14.4414 26.8694 14.4414C29.0342 14.4414 30.7328 16.6952 30.7328 19.4082C30.7328 22.1212 29.0259 24.375 26.8694 24.375Z" fill="white"/>
</svg>
