<svg width="73" height="86" viewBox="0 0 73 86" fill="none" xmlns="http://www.w3.org/2000/svg">
    <g filter="url(#filter0_d_3976_2212)">
        <path d="M42.8846 72.7497L42.8846 72.6593C42.8846 72.0262 43.1401 68.3183 48.7327 63.6155C49.6839 62.8553 50.6888 62.1652 51.7394 61.5505C52.5817 61.0278 53.3947 60.4592 54.1749 59.8473C57.9021 57.0059 60.9023 53.3169 62.9281 49.0845C64.9538 44.8521 65.9471 40.1974 65.8261 35.5045C65.7078 30.4752 64.3196 25.558 61.7912 21.2127C59.2629 16.8673 55.6768 13.2356 51.3684 10.6571C47.0599 8.07863 42.1697 6.6375 37.1549 6.46846C32.14 6.29943 27.1643 7.40796 22.6928 9.6905C18.2214 11.973 14.4002 15.3551 11.5864 19.5204C8.77261 23.6857 7.05817 28.4983 6.6033 33.5083C6.14843 38.5184 6.968 43.5622 8.9854 48.1684C11.0028 52.7746 14.1521 56.7928 18.139 59.8473C18.9208 60.4502 19.7176 60.9928 20.5444 61.5204C21.5288 62.097 22.4686 62.7469 23.3557 63.4647C29.6699 68.7252 29.3692 72.7497 29.3692 72.7497C29.3074 73.6785 29.4365 74.61 29.7486 75.4867C30.0606 76.3634 30.5489 77.1665 31.1831 77.8463C31.8174 78.526 32.5841 79.0679 33.4358 79.4384C34.2875 79.8089 35.206 80 36.1344 80C37.0628 80 37.9813 79.8089 38.833 79.4384C39.6847 79.0679 40.4515 78.526 41.0858 77.8463C41.72 77.1665 42.2083 76.3634 42.5203 75.4867C42.8323 74.61 42.9614 73.6785 42.8996 72.7497L42.8846 72.7497ZM30.0758 60.1186C24.2554 58.6481 19.1717 55.0956 15.7812 50.1297C12.3908 45.1637 10.9274 39.1267 11.6663 33.1545C12.4053 27.1823 15.2956 21.6867 19.7936 17.7019C24.2916 13.7171 30.087 11.5179 36.0893 11.5179C42.0916 11.5179 47.887 13.7171 52.385 17.7019C56.883 21.6867 59.7734 27.1823 60.5124 33.1545C61.2513 39.1267 59.7879 45.1637 56.3974 50.1297C53.0069 55.0956 47.9232 58.6481 42.1028 60.1186C38.1555 61.1159 34.0231 61.1159 30.0758 60.1186Z" fill="#FE7B01"/>
    </g>
    <path d="M18.4614 53.9668L18.4604 53.9658C16.9952 52.5063 15.7204 50.8673 14.6664 49.0879L14.6654 49.0863C11.5247 43.8297 10.4131 37.6067 11.5399 31.5884C12.6667 25.57 15.9541 20.1712 20.7836 16.4078C25.6132 12.6444 31.6518 10.7759 37.7633 11.1539C43.8747 11.5318 49.6375 14.1303 53.9675 18.4602C58.2974 22.7901 60.8958 28.553 61.2738 34.6644C61.6518 40.7758 59.7832 46.8145 56.0198 51.644C52.2564 56.4735 46.8576 59.7609 40.8393 60.8877C34.8209 62.0145 28.5979 60.903 23.3414 57.7622L23.3403 57.7616C21.562 56.7052 19.9229 55.4304 18.4614 53.9668Z" fill="#FE8B20" stroke="#FEB067"/>
    <path d="M60.6455 36.1289C60.6494 38.1493 60.3979 40.1621 59.8968 42.1194C58.4359 47.9175 54.9066 52.9818 49.973 56.3593C45.0395 59.7368 39.0419 61.1946 33.1087 60.4585C27.1755 59.7224 21.7158 56.843 17.757 52.3623C13.7982 47.8815 11.6133 42.1083 11.6133 36.1289C11.6133 30.1496 13.7982 24.3763 17.757 19.8956C21.7158 15.4148 27.1755 12.5355 33.1087 11.7993C39.0419 11.0632 45.0395 12.5211 49.973 15.8986C54.9066 19.2761 58.4359 24.3403 59.8968 30.1384C60.3954 32.0962 60.6469 34.1087 60.6455 36.1289Z" fill="#FE7B01"/>
    <g clip-path="url(#clip0_3976_2212)">
        <path d="M25.9692 47.7333C25.1768 47.7333 24.4021 47.4958 23.7432 47.0509C23.0843 46.6059 22.5708 45.9736 22.2676 45.2337C21.9645 44.4938 21.8853 43.6798 22.04 42.8944C22.1948 42.1091 22.5766 41.3877 23.1371 40.8217C23.6976 40.2556 24.4117 39.8702 25.189 39.7142C25.9663 39.5583 26.7718 39.6388 27.5039 39.9455C28.2359 40.2522 28.8614 40.7715 29.3014 41.4375C29.7414 42.1035 29.976 42.8864 29.9755 43.6872C29.9744 44.7603 29.5519 45.7891 28.8007 46.5477C28.0496 47.3063 27.0312 47.7327 25.9692 47.7333ZM25.9692 41.3829C25.5182 41.3829 25.0773 41.5181 24.7023 41.7712C24.3273 42.0244 24.035 42.3843 23.8624 42.8054C23.6898 43.2264 23.6447 43.6897 23.7326 44.1367C23.8206 44.5837 24.0378 44.9943 24.3568 45.3165C24.6757 45.6388 25.082 45.8583 25.5243 45.9472C25.9667 46.0361 26.4252 45.9904 26.8419 45.816C27.2586 45.6416 27.6147 45.3463 27.8653 44.9674C28.1159 44.5884 28.2496 44.1429 28.2496 43.6872C28.2473 43.0776 28.0061 42.4937 27.5787 42.0634C27.1512 41.6332 26.5725 41.3916 25.9692 41.3916V41.3829Z" fill="white"/>
        <path d="M47.6354 47.7333C46.8429 47.7337 46.068 47.4966 45.4088 47.0519C44.7497 46.6073 44.2358 45.975 43.9323 45.2352C43.6288 44.4954 43.5493 43.6812 43.7038 42.8958C43.8583 42.1103 44.2399 41.3887 44.8004 40.8224C45.3608 40.2561 46.0749 39.8705 46.8522 39.7144C47.6296 39.5583 48.4353 39.6386 49.1674 39.9453C49.8996 40.252 50.5252 40.7712 50.9653 41.4373C51.4054 42.1033 51.64 42.8863 51.6396 43.6872C51.6385 44.7599 51.2162 45.7884 50.4655 46.5469C49.7149 47.3055 48.697 47.7321 47.6354 47.7333ZM47.6354 41.3829C47.1843 41.3825 46.7432 41.5173 46.3679 41.7702C45.9926 42.0231 45.7 42.3828 45.5271 42.8039C45.3542 43.2249 45.3087 43.6882 45.3965 44.1354C45.4842 44.5825 45.7012 44.9933 46.02 45.3158C46.3389 45.6382 46.7452 45.8579 47.1876 45.947C47.63 46.0361 48.0886 45.9906 48.5055 45.8162C48.9223 45.6419 49.2785 45.3466 49.5292 44.9676C49.7799 44.5886 49.9137 44.143 49.9137 43.6872C49.9114 43.0779 49.6704 42.4944 49.2435 42.0642C48.8165 41.634 48.2384 41.3922 47.6354 41.3916V41.3829Z" fill="white"/>
        <path d="M46.9549 38.8255C46.3797 38.9045 45.8238 39.09 45.3152 39.3726L40.433 26.5106C40.4057 26.4375 40.3571 26.3745 40.2934 26.3301C40.2298 26.2857 40.1543 26.262 40.077 26.2621H35.7082C35.489 26.2655 35.2763 26.187 35.1107 26.0418C34.9451 25.8967 34.8383 25.6949 34.8108 25.4751C34.799 25.3536 34.8126 25.2311 34.8506 25.1152C34.8887 24.9994 34.9504 24.893 35.0317 24.8028C35.113 24.7126 35.2122 24.6406 35.3228 24.5916C35.4334 24.5425 35.553 24.5175 35.6737 24.5181H40.9335C41.1083 24.5179 41.2791 24.5714 41.4232 24.6714C41.5672 24.7714 41.6779 24.9134 41.7404 25.0783L46.9549 38.8255Z" fill="white"/>
        <path d="M42.7695 43.6957C42.769 43.9882 42.795 44.2801 42.8472 44.5677H30.7656C30.8692 43.9911 30.8692 43.4004 30.7656 42.8237H42.8472C42.795 43.1114 42.769 43.4033 42.7695 43.6957Z" fill="white"/>
    </g>
    <defs>
        <filter id="filter0_d_3976_2212" x="2.48047" y="4.45166" width="67.3555" height="81.5483" filterUnits="userSpaceOnUse" color-interpolation-filters="sRGB">
            <feFlood flood-opacity="0" result="BackgroundImageFix"/>
            <feColorMatrix in="SourceAlpha" type="matrix" values="0 0 0 0 0 0 0 0 0 0 0 0 0 0 0 0 0 0 127 0" result="hardAlpha"/>
            <feOffset dy="2"/>
            <feGaussianBlur stdDeviation="2"/>
            <feComposite in2="hardAlpha" operator="out"/>
            <feColorMatrix type="matrix" values="0 0 0 0 0 0 0 0 0 0 0 0 0 0 0 0 0 0 0.08 0"/>
            <feBlend mode="normal" in2="BackgroundImageFix" result="effect1_dropShadow_3976_2212"/>
            <feBlend mode="normal" in="SourceGraphic" in2="effect1_dropShadow_3976_2212" result="shape"/>
        </filter>
        <clipPath id="clip0_3976_2212">
            <rect width="29.6774" height="23.2258" fill="white" transform="translate(21.9648 24.5161)"/>
        </clipPath>
    </defs>
</svg>
