<svg width="40" height="40" viewBox="0 0 40 40" fill="none" xmlns="http://www.w3.org/2000/svg">
    <g filter="url(#filter0_d_315_7690)">
        <path d="M36 18C36.0025 19.3186 35.8384 20.6322 35.5113 21.9096C34.5579 25.6936 32.2546 28.9987 29.0348 31.203C25.815 33.4072 21.9008 34.3587 18.0286 33.8783C14.1564 33.3978 10.5932 31.5187 8.00959 28.5944C5.42595 25.6701 4 21.9023 4 18C4 14.0977 5.42595 10.3299 8.00959 7.40561C10.5932 4.48133 14.1564 2.60217 18.0286 2.12175C21.9008 1.64133 25.815 2.59277 29.0348 4.79703C32.2546 7.00129 34.5579 10.3064 35.5113 14.0904C35.8367 15.3681 36.0009 16.6815 36 18Z" fill="white"/>
        <path d="M33 18C33.0021 19.0714 32.8687 20.1387 32.603 21.1765C31.8283 24.2511 29.9568 26.9365 27.3408 28.7274C24.7247 30.5184 21.5444 31.2914 18.3982 30.9011C15.2521 30.5107 12.357 28.9839 10.2578 26.6079C8.15859 24.232 7 21.1706 7 18C7 14.8294 8.15859 11.768 10.2578 9.39206C12.357 7.01608 15.2521 5.48926 18.3982 5.09892C21.5444 4.70858 24.7247 5.48163 27.3408 7.27259C29.9568 9.06355 31.8283 11.7489 32.603 14.8235C32.8673 15.8616 33.0007 16.9287 33 18Z" fill="#FFE8D3"/>
        <g clip-path="url(#clip0_315_7690)">
            <path d="M14.023 23.9957C13.6224 23.9957 13.2309 23.873 12.8979 23.6431C12.5649 23.4133 12.3053 23.0865 12.1521 22.7043C11.9989 22.322 11.9588 21.9014 12.037 21.4956C12.1153 21.0899 12.3082 20.7172 12.5915 20.4247C12.8748 20.1322 13.2357 19.9331 13.6286 19.8526C14.0215 19.772 14.4287 19.8136 14.7986 19.972C15.1686 20.1305 15.4848 20.3988 15.7072 20.7429C15.9296 21.087 16.0481 21.4915 16.0479 21.9052C16.0473 22.4597 15.8338 22.9912 15.4541 23.3832C15.0745 23.7751 14.5598 23.9954 14.023 23.9957ZM14.023 20.7147C13.795 20.7147 13.5722 20.7845 13.3826 20.9153C13.1931 21.0462 13.0454 21.2321 12.9581 21.4496C12.8709 21.6672 12.8481 21.9066 12.8925 22.1375C12.937 22.3684 13.0468 22.5806 13.208 22.7471C13.3692 22.9136 13.5745 23.027 13.7981 23.0729C14.0217 23.1188 14.2535 23.0953 14.4641 23.0051C14.6747 22.915 14.8547 22.7624 14.9813 22.5667C15.108 22.3709 15.1756 22.1407 15.1756 21.9052C15.1744 21.5903 15.0525 21.2886 14.8364 21.0663C14.6204 20.844 14.3279 20.7192 14.023 20.7192V20.7147Z" fill="#FE7B01"/>
            <path d="M24.9752 23.9957C24.5747 23.9959 24.183 23.8734 23.8498 23.6437C23.5167 23.4139 23.257 23.0873 23.1036 22.7051C22.9502 22.3228 22.91 21.9022 22.9881 21.4963C23.0662 21.0905 23.259 20.7177 23.5423 20.4251C23.8256 20.1325 24.1865 19.9333 24.5794 19.8526C24.9723 19.772 25.3795 19.8135 25.7496 19.9719C26.1196 20.1304 26.4359 20.3986 26.6583 20.7428C26.8807 21.0869 26.9993 21.4915 26.9991 21.9052C26.9985 22.4595 26.7851 22.9909 26.4057 23.3828C26.0263 23.7747 25.5118 23.9951 24.9752 23.9957ZM24.9752 20.7147C24.7472 20.7145 24.5243 20.7841 24.3346 20.9148C24.1449 21.0455 23.997 21.2313 23.9096 21.4489C23.8222 21.6664 23.7992 21.9058 23.8436 22.1368C23.8879 22.3678 23.9976 22.5801 24.1588 22.7467C24.3199 22.9133 24.5253 23.0268 24.7489 23.0728C24.9725 23.1188 25.2043 23.0953 25.415 23.0053C25.6257 22.9152 25.8057 22.7626 25.9324 22.5668C26.0591 22.371 26.1267 22.1407 26.1267 21.9052C26.1256 21.5905 26.0038 21.289 25.788 21.0667C25.5722 20.8444 25.28 20.7195 24.9752 20.7192V20.7147Z" fill="#FE7B01"/>
            <path d="M24.6304 19.3931C24.3397 19.434 24.0587 19.5298 23.8016 19.6758L21.334 13.0305C21.3202 12.9927 21.2956 12.9601 21.2635 12.9372C21.2313 12.9142 21.1931 12.902 21.1541 12.9021H18.9459C18.8351 12.9038 18.7276 12.8633 18.6439 12.7883C18.5602 12.7132 18.5063 12.609 18.4923 12.4954C18.4864 12.4327 18.4932 12.3694 18.5125 12.3095C18.5317 12.2497 18.5629 12.1947 18.604 12.1481C18.6451 12.1015 18.6952 12.0643 18.7511 12.039C18.807 12.0136 18.8674 12.0007 18.9285 12.001H21.587C21.6753 12.0009 21.7616 12.0285 21.8345 12.0802C21.9073 12.1319 21.9632 12.2052 21.9948 12.2904L24.6304 19.3931Z" fill="#FE7B01"/>
            <path d="M22.5144 21.9095C22.5142 22.0606 22.5273 22.2114 22.5537 22.3601H16.4473C16.4996 22.0621 16.4996 21.7569 16.4473 21.459H22.5537C22.5273 21.6076 22.5142 21.7584 22.5144 21.9095Z" fill="#FE7B01"/>
        </g>
    </g>
    <defs>
        <filter id="filter0_d_315_7690" x="0" y="0" width="40" height="40" filterUnits="userSpaceOnUse" color-interpolation-filters="sRGB">
            <feFlood flood-opacity="0" result="BackgroundImageFix"/>
            <feColorMatrix in="SourceAlpha" type="matrix" values="0 0 0 0 0 0 0 0 0 0 0 0 0 0 0 0 0 0 127 0" result="hardAlpha"/>
            <feOffset dy="2"/>
            <feGaussianBlur stdDeviation="2"/>
            <feComposite in2="hardAlpha" operator="out"/>
            <feColorMatrix type="matrix" values="0 0 0 0 0 0 0 0 0 0 0 0 0 0 0 0 0 0 0.08 0"/>
            <feBlend mode="normal" in2="BackgroundImageFix" result="effect1_dropShadow_315_7690"/>
            <feBlend mode="normal" in="SourceGraphic" in2="effect1_dropShadow_315_7690" result="shape"/>
        </filter>
        <clipPath id="clip0_315_7690">
            <rect width="15" height="12" fill="white" transform="translate(12 12)"/>
        </clipPath>
    </defs>
</svg>
