<svg width="16" height="16" viewBox="0 0 16 16" fill="none" xmlns="http://www.w3.org/2000/svg">
    <g filter="url(#filter0_d_0_5)">
        <path d="M12 6C12.0006 6.32965 11.9596 6.65805 11.8778 6.97739C11.6395 7.9234 11.0636 8.74968 10.2587 9.30074C9.45375 9.85181 8.4752 10.0897 7.50715 9.96956C6.5391 9.84946 5.6483 9.37967 5.0024 8.6486C4.35649 7.91753 4 6.97558 4 6C4 5.02442 4.35649 4.08247 5.0024 3.3514C5.6483 2.62033 6.5391 2.15054 7.50715 2.03044C8.4752 1.91033 9.45375 2.14819 10.2587 2.69926C11.0636 3.25032 11.6395 4.0766 11.8778 5.02261C11.9592 5.34203 12.0002 5.67038 12 6Z" fill="white"/>
        <path d="M11.25 6C11.2505 6.26784 11.2172 6.53467 11.1507 6.79413C10.9571 7.56276 10.4892 8.23411 9.83519 8.68185C9.18117 9.12959 8.3861 9.32286 7.59956 9.22527C6.81302 9.12768 6.08925 8.74598 5.56445 8.15199C5.03965 7.55799 4.75 6.79266 4.75 6C4.75 5.20734 5.03965 4.44201 5.56445 3.84802C6.08925 3.25402 6.81302 2.87232 7.59956 2.77473C8.3861 2.67715 9.18117 2.87041 9.83519 3.31815C10.4892 3.76589 10.9571 4.43724 11.1507 5.20587C11.2168 5.4654 11.2502 5.73218 11.25 6Z" fill="#3772FF"/>
        <path d="M8.18423 4.25C8.93923 4.25 9.49923 4.66901 9.49923 5.42817C9.49923 6.17253 8.93923 6.64577 8.14423 6.64577H7.475V7.75H6.75V4.25H8.18423ZM8.18423 5.99014C8.52423 5.99014 8.77423 5.79789 8.77423 5.44789C8.77423 5.09789 8.52423 4.9007 8.18423 4.9007H7.475V5.99014H8.18423Z" fill="white"/>
    </g>
    <defs>
        <filter id="filter0_d_0_5" x="0" y="2.14839e-09" width="16" height="16" filterUnits="userSpaceOnUse" color-interpolation-filters="sRGB">
            <feFlood flood-opacity="0" result="BackgroundImageFix"/>
            <feColorMatrix in="SourceAlpha" type="matrix" values="0 0 0 0 0 0 0 0 0 0 0 0 0 0 0 0 0 0 127 0" result="hardAlpha"/>
            <feOffset dy="2"/>
            <feGaussianBlur stdDeviation="2"/>
            <feComposite in2="hardAlpha" operator="out"/>
            <feColorMatrix type="matrix" values="0 0 0 0 0 0 0 0 0 0 0 0 0 0 0 0 0 0 0.08 0"/>
            <feBlend mode="normal" in2="BackgroundImageFix" result="effect1_dropShadow_0_5"/>
            <feBlend mode="normal" in="SourceGraphic" in2="effect1_dropShadow_0_5" result="shape"/>
        </filter>
    </defs>
</svg>
