<svg width="40" height="40" viewBox="0 0 40 40" fill="none" xmlns="http://www.w3.org/2000/svg">
    <g filter="url(#filter0_d_315_7686)">
        <path d="M36 18C36.0025 19.3186 35.8384 20.6322 35.5113 21.9096C34.5579 25.6936 32.2546 28.9987 29.0348 31.203C25.815 33.4072 21.9008 34.3587 18.0286 33.8783C14.1564 33.3978 10.5932 31.5187 8.00958 28.5944C5.42595 25.6701 4 21.9023 4 18C4 14.0977 5.42595 10.3299 8.00958 7.40561C10.5932 4.48133 14.1564 2.60217 18.0286 2.12175C21.9008 1.64133 25.815 2.59277 29.0348 4.79703C32.2546 7.00129 34.5579 10.3064 35.5113 14.0904C35.8367 15.3681 36.0009 16.6815 36 18Z" fill="white"/>
        <path d="M33 18C33.0021 19.0714 32.8687 20.1387 32.603 21.1765C31.8283 24.2511 29.9568 26.9365 27.3408 28.7274C24.7247 30.5184 21.5444 31.2914 18.3982 30.9011C15.2521 30.5107 12.357 28.9839 10.2578 26.6079C8.15859 24.232 7 21.1706 7 18C7 14.8294 8.15859 11.768 10.2578 9.39206C12.357 7.01608 15.2521 5.48926 18.3982 5.09892C21.5444 4.70858 24.7247 5.48163 27.3408 7.27259C29.9568 9.06355 31.8283 11.7489 32.603 14.8235C32.8673 15.8616 33.0007 16.9287 33 18Z" fill="#FE7B01"/>
        <path d="M27.8196 22.4384C27.7388 21.4298 27.6742 20.6117 27.658 20.3735C27.6545 20.3524 27.6545 20.331 27.658 20.31C27.4971 18.9824 27.1937 17.6752 26.7529 16.4104C26.6833 16.2184 26.6914 16.0074 26.7757 15.8211C26.8599 15.6348 27.0138 15.4875 27.2055 15.4097C28.4176 14.9331 29.0236 13.7418 27.9246 12.6379C26.9954 11.7086 25.8802 12.4631 25.3065 12.9952C25.1848 13.1042 25.0321 13.1739 24.8689 13.1952C24.7058 13.2165 24.5398 13.1883 24.3934 13.1144L22.3328 12.0343C22.3242 12.0305 22.3168 12.0244 22.3117 12.0167C22.3065 12.0089 22.3037 11.9999 22.3037 11.9906C22.3037 11.9813 22.3065 11.9722 22.3117 11.9645C22.3168 11.9567 22.3242 11.9506 22.3328 11.9469C22.6561 11.8357 23.5449 11.4862 22.8257 11.0812C22.5253 10.974 22.2015 10.9462 21.8867 11.0006C21.5719 11.0549 21.2771 11.1895 21.0319 11.3909C21.0222 11.3994 21.0095 11.4037 20.9966 11.4029C20.9838 11.4022 20.9717 11.3964 20.9632 11.387C20.9546 11.3775 20.9502 11.365 20.951 11.3524C20.9517 11.3397 20.9576 11.3279 20.9672 11.3195C21.2339 10.9382 21.549 10.279 20.741 10.0408C19.7955 9.77074 18.8097 10.9144 18.4864 11.3433C18.4864 11.3433 18.3976 11.3433 18.3976 11.3036C18.3976 11.0335 18.3976 10.5094 17.9531 10.557C17.1936 10.6047 16.9673 11.3512 16.8461 11.9707C16.8166 12.1109 16.7555 12.2429 16.6675 12.3569C16.5794 12.471 16.4665 12.5643 16.337 12.6299C16.0522 12.7805 15.7818 12.956 15.5289 13.1541C15.3672 13.2748 15.1651 13.3311 14.9629 13.312C14.7608 13.2929 14.5734 13.1996 14.438 13.0508C13.5734 12.074 12.2967 12.066 11.7148 13.17C11.133 14.2739 11.8118 14.8775 12.8058 15.4097C12.9748 15.505 13.103 15.6572 13.1668 15.8382C13.2307 16.0192 13.2259 16.2167 13.1532 16.3945C12.6081 18.2249 12.352 20.1266 12.3936 22.0334C12.3898 22.0942 12.3898 22.1552 12.3936 22.2161V22.2161C12.3936 22.3828 12.3936 22.5496 12.3936 22.7085C12.4664 23.7965 12.5472 24.8767 12.5957 25.9647C12.6441 27.0528 12.6926 27.9503 12.7653 28.8954C15.0875 30.3815 17.8262 31.1127 20.5942 30.9859C23.3623 30.8591 26.0198 29.8805 28.1913 28.1885C28.1913 27.7914 28.1913 27.4499 28.1347 27.1958C28.1186 26.346 27.9893 24.1222 27.8196 22.4384ZM19.4319 18.5865C19.4136 18.7499 19.3347 18.9009 19.2102 19.0106C19.0857 19.1203 18.9244 19.181 18.7572 19.181C18.5899 19.181 18.4286 19.1203 18.3041 19.0106C18.1796 18.9009 18.1006 18.7499 18.0824 18.5865V18.5468C18.1001 18.4625 18.0984 18.3754 18.0776 18.2918C18.0567 18.2082 18.0172 18.1303 17.9619 18.0636C17.9065 17.9969 17.8368 17.9431 17.7577 17.9062C17.6786 17.8693 17.5922 17.8501 17.5047 17.8501C17.4171 17.8501 17.3306 17.8693 17.2516 17.9062C17.1725 17.9431 17.1027 17.9969 17.0474 18.0636C16.9921 18.1303 16.9526 18.2082 16.9317 18.2918C16.9109 18.3754 16.9092 18.4625 16.9269 18.5468V18.5865C16.9269 18.7613 16.8562 18.929 16.7304 19.0526C16.6047 19.1762 16.434 19.2457 16.2562 19.2457C16.0783 19.2457 15.9077 19.1762 15.782 19.0526C15.6562 18.929 15.5855 18.7613 15.5855 18.5865V18.5468C15.5855 18.0455 15.7881 17.5647 16.1488 17.2102C16.5095 16.8557 16.9986 16.6566 17.5087 16.6566C18.0188 16.6566 18.5079 16.8557 18.8686 17.2102C19.2292 17.5647 19.4319 18.0455 19.4319 18.5468V18.5865ZM24.45 18.5865C24.4527 18.7193 24.4145 18.8497 24.3405 18.9608C24.2665 19.0719 24.1601 19.1585 24.0352 19.2091C23.9103 19.2598 23.7728 19.2722 23.6406 19.2447C23.5084 19.2172 23.3878 19.1511 23.2944 19.0551C23.2323 18.9934 23.1832 18.9202 23.1499 18.8398C23.1166 18.7594 23.0998 18.6733 23.1005 18.5865V18.5468C23.1182 18.4625 23.1165 18.3754 23.0957 18.2918C23.0748 18.2082 23.0353 18.1303 22.98 18.0636C22.9246 17.9969 22.8549 17.9431 22.7758 17.9062C22.6967 17.8693 22.6103 17.8501 22.5227 17.8501C22.4352 17.8501 22.3487 17.8693 22.2696 17.9062C22.1905 17.9431 22.1208 17.9969 22.0655 18.0636C22.0102 18.1303 21.9707 18.2082 21.9498 18.2918C21.929 18.3754 21.9273 18.4625 21.945 18.5468V18.5865C21.945 18.7621 21.8746 18.9306 21.749 19.0555C21.6235 19.1803 21.4529 19.2516 21.2743 19.2536C21.0925 19.2523 20.9184 19.1811 20.7895 19.0551C20.7273 18.9934 20.6782 18.9202 20.6449 18.8398C20.6116 18.7594 20.5948 18.6733 20.5955 18.5865V18.5468C20.6272 18.0656 20.8441 17.6143 21.202 17.2846C21.56 16.9548 22.0321 16.7713 22.5227 16.7713C23.0133 16.7713 23.4855 16.9548 23.8435 17.2846C24.2014 17.6143 24.4182 18.0656 24.45 18.5468V18.5865Z" fill="white"/>
    </g>
    <defs>
        <filter id="filter0_d_315_7686" x="0" y="0" width="40" height="40" filterUnits="userSpaceOnUse" color-interpolation-filters="sRGB">
            <feFlood flood-opacity="0" result="BackgroundImageFix"/>
            <feColorMatrix in="SourceAlpha" type="matrix" values="0 0 0 0 0 0 0 0 0 0 0 0 0 0 0 0 0 0 127 0" result="hardAlpha"/>
            <feOffset dy="2"/>
            <feGaussianBlur stdDeviation="2"/>
            <feComposite in2="hardAlpha" operator="out"/>
            <feColorMatrix type="matrix" values="0 0 0 0 0 0 0 0 0 0 0 0 0 0 0 0 0 0 0.08 0"/>
            <feBlend mode="normal" in2="BackgroundImageFix" result="effect1_dropShadow_315_7686"/>
            <feBlend mode="normal" in="SourceGraphic" in2="effect1_dropShadow_315_7686" result="shape"/>
        </filter>
    </defs>
</svg>
