<svg width="34" height="26" viewBox="0 0 34 26" fill="none" xmlns="http://www.w3.org/2000/svg">
    <g clip-path="url(#clip0_1_2)">
        <path d="M4.67415 25.9902C3.79296 25.9902 2.93156 25.7244 2.19891 25.2263C1.46626 24.7283 0.89526 24.0203 0.558153 23.1921C0.221046 22.3639 0.132965 21.4526 0.305051 20.5734C0.477137 19.6943 0.901676 18.8868 1.52494 18.2531C2.1482 17.6194 2.94221 17.188 3.80652 17.0134C4.67084 16.8388 5.56662 16.9289 6.38059 17.2723C7.19457 17.6156 7.89016 18.1969 8.37938 18.9424C8.8686 19.688 9.12947 20.5644 9.12899 21.4609C9.12772 22.6622 8.6579 23.8138 7.82266 24.6631C6.98742 25.5123 5.85504 25.9896 4.67415 25.9902V25.9902ZM4.67415 18.8814C4.17264 18.8814 3.68237 19.0326 3.26538 19.3161C2.84839 19.5995 2.52337 20.0024 2.33145 20.4737C2.13953 20.9451 2.08933 21.4637 2.18717 21.9641C2.28501 22.4645 2.52652 22.9241 2.88114 23.2848C3.23577 23.6456 3.68758 23.8913 4.17945 23.9908C4.67133 24.0903 5.18117 24.0392 5.64451 23.844C6.10785 23.6488 6.50386 23.3182 6.78249 22.894C7.06111 22.4698 7.20983 21.971 7.20983 21.4609C7.20729 20.7784 6.93902 20.1248 6.46376 19.6432C5.9885 19.1615 5.345 18.8911 4.67415 18.8911V18.8814Z" fill="black"/>
        <path d="M28.7668 25.9902C27.8855 25.9907 27.0239 25.7253 26.2909 25.2275C25.558 24.7297 24.9866 24.022 24.6491 23.1938C24.3117 22.3656 24.2232 21.4542 24.3951 20.5749C24.5669 19.6956 24.9912 18.8879 25.6144 18.2539C26.2375 17.62 27.0315 17.1883 27.8959 17.0136C28.7603 16.8388 29.6562 16.9287 30.4703 17.272C31.2845 17.6153 31.9802 18.1966 32.4695 18.9422C32.9588 19.6878 33.2198 20.5643 33.2193 21.4609C33.218 22.6617 32.7485 23.813 31.9138 24.6622C31.0791 25.5113 29.9473 25.989 28.7668 25.9902ZM28.7668 18.8814C28.2652 18.8809 27.7747 19.0318 27.3574 19.3149C26.9401 19.598 26.6147 20.0007 26.4225 20.472C26.2302 20.9433 26.1796 21.4621 26.2772 21.9626C26.3747 22.4631 26.616 22.923 26.9706 23.284C27.3251 23.645 27.7769 23.8909 28.2688 23.9906C28.7608 24.0903 29.2708 24.0394 29.7343 23.8442C30.1977 23.6491 30.5939 23.3185 30.8726 22.8942C31.1513 22.47 31.3001 21.9711 31.3001 21.4609C31.2976 20.7789 31.0296 20.1256 30.5549 19.644C30.0802 19.1625 29.4373 18.8918 28.7668 18.8911V18.8814Z" fill="black"/>
        <path d="M28.0088 16.0188C27.3692 16.1073 26.7511 16.3149 26.1855 16.6313L20.7567 2.23297C20.7264 2.15111 20.6723 2.08062 20.6016 2.0309C20.5308 1.98119 20.4469 1.95463 20.3609 1.95477H15.503C15.2593 1.95854 15.0227 1.87076 14.8386 1.70822C14.6545 1.54569 14.5357 1.3198 14.5051 1.07378C14.492 0.937819 14.5071 0.800582 14.5494 0.670935C14.5917 0.541287 14.6603 0.422119 14.7507 0.32114C14.8412 0.220161 14.9515 0.139617 15.0745 0.0847193C15.1974 0.029822 15.3303 0.00179575 15.4646 0.00244677H21.3133C21.5077 0.00223188 21.6975 0.062084 21.8578 0.174082C22.018 0.28608 22.141 0.444936 22.2105 0.629623L28.0088 16.0188Z" fill="black"/>
        <path d="M23.3548 21.4706C23.3543 21.798 23.3832 22.1247 23.4412 22.4468H10.007C10.1222 21.8013 10.1222 21.14 10.007 20.4945H23.4412C23.3832 20.8165 23.3543 21.1432 23.3548 21.4706V21.4706Z" fill="black"/>
    </g>
    <defs>
        <clipPath id="clip0_1_2">
            <rect width="33" height="26" fill="white" transform="translate(0.22168)"/>
        </clipPath>
    </defs>
</svg>
