<svg width="71" height="24" viewBox="0 0 71 24" fill="none" xmlns="http://www.w3.org/2000/svg">
    <path d="M69.6936 6.3042C69.7828 6.30418 69.871 6.32385 69.9517 6.36181C70.0325 6.39977 70.1038 6.45509 70.1607 6.52381C70.2176 6.59253 70.2587 6.67297 70.2809 6.75938C70.3031 6.84578 70.306 6.93603 70.2894 7.02368L69.8035 9.58211C69.7773 9.72087 69.7034 9.84612 69.5946 9.93621C69.4858 10.0263 69.349 10.0756 69.2078 10.0756H65.8407C65.6993 10.0756 65.5623 10.125 65.4535 10.2153C65.3446 10.3056 65.2708 10.4311 65.2447 10.5701L64.0131 17.3198C63.9739 17.5526 63.9492 17.7876 63.9389 18.0235C63.9389 18.8053 64.2831 19.1581 65.1232 19.2313C65.2379 19.2414 67.1381 19.2464 67.2708 19.2464C67.3606 19.2464 67.4493 19.2664 67.5304 19.3048C67.6115 19.3433 67.6831 19.3993 67.7399 19.4688C67.7968 19.5382 67.8375 19.6195 67.8591 19.7066C67.8808 19.7938 67.8828 19.8846 67.8651 19.9726L67.2576 22.9835C67.2299 23.1207 67.1556 23.244 67.0473 23.3327C66.939 23.4214 66.8033 23.4698 66.6634 23.4699H63.6056C60.8639 23.4699 59.16 22.2099 59.16 19.5797C59.1576 19.0574 59.2071 18.5361 59.3079 18.0236L60.6448 10.7945C60.6614 10.7069 60.6584 10.6168 60.6361 10.5305C60.6139 10.4442 60.5729 10.3639 60.516 10.2952C60.4592 10.2266 60.3879 10.1714 60.3073 10.1334C60.2266 10.0955 60.1386 10.0758 60.0495 10.0757H58.4196C58.3326 10.0757 58.2467 10.0565 58.168 10.0195C58.0893 9.98245 58.0197 9.9285 57.9643 9.86149C57.9088 9.79449 57.8688 9.71607 57.8471 9.63183C57.8255 9.54759 57.8226 9.45961 57.8389 9.37415L58.3301 6.78536C58.3558 6.65009 58.4279 6.52803 58.5339 6.44019C58.6399 6.35236 58.7733 6.30427 58.911 6.3042H69.6936Z" fill="#FE7B01"/>
    <path d="M29.5541 6.30142H33.5619C33.6693 6.30146 33.7747 6.33002 33.8674 6.38417C33.9602 6.43832 34.0369 6.51612 34.0897 6.60962C34.1425 6.70312 34.1695 6.80897 34.168 6.91634C34.1665 7.02371 34.1365 7.12876 34.0811 7.22074L25.936 23.1238C25.882 23.2132 25.8058 23.287 25.7149 23.3383C25.624 23.3896 25.5214 23.4166 25.417 23.4166H19.7378C19.5989 23.4167 19.4642 23.369 19.3562 23.2817C19.2482 23.1943 19.1735 23.0725 19.1445 22.9366L16.6223 7.03369C16.6036 6.94534 16.6048 6.85392 16.6259 6.76611C16.647 6.67829 16.6875 6.5963 16.7443 6.52613C16.8012 6.45595 16.873 6.39935 16.9545 6.36048C17.036 6.3216 17.1252 6.30142 17.2155 6.30142H20.8335C20.9791 6.3014 21.1198 6.35375 21.23 6.44891C21.3401 6.54407 21.4124 6.67569 21.4335 6.81972L23.0078 18.5516C23.0929 19.1304 23.4889 19.0913 23.6789 18.6976L29.0196 6.62199C29.0713 6.5251 29.1483 6.44408 29.2425 6.38758C29.3367 6.33109 29.4445 6.30126 29.5543 6.30127" fill="#FE7B01"/>
    <path d="M42.2829 0.701893L41.7886 3.29294C41.763 3.4282 41.6909 3.55026 41.5849 3.6381C41.4789 3.72593 41.3456 3.77403 41.2079 3.7741H37.6464C37.5571 3.7741 37.4689 3.75437 37.3881 3.71634C37.3074 3.67831 37.236 3.62291 37.179 3.55409C37.1221 3.48528 37.0811 3.40475 37.0589 3.31825C37.0368 3.23175 37.0339 3.14143 37.0507 3.05372L37.5391 0.492889C37.5655 0.354282 37.6395 0.229231 37.7482 0.139266C37.8569 0.0493018 37.9935 5.34147e-05 38.1347 0L41.7022 0C41.7892 3.36473e-05 41.8751 0.0192712 41.9538 0.0563402C42.0326 0.0934092 42.1022 0.147396 42.1576 0.21445C42.2131 0.281503 42.2531 0.359971 42.2747 0.444254C42.2964 0.528538 42.2991 0.616561 42.2829 0.702043" fill="#FE7B01"/>
    <path d="M33.3299 22.6947L36.4274 6.7916C36.4543 6.65349 36.5284 6.52904 36.637 6.43958C36.7456 6.35012 36.8819 6.30122 37.0226 6.30127H40.344C40.4334 6.30128 40.5217 6.32106 40.6026 6.35919C40.6834 6.39732 40.7549 6.45286 40.8118 6.52183C40.8687 6.5908 40.9096 6.6715 40.9316 6.75814C40.9537 6.84479 40.9563 6.93524 40.9393 7.02301L37.8418 22.9261C37.8148 23.0642 37.7407 23.1886 37.6322 23.278C37.5236 23.3674 37.3873 23.4164 37.2467 23.4165H33.9253C33.8359 23.4164 33.7476 23.3967 33.6668 23.3585C33.5859 23.3204 33.5145 23.2649 33.4576 23.1959C33.4007 23.1269 33.3597 23.0462 33.3377 22.9596C33.3156 22.8729 33.313 22.7825 33.33 22.6947" fill="#FE7B01"/>
    <path d="M42.7691 18.2905C42.8607 18.1589 43.0007 18.0688 43.1585 18.0401C43.3163 18.0114 43.4791 18.0464 43.6111 18.1375C45.4024 19.3682 47.1447 20.0836 48.6381 20.0836C49.7864 20.0836 50.4532 19.6025 50.4532 18.8609C50.4532 17.1221 43.4708 15.6299 43.4394 10.9326C43.4185 7.82005 45.872 5.74609 49.6508 5.74609C51.759 5.74609 53.8356 6.30755 55.8813 7.37362C55.9534 7.41109 56.0173 7.46258 56.0691 7.52508C56.121 7.58757 56.1599 7.65981 56.1835 7.73754C56.2071 7.81527 56.2149 7.89693 56.2064 7.97771C56.198 8.0585 56.1735 8.13679 56.1344 8.20798L54.8703 10.6366C54.8313 10.7066 54.7788 10.7682 54.7159 10.8178C54.653 10.8674 54.5809 10.904 54.5038 10.9257C54.4266 10.9473 54.346 10.9534 54.2665 10.9437C54.187 10.9341 54.1101 10.9087 54.0404 10.8692C52.5597 10.0403 51.0694 9.59899 49.9103 9.59899C48.7988 9.59899 48.0704 10.0433 48.0704 10.8214C48.0704 12.8525 55.1585 14.3032 55.1585 18.6385C55.1585 22.0839 52.7505 23.9734 48.6752 23.9734C45.8458 23.9734 43.4853 23.2722 41.3626 21.6865C41.2364 21.5922 41.1516 21.4527 41.1261 21.2972C41.1006 21.1417 41.1363 20.9824 41.2258 20.8527L42.7691 18.2905Z" fill="#FE7B01"/>
    <path d="M56.5306 0.701893L56.0365 3.29294C56.0108 3.4282 55.9387 3.55025 55.8327 3.63807C55.7267 3.7259 55.5933 3.77401 55.4557 3.7741H46.4226C46.3356 3.77406 46.2496 3.7548 46.1709 3.71769C46.0921 3.68059 46.0225 3.62656 45.9671 3.55945C45.9116 3.49235 45.8717 3.41383 45.85 3.3295C45.8284 3.24517 45.8257 3.15711 45.8421 3.07161L46.3362 0.480709C46.3619 0.345538 46.434 0.223578 46.54 0.135833C46.646 0.0480887 46.7793 5.32095e-05 46.9169 0L55.9499 0C56.0369 3.36473e-05 56.1229 0.0192712 56.2016 0.0563402C56.2803 0.0934092 56.3499 0.147396 56.4054 0.21445C56.4608 0.281503 56.5008 0.359971 56.5225 0.444254C56.5441 0.528538 56.5469 0.616561 56.5306 0.702043" fill="#FE7B01"/>
    <path d="M70.7722 0.706194L70.2778 3.29709C70.2522 3.43237 70.1802 3.55447 70.0742 3.64232C69.9681 3.73016 69.8348 3.77824 69.6971 3.77825H62.0737C61.9867 3.77822 61.9007 3.75898 61.822 3.72191C61.7432 3.68483 61.6737 3.63083 61.6182 3.56376C61.5627 3.49668 61.5227 3.4182 61.5011 3.33389C61.4795 3.24959 61.4767 3.16155 61.493 3.07606L61.9879 0.484559C62.0136 0.349468 62.0857 0.227583 62.1916 0.139895C62.2975 0.052206 62.4307 0.00420234 62.5683 0.00415039H70.1917C70.2787 0.00418404 70.3646 0.0234216 70.4433 0.0604906C70.5221 0.0975596 70.5916 0.151547 70.6471 0.2186C70.7026 0.285654 70.7426 0.364121 70.7642 0.448405C70.7859 0.532689 70.7886 0.620711 70.7724 0.706194" fill="#FE7B01"/>
    <path d="M1.65091 18.3172C1.74249 18.1855 1.88251 18.0954 2.04032 18.0667C2.19813 18.0381 2.36088 18.0731 2.49295 18.1641C4.28422 19.3948 6.02647 20.1102 7.51987 20.1102C8.66819 20.1102 9.33505 19.6291 9.33505 18.8875C9.33505 17.1487 2.35266 15.6565 2.32123 10.9592C2.30048 7.84666 4.7538 5.77271 8.53256 5.77271C10.6408 5.77271 12.7178 6.33416 14.7631 7.40023C14.8352 7.4377 14.8991 7.48919 14.9509 7.55169C15.0028 7.61418 15.0417 7.68642 15.0653 7.76415C15.0889 7.84188 15.0967 7.92354 15.0882 8.00433C15.0798 8.08511 15.0553 8.1634 15.0162 8.23459L13.7523 10.6633C13.7132 10.7332 13.6608 10.7948 13.5979 10.8444C13.535 10.894 13.4629 10.9306 13.3857 10.9523C13.3086 10.9739 13.228 10.98 13.1484 10.9704C13.0689 10.9607 12.9921 10.9354 12.9224 10.8959C11.4416 10.0669 9.95138 9.6256 8.79224 9.6256C7.68076 9.6256 6.9524 10.0699 6.9524 10.848C6.9524 12.8791 14.0405 14.3298 14.0405 18.6651C14.0405 22.1105 11.6324 24 7.55716 24C4.72779 24 2.36724 23.2988 0.244572 21.7131C0.118337 21.6188 0.0335562 21.4793 0.0080408 21.3238C-0.0174746 21.1683 0.0182619 21.009 0.107742 20.8793L1.65091 18.3172Z" fill="#FE7B01"/>
</svg>
