<svg width="256" height="249" viewBox="0 0 256 249" fill="none" xmlns="http://www.w3.org/2000/svg">
<path d="M245.001 176.728L245.001 176.729C247.025 200.825 249.554 232.396 250.008 245.799L250.008 245.809L250.009 245.819C250.055 246.58 250.109 247.393 250.167 248.25H18.2364C17.8366 241.606 17.492 234.902 17.1926 228.266C16.7004 216.598 15.8671 205.009 15.0345 193.43C14.7539 189.528 14.4734 185.626 14.206 181.724L14.2054 181.715L14.2047 181.707C13.9961 179.411 13.9126 177.106 13.9543 174.801H13.9545V174.787V171.724C14.3342 157.235 15.2062 141.83 16.9789 127.738C18.7529 113.635 21.4228 100.902 25.3749 91.722C26 90.3945 26.3585 88.957 26.43 87.4911C26.5017 86.0209 26.2832 84.5508 25.7871 83.165L25.7848 83.1588C24.7384 80.3159 22.6657 77.9681 19.9751 76.578L19.9693 76.5751C12.4838 72.7898 6.36527 68.8711 3.16438 64.0161C1.57846 61.6107 0.710977 58.977 0.751349 55.9969C0.791855 53.0069 1.74726 49.6173 3.89213 45.7129C8.14193 37.9767 14.8994 34.153 22.1504 33.9421C29.4237 33.7305 37.2831 37.1549 43.6652 44.1077L43.6652 44.1078L43.673 44.1161C45.8939 46.4627 48.9021 47.9069 52.1213 48.172C55.3557 48.4711 58.5884 47.5832 61.2168 45.6738L61.2262 45.667L61.2353 45.6599C64.8504 42.8591 68.7224 40.4069 72.7993 38.3361C74.8479 37.3554 76.6557 35.9356 78.0944 34.1776C79.5041 32.4887 80.4781 30.4795 80.9309 28.3262C81.8648 24.0395 83.1707 19.3179 85.6128 15.6052C88.0298 11.9306 91.5468 9.25756 96.9838 8.98603C98.5153 8.92121 99.6164 9.27334 100.422 9.83984C101.235 10.4112 101.813 11.2461 102.211 12.2509C103.009 14.2639 103.031 16.8124 102.886 18.7406C102.826 18.9951 102.835 19.2617 102.912 19.5126L103.049 19.9536L103.504 20.0305C103.65 20.0553 103.799 20.062 103.947 20.0505C104.179 20.0903 104.419 20.0774 104.647 20.0119L104.739 19.9854L104.822 19.9364L105.226 19.6973L105.342 19.6286L105.427 19.5238C107.838 16.546 112.71 11.0201 118.735 6.72653C124.782 2.41683 131.827 -0.537003 138.657 1.31201C141.613 2.12467 143.442 3.28103 144.513 4.56635C145.572 5.83812 145.949 7.30629 145.867 8.87859C145.701 12.0931 143.624 15.6443 141.641 18.3207L141.564 18.4242L141.527 18.5475C141.465 18.75 141.447 18.9624 141.474 19.1705C141.43 19.4133 141.455 19.6654 141.548 19.8977L141.672 20.2073L141.985 20.3224C142.22 20.4087 142.472 20.4305 142.715 20.3878C142.935 20.4187 143.16 20.4013 143.375 20.3355L143.464 20.3082L143.543 20.2599C146.627 18.3911 151.025 16.1401 155.761 14.9376C160.499 13.7344 165.489 13.6016 169.844 15.8461C172.504 17.2621 173.421 18.5075 173.569 19.4496C173.711 20.3598 173.181 21.3467 171.946 22.3953C170.736 23.4214 169.026 24.3505 167.269 25.1268C165.523 25.8989 163.778 26.4999 162.532 26.8834L162.399 26.9243L162.289 27.0104L161.985 27.2496L161.761 27.4249L161.71 27.7042C161.68 27.8686 161.673 28.0361 161.689 28.2019C161.666 28.3875 161.675 28.5763 161.717 28.7594L161.851 29.3411H162.448H162.579L193.696 44.5168L193.705 44.521C196.071 45.6364 198.706 46.0544 201.301 45.7262C203.893 45.4262 206.337 44.3641 208.325 42.6743L208.334 42.6664C212.578 38.9412 218.817 34.4445 225.682 32.5053C232.5 30.5791 239.916 31.1735 246.699 37.593C254.917 45.4025 256.645 53.2742 254.269 59.9636C251.869 66.7205 245.207 72.4988 236.172 75.8779C233.161 76.9931 230.695 79.2239 229.282 82.1085L229.281 82.1106C228.608 83.4969 228.228 85.007 228.164 86.5469C228.1 88.0854 228.353 89.6207 228.908 91.057C235.575 108.924 240.143 127.507 242.52 146.43V147.237V147.271L242.523 147.304C242.824 150.658 243.837 162.556 245.001 176.728ZM61.5942 123.904C61.5942 141.126 72.4358 155.425 86.1826 155.425C99.9293 155.425 110.774 141.126 110.774 123.904C110.774 106.682 99.9294 92.3808 86.1826 92.3808C72.4357 92.3808 61.5942 106.682 61.5942 123.904ZM147.169 123.904C147.169 141.126 158.013 155.425 171.76 155.425C185.507 155.425 196.349 141.126 196.349 123.904C196.349 106.682 185.507 92.3808 171.76 92.3808C158.013 92.3808 147.169 106.682 147.169 123.904Z" fill="#FE9B3E" stroke="#FFCA99" stroke-width="1.5"/>
</svg>
