<svg width="75" height="90" viewBox="0 0 75 90" fill="none" xmlns="http://www.w3.org/2000/svg">
    <g filter="url(#filter0_d_2_8)">
        <path d="M44.7008 75.9165L44.7008 75.8157C44.7008 75.1099 44.9849 70.9758 51.2036 65.7327C52.2613 64.8851 53.3787 64.1157 54.547 63.4304C55.4835 62.8476 56.3876 62.2137 57.2551 61.5315C61.3996 58.3635 64.7357 54.2506 66.9883 49.5319C69.2408 44.8131 70.3453 39.6236 70.2107 34.3914C70.0792 28.7841 68.5356 23.3019 65.7242 18.4572C62.9127 13.6125 58.9252 9.56351 54.1344 6.68872C49.3436 3.81393 43.9059 2.2072 38.3296 2.01873C32.7533 1.83027 27.2205 3.06619 22.2484 5.61102C17.2763 8.15586 13.0273 11.9265 9.89854 16.5705C6.76975 21.2144 4.86335 26.5801 4.35756 32.1658C3.85177 37.7516 4.7631 43.3749 7.00635 48.5105C9.24961 53.646 12.7515 58.126 17.1848 61.5315V61.5315C18.0541 62.2037 18.9401 62.8086 19.8595 63.3968C20.9541 64.0396 21.999 64.7642 22.9855 65.5646C30.0066 71.4295 29.6723 75.9165 29.6723 75.9165C29.6036 76.952 29.7471 77.9906 30.0941 78.968C30.441 79.9455 30.984 80.8409 31.6892 81.5987C32.3945 82.3566 33.2471 82.9608 34.1941 83.3738C35.1412 83.7869 36.1625 84 37.1949 84C38.2272 84 39.2486 83.7869 40.1956 83.3738C41.1427 82.9608 41.9953 82.3566 42.7006 81.5987C43.4058 80.8409 43.9487 79.9455 44.2957 78.968C44.6426 77.9906 44.7862 76.952 44.7175 75.9165L44.7008 75.9165ZM30.458 61.8339C23.986 60.1945 18.3331 56.2337 14.563 50.6971C10.793 45.1605 9.16573 38.4298 9.98741 31.7713C10.8091 25.1129 14.0231 18.9858 19.0246 14.5431C24.0262 10.1004 30.4704 7.64836 37.1447 7.64836C43.8191 7.64836 50.2633 10.1004 55.2648 14.5431C60.2664 18.9858 63.4804 25.1129 64.3021 31.7713C65.1238 38.4298 63.4965 45.1605 59.7264 50.6971C55.9564 56.2337 50.3035 60.1945 43.8315 61.8339C39.4422 62.9458 34.8472 62.9458 30.458 61.8339Z" fill="white" fill-opacity="0.01" shape-rendering="crispEdges"/>
    </g>
    <defs>
        <filter id="filter0_d_2_8" x="0.221676" y="0" width="74" height="90" filterUnits="userSpaceOnUse" color-interpolation-filters="sRGB">
            <feFlood flood-opacity="0" result="BackgroundImageFix"/>
            <feColorMatrix in="SourceAlpha" type="matrix" values="0 0 0 0 0 0 0 0 0 0 0 0 0 0 0 0 0 0 127 0" result="hardAlpha"/>
            <feOffset dy="2"/>
            <feGaussianBlur stdDeviation="2"/>
            <feComposite in2="hardAlpha" operator="out"/>
            <feColorMatrix type="matrix" values="0 0 0 0 0 0 0 0 0 0 0 0 0 0 0 0 0 0 0.08 0"/>
            <feBlend mode="normal" in2="BackgroundImageFix" result="effect1_dropShadow_2_8"/>
            <feBlend mode="normal" in="SourceGraphic" in2="effect1_dropShadow_2_8" result="shape"/>
        </filter>
    </defs>
</svg>
