<svg width="308" height="243" viewBox="0 0 308 243" fill="none" xmlns="http://www.w3.org/2000/svg">
<g clip-path="url(#clip0_2_4742)">
<path d="M206.437 179.645C206.437 178.912 206.22 178.196 205.814 177.586C205.407 176.977 204.829 176.502 204.153 176.222C203.477 175.942 202.733 175.869 202.015 176.012C201.298 176.155 200.639 176.509 200.122 177.028C199.605 177.546 199.253 178.207 199.111 178.926C198.969 179.645 199.043 180.39 199.324 181.067C199.605 181.744 200.08 182.322 200.689 182.728C201.298 183.135 202.013 183.351 202.745 183.35C203.231 183.35 203.711 183.254 204.16 183.068C204.608 182.881 205.015 182.608 205.358 182.264C205.701 181.92 205.973 181.512 206.158 181.062C206.343 180.613 206.438 180.131 206.437 179.645Z" fill="#FF9C40"/>
<path d="M98.0039 215.598C98.0025 217.659 98.366 219.705 99.0776 221.639H131.754C132.64 219.245 132.99 216.686 132.781 214.141C132.571 211.597 131.807 209.13 130.542 206.913C129.276 204.697 127.541 202.786 125.458 201.315C123.375 199.844 120.995 198.849 118.486 198.4C115.977 197.951 113.4 198.059 110.937 198.716C108.474 199.374 106.186 200.564 104.232 202.204C102.279 203.844 100.709 205.894 99.6329 208.208C98.5567 210.522 98.0006 213.045 98.0039 215.598Z" fill="#FF9C40"/>
<path d="M165.069 221.638H217.418V218.902C215.847 212.945 212.277 207.712 207.309 204.082C202.34 200.452 196.275 198.645 190.133 198.966C183.992 199.287 178.147 201.716 173.583 205.845C169.018 209.974 166.012 215.551 165.069 221.638Z" fill="#FF9C40"/>
<path d="M154.207 160.279C154.207 160.435 154.207 160.596 154.207 160.751C154.163 163.226 154.611 165.686 155.526 167.985C156.441 170.285 157.804 172.379 159.536 174.145C161.268 175.911 163.333 177.313 165.612 178.271C167.891 179.229 170.338 179.722 172.809 179.722C175.28 179.722 177.727 179.229 180.006 178.271C182.285 177.313 184.35 175.911 186.082 174.145C187.814 172.379 189.177 170.285 190.092 167.985C191.007 165.686 191.455 163.226 191.411 160.751C191.411 160.596 191.411 160.435 191.411 160.279H154.207Z" fill="#FF9C40"/>
<path d="M128.343 171.985C129.695 171.985 131.033 171.718 132.282 171.2C133.531 170.681 134.666 169.921 135.621 168.964C136.577 168.006 137.334 166.869 137.851 165.618C138.368 164.367 138.634 163.026 138.633 161.672C138.634 161.206 138.602 160.74 138.537 160.279H118.155C118.09 160.74 118.058 161.206 118.059 161.672C118.058 163.025 118.324 164.366 118.84 165.616C119.357 166.867 120.114 168.004 121.069 168.962C122.024 169.919 123.158 170.679 124.406 171.198C125.654 171.717 126.992 171.984 128.343 171.985Z" fill="#FF9C40"/>
<path d="M85.3334 174.231C85.3322 175.512 85.7103 176.765 86.4198 177.83C87.1293 178.896 88.1384 179.727 89.3195 180.219C90.5006 180.71 91.8006 180.839 93.0551 180.591C94.3097 180.342 95.4624 179.726 96.3675 178.821C97.2727 177.916 97.8896 176.763 98.1402 175.506C98.3909 174.25 98.264 172.948 97.7757 171.764C97.2874 170.58 96.4595 169.567 95.3968 168.855C94.3342 168.142 93.0843 167.761 91.8055 167.76C90.9563 167.759 90.1153 167.926 89.3305 168.251C88.5457 168.575 87.8325 169.052 87.2315 169.653C86.6305 170.254 86.1535 170.967 85.8279 171.753C85.5022 172.538 85.3342 173.38 85.3334 174.231Z" fill="#FF9C40"/>
<path d="M75.1039 160.285H217.949V221.645H75.1039V160.285Z" stroke="white" stroke-miterlimit="10"/>
<path d="M118.668 160.285V221.657" stroke="white" stroke-linecap="round" stroke-linejoin="round"/>
<path d="M305.417 144.313L257.363 134.239L167.529 86.4553L169.76 81.2927L217.868 91.2415L307.702 139.025L305.417 144.313Z" stroke="white" stroke-linecap="round" stroke-linejoin="round"/>
<path d="M169.76 81.2927L259.743 128.563L307.702 139.025L259.743 128.563L257.363 134.239" stroke="white" stroke-linecap="round" stroke-linejoin="round"/>
<path d="M262.499 114.885L220.272 107.835" stroke="white" stroke-miterlimit="10"/>
<path d="M198.296 87.3696L283.346 133.821L280.966 139.318" stroke="white" stroke-miterlimit="10"/>
<path d="M221.155 108.014L218.739 113.607" stroke="white" stroke-miterlimit="10"/>
<path d="M245.993 118.01C245.993 118.01 242.193 113.23 242.414 111.587C242.635 109.944 250.479 90.7336 245.993 76.668" stroke="white" stroke-miterlimit="10"/>
<path d="M242.396 111.587C242.396 111.587 226.082 100.862 229.195 90.148C232.309 79.4344 249.978 93.3806 242.396 111.587Z" stroke="white" stroke-miterlimit="10"/>
<path d="M242.396 111.587C242.396 111.587 254.446 112.961 258.8 103.598C263.155 94.2351 249.077 95.4301 246.196 102.087C243.315 108.743 242.396 111.587 242.396 111.587Z" stroke="white" stroke-miterlimit="10"/>
<path d="M138.163 116.499L136.087 23.1421" stroke="white" stroke-miterlimit="10" stroke-linecap="round"/>
<path d="M130.742 151.579L80.8802 137.012" stroke="white" stroke-miterlimit="10" stroke-linecap="round"/>
<path d="M113.825 115.011L65.1503 51.6855" stroke="white" stroke-miterlimit="10" stroke-linecap="round"/>
<path d="M158.05 145.933L203.164 118.578" stroke="white" stroke-miterlimit="10" stroke-linecap="round"/>
<path d="M43.5869 128.318C43.5869 128.318 33.8042 127.278 37.759 116.433C33.8042 122.898 33.1779 123.944 26.5209 122.271C31.2929 126.86 33.1779 126.651 31.5136 134.365C35.4685 128.945 34.4305 127.069 43.5869 128.318Z" stroke="white" stroke-linecap="round" stroke-linejoin="round"/>
<path d="M161.898 50.4188C161.898 50.4188 157.042 49.9049 159.005 44.5212C157.042 47.7299 156.732 48.2438 153.428 47.4192C155.814 49.6958 156.732 49.5942 155.903 53.3944C157.866 50.7295 157.353 49.7974 161.898 50.4188Z" stroke="white" stroke-linecap="round" stroke-linejoin="round"/>
<path d="M116.36 45.3936C116.36 45.3936 113.115 38.9284 121.371 37.0641C115.812 37.1896 114.923 37.2195 113.3 32.4333C112.382 37.2135 113.253 38.295 107.836 40.3326C112.781 40.6254 113.497 39.2331 116.36 45.3936Z" fill="white"/>
<path d="M192.343 117.7C192.343 117.7 192.642 113.571 197.241 115.077C194.473 113.505 194.032 113.284 194.634 110.434C192.779 112.513 192.892 113.296 189.635 112.704C191.962 114.294 192.713 113.828 192.343 117.7Z" fill="white"/>
<path d="M146.186 8.47292C143.933 8.47292 142.106 6.64309 142.106 4.38587C142.106 2.12866 143.933 0.298828 146.186 0.298828C148.439 0.298828 150.266 2.12866 150.266 4.38587C150.266 6.64309 148.439 8.47292 146.186 8.47292Z" stroke="#FE9B3E" stroke-miterlimit="10"/>
<path d="M84.0718 42.5196C81.8184 42.5196 79.9917 40.6897 79.9917 38.4325C79.9917 36.1753 81.8184 34.3455 84.0718 34.3455C86.3251 34.3455 88.1519 36.1753 88.1519 38.4325C88.1519 40.6897 86.3251 42.5196 84.0718 42.5196Z" stroke="white" stroke-miterlimit="10"/>
<path d="M63.8799 84.6687C61.6265 84.6687 59.7998 82.8389 59.7998 80.5817C59.7998 78.3245 61.6265 76.4946 63.8799 76.4946C66.1332 76.4946 67.96 78.3245 67.96 80.5817C67.96 82.8389 66.1332 84.6687 63.8799 84.6687Z" stroke="#FE9B3E" stroke-miterlimit="10"/>
<path d="M43.3303 87.9552C42.454 87.9552 41.7436 87.2436 41.7436 86.3658C41.7436 85.488 42.454 84.7764 43.3303 84.7764C44.2066 84.7764 44.917 85.488 44.917 86.3658C44.917 87.2436 44.2066 87.9552 43.3303 87.9552Z" stroke="white" stroke-miterlimit="10"/>
<path d="M174.418 42.5855C172.165 42.5855 170.338 40.7556 170.338 38.4984C170.338 36.2412 172.165 34.4114 174.418 34.4114C176.672 34.4114 178.499 36.2412 178.499 38.4984C178.499 40.7556 176.672 42.5855 174.418 42.5855Z" stroke="white" stroke-miterlimit="10"/>
<path d="M196.197 134.066C195.321 134.066 194.61 133.354 194.61 132.476C194.61 131.599 195.321 130.887 196.197 130.887C197.073 130.887 197.784 131.599 197.784 132.476C197.784 133.354 197.073 134.066 196.197 134.066Z" stroke="white" stroke-miterlimit="10"/>
<path d="M177.246 147.582C175.404 147.582 173.911 146.086 173.911 144.242C173.911 142.397 175.404 140.902 177.246 140.902C179.087 140.902 180.58 142.397 180.58 144.242C180.58 146.086 179.087 147.582 177.246 147.582Z" fill="#FE9B3E"/>
<path d="M3.33448 79.3629C1.4929 79.3629 -7.15256e-06 77.8675 -7.15256e-06 76.0228C-7.15256e-06 74.1781 1.4929 72.6826 3.33448 72.6826C5.17605 72.6826 6.66895 74.1781 6.66895 76.0228C6.66895 77.8675 5.17605 79.3629 3.33448 79.3629Z" fill="#FE9B3E"/>
<path d="M116.915 72.3659C114.827 72.3659 113.134 70.6698 113.134 68.5776C113.134 66.4854 114.827 64.7893 116.915 64.7893C119.004 64.7893 120.697 66.4854 120.697 68.5776C120.697 70.6698 119.004 72.3659 116.915 72.3659Z" fill="white"/>
<path d="M84.2746 58.5871C83.6091 58.5871 83.0696 58.0467 83.0696 57.3801C83.0696 56.7135 83.6091 56.1731 84.2746 56.1731C84.94 56.1731 85.4795 56.7135 85.4795 57.3801C85.4795 58.0467 84.94 58.5871 84.2746 58.5871Z" fill="#FE9B3E"/>
<path d="M75.989 107.321C75.1127 107.321 74.4023 106.609 74.4023 105.731C74.4023 104.854 75.1127 104.142 75.989 104.142C76.8653 104.142 77.5757 104.854 77.5757 105.731C77.5757 106.609 76.8653 107.321 75.989 107.321Z" fill="white"/>
<path d="M201 188.273H295.164V242.726H201V188.273Z" fill="white"/>
<path d="M295.199 208.386H201.053" stroke="#FE7B01" stroke-linecap="round" stroke-linejoin="round"/>
<path d="M229.227 188.303V242.701" stroke="#FE7B01" stroke-linecap="round" stroke-linejoin="round"/>
<path d="M229.285 208.386C229.285 208.386 211.885 209.115 211.885 221.531C211.885 233.948 229.285 224.286 229.285 208.386Z" stroke="#FE7B01" stroke-linecap="round" stroke-linejoin="round"/>
<path d="M229.369 208.386C229.369 208.386 246.77 209.115 246.77 221.531C246.77 233.948 229.369 224.286 229.369 208.386Z" stroke="#FE7B01" stroke-linecap="round" stroke-linejoin="round"/>
<path d="M229.369 208.386C229.369 208.386 244.031 220.611 234.355 236.081" stroke="#FE7B01" stroke-linecap="round" stroke-linejoin="round"/>
<path d="M178.169 201.5C178.237 201.5 178.304 201.515 178.365 201.544C178.427 201.573 178.482 201.615 178.525 201.668C178.568 201.72 178.6 201.782 178.617 201.847C178.634 201.913 178.636 201.982 178.623 202.049L178.252 204.001C178.232 204.107 178.176 204.202 178.093 204.271C178.01 204.34 177.906 204.377 177.798 204.377H175.229C175.121 204.377 175.017 204.415 174.934 204.484C174.851 204.553 174.794 204.649 174.775 204.755L173.835 209.904C173.805 210.082 173.786 210.261 173.778 210.441C173.778 211.037 174.041 211.306 174.682 211.362C174.769 211.37 176.219 211.374 176.32 211.374C176.389 211.374 176.456 211.389 176.518 211.418C176.58 211.448 176.635 211.49 176.678 211.543C176.721 211.596 176.753 211.658 176.769 211.725C176.786 211.791 176.787 211.861 176.774 211.928L176.31 214.225C176.289 214.329 176.232 214.424 176.15 214.491C176.067 214.559 175.964 214.596 175.857 214.596H173.524C171.432 214.596 170.132 213.635 170.132 211.628C170.131 211.23 170.168 210.832 170.245 210.441L171.265 204.926C171.278 204.859 171.276 204.79 171.259 204.724C171.242 204.659 171.21 204.597 171.167 204.545C171.124 204.493 171.069 204.45 171.008 204.422C170.946 204.393 170.879 204.378 170.811 204.378H169.568C169.501 204.378 169.436 204.363 169.376 204.335C169.316 204.306 169.263 204.265 169.22 204.214C169.178 204.163 169.147 204.103 169.131 204.039C169.114 203.975 169.112 203.907 169.125 203.842L169.499 201.867C169.519 201.764 169.574 201.671 169.655 201.604C169.736 201.537 169.837 201.5 169.943 201.5H178.169Z" fill="white"/>
<path d="M147.547 201.498H150.605C150.687 201.498 150.767 201.52 150.838 201.561C150.908 201.603 150.967 201.662 151.007 201.733C151.048 201.805 151.068 201.885 151.067 201.967C151.066 202.049 151.043 202.129 151.001 202.2L144.787 214.332C144.746 214.4 144.688 214.456 144.618 214.496C144.549 214.535 144.471 214.555 144.391 214.555H140.058C139.952 214.555 139.85 214.519 139.767 214.452C139.685 214.386 139.628 214.293 139.606 214.189L137.681 202.057C137.667 201.989 137.668 201.92 137.684 201.853C137.7 201.786 137.731 201.723 137.775 201.67C137.818 201.616 137.873 201.573 137.935 201.543C137.997 201.514 138.065 201.498 138.134 201.498H140.894C141.005 201.498 141.113 201.538 141.197 201.611C141.281 201.683 141.336 201.784 141.352 201.894L142.553 210.844C142.618 211.285 142.92 211.256 143.065 210.955L147.139 201.743C147.179 201.669 147.238 201.607 147.309 201.564C147.381 201.521 147.463 201.498 147.547 201.498" fill="white"/>
<path d="M157.257 197.226L156.88 199.203C156.86 199.306 156.805 199.399 156.724 199.466C156.643 199.533 156.542 199.57 156.437 199.57H153.72C153.651 199.57 153.584 199.555 153.522 199.526C153.461 199.497 153.406 199.454 153.363 199.402C153.32 199.349 153.288 199.288 153.271 199.222C153.254 199.156 153.252 199.087 153.265 199.02L153.638 197.066C153.658 196.961 153.714 196.865 153.797 196.797C153.88 196.728 153.984 196.69 154.092 196.69H156.814C156.88 196.69 156.946 196.705 157.006 196.733C157.066 196.762 157.119 196.803 157.161 196.854C157.203 196.905 157.234 196.965 157.25 197.029C157.267 197.094 157.269 197.161 157.257 197.226" fill="white"/>
<path d="M150.427 214.005L152.79 201.872C152.81 201.767 152.867 201.672 152.95 201.604C153.033 201.535 153.137 201.498 153.244 201.498H155.778C155.846 201.498 155.913 201.513 155.975 201.542C156.037 201.571 156.091 201.614 156.135 201.666C156.178 201.719 156.209 201.78 156.226 201.847C156.243 201.913 156.245 201.982 156.232 202.049L153.869 214.181C153.848 214.286 153.792 214.381 153.709 214.45C153.626 214.518 153.522 214.555 153.415 214.555H150.881C150.813 214.555 150.745 214.54 150.684 214.511C150.622 214.482 150.568 214.44 150.524 214.387C150.481 214.334 150.45 214.273 150.433 214.207C150.416 214.141 150.414 214.072 150.427 214.005" fill="white"/>
<path d="M157.628 210.644C157.698 210.544 157.804 210.475 157.925 210.453C158.045 210.431 158.169 210.458 158.27 210.528C159.637 211.466 160.966 212.012 162.105 212.012C162.981 212.012 163.49 211.645 163.49 211.079C163.49 209.753 158.163 208.615 158.139 205.031C158.123 202.656 159.995 201.074 162.878 201.074C164.486 201.074 166.07 201.503 167.631 202.316C167.686 202.344 167.735 202.384 167.774 202.431C167.814 202.479 167.844 202.534 167.862 202.593C167.88 202.653 167.885 202.715 167.879 202.777C167.873 202.838 167.854 202.898 167.824 202.952L166.86 204.805C166.83 204.859 166.79 204.906 166.742 204.943C166.694 204.981 166.639 205.009 166.58 205.026C166.521 205.042 166.46 205.047 166.399 205.039C166.338 205.032 166.28 205.013 166.227 204.983C165.097 204.35 163.96 204.014 163.076 204.014C162.228 204.014 161.672 204.353 161.672 204.946C161.672 206.496 167.08 207.602 167.08 210.91C167.08 213.538 165.243 214.98 162.134 214.98C159.975 214.98 158.174 214.445 156.555 213.235C156.458 213.163 156.394 213.057 156.374 212.938C156.355 212.82 156.382 212.698 156.45 212.599L157.628 210.644Z" fill="white"/>
<path d="M168.128 197.226L167.751 199.203C167.731 199.306 167.676 199.399 167.595 199.466C167.514 199.533 167.413 199.57 167.308 199.57H160.416C160.35 199.57 160.284 199.555 160.224 199.527C160.164 199.498 160.111 199.457 160.069 199.406C160.026 199.355 159.996 199.295 159.979 199.23C159.963 199.166 159.961 199.099 159.973 199.034L160.35 197.057C160.37 196.954 160.425 196.861 160.506 196.794C160.587 196.727 160.688 196.69 160.793 196.69H167.685C167.751 196.69 167.817 196.705 167.877 196.733C167.937 196.762 167.99 196.803 168.032 196.854C168.074 196.905 168.105 196.965 168.121 197.029C168.138 197.094 168.14 197.161 168.128 197.226" fill="white"/>
<path d="M178.992 197.229L178.615 199.206C178.595 199.309 178.54 199.402 178.459 199.469C178.378 199.536 178.277 199.573 178.172 199.573H172.356C172.289 199.573 172.224 199.558 172.164 199.53C172.104 199.501 172.051 199.46 172.008 199.409C171.966 199.358 171.935 199.298 171.919 199.234C171.902 199.169 171.9 199.102 171.913 199.037L172.29 197.06C172.31 196.957 172.365 196.864 172.446 196.797C172.527 196.73 172.628 196.693 172.733 196.693H178.549C178.615 196.693 178.681 196.708 178.741 196.736C178.801 196.765 178.854 196.806 178.896 196.857C178.939 196.908 178.969 196.968 178.986 197.032C179.002 197.097 179.004 197.164 178.992 197.229" fill="white"/>
<path d="M126.259 210.664C126.329 210.564 126.436 210.495 126.557 210.473C126.677 210.451 126.801 210.478 126.902 210.548C128.268 211.487 129.598 212.032 130.737 212.032C131.613 212.032 132.122 211.665 132.122 211.099C132.122 209.773 126.795 208.635 126.771 205.051C126.755 202.676 128.627 201.094 131.509 201.094C133.118 201.094 134.702 201.523 136.263 202.336C136.318 202.364 136.366 202.404 136.406 202.451C136.446 202.499 136.475 202.554 136.493 202.614C136.511 202.673 136.517 202.735 136.511 202.797C136.504 202.858 136.486 202.918 136.456 202.972L135.492 204.825C135.462 204.879 135.422 204.926 135.374 204.963C135.326 205.001 135.271 205.029 135.212 205.046C135.153 205.062 135.092 205.067 135.031 205.06C134.97 205.052 134.912 205.033 134.858 205.003C133.729 204.37 132.592 204.034 131.708 204.034C130.86 204.034 130.304 204.373 130.304 204.966C130.304 206.516 135.711 207.622 135.711 210.93C135.711 213.558 133.874 215 130.765 215C128.607 215 126.806 214.465 125.187 213.255C125.09 213.183 125.026 213.077 125.006 212.958C124.987 212.84 125.014 212.718 125.082 212.619L126.259 210.664Z" fill="white"/>
</g>
<defs>
<clipPath id="clip0_2_4742">
<rect width="308" height="243" fill="white" transform="matrix(-1 0 0 1 308 0)"/>
</clipPath>
</defs>
</svg>
