<svg width="342" height="72" viewBox="0 0 342 72" fill="none" xmlns="http://www.w3.org/2000/svg">
<g>
<mask id="path-1-inside-1_2_4705" fill="white">
<path d="M341.801 13.3939L332.395 62.8313C331.905 65.4101 330.533 67.7367 328.516 69.4103C326.498 71.0839 323.962 71.9997 321.343 72H11.251C9.59482 71.9996 7.95912 71.6326 6.46065 70.9254C4.96218 70.2181 3.63786 69.188 2.58222 67.9085C1.52659 66.629 0.765659 65.1317 0.353701 63.5233C-0.0582576 61.915 -0.111078 60.2354 0.199019 58.6042L9.60458 9.16682C10.0953 6.5882 11.4677 4.26191 13.4853 2.58865C15.5028 0.915396 18.0392 -5.1345e-05 20.6575 2.15992e-09H330.749C332.405 0.000443543 334.041 0.367382 335.539 1.07463C337.038 1.78188 338.362 2.81202 339.418 4.09152C340.473 5.37102 341.234 6.86834 341.646 8.47666C342.058 10.085 342.111 11.7646 341.801 13.3958"/>
</mask>
<path d="M332.395 62.8313L331.413 62.6444V62.6445L332.395 62.8313ZM321.343 72V73H321.344L321.343 72ZM11.251 72L11.2508 73H11.251V72ZM0.199019 58.6042L-0.78336 58.4173L-0.783386 58.4175L0.199019 58.6042ZM9.60458 9.16682L8.62222 8.97985L8.62221 8.97992L9.60458 9.16682ZM20.6575 2.15992e-09L20.6575 1H20.6575V2.15992e-09ZM330.749 2.15992e-09L330.749 -1H330.749V2.15992e-09ZM340.819 13.207L331.413 62.6444L333.378 63.0182L342.783 13.5808L340.819 13.207ZM331.413 62.6445C330.966 64.9953 329.715 67.1157 327.877 68.6407L329.154 70.18C331.351 68.3577 332.844 65.8249 333.378 63.0181L331.413 62.6445ZM327.877 68.6407C326.039 70.1656 323.728 70.9998 321.343 71L321.344 73C324.195 72.9997 326.957 72.0023 329.154 70.18L327.877 68.6407ZM321.343 71H11.251V73H321.343V71ZM11.2513 71C9.74266 70.9996 8.25262 70.6654 6.88748 70.021L6.03382 71.8297C7.66562 72.5999 9.44697 72.9995 11.2508 73L11.2513 71ZM6.88748 70.021C5.52232 69.3767 4.31561 68.4381 3.35358 67.2721L1.81086 68.5449C2.96011 69.9379 4.40203 71.0595 6.03382 71.8297L6.88748 70.021ZM3.35358 67.2721C2.39155 66.106 1.69796 64.7413 1.32243 63.2752L-0.615026 63.7715C-0.16664 65.522 0.661622 67.1519 1.81086 68.5449L3.35358 67.2721ZM1.32243 63.2752C0.946895 61.8091 0.898741 60.2779 1.18142 58.791L-0.783386 58.4175C-1.1209 60.1928 -1.06341 62.0209 -0.615026 63.7715L1.32243 63.2752ZM1.1814 58.7911L10.587 9.35372L8.62221 8.97992L-0.78336 58.4173L1.1814 58.7911ZM10.587 9.35378C11.0343 7.00314 12.2853 4.88303 14.1236 3.35838L12.8469 1.81893C10.6502 3.64079 9.15637 6.17327 8.62222 8.97985L10.587 9.35378ZM14.1236 3.35838C15.9619 1.83378 18.2726 0.999953 20.6575 1L20.6576 -1C17.8058 -1.00006 15.0437 -0.00298474 12.8469 1.81893L14.1236 3.35838ZM20.6575 1H330.749V-1H20.6575V1ZM330.749 1C332.257 1.0004 333.747 1.33464 335.113 1.97897L335.966 0.170301C334.334 -0.599881 332.553 -0.999517 330.749 -1L330.749 1ZM335.113 1.97897C336.478 2.62329 337.684 3.56187 338.646 4.72792L340.189 3.45512C339.04 2.06216 337.598 0.940478 335.966 0.170301L335.113 1.97897ZM338.646 4.72792C339.608 5.89396 340.302 7.25869 340.678 8.72479L342.615 8.22853C342.167 6.478 341.338 4.84808 340.189 3.45512L338.646 4.72792ZM340.678 8.72479C341.053 10.1909 341.101 11.7221 340.819 13.209L342.783 13.5825C343.121 11.8072 343.063 9.97905 342.615 8.22853L340.678 8.72479Z" fill="white" mask="url(#path-1-inside-1_2_4705)"/>
</g>
</svg>
