<svg width="138" height="40" viewBox="0 0 138 40" fill="none" xmlns="http://www.w3.org/2000/svg">
<path d="M137.889 7.44104L132.651 34.9063C132.378 36.3389 131.614 37.6315 130.491 38.5613C129.367 39.4911 127.955 39.9999 126.496 40H6.26571C5.34336 39.9998 4.43244 39.7959 3.59794 39.403C2.76344 39.0101 2.02593 38.4378 1.43804 37.7269C0.850158 37.0161 0.426396 36.1843 0.196976 35.2907C-0.0324439 34.3972 -0.0618593 33.4641 0.110834 32.5579L5.3488 5.09268C5.62211 3.66011 6.38638 2.36773 7.50995 1.43814C8.63352 0.508553 10.046 -2.8525e-05 11.5042 1.19995e-09H131.734C132.657 0.000246413 133.568 0.204101 134.402 0.597018C135.237 0.989936 135.974 1.56223 136.562 2.27306C137.15 2.9839 137.574 3.81575 137.803 4.70926C138.032 5.60276 138.062 6.53591 137.889 7.44209" fill="white"/>
</svg>
