<svg width="133" height="40" viewBox="0 0 133 40" fill="none" xmlns="http://www.w3.org/2000/svg">
<mask id="path-1-inside-1_2_4666" fill="white">
<path d="M132.889 7.44104L127.651 34.9063C127.378 36.3389 126.614 37.6315 125.491 38.5613C124.367 39.4911 122.955 39.9999 121.496 40H6.26571C5.34336 39.9998 4.43244 39.7959 3.59794 39.403C2.76344 39.0101 2.02593 38.4378 1.43804 37.7269C0.850158 37.0161 0.426396 36.1843 0.196976 35.2907C-0.0324439 34.3972 -0.0618593 33.4641 0.110834 32.5579L5.3488 5.09268C5.62211 3.66011 6.38638 2.36773 7.50995 1.43814C8.63352 0.508553 10.046 -2.8525e-05 11.5042 1.19995e-09H126.734C127.657 0.000246413 128.568 0.204101 129.402 0.597018C130.237 0.989936 130.974 1.56223 131.562 2.27306C132.15 2.9839 132.574 3.81575 132.803 4.70926C133.032 5.60276 133.062 6.53591 132.889 7.44209"/>
</mask>
<path d="M127.651 34.9063L126.669 34.7189L126.669 34.719L127.651 34.9063ZM121.496 40V41H121.496L121.496 40ZM6.26571 40L6.26544 41H6.26571V40ZM0.110834 32.5579L-0.871462 32.3706L-0.871487 32.3707L0.110834 32.5579ZM5.3488 5.09268L4.36652 4.90528L4.3665 4.90534L5.3488 5.09268ZM11.5042 1.19995e-09L11.5042 1H11.5042V1.19995e-09ZM126.734 1.19995e-09L126.735 -1H126.734V1.19995e-09ZM131.907 7.25371L126.669 34.7189L128.634 35.0936L133.871 7.62838L131.907 7.25371ZM126.669 34.719C126.439 35.9231 125.797 37.0095 124.853 37.7909L126.128 39.3317C127.431 38.2535 128.317 36.7547 128.634 35.0935L126.669 34.719ZM124.853 37.7909C123.909 38.5723 122.722 38.9999 121.496 39L121.496 41C123.187 40.9998 124.825 40.4098 126.128 39.3317L124.853 37.7909ZM121.496 39H6.26571V41H121.496V39ZM6.26597 39C5.49082 38.9998 4.72526 38.8285 4.02392 38.4983L3.17195 40.3077C4.13962 40.7633 5.1959 40.9997 6.26544 41L6.26597 39ZM4.02392 38.4983C3.32258 38.168 2.70274 37.687 2.20865 37.0896L0.667439 38.3643C1.34911 39.1885 2.2043 39.8521 3.17195 40.3077L4.02392 38.4983ZM2.20865 37.0896C1.71455 36.4922 1.35838 35.793 1.16556 35.042L-0.771606 35.5394C-0.505594 36.5755 -0.0142361 37.54 0.667439 38.3643L2.20865 37.0896ZM1.16556 35.042C0.972731 34.2911 0.948008 33.5068 1.09316 32.7451L-0.871487 32.3707C-1.07173 33.4214 -1.03762 34.5034 -0.771606 35.5394L1.16556 35.042ZM1.09313 32.7452L6.3311 5.28001L4.3665 4.90534L-0.871462 32.3706L1.09313 32.7452ZM6.33108 5.28008C6.56079 4.07605 7.20313 2.98987 8.14741 2.20862L6.87249 0.667656C5.56963 1.74558 4.68342 3.24417 4.36652 4.90528L6.33108 5.28008ZM8.14741 2.20862C9.09168 1.42738 10.2788 0.999976 11.5042 1L11.5042 -1C9.81331 -1.00003 8.17535 -0.410272 6.87249 0.667656L8.14741 2.20862ZM11.5042 1H126.734V-1H11.5042V1ZM126.734 1C127.509 1.00021 128.275 1.17153 128.976 1.50175L129.828 -0.307712C128.86 -0.763328 127.804 -0.999714 126.735 -1L126.734 1ZM128.976 1.50175C129.677 1.83197 130.297 2.31295 130.791 2.91038L132.333 1.63575C131.651 0.811515 130.796 0.147905 129.828 -0.307712L128.976 1.50175ZM130.791 2.91038C131.285 3.50781 131.642 4.20696 131.834 4.95795L133.772 4.46056C133.506 3.42453 133.014 2.45999 132.333 1.63575L130.791 2.91038ZM131.834 4.95795C132.027 5.70894 132.052 6.49324 131.907 7.25489L133.871 7.62929C134.072 6.57857 134.038 5.49659 133.772 4.46056L131.834 4.95795Z" fill="white" fill-opacity="0.24" mask="url(#path-1-inside-1_2_4666)"/>
</svg>
