<svg width="163" height="146" viewBox="0 0 163 146" fill="none" xmlns="http://www.w3.org/2000/svg">
    <path d="M28.8272 136.656C28.8272 136.656 25.2673 134.183 22.3003 137.032C19.3334 139.88 21.8675 142.837 25.646 142.192C27.2107 144.879 31.1471 146.815 32.7118 142.3C36.3258 141.116 37.1893 137.838 35.5251 135.742C33.8609 133.646 28.8272 136.656 28.8272 136.656Z" fill="#FFE0C4" stroke="#FE7B01" stroke-width="1.5" stroke-linecap="round" stroke-linejoin="round"/>
    <path d="M53.059 114.026C53.059 114.026 48.9018 105.04 41.1955 107.393C33.4892 109.745 35.8047 116.398 35.8047 116.398C35.8047 116.398 29.4813 120.372 33.1386 123.064C36.7959 125.755 40.3948 122.848 40.3948 122.848C40.3948 122.848 42.3641 127.78 48.0448 127.051C53.7256 126.322 52.1566 120.942 52.1566 120.942C52.1566 120.942 58.3437 122.848 59.5145 118.354C60.6853 113.86 54.9028 113.534 53.046 114.041" fill="#FFE0C4"/>
    <path d="M53.059 114.026C53.059 114.026 48.9018 105.04 41.1955 107.393C33.4892 109.745 35.8047 116.398 35.8047 116.398C35.8047 116.398 29.4813 120.372 33.1386 123.064C36.7959 125.755 40.3948 122.848 40.3948 122.848C40.3948 122.848 42.3641 127.78 48.0448 127.051C53.7256 126.322 52.1566 120.942 52.1566 120.942C52.1566 120.942 58.3437 122.848 59.5145 118.354C60.6853 113.86 54.9028 113.534 53.046 114.041" stroke="#FE7B01" stroke-width="1.5" stroke-linecap="round" stroke-linejoin="round"/>
    <path d="M98.8516 5.83153C82.0604 5.61589 72.9409 -2.2249 53.2477 2.52572C33.5545 7.27634 37.4932 19.6693 31.2736 28.5517C25.054 37.434 14.2768 42.189 17.5922 56.4387C20.9076 70.6883 30.4447 73.3753 43.505 76.8881C56.5653 80.4009 58.2208 87.4223 73.9754 89.2811C89.7299 91.1399 101.754 85.5634 116.679 83.7046C131.605 81.8457 142.177 88.0412 153.577 74.8222C164.977 61.6033 166.222 40.7506 150.467 37.0221C134.713 33.2937 135.535 25.041 132.847 15.1257C130.159 5.21048 98.8516 5.83153 98.8516 5.83153Z" fill="#FFE0C4" stroke="#FE7B01" stroke-width="1.5" stroke-linecap="round" stroke-linejoin="round"/>
    <g clip-path="url(#clip0_1_2)">
        <path d="M58.2721 56.1508C58.6807 55.7069 59.1746 55.356 59.7223 55.1205C60.2699 54.885 60.8592 54.7702 61.4523 54.7833C62.0494 54.7633 62.6443 54.8695 63.2002 55.0952C63.7562 55.321 64.2616 55.6615 64.6855 56.0961C65.5019 56.9756 65.9576 58.1464 65.9576 59.3643C65.9576 60.5822 65.5019 61.7531 64.6855 62.6325C64.2769 63.0764 63.783 63.4274 63.2353 63.6628C62.6877 63.8983 62.0984 64.0132 61.5053 64C60.9085 64.0111 60.3159 63.8955 59.7642 63.6602C59.2126 63.425 58.7137 63.0752 58.2986 62.6325C57.8731 62.213 57.5358 61.7075 57.3078 61.1476C57.0799 60.5877 56.966 59.9853 56.9735 59.378C56.9693 58.7777 57.0821 58.1827 57.3052 57.6283C57.5283 57.0739 57.8571 56.5714 58.2721 56.1508ZM65.2685 51.2553H60.6307L63.7845 25H72L65.2685 51.2553Z" fill="#FE7B01"/>
    </g>
    <g clip-path="url(#clip1_1_2)">
        <path d="M81.2721 56.1508C81.6807 55.7069 82.1746 55.356 82.7223 55.1205C83.2699 54.885 83.8592 54.7702 84.4523 54.7833C85.0494 54.7633 85.6443 54.8695 86.2002 55.0952C86.7562 55.321 87.2616 55.6615 87.6855 56.0961C88.5019 56.9756 88.9576 58.1464 88.9576 59.3643C88.9576 60.5822 88.5019 61.7531 87.6855 62.6325C87.2769 63.0764 86.783 63.4274 86.2353 63.6628C85.6877 63.8983 85.0984 64.0132 84.5053 64C83.9085 64.0111 83.3159 63.8955 82.7642 63.6602C82.2126 63.425 81.7137 63.0752 81.2986 62.6325C80.8731 62.213 80.5358 61.7075 80.3078 61.1476C80.0799 60.5877 79.966 59.9853 79.9735 59.378C79.9693 58.7777 80.0821 58.1827 80.3052 57.6283C80.5283 57.0739 80.8571 56.5714 81.2721 56.1508ZM88.2685 51.2553H83.6307L86.7845 25H95L88.2685 51.2553Z" fill="#FE7B01"/>
    </g>
    <g clip-path="url(#clip2_1_2)">
        <path d="M104.272 56.1508C104.681 55.7069 105.175 55.356 105.722 55.1205C106.27 54.885 106.859 54.7702 107.452 54.7833C108.049 54.7633 108.644 54.8695 109.2 55.0952C109.756 55.321 110.262 55.6615 110.686 56.0961C111.502 56.9756 111.958 58.1464 111.958 59.3643C111.958 60.5822 111.502 61.7531 110.686 62.6325C110.277 63.0764 109.783 63.4274 109.235 63.6628C108.688 63.8983 108.098 64.0132 107.505 64C106.908 64.0111 106.316 63.8955 105.764 63.6602C105.213 63.425 104.714 63.0752 104.299 62.6325C103.873 62.213 103.536 61.7075 103.308 61.1476C103.08 60.5877 102.966 59.9853 102.973 59.378C102.969 58.7777 103.082 58.1827 103.305 57.6283C103.528 57.0739 103.857 56.5714 104.272 56.1508ZM111.269 51.2553H106.631L109.784 25H118L111.269 51.2553Z" fill="#FE7B01"/>
    </g>
    <path d="M16.1728 102.06C20.1937 102.11 22.3773 103.988 27.0928 102.851C31.8084 101.715 30.8648 98.7542 32.3537 96.6193C33.8426 94.4845 36.4244 93.3545 35.6302 89.9344C34.8359 86.5143 32.5528 85.8868 29.4257 85.0565C26.2986 84.2263 25.9004 82.5335 22.1284 82.0893C18.3564 81.6451 15.4782 82.9799 11.9052 83.4241C8.33233 83.8683 5.7982 82.3869 3.06928 85.5504C0.340364 88.7139 0.0395557 93.7125 3.81373 94.6074C7.5879 95.5023 7.38664 97.4754 8.0337 99.8497C8.68076 102.224 16.1728 102.06 16.1728 102.06Z" fill="#FFE0C4" stroke="#FE7B01" stroke-width="1.5" stroke-linecap="round" stroke-linejoin="round"/>
    <defs>
        <clipPath id="clip0_1_2">
            <rect width="15" height="39" fill="white" transform="translate(57 25)"/>
        </clipPath>
        <clipPath id="clip1_1_2">
            <rect width="15" height="39" fill="white" transform="translate(80 25)"/>
        </clipPath>
        <clipPath id="clip2_1_2">
            <rect width="15" height="39" fill="white" transform="translate(103 25)"/>
        </clipPath>
    </defs>
</svg>
