<svg width="40" height="12" viewBox="0 0 40 12" fill="none" xmlns="http://www.w3.org/2000/svg">
    <path d="M39.9663 2.23231L38.3721 10.4719C38.289 10.9017 38.0564 11.2895 37.7145 11.5684C37.3726 11.8473 36.9427 12 36.4989 12H1.90695C1.62624 11.9999 1.349 11.9388 1.09502 11.8209C0.841047 11.703 0.616586 11.5313 0.437665 11.3181C0.258744 11.1048 0.129772 10.8553 0.0599488 10.5872C-0.00987462 10.3192 -0.0188265 10.0392 0.0337323 9.76737L1.6279 1.5278C1.71108 1.09803 1.94368 0.710318 2.28564 0.431442C2.62759 0.152566 3.05749 -8.5575e-06 3.50128 3.59986e-10H38.093C38.3738 7.39238e-05 38.651 0.0612303 38.905 0.179106C39.159 0.296981 39.3834 0.468669 39.5623 0.681919C39.7413 0.895169 39.8702 1.14472 39.9401 1.41278C40.0099 1.68083 40.0188 1.96046 39.9663 2.23231Z" fill="#DEDEDE"/>
</svg>
