<svg width="26" height="16" viewBox="0 0 26 16" fill="none" xmlns="http://www.w3.org/2000/svg">
    <path d="M25.9561 2.97642L23.8837 13.9625C23.7757 14.5356 23.4734 15.0526 23.0289 15.4245C22.5844 15.7964 22.0255 15.9999 21.4485 16H2.47904C2.11411 15.9999 1.7537 15.9184 1.42353 15.7612C1.09336 15.604 0.801562 15.3751 0.568964 15.0908C0.336367 14.8064 0.168704 14.4737 0.0779334 14.1163C-0.012837 13.7589 -0.0244745 13.3856 0.043852 13.0232L2.11626 2.03707C2.2244 1.46405 2.52679 0.94709 2.97133 0.575256C3.41587 0.203421 3.97474 -1.141e-05 4.55166 4.79982e-10H23.521C23.8859 9.85651e-05 24.2463 0.0816403 24.5765 0.238807C24.9066 0.395974 25.1984 0.624892 25.431 0.909226C25.6636 1.19356 25.8313 1.5263 25.9221 1.8837C26.0128 2.24111 26.0245 2.61394 25.9561 2.97642Z" fill="#FE7B01"/>
</svg>
