
<svg width="76" height="48" viewBox="0 0 76 48" fill="none" xmlns="http://www.w3.org/2000/svg">
    <mask id="path-1-inside-1_1060_35" fill="white">
        <path d="M75.8671 8.92925L69.5861 41.8875C69.2587 43.6067 68.3424 45.1578 66.9952 46.2735C65.648 47.3893 63.9542 47.9998 62.2056 48H-13.4866C-14.5926 47.9997 -15.6849 47.7551 -16.6856 47.2836C-17.6863 46.8121 -18.5706 46.1253 -19.2756 45.2723C-19.9805 44.4193 -20.4887 43.4211 -20.7638 42.3489C-21.0389 41.2767 -21.0742 40.1569 -20.8671 39.0695L-14.5861 6.11121C-14.2584 4.39214 -13.3419 2.84127 -11.9946 1.72577C-10.6473 0.610264 -8.95349 -3.423e-05 -7.20496 1.43995e-09H68.4866C69.5926 0.000295695 70.6849 0.244921 71.6856 0.716422C72.6863 1.18792 73.5706 1.87468 74.2756 2.72768C74.9805 3.58068 75.4887 4.5789 75.7638 5.65111C76.0389 6.72332 76.0742 7.84309 75.8671 8.93051"/>
    </mask>
    <path d="M71.9535 41.8875L70.4773 41.6218L70.4772 41.622L71.9535 41.8875ZM64.983 48L64.983 49.5L64.9832 49.5L64.983 48ZM-6.50401 48L-6.50444 49.5H-6.50401V48ZM-13.4745 39.0695L-14.9508 38.8038L-14.9508 38.804L-13.4745 39.0695ZM-7.54242 6.11121L-9.01868 5.84541L-9.0187 5.8455L-7.54242 6.11121ZM-0.571353 1.43995e-09L-0.571385 1.5H-0.571353V1.43995e-09ZM70.9151 1.43995e-09L70.9155 -1.5H70.9151V1.43995e-09ZM76.4093 8.66354L70.4773 41.6218L73.4298 42.1532L79.3619 9.19496L76.4093 8.66354ZM70.4772 41.622C70.226 43.0185 69.5258 44.2616 68.5176 45.1458L70.4955 47.4013C72.032 46.054 73.0625 44.195 73.4298 42.1531L70.4772 41.622ZM68.5176 45.1458C67.5113 46.0281 66.2608 46.4999 64.9829 46.5L64.9832 49.5C67.0083 49.4998 68.957 48.7505 70.4955 47.4013L68.5176 45.1458ZM64.983 46.5H-6.50401V49.5H64.983V46.5ZM-6.50359 46.5C-7.31322 46.4998 -8.11602 46.3104 -8.85565 45.9414L-10.1949 48.6258C-9.0444 49.1998 -7.78394 49.4996 -6.50444 49.5L-6.50359 46.5ZM-8.85565 45.9414C-9.59568 45.5721 -10.2572 45.0306 -10.7889 44.3494L-13.1539 46.1953C-12.354 47.22 -11.3451 48.052 -10.1949 48.6258L-8.85565 45.9414ZM-10.7889 44.3494C-11.3209 43.6679 -11.7085 42.8647 -11.9191 41.9956L-14.8347 42.7022C-14.5257 43.9775 -13.9535 45.1707 -13.1539 46.1953L-10.7889 44.3494ZM-11.9191 41.9956C-12.1297 41.1265 -12.1569 40.2174 -11.9982 39.335L-14.9508 38.804C-15.1832 40.0964 -15.1438 41.4269 -14.8347 42.7022L-11.9191 41.9956ZM-11.9982 39.3352L-6.06614 6.37692L-9.0187 5.8455L-14.9508 38.8038L-11.9982 39.3352ZM-6.06616 6.37702C-5.81472 4.98057 -5.11437 3.73763 -4.10608 2.85371L-6.08371 0.597828C-7.62033 1.94491 -8.65107 3.8037 -9.01868 5.84541L-6.06616 6.37702ZM-4.10608 2.85371C-3.09979 1.97154 -1.84919 1.49997 -0.571385 1.5L-0.571322 -1.5C-2.59629 -1.50004 -4.54509 -0.751007 -6.08371 0.597828L-4.10608 2.85371ZM-0.571353 1.5H70.9151V-1.5H-0.571353V1.5ZM70.9147 1.5C71.7243 1.50023 72.5272 1.68965 73.2668 2.05865L74.6061 -0.625809C73.4555 -1.19981 72.1951 -1.49964 70.9155 -1.5L70.9147 1.5ZM73.2668 2.05865C74.0068 2.42785 74.6683 2.96937 75.2 3.65061L77.565 1.80475C76.7651 0.779981 75.7562 -0.0520015 74.6061 -0.625809L73.2668 2.05865ZM75.2 3.65061C75.732 4.3321 76.1196 5.13528 76.3302 6.00437L79.2458 5.29785C78.9368 4.02251 78.3646 2.82926 77.565 1.80475L75.2 3.65061ZM76.3302 6.00437C76.5408 6.87355 76.568 7.78256 76.4093 8.66499L79.3619 9.19603C79.5943 7.90361 79.5549 6.57309 79.2458 5.29785L76.3302 6.00437Z" fill="white" fill-opacity="0.24" mask="url(#path-1-inside-1_2_6)"/>
    <path d="M38.57 17.9299L32.5 23.9999L38.57 30.0699" stroke="black" stroke-width="1.5" stroke-miterlimit="10" stroke-linecap="round" stroke-linejoin="round"/>
    <path d="M50.83 24H34" stroke="black" stroke-width="1.5" stroke-miterlimit="10" stroke-linecap="round" stroke-linejoin="round"/>

    <path d="M69.5861 41.8875L68.1126 41.6067L68.1126 41.6069L69.5861 41.8875ZM62.2056 48V49.5H62.2057L62.2056 48ZM-13.4866 48L-13.487 49.5H-13.4866V48ZM-20.8671 39.0695L-22.3406 38.7887L-22.3406 38.7889L-20.8671 39.0695ZM-14.5861 6.11121L-16.0596 5.83031L-16.0596 5.8304L-14.5861 6.11121ZM-7.20496 1.43995e-09L-7.20499 1.5H-7.20496V1.43995e-09ZM68.4866 1.43995e-09L68.487 -1.5H68.4866V1.43995e-09ZM74.3936 8.64844L68.1126 41.6067L71.0596 42.1683L77.3406 9.21006L74.3936 8.64844ZM68.1126 41.6069C67.8504 42.9835 67.1167 44.2252 66.0384 45.1183L67.9519 47.4288C69.568 46.0904 70.6669 44.23 71.0596 42.1682L68.1126 41.6069ZM66.0384 45.1183C64.9601 46.0113 63.6046 46.4999 62.2054 46.5L62.2057 49.5C64.3038 49.4998 66.3358 48.7672 67.9519 47.4288L66.0384 45.1183ZM62.2056 46.5H-13.4866V49.5H62.2056V46.5ZM-13.4862 46.5C-14.3713 46.4998 -15.2454 46.304 -16.0462 45.9267L-17.325 48.6405C-16.1245 49.2062 -14.814 49.4996 -13.487 49.5L-13.4862 46.5ZM-16.0462 45.9267C-16.8471 45.5493 -17.555 44.9996 -18.1194 44.3168L-20.4318 46.2279C-19.5863 47.251 -18.5254 48.0748 -17.325 48.6405L-16.0462 45.9267ZM-18.1194 44.3168C-18.6837 43.6339 -19.0906 42.8347 -19.3109 41.9761L-22.2167 42.7217C-21.8868 44.0075 -21.2774 45.2048 -20.4318 46.2279L-18.1194 44.3168ZM-19.3109 41.9761C-19.5312 41.1175 -19.5594 40.2209 -19.3936 39.3501L-22.3406 38.7889C-22.589 40.093 -22.5467 41.4358 -22.2167 42.7217L-19.3109 41.9761ZM-19.3936 39.3503L-13.1126 6.39202L-16.0596 5.8304L-22.3406 38.7887L-19.3936 39.3503ZM-13.1126 6.39212C-12.8502 5.01559 -12.1164 3.77403 -11.038 2.88115L-12.9512 0.570383C-14.5674 1.90851 -15.6665 3.76868 -16.0596 5.83031L-13.1126 6.39212ZM-11.038 2.88115C-9.95961 1.9883 -8.60411 1.49997 -7.20499 1.5L-7.20493 -1.5C-9.30288 -1.50004 -11.335 -0.767775 -12.9512 0.570383L-11.038 2.88115ZM-7.20496 1.5H68.4866V-1.5H-7.20496V1.5ZM68.4862 1.5C69.3713 1.50024 70.2454 1.69599 71.0463 2.07334L72.325 -0.640494C71.1245 -1.20615 69.814 -1.49965 68.487 -1.5L68.4862 1.5ZM71.0463 2.07334C71.8471 2.45069 72.555 3.00036 73.1193 3.68324L75.4318 1.77212C74.5863 0.748994 73.5255 -0.0748398 72.325 -0.640494L71.0463 2.07334ZM73.1193 3.68324C73.6837 4.36611 74.0906 5.16533 74.3109 6.0239L77.2167 5.27832C76.8868 3.99247 76.2774 2.79525 75.4318 1.77212L73.1193 3.68324ZM74.3109 6.0239C74.5312 6.88247 74.5594 7.77915 74.3936 8.6499L77.3406 9.21112C77.589 7.90703 77.5466 6.56416 77.2167 5.27832L74.3109 6.0239Z" fill="#DEDEDE" mask="url(#path-1-inside-1_1060_35)"/>
</svg>
