<svg width="326" height="192" viewBox="0 0 342 192" fill="none" xmlns="http://www.w3.org/2000/svg" preserveAspectRatio="none">
    <rect width="342" height="192" rx="24" fill="#FE9534"/>
    <mask id="mask0_1_73" style="mask-type:alpha" maskUnits="userSpaceOnUse" x="8" y="0" width="325" height="192">
        <rect x="8" width="325" height="192" rx="24" fill="#FE7B01"/>
    </mask>
    <g mask="url(#mask0_1_73)">
        <path d="M262.141 193.068C262.141 193.068 269.044 157.103 309.712 145.481C293.437 156.674 274.749 165.758 269.062 193.086L262.141 193.068Z" stroke="white" stroke-miterlimit="10"/>
        <path d="M311.265 157.121C308.964 155.013 312.257 144.865 314.52 150.014C316.784 155.162 311.265 157.121 311.265 157.121ZM311.265 157.121C271.644 166.895 269.062 193.086 269.062 193.086C269.062 193.086 273.795 173.63 288.667 173.63M288.667 173.63C303.539 173.63 298.414 193.869 292.072 190.418C288.667 188.254 290.744 184.71 291.211 182.154C291.679 179.599 292.614 173.63 288.667 173.63Z" stroke="white" stroke-miterlimit="10"/>
        <path d="M293.411 174.637L290 173.5L290.075 173.625C291.008 175.179 291.5 176.957 291.5 178.769C291.5 179.587 291.4 180.401 291.201 181.194L290.5 184L290.227 185.914C290.08 186.94 290.291 187.985 290.824 188.873L291.077 189.294C291.353 189.755 291.755 190.128 292.236 190.368C293.032 190.766 293.968 190.766 294.764 190.368C295.245 190.128 295.647 189.755 295.923 189.294L296.589 188.184C296.862 187.73 297.085 187.246 297.252 186.743L297.487 186.04C297.827 185.02 298 183.952 298 182.877V181.61C298 180.874 297.897 180.141 297.695 179.432L297.564 178.975C297.197 177.69 296.44 176.552 295.396 175.717C294.803 175.243 294.131 174.877 293.411 174.637Z" fill="white"/>
        <path d="M311.564 157.662C311.564 157.662 312.668 163.743 316.185 161.281C319.702 158.819 311.564 157.662 311.564 157.662Z" stroke="white" stroke-miterlimit="10"/>
        <path d="M305.877 159.416C305.877 159.416 306.775 164.322 309.618 162.326C312.462 160.33 305.877 159.416 305.877 159.416Z" stroke="white" stroke-miterlimit="10"/>
        <path d="M303.802 158.707C303.802 158.707 307.749 155.666 304.681 154.062C301.613 152.458 303.802 158.707 303.802 158.707Z" stroke="white" stroke-miterlimit="10"/>
        <path d="M291.287 177.492C291.287 177.492 278.361 177.025 277.5 193.403" stroke="white" stroke-miterlimit="10"/>
    </g>
    <g clip-path="url(#clip0_1_73)">
        <path d="M64.0197 38.3616H59.794C58.2928 38.3616 57.0759 39.5657 57.0759 41.0511V51.1332C57.0759 52.6185 58.2928 53.8226 59.794 53.8226H64.0197C65.5209 53.8226 66.7379 52.6185 66.7379 51.1332V41.0511C66.7379 39.5657 65.5209 38.3616 64.0197 38.3616Z" stroke="white" stroke-miterlimit="10"/>
        <path d="M83.8936 55.367C83.1845 55.6605 82.4229 55.8097 81.6543 55.8057H80.9271C79.4124 55.8057 77.9598 55.2103 76.8888 54.1506C75.8177 53.0908 75.216 51.6535 75.216 50.1548V42.0251C75.216 40.5264 75.8177 39.089 76.8888 38.0293C77.9598 36.9695 79.4124 36.3742 80.9271 36.3742H81.6543C82.3962 36.3792 83.1299 36.5282 83.8137 36.8129" stroke="white" stroke-miterlimit="10"/>
        <path d="M40.2705 36.6988C40.881 36.4833 41.5245 36.3734 42.1727 36.3742H42.9C43.65 36.3742 44.3926 36.5203 45.0855 36.8043C45.7784 37.0883 46.408 37.5046 46.9383 38.0293C47.4686 38.554 47.8894 39.177 48.1764 39.8626C48.4634 40.5482 48.6111 41.283 48.6111 42.0251V50.168C48.6111 50.9101 48.4634 51.6449 48.1764 52.3305C47.8894 53.0161 47.4686 53.639 46.9383 54.1638C46.408 54.6885 45.7784 55.1047 45.0855 55.3887C44.3926 55.6727 43.65 55.8189 42.9 55.8189H42.1727C41.4897 55.8191 40.8122 55.6972 40.1729 55.4591" stroke="white" stroke-miterlimit="10"/>
        <path d="M48.4869 40.9238H57.0759" stroke="white" stroke-miterlimit="10"/>
        <path d="M48.4869 51.1551H57.0759" stroke="white" stroke-miterlimit="10"/>
        <path d="M66.6182 40.9238H75.2027" stroke="white" stroke-miterlimit="10"/>
        <path d="M66.6182 51.1551H75.2027" stroke="white" stroke-miterlimit="10"/>
        <path d="M61.918 32.136V38.4011" stroke="white" stroke-miterlimit="10"/>
        <path d="M61.918 53.7042V59.9254" stroke="white" stroke-miterlimit="10"/>
        <path d="M79.5215 32.2194H44.4785C42.1275 32.2194 40.2217 34.1051 40.2217 36.4312V55.5688C40.2217 57.8949 42.1275 59.7806 44.4785 59.7806H79.5215C81.8725 59.7806 83.7783 57.8949 83.7783 55.5688V36.4312C83.7783 34.1051 81.8725 32.2194 79.5215 32.2194Z" stroke="white" stroke-miterlimit="10"/>
    </g>
    <path d="M300.27 34.8199C300.27 34.8199 305.57 35.7599 305.27 29.1299C306.04 32.7599 305.769 34.1299 310.859 34.3999C306.409 35.4899 305.27 35.5799 305.27 40.3999C304.72 37.1199 305.34 34.8199 300.27 34.8199Z" stroke="white" stroke-linecap="round" stroke-linejoin="round"/>
    <path d="M91 43.6025C91 43.6025 100.509 45.354 99.9708 33C101.352 39.764 100.868 42.3168 110 42.8199C102.016 44.8509 99.9708 45.0186 99.9708 54C98.984 47.8882 100.096 43.6025 91 43.6025Z" stroke="white" stroke-linecap="round" stroke-linejoin="round"/>
    <path d="M108.573 34C108.573 34 109.824 27.4938 101 27.8621C105.831 26.9169 107.655 27.2484 108.014 21C109.465 26.4627 109.585 27.8621 116 27.8621C111.634 28.5373 108.573 27.7762 108.573 34Z" stroke="white" stroke-linecap="round" stroke-linejoin="round"/>
    <path d="M295.81 37.9L297.49 28.59L306.22 26.31L297.31 25.4L295.77 17L294.18 25.59L287 27.31L294.36 28.63L295.81 37.9Z" fill="white"/>
    <path d="M31.0411 59L29.9048 65.6818L24 67.3182L30.0265 67.9713L31.0682 74L32.1436 67.8349L37 66.6005L32.0219 65.6531L31.0411 59Z" fill="white"/>
    <path d="M261.832 166.973C245.871 137.596 222.094 137.315 222.094 137.315C222.094 137.315 224.957 128.38 219.747 128.17C214.536 127.959 222.094 137.315 222.094 137.315" stroke="white" stroke-miterlimit="10"/>
    <path d="M258.687 191.906C258.687 191.906 260.906 152.215 234.5 169.5" stroke="white" stroke-miterlimit="10"/>
    <path d="M268 178C268 178 262.019 156.237 243.922 162.879C225.825 169.522 231.833 187.181 239.368 178.27C242.994 173.682 246.748 169.919 251.5 166.5" stroke="white" stroke-miterlimit="10"/>
    <path d="M263.193 168.587C263.193 168.587 262.442 150.834 250.377 140.706C259.179 144.94 268.355 156.478 271.5 172.5" stroke="white" stroke-miterlimit="10"/>
    <path d="M228.431 138.648C228.431 138.648 229.135 146.25 224.206 145.946C219.277 145.642 224.934 138.765 228.431 138.648Z" stroke="white" stroke-miterlimit="10"/>
    <path d="M230.308 138.344C230.308 138.344 223.994 134.017 227.374 130.438C230.754 126.86 232.468 135.561 230.308 138.344Z" stroke="white" stroke-miterlimit="10"/>
    <path d="M242.139 143.935C242.139 143.935 237.656 137.736 242.139 135.514C246.622 133.292 245.097 142.063 242.139 143.935Z" stroke="white" stroke-miterlimit="10"/>
    <path d="M238.661 143.106C238.661 143.106 237.135 150.59 232.488 148.883C227.84 147.176 235.258 142.217 238.661 143.106Z" stroke="white" stroke-miterlimit="10"/>
    <path d="M222.012 137.216C222.012 137.216 219.665 144.514 215.299 142.362C210.933 140.21 218.702 136 222.012 137.216Z" stroke="white" stroke-miterlimit="10"/>
    <path d="M241 166L234.5 169L232.5 173L232 176L232.5 179L234 180.5H236L239 179L244 173L251 167L250.5 166L246.5 165L241 166Z" fill="white"/>
    <circle cx="143.5" cy="161.5" r="2.5" fill="white"/>
    <circle cx="42.5" cy="161.5" r="2.5" fill="white"/>
    <circle cx="73.5" cy="161.5" r="2.5" fill="white"/>
    <circle cx="160.5" cy="109.5" r="2.5" fill="white"/>
    <circle cx="101.5" cy="109.5" r="2.5" fill="white"/>
    <circle cx="42.5" cy="109.5" r="2.5" fill="white"/>
    <circle cx="153.5" cy="161.5" r="2.5" fill="white"/>
    <circle cx="52.5" cy="161.5" r="2.5" fill="white"/>
    <circle cx="83.5" cy="161.5" r="2.5" fill="white"/>
    <circle cx="170.5" cy="109.5" r="2.5" fill="white"/>
    <circle cx="111.5" cy="109.5" r="2.5" fill="white"/>
    <circle cx="52.5" cy="109.5" r="2.5" fill="white"/>
    <circle cx="163.5" cy="161.5" r="2.5" fill="white"/>
    <circle cx="180.5" cy="109.5" r="2.5" fill="white"/>
    <circle cx="121.5" cy="109.5" r="2.5" fill="white"/>
    <circle cx="62.5" cy="109.5" r="2.5" fill="white"/>
    <circle cx="190.5" cy="109.5" r="2.5" fill="white"/>
    <circle cx="131.5" cy="109.5" r="2.5" fill="white"/>
    <circle cx="72.5" cy="109.5" r="2.5" fill="white"/>
    <path d="M144.754 147.07C146.504 147.07 147.764 146.272 148.632 145.194L147.722 144.424C147.022 145.306 146.042 145.922 144.754 145.922C142.654 145.922 141.072 144.438 141.072 142.058C141.072 139.776 142.486 138.124 144.74 138.124C145.86 138.124 146.882 138.6 147.708 139.622L148.618 138.866C147.568 137.578 146.168 136.962 144.74 136.962C141.562 136.962 139.798 139.244 139.798 142.058C139.798 145.306 142.066 147.07 144.754 147.07ZM149.551 137.06L153.303 147H154.395L158.147 137.06H156.845L153.863 145.236H153.849L150.867 137.06H149.551ZM158.93 137.06L162.682 147H163.774L167.526 137.06H166.224L163.242 145.236H163.228L160.246 137.06H158.93Z" fill="white"/>
    <line x1="66.4678" y1="155.177" x2="61.6315" y2="167.994" stroke="white"/>
    <path d="M38.598 143.262H37.254V147H36.05V137.326H38.598C39.5873 137.326 40.3853 137.587 40.992 138.11C41.5987 138.633 41.902 139.361 41.902 140.294C41.902 141.227 41.5987 141.955 40.992 142.478C40.3853 143.001 39.5873 143.262 38.598 143.262ZM37.254 142.198H38.598C39.942 142.198 40.614 141.563 40.614 140.294C40.614 139.025 39.942 138.39 38.598 138.39H37.254V142.198ZM43.2801 136.948H44.4281V147H43.2801V136.948ZM49.885 143.178V142.562C49.885 141.806 49.493 141.428 48.709 141.428C48.093 141.428 47.449 141.629 46.777 142.03L46.371 141.19C47.155 140.695 47.9996 140.448 48.905 140.448C49.5396 140.448 50.0576 140.611 50.459 140.938C50.8696 141.255 51.075 141.75 51.075 142.422V147H50.319L49.969 146.16C49.6703 146.468 49.3156 146.715 48.905 146.902C48.4943 147.079 48.121 147.168 47.785 147.168C47.2063 147.168 46.7443 147.009 46.399 146.692C46.0536 146.375 45.881 145.959 45.881 145.446C45.881 143.934 47.2156 143.178 49.885 143.178ZM47.561 144.536C47.3836 144.695 47.2623 144.839 47.197 144.97C47.141 145.091 47.113 145.255 47.113 145.46C47.113 145.656 47.197 145.829 47.365 145.978C47.5423 146.118 47.771 146.188 48.051 146.188C48.639 146.188 49.2503 145.927 49.885 145.404V144.004C48.709 144.023 47.9343 144.2 47.561 144.536ZM54.4575 141.498V145.334C54.4575 145.894 54.7235 146.174 55.2555 146.174C55.5635 146.174 55.9322 146.085 56.3615 145.908L56.5155 146.846C56.0582 147.061 55.5775 147.168 55.0735 147.168C54.5695 147.168 54.1495 147.019 53.8135 146.72C53.4775 146.412 53.3095 145.945 53.3095 145.32V141.498H52.4275V140.616H53.3095V139.356L54.1775 138.558H54.4575V140.616H56.2635V141.498H54.4575ZM63.2616 142.17V147H62.0716V142.226C62.0716 141.983 61.9736 141.797 61.7776 141.666C61.591 141.535 61.339 141.47 61.0216 141.47C60.359 141.47 59.673 141.708 58.9636 142.184V147H57.7736V140.616H58.5296L58.8796 141.344C59.5983 140.747 60.3776 140.448 61.2176 140.448C61.843 140.448 62.3376 140.607 62.7016 140.924C63.075 141.241 63.2616 141.657 63.2616 142.17ZM67.7868 146.188C68.4588 146.188 69.1308 145.987 69.8028 145.586L70.2088 146.426C69.4248 146.921 68.5848 147.168 67.6888 147.168C66.8021 147.168 66.0975 146.888 65.5748 146.328C65.0521 145.759 64.7908 144.942 64.7908 143.878C64.7908 142.814 65.0615 141.979 65.6028 141.372C66.1441 140.756 66.8628 140.448 67.7588 140.448C68.5708 140.448 69.2101 140.7 69.6768 141.204C69.8728 141.409 70.0361 141.708 70.1668 142.1C70.3068 142.492 70.3768 142.954 70.3768 143.486L69.9428 143.976H65.9808C66.0088 145.451 66.6108 146.188 67.7868 146.188ZM69.2008 143.094C69.2008 142.571 69.0655 142.151 68.7948 141.834C68.5241 141.517 68.1648 141.358 67.7168 141.358C67.2781 141.358 66.9048 141.517 66.5968 141.834C66.2888 142.142 66.1021 142.562 66.0368 143.094H69.2008ZM67.8008 139.818H66.9048L68.6828 137.242L69.6908 137.998L67.8008 139.818ZM79.9134 136.948H81.0614V147H80.3054L79.9554 146.16C79.2554 146.832 78.5321 147.168 77.7854 147.168C77.0481 147.168 76.4368 146.883 75.9514 146.314C75.4661 145.735 75.2234 144.956 75.2234 143.976C75.2234 142.996 75.5128 142.179 76.0914 141.526C76.6701 140.863 77.4168 140.532 78.3314 140.532C78.8261 140.532 79.3534 140.644 79.9134 140.868V136.948ZM78.6254 141.484C77.9254 141.484 77.3841 141.722 77.0014 142.198C76.6188 142.674 76.4274 143.253 76.4274 143.934C76.4274 144.615 76.5861 145.161 76.9034 145.572C77.2208 145.983 77.6314 146.188 78.1354 146.188C78.4154 146.188 78.7141 146.113 79.0314 145.964C79.3581 145.805 79.6521 145.591 79.9134 145.32V141.736C79.4748 141.568 79.0454 141.484 78.6254 141.484ZM85.6436 141.358C85.2889 141.358 84.9809 141.437 84.7196 141.596C84.4676 141.755 84.2809 141.96 84.1596 142.212C83.9356 142.688 83.8236 143.197 83.8236 143.738C83.8236 145.418 84.4069 146.258 85.5736 146.258C85.9282 146.258 86.2316 146.179 86.4836 146.02C86.7356 145.861 86.9269 145.656 87.0576 145.404C87.2816 144.937 87.3936 144.429 87.3936 143.878C87.3936 142.198 86.8102 141.358 85.6436 141.358ZM85.6436 140.448C86.6796 140.448 87.4356 140.77 87.9116 141.414C88.3876 142.058 88.6256 142.898 88.6256 143.934C88.6256 144.681 88.4296 145.371 88.0376 146.006C87.8229 146.351 87.5009 146.631 87.0716 146.846C86.6422 147.061 86.1289 147.168 85.5316 147.168C84.5049 147.168 83.7582 146.86 83.2916 146.244C82.8249 145.628 82.5916 144.802 82.5916 143.766C82.5916 143.159 82.6849 142.646 82.8716 142.226C83.0676 141.806 83.2729 141.484 83.4876 141.26C83.7022 141.027 83.9962 140.835 84.3696 140.686C84.7429 140.527 85.1676 140.448 85.6436 140.448Z" fill="white"/>
    <defs>
        <clipPath id="clip0_1_73">
            <rect width="44" height="28" fill="white" transform="translate(40 32)"/>
        </clipPath>
    </defs>
</svg>
