<svg width="342" height="192" viewBox="0 0 342 192" fill="none" xmlns="http://www.w3.org/2000/svg">
    <rect width="342" height="192" rx="24" fill="#FE7B01"/>
    <mask id="mask0_1_72" style="mask-type:alpha" maskUnits="userSpaceOnUse" x="8" y="0" width="325" height="192">
        <rect x="8" width="325" height="192" rx="24" fill="#FE7B01"/>
    </mask>
    <g mask="url(#mask0_1_72)">
        <path d="M262.141 193.068C262.141 193.068 269.044 157.103 309.712 145.481C293.437 156.674 274.749 165.758 269.062 193.086L262.141 193.068Z" stroke="white" stroke-miterlimit="10"/>
        <path d="M311.265 157.121C308.964 155.013 312.257 144.865 314.52 150.014C316.784 155.162 311.265 157.121 311.265 157.121ZM311.265 157.121C271.644 166.895 269.062 193.086 269.062 193.086C269.062 193.086 273.795 173.63 288.667 173.63M288.667 173.63C303.539 173.63 298.414 193.869 292.072 190.418C288.667 188.254 290.744 184.71 291.211 182.154C291.679 179.599 292.614 173.63 288.667 173.63Z" stroke="white" stroke-miterlimit="10"/>
        <path d="M293.411 174.637L290 173.5L290.075 173.625C291.008 175.179 291.5 176.957 291.5 178.769C291.5 179.587 291.4 180.401 291.201 181.194L290.5 184L290.227 185.914C290.08 186.94 290.291 187.985 290.824 188.873L291.077 189.294C291.353 189.755 291.755 190.128 292.236 190.368C293.032 190.766 293.968 190.766 294.764 190.368C295.245 190.128 295.647 189.755 295.923 189.294L296.589 188.184C296.862 187.73 297.085 187.246 297.252 186.743L297.487 186.04C297.827 185.02 298 183.952 298 182.877V181.61C298 180.874 297.897 180.141 297.695 179.432L297.564 178.975C297.197 177.69 296.44 176.552 295.396 175.717C294.803 175.243 294.131 174.877 293.411 174.637Z" fill="white"/>
        <path d="M311.564 157.662C311.564 157.662 312.668 163.743 316.185 161.281C319.702 158.819 311.564 157.662 311.564 157.662Z" stroke="white" stroke-miterlimit="10"/>
        <path d="M305.877 159.416C305.877 159.416 306.775 164.322 309.618 162.326C312.462 160.33 305.877 159.416 305.877 159.416Z" stroke="white" stroke-miterlimit="10"/>
        <path d="M303.802 158.707C303.802 158.707 307.749 155.666 304.681 154.062C301.613 152.458 303.802 158.707 303.802 158.707Z" stroke="white" stroke-miterlimit="10"/>
        <path d="M291.287 177.492C291.287 177.492 278.361 177.025 277.5 193.403" stroke="white" stroke-miterlimit="10"/>
    </g>
    <circle cx="143.5" cy="161.5" r="2.5" fill="white"/>
    <circle cx="42.5" cy="161.5" r="2.5" fill="white"/>
    <circle cx="73.5" cy="161.5" r="2.5" fill="white"/>
    <circle cx="160.5" cy="109.5" r="2.5" fill="white"/>

    <circle cx="101.5" cy="109.5" r="2.5" fill="white"/>
    <circle cx="42.5" cy="109.5" r="2.5" fill="white"/>
    <circle cx="153.5" cy="161.5" r="2.5" fill="white"/>
    <circle cx="52.5" cy="161.5" r="2.5" fill="white"/>
    <circle cx="83.5" cy="161.5" r="2.5" fill="white"/>
    <circle cx="170.5" cy="109.5" r="2.5" fill="white"/>

    <circle cx="111.5" cy="109.5" r="2.5" fill="white"/>
    <circle cx="52.5" cy="109.5" r="2.5" fill="white"/>
    <circle cx="163.5" cy="161.5" r="2.5" fill="white"/>
    <circle cx="180.5" cy="109.5" r="2.5" fill="white"/>

    <circle cx="121.5" cy="109.5" r="2.5" fill="white"/>
    <circle cx="62.5" cy="109.5" r="2.5" fill="white"/>
    <circle cx="190.5" cy="109.5" r="2.5" fill="white"/>

    <circle cx="131.5" cy="109.5" r="2.5" fill="white"/>
    <circle cx="72.5" cy="109.5" r="2.5" fill="white"/>
    <path d="M144.754 147.07C146.504 147.07 147.764 146.272 148.632 145.194L147.722 144.424C147.022 145.306 146.042 145.922 144.754 145.922C142.654 145.922 141.072 144.438 141.072 142.058C141.072 139.776 142.486 138.124 144.74 138.124C145.86 138.124 146.882 138.6 147.708 139.622L148.618 138.866C147.568 137.578 146.168 136.962 144.74 136.962C141.562 136.962 139.798 139.244 139.798 142.058C139.798 145.306 142.066 147.07 144.754 147.07ZM149.551 137.06L153.303 147H154.395L158.147 137.06H156.845L153.863 145.236H153.849L150.867 137.06H149.551ZM158.93 137.06L162.682 147H163.774L167.526 137.06H166.224L163.242 145.236H163.228L160.246 137.06H158.93Z" fill="white"/>
    <line x1="66.4678" y1="155.177" x2="61.6315" y2="167.994" stroke="white"/>
    <g clip-path="url(#clip0_1_72)">
        <path d="M64.0197 38.3616H59.794C58.2928 38.3616 57.0759 39.5657 57.0759 41.0511V51.1332C57.0759 52.6185 58.2928 53.8226 59.794 53.8226H64.0197C65.5209 53.8226 66.7379 52.6185 66.7379 51.1332V41.0511C66.7379 39.5657 65.5209 38.3616 64.0197 38.3616Z" stroke="white" stroke-miterlimit="10"/>
        <path d="M83.8936 55.367C83.1845 55.6605 82.4229 55.8097 81.6543 55.8057H80.9271C79.4124 55.8057 77.9598 55.2103 76.8888 54.1506C75.8177 53.0908 75.216 51.6535 75.216 50.1548V42.0251C75.216 40.5264 75.8177 39.089 76.8888 38.0293C77.9598 36.9695 79.4124 36.3742 80.9271 36.3742H81.6543C82.3962 36.3792 83.1299 36.5282 83.8137 36.8129" stroke="white" stroke-miterlimit="10"/>
        <path d="M40.2705 36.6988C40.881 36.4833 41.5245 36.3734 42.1727 36.3742H42.9C43.65 36.3742 44.3926 36.5203 45.0855 36.8043C45.7784 37.0883 46.408 37.5046 46.9383 38.0293C47.4686 38.554 47.8894 39.177 48.1764 39.8626C48.4634 40.5482 48.6111 41.283 48.6111 42.0251V50.168C48.6111 50.9101 48.4634 51.6449 48.1764 52.3305C47.8894 53.0161 47.4686 53.639 46.9383 54.1638C46.408 54.6885 45.7784 55.1047 45.0855 55.3887C44.3926 55.6727 43.65 55.8189 42.9 55.8189H42.1727C41.4897 55.8191 40.8122 55.6972 40.1729 55.4591" stroke="white" stroke-miterlimit="10"/>
        <path d="M48.4869 40.9238H57.0759" stroke="white" stroke-miterlimit="10"/>
        <path d="M48.4869 51.1551H57.0759" stroke="white" stroke-miterlimit="10"/>
        <path d="M66.6182 40.9238H75.2027" stroke="white" stroke-miterlimit="10"/>
        <path d="M66.6182 51.1551H75.2027" stroke="white" stroke-miterlimit="10"/>
        <path d="M61.918 32.136V38.4011" stroke="white" stroke-miterlimit="10"/>
        <path d="M61.918 53.7042V59.9254" stroke="white" stroke-miterlimit="10"/>
        <path d="M79.5215 32.2194H44.4785C42.1275 32.2194 40.2217 34.1051 40.2217 36.4312V55.5688C40.2217 57.8949 42.1275 59.7806 44.4785 59.7806H79.5215C81.8725 59.7806 83.7783 57.8949 83.7783 55.5688V36.4312C83.7783 34.1051 81.8725 32.2194 79.5215 32.2194Z" stroke="white" stroke-miterlimit="10"/>
    </g>
    <path d="M300.27 34.8199C300.27 34.8199 305.57 35.7599 305.27 29.1299C306.04 32.7599 305.769 34.1299 310.859 34.3999C306.409 35.4899 305.27 35.5799 305.27 40.3999C304.72 37.1199 305.34 34.8199 300.27 34.8199Z" stroke="white" stroke-linecap="round" stroke-linejoin="round"/>
    <path d="M91 43.6025C91 43.6025 100.509 45.354 99.9708 33C101.352 39.764 100.868 42.3168 110 42.8199C102.016 44.8509 99.9708 45.0186 99.9708 54C98.984 47.8882 100.096 43.6025 91 43.6025Z" stroke="white" stroke-linecap="round" stroke-linejoin="round"/>
    <path d="M108.573 34C108.573 34 109.824 27.4938 101 27.8621C105.831 26.9169 107.655 27.2484 108.014 21C109.465 26.4627 109.585 27.8621 116 27.8621C111.634 28.5373 108.573 27.7762 108.573 34Z" stroke="white" stroke-linecap="round" stroke-linejoin="round"/>
    <path d="M295.81 37.9L297.49 28.59L306.22 26.31L297.31 25.4L295.77 17L294.18 25.59L287 27.31L294.36 28.63L295.81 37.9Z" fill="white"/>
    <path d="M31.0411 59L29.9048 65.6818L24 67.3182L30.0265 67.9713L31.0682 74L32.1436 67.8349L37 66.6005L32.0219 65.6531L31.0411 59Z" fill="white"/>
    <path d="M261.832 166.973C245.871 137.596 222.094 137.315 222.094 137.315C222.094 137.315 224.957 128.38 219.747 128.17C214.536 127.959 222.094 137.315 222.094 137.315" stroke="white" stroke-miterlimit="10"/>
    <path d="M258.687 191.906C258.687 191.906 260.906 152.215 234.5 169.5" stroke="white" stroke-miterlimit="10"/>
    <path d="M268 178C268 178 262.019 156.237 243.922 162.879C225.825 169.522 231.833 187.181 239.368 178.27C242.994 173.682 246.748 169.919 251.5 166.5" stroke="white" stroke-miterlimit="10"/>
    <path d="M263.193 168.587C263.193 168.587 262.442 150.834 250.377 140.706C259.179 144.94 268.355 156.478 271.5 172.5" stroke="white" stroke-miterlimit="10"/>
    <path d="M228.431 138.648C228.431 138.648 229.135 146.25 224.206 145.946C219.277 145.642 224.934 138.765 228.431 138.648Z" stroke="white" stroke-miterlimit="10"/>
    <path d="M230.308 138.344C230.308 138.344 223.994 134.017 227.374 130.438C230.754 126.86 232.468 135.561 230.308 138.344Z" stroke="white" stroke-miterlimit="10"/>
    <path d="M242.139 143.935C242.139 143.935 237.656 137.736 242.139 135.514C246.622 133.292 245.097 142.063 242.139 143.935Z" stroke="white" stroke-miterlimit="10"/>
    <path d="M238.661 143.106C238.661 143.106 237.135 150.59 232.488 148.883C227.84 147.176 235.258 142.217 238.661 143.106Z" stroke="white" stroke-miterlimit="10"/>
    <path d="M222.012 137.216C222.012 137.216 219.665 144.514 215.299 142.362C210.933 140.21 218.702 136 222.012 137.216Z" stroke="white" stroke-miterlimit="10"/>
    <path d="M241 166L234.5 169L232.5 173L232 176L232.5 179L234 180.5H236L239 179L244 173L251 167L250.5 166L246.5 165L241 166Z" fill="white"/>
    <path d="M37.092 137.004V145.88H38.366V149.632H37.162V147H30.288V149.632H29.084V145.88H29.854C30.19 145.301 30.5073 144.653 30.806 143.934C31.114 143.215 31.3847 142.464 31.618 141.68C31.8513 140.887 32.0427 140.093 32.192 139.3C32.3413 138.507 32.4347 137.741 32.472 137.004H37.092ZM33.578 138.138C33.5407 138.679 33.4473 139.291 33.298 139.972C33.158 140.653 32.976 141.353 32.752 142.072C32.5373 142.781 32.2947 143.467 32.024 144.13C31.7627 144.793 31.4827 145.376 31.184 145.88H35.846V138.138H33.578ZM41.1017 139.496V147H39.8697V139.496H41.1017ZM40.4997 136.682C40.6864 136.682 40.8497 136.747 40.9897 136.878C41.139 136.999 41.2137 137.195 41.2137 137.466C41.2137 137.727 41.139 137.923 40.9897 138.054C40.8497 138.185 40.6864 138.25 40.4997 138.25C40.2944 138.25 40.1217 138.185 39.9817 138.054C39.8417 137.923 39.7717 137.727 39.7717 137.466C39.7717 137.195 39.8417 136.999 39.9817 136.878C40.1217 136.747 40.2944 136.682 40.4997 136.682ZM49.5551 136.388C49.5177 136.855 49.4011 137.247 49.2051 137.564C49.0184 137.881 48.7384 138.119 48.3651 138.278C47.9917 138.437 47.5064 138.516 46.9091 138.516C46.3024 138.516 45.8124 138.437 45.4391 138.278C45.0751 138.119 44.8091 137.886 44.6411 137.578C44.4731 137.261 44.3704 136.864 44.3331 136.388H45.4811C45.5277 136.892 45.6584 137.233 45.8731 137.41C46.0971 137.578 46.4517 137.662 46.9371 137.662C47.3664 137.662 47.7024 137.573 47.9451 137.396C48.1971 137.209 48.3464 136.873 48.3931 136.388H49.5551ZM44.6411 144.074C44.6411 144.158 44.6364 144.279 44.6271 144.438C44.6271 144.587 44.6224 144.751 44.6131 144.928C44.6037 145.096 44.5944 145.259 44.5851 145.418C44.5757 145.567 44.5664 145.689 44.5571 145.782L48.5751 139.496H50.0871V147H48.9391V142.576C48.9391 142.427 48.9391 142.231 48.9391 141.988C48.9484 141.745 48.9577 141.507 48.9671 141.274C48.9764 141.031 48.9857 140.849 48.9951 140.728L45.0051 147H43.4791V139.496H44.6411V144.074ZM55.4852 147.14C54.8225 147.14 54.2298 147.005 53.7072 146.734C53.1938 146.463 52.7878 146.043 52.4892 145.474C52.1998 144.905 52.0552 144.177 52.0552 143.29C52.0552 142.366 52.2092 141.615 52.5172 141.036C52.8252 140.457 53.2405 140.033 53.7632 139.762C54.2952 139.491 54.8972 139.356 55.5692 139.356C55.9518 139.356 56.3205 139.398 56.6752 139.482C57.0298 139.557 57.3192 139.65 57.5432 139.762L57.1652 140.784C56.9412 140.7 56.6798 140.621 56.3812 140.546C56.0825 140.471 55.8025 140.434 55.5412 140.434C55.0372 140.434 54.6218 140.541 54.2952 140.756C53.9685 140.971 53.7258 141.288 53.5672 141.708C53.4085 142.128 53.3292 142.651 53.3292 143.276C53.3292 143.873 53.4085 144.382 53.5672 144.802C53.7258 145.222 53.9638 145.539 54.2812 145.754C54.5985 145.969 54.9952 146.076 55.4712 146.076C55.8818 146.076 56.2412 146.034 56.5492 145.95C56.8665 145.866 57.1558 145.763 57.4172 145.642V146.734C57.1652 146.865 56.8852 146.963 56.5772 147.028C56.2785 147.103 55.9145 147.14 55.4852 147.14ZM60.4337 139.496V142.618H64.5077V139.496H65.7397V147H64.5077V143.654H60.4337V147H59.2017V139.496H60.4337ZM69.2778 144.074C69.2778 144.158 69.2731 144.279 69.2638 144.438C69.2638 144.587 69.2591 144.751 69.2498 144.928C69.2404 145.096 69.2311 145.259 69.2218 145.418C69.2124 145.567 69.2031 145.689 69.1938 145.782L73.2118 139.496H74.7238V147H73.5758V142.576C73.5758 142.427 73.5758 142.231 73.5758 141.988C73.5851 141.745 73.5944 141.507 73.6038 141.274C73.6131 141.031 73.6224 140.849 73.6318 140.728L69.6418 147H68.1158V139.496H69.2778V144.074ZM83.1879 136.388C83.1505 136.855 83.0339 137.247 82.8379 137.564C82.6512 137.881 82.3712 138.119 81.9979 138.278C81.6245 138.437 81.1392 138.516 80.5419 138.516C79.9352 138.516 79.4452 138.437 79.0719 138.278C78.7079 138.119 78.4419 137.886 78.2739 137.578C78.1059 137.261 78.0032 136.864 77.9659 136.388H79.1139C79.1605 136.892 79.2912 137.233 79.5059 137.41C79.7299 137.578 80.0845 137.662 80.5699 137.662C80.9992 137.662 81.3352 137.573 81.5779 137.396C81.8299 137.209 81.9792 136.873 82.0259 136.388H83.1879ZM78.2739 144.074C78.2739 144.158 78.2692 144.279 78.2599 144.438C78.2599 144.587 78.2552 144.751 78.2459 144.928C78.2365 145.096 78.2272 145.259 78.2179 145.418C78.2085 145.567 78.1992 145.689 78.1899 145.782L82.2079 139.496H83.7199V147H82.5719V142.576C82.5719 142.427 82.5719 142.231 82.5719 141.988C82.5812 141.745 82.5905 141.507 82.5999 141.274C82.6092 141.031 82.6185 140.849 82.6279 140.728L78.6379 147H77.1119V139.496H78.2739V144.074ZM94.9065 139.496V145.964H95.9985V149.604H94.8085V147H89.5865V149.604H88.4105V145.964H89.0125C89.4419 145.367 89.7965 144.718 90.0765 144.018C90.3659 143.309 90.5805 142.571 90.7205 141.806C90.8699 141.031 90.9492 140.261 90.9585 139.496H94.9065ZM92.0505 140.462C92.0132 141.097 91.9152 141.755 91.7565 142.436C91.5979 143.108 91.3925 143.752 91.1405 144.368C90.8979 144.984 90.6132 145.516 90.2865 145.964H93.7165V140.462H92.0505ZM103.993 143.234C103.993 143.859 103.909 144.415 103.741 144.9C103.583 145.376 103.349 145.782 103.041 146.118C102.743 146.454 102.374 146.711 101.935 146.888C101.506 147.056 101.025 147.14 100.493 147.14C99.9986 147.14 99.5413 147.056 99.1213 146.888C98.7013 146.711 98.3373 146.454 98.0293 146.118C97.7213 145.782 97.4786 145.376 97.3013 144.9C97.1333 144.415 97.0493 143.859 97.0493 143.234C97.0493 142.403 97.1893 141.703 97.4693 141.134C97.7493 140.555 98.1506 140.117 98.6733 139.818C99.196 139.51 99.8166 139.356 100.535 139.356C101.217 139.356 101.814 139.51 102.327 139.818C102.85 140.117 103.256 140.555 103.545 141.134C103.844 141.703 103.993 142.403 103.993 143.234ZM98.3233 143.234C98.3233 143.822 98.398 144.335 98.5473 144.774C98.706 145.203 98.9486 145.535 99.2753 145.768C99.602 146.001 100.017 146.118 100.521 146.118C101.025 146.118 101.441 146.001 101.767 145.768C102.094 145.535 102.332 145.203 102.481 144.774C102.64 144.335 102.719 143.822 102.719 143.234C102.719 142.637 102.64 142.128 102.481 141.708C102.323 141.288 102.08 140.966 101.753 140.742C101.436 140.509 101.021 140.392 100.507 140.392C99.742 140.392 99.1866 140.644 98.8413 141.148C98.496 141.652 98.3233 142.347 98.3233 143.234Z" fill="white"/>
    <defs>
        <clipPath id="clip0_1_72">
            <rect width="44" height="28" fill="white" transform="translate(40 32)"/>
        </clipPath>
    </defs>
</svg>
