<svg width="342" height="192" viewBox="0 0 342 192" fill="none" xmlns="http://www.w3.org/2000/svg" preserveAspectRatio="none">
    <rect width="342" height="192" rx="24" fill="#FE9534"/>
    <mask id="mask0_1_73" style="mask-type:alpha" maskUnits="userSpaceOnUse" x="8" y="0" width="325" height="192">
        <rect x="8" width="325" height="192" rx="24" fill="#FE7B01"/>
    </mask>
    <g mask="url(#mask0_1_73)">
        <path d="M262.141 193.068C262.141 193.068 269.044 157.103 309.712 145.481C293.437 156.674 274.749 165.758 269.062 193.086L262.141 193.068Z" stroke="white" stroke-miterlimit="10"/>
        <path d="M311.265 157.121C308.964 155.013 312.257 144.865 314.52 150.014C316.784 155.162 311.265 157.121 311.265 157.121ZM311.265 157.121C271.644 166.895 269.062 193.086 269.062 193.086C269.062 193.086 273.795 173.63 288.667 173.63M288.667 173.63C303.539 173.63 298.414 193.869 292.072 190.418C288.667 188.254 290.744 184.71 291.211 182.154C291.679 179.599 292.614 173.63 288.667 173.63Z" stroke="white" stroke-miterlimit="10"/>
        <path d="M293.411 174.637L290 173.5L290.075 173.625C291.008 175.179 291.5 176.957 291.5 178.769C291.5 179.587 291.4 180.401 291.201 181.194L290.5 184L290.227 185.914C290.08 186.94 290.291 187.985 290.824 188.873L291.077 189.294C291.353 189.755 291.755 190.128 292.236 190.368C293.032 190.766 293.968 190.766 294.764 190.368C295.245 190.128 295.647 189.755 295.923 189.294L296.589 188.184C296.862 187.73 297.085 187.246 297.252 186.743L297.487 186.04C297.827 185.02 298 183.952 298 182.877V181.61C298 180.874 297.897 180.141 297.695 179.432L297.564 178.975C297.197 177.69 296.44 176.552 295.396 175.717C294.803 175.243 294.131 174.877 293.411 174.637Z" fill="white"/>
        <path d="M311.564 157.662C311.564 157.662 312.668 163.743 316.185 161.281C319.702 158.819 311.564 157.662 311.564 157.662Z" stroke="white" stroke-miterlimit="10"/>
        <path d="M305.877 159.416C305.877 159.416 306.775 164.322 309.618 162.326C312.462 160.33 305.877 159.416 305.877 159.416Z" stroke="white" stroke-miterlimit="10"/>
        <path d="M303.802 158.707C303.802 158.707 307.749 155.666 304.681 154.062C301.613 152.458 303.802 158.707 303.802 158.707Z" stroke="white" stroke-miterlimit="10"/>
        <path d="M291.287 177.492C291.287 177.492 278.361 177.025 277.5 193.403" stroke="white" stroke-miterlimit="10"/>
    </g>
    <g clip-path="url(#clip0_1_73)">
        <path d="M64.0197 38.3616H59.794C58.2928 38.3616 57.0759 39.5657 57.0759 41.0511V51.1332C57.0759 52.6185 58.2928 53.8226 59.794 53.8226H64.0197C65.5209 53.8226 66.7379 52.6185 66.7379 51.1332V41.0511C66.7379 39.5657 65.5209 38.3616 64.0197 38.3616Z" stroke="white" stroke-miterlimit="10"/>
        <path d="M83.8936 55.367C83.1845 55.6605 82.4229 55.8097 81.6543 55.8057H80.9271C79.4124 55.8057 77.9598 55.2103 76.8888 54.1506C75.8177 53.0908 75.216 51.6535 75.216 50.1548V42.0251C75.216 40.5264 75.8177 39.089 76.8888 38.0293C77.9598 36.9695 79.4124 36.3742 80.9271 36.3742H81.6543C82.3962 36.3792 83.1299 36.5282 83.8137 36.8129" stroke="white" stroke-miterlimit="10"/>
        <path d="M40.2705 36.6988C40.881 36.4833 41.5245 36.3734 42.1727 36.3742H42.9C43.65 36.3742 44.3926 36.5203 45.0855 36.8043C45.7784 37.0883 46.408 37.5046 46.9383 38.0293C47.4686 38.554 47.8894 39.177 48.1764 39.8626C48.4634 40.5482 48.6111 41.283 48.6111 42.0251V50.168C48.6111 50.9101 48.4634 51.6449 48.1764 52.3305C47.8894 53.0161 47.4686 53.639 46.9383 54.1638C46.408 54.6885 45.7784 55.1047 45.0855 55.3887C44.3926 55.6727 43.65 55.8189 42.9 55.8189H42.1727C41.4897 55.8191 40.8122 55.6972 40.1729 55.4591" stroke="white" stroke-miterlimit="10"/>
        <path d="M48.4869 40.9238H57.0759" stroke="white" stroke-miterlimit="10"/>
        <path d="M48.4869 51.1551H57.0759" stroke="white" stroke-miterlimit="10"/>
        <path d="M66.6182 40.9238H75.2027" stroke="white" stroke-miterlimit="10"/>
        <path d="M66.6182 51.1551H75.2027" stroke="white" stroke-miterlimit="10"/>
        <path d="M61.918 32.136V38.4011" stroke="white" stroke-miterlimit="10"/>
        <path d="M61.918 53.7042V59.9254" stroke="white" stroke-miterlimit="10"/>
        <path d="M79.5215 32.2194H44.4785C42.1275 32.2194 40.2217 34.1051 40.2217 36.4312V55.5688C40.2217 57.8949 42.1275 59.7806 44.4785 59.7806H79.5215C81.8725 59.7806 83.7783 57.8949 83.7783 55.5688V36.4312C83.7783 34.1051 81.8725 32.2194 79.5215 32.2194Z" stroke="white" stroke-miterlimit="10"/>
    </g>
    <path d="M300.27 34.8199C300.27 34.8199 305.57 35.7599 305.27 29.1299C306.04 32.7599 305.769 34.1299 310.859 34.3999C306.409 35.4899 305.27 35.5799 305.27 40.3999C304.72 37.1199 305.34 34.8199 300.27 34.8199Z" stroke="white" stroke-linecap="round" stroke-linejoin="round"/>
    <path d="M91 43.6025C91 43.6025 100.509 45.354 99.9708 33C101.352 39.764 100.868 42.3168 110 42.8199C102.016 44.8509 99.9708 45.0186 99.9708 54C98.984 47.8882 100.096 43.6025 91 43.6025Z" stroke="white" stroke-linecap="round" stroke-linejoin="round"/>
    <path d="M108.573 34C108.573 34 109.824 27.4938 101 27.8621C105.831 26.9169 107.655 27.2484 108.014 21C109.465 26.4627 109.585 27.8621 116 27.8621C111.634 28.5373 108.573 27.7762 108.573 34Z" stroke="white" stroke-linecap="round" stroke-linejoin="round"/>
    <path d="M295.81 37.9L297.49 28.59L306.22 26.31L297.31 25.4L295.77 17L294.18 25.59L287 27.31L294.36 28.63L295.81 37.9Z" fill="white"/>
    <path d="M31.0411 59L29.9048 65.6818L24 67.3182L30.0265 67.9713L31.0682 74L32.1436 67.8349L37 66.6005L32.0219 65.6531L31.0411 59Z" fill="white"/>
    <path d="M261.832 166.973C245.871 137.596 222.094 137.315 222.094 137.315C222.094 137.315 224.957 128.38 219.747 128.17C214.536 127.959 222.094 137.315 222.094 137.315" stroke="white" stroke-miterlimit="10"/>
    <path d="M258.687 191.906C258.687 191.906 260.906 152.215 234.5 169.5" stroke="white" stroke-miterlimit="10"/>
    <path d="M268 178C268 178 262.019 156.237 243.922 162.879C225.825 169.522 231.833 187.181 239.368 178.27C242.994 173.682 246.748 169.919 251.5 166.5" stroke="white" stroke-miterlimit="10"/>
    <path d="M263.193 168.587C263.193 168.587 262.442 150.834 250.377 140.706C259.179 144.94 268.355 156.478 271.5 172.5" stroke="white" stroke-miterlimit="10"/>
    <path d="M228.431 138.648C228.431 138.648 229.135 146.25 224.206 145.946C219.277 145.642 224.934 138.765 228.431 138.648Z" stroke="white" stroke-miterlimit="10"/>
    <path d="M230.308 138.344C230.308 138.344 223.994 134.017 227.374 130.438C230.754 126.86 232.468 135.561 230.308 138.344Z" stroke="white" stroke-miterlimit="10"/>
    <path d="M242.139 143.935C242.139 143.935 237.656 137.736 242.139 135.514C246.622 133.292 245.097 142.063 242.139 143.935Z" stroke="white" stroke-miterlimit="10"/>
    <path d="M238.661 143.106C238.661 143.106 237.135 150.59 232.488 148.883C227.84 147.176 235.258 142.217 238.661 143.106Z" stroke="white" stroke-miterlimit="10"/>
    <path d="M222.012 137.216C222.012 137.216 219.665 144.514 215.299 142.362C210.933 140.21 218.702 136 222.012 137.216Z" stroke="white" stroke-miterlimit="10"/>
    <path d="M241 166L234.5 169L232.5 173L232 176L232.5 179L234 180.5H236L239 179L244 173L251 167L250.5 166L246.5 165L241 166Z" fill="white"/>
    <circle cx="143.5" cy="161.5" r="2.5" fill="white"/>
    <circle cx="42.5" cy="161.5" r="2.5" fill="white"/>
    <circle cx="73.5" cy="161.5" r="2.5" fill="white"/>
    <circle cx="160.5" cy="109.5" r="2.5" fill="white"/>
    <circle cx="101.5" cy="109.5" r="2.5" fill="white"/>
    <circle cx="42.5" cy="109.5" r="2.5" fill="white"/>
    <circle cx="153.5" cy="161.5" r="2.5" fill="white"/>
    <circle cx="52.5" cy="161.5" r="2.5" fill="white"/>
    <circle cx="83.5" cy="161.5" r="2.5" fill="white"/>
    <circle cx="170.5" cy="109.5" r="2.5" fill="white"/>
    <circle cx="111.5" cy="109.5" r="2.5" fill="white"/>
    <circle cx="52.5" cy="109.5" r="2.5" fill="white"/>
    <circle cx="163.5" cy="161.5" r="2.5" fill="white"/>
    <circle cx="180.5" cy="109.5" r="2.5" fill="white"/>
    <circle cx="121.5" cy="109.5" r="2.5" fill="white"/>
    <circle cx="62.5" cy="109.5" r="2.5" fill="white"/>
    <circle cx="190.5" cy="109.5" r="2.5" fill="white"/>
    <circle cx="131.5" cy="109.5" r="2.5" fill="white"/>
    <circle cx="72.5" cy="109.5" r="2.5" fill="white"/>
    <path d="M144.754 147.07C146.504 147.07 147.764 146.272 148.632 145.194L147.722 144.424C147.022 145.306 146.042 145.922 144.754 145.922C142.654 145.922 141.072 144.438 141.072 142.058C141.072 139.776 142.486 138.124 144.74 138.124C145.86 138.124 146.882 138.6 147.708 139.622L148.618 138.866C147.568 137.578 146.168 136.962 144.74 136.962C141.562 136.962 139.798 139.244 139.798 142.058C139.798 145.306 142.066 147.07 144.754 147.07ZM149.551 137.06L153.303 147H154.395L158.147 137.06H156.845L153.863 145.236H153.849L150.867 137.06H149.551ZM158.93 137.06L162.682 147H163.774L167.526 137.06H166.224L163.242 145.236H163.228L160.246 137.06H158.93Z" fill="white"/>
    <line x1="66.4678" y1="155.177" x2="61.6315" y2="167.994" stroke="white"/>
    <path d="M43.092 137.004V145.88H44.366V149.632H43.162V147H36.288V149.632H35.084V145.88H35.854C36.19 145.301 36.5073 144.653 36.806 143.934C37.114 143.215 37.3847 142.464 37.618 141.68C37.8513 140.887 38.0427 140.093 38.192 139.3C38.3413 138.507 38.4347 137.741 38.472 137.004H43.092ZM39.578 138.138C39.5407 138.679 39.4473 139.291 39.298 139.972C39.158 140.653 38.976 141.353 38.752 142.072C38.5373 142.781 38.2947 143.467 38.024 144.13C37.7627 144.793 37.4827 145.376 37.184 145.88H41.846V138.138H39.578ZM47.1017 139.496V147H45.8697V139.496H47.1017ZM46.4997 136.682C46.6864 136.682 46.8497 136.747 46.9897 136.878C47.139 136.999 47.2137 137.195 47.2137 137.466C47.2137 137.727 47.139 137.923 46.9897 138.054C46.8497 138.185 46.6864 138.25 46.4997 138.25C46.2944 138.25 46.1217 138.185 45.9817 138.054C45.8417 137.923 45.7717 137.727 45.7717 137.466C45.7717 137.195 45.8417 136.999 45.9817 136.878C46.1217 136.747 46.2944 136.682 46.4997 136.682ZM55.5551 136.388C55.5177 136.855 55.4011 137.247 55.2051 137.564C55.0184 137.881 54.7384 138.119 54.3651 138.278C53.9917 138.437 53.5064 138.516 52.9091 138.516C52.3024 138.516 51.8124 138.437 51.4391 138.278C51.0751 138.119 50.8091 137.886 50.6411 137.578C50.4731 137.261 50.3704 136.864 50.3331 136.388H51.4811C51.5277 136.892 51.6584 137.233 51.8731 137.41C52.0971 137.578 52.4517 137.662 52.9371 137.662C53.3664 137.662 53.7024 137.573 53.9451 137.396C54.1971 137.209 54.3464 136.873 54.3931 136.388H55.5551ZM50.6411 144.074C50.6411 144.158 50.6364 144.279 50.6271 144.438C50.6271 144.587 50.6224 144.751 50.6131 144.928C50.6037 145.096 50.5944 145.259 50.5851 145.418C50.5757 145.567 50.5664 145.689 50.5571 145.782L54.5751 139.496H56.0871V147H54.9391V142.576C54.9391 142.427 54.9391 142.231 54.9391 141.988C54.9484 141.745 54.9577 141.507 54.9671 141.274C54.9764 141.031 54.9857 140.849 54.9951 140.728L51.0051 147H49.4791V139.496H50.6411V144.074ZM61.4852 147.14C60.8225 147.14 60.2298 147.005 59.7072 146.734C59.1938 146.463 58.7878 146.043 58.4892 145.474C58.1998 144.905 58.0552 144.177 58.0552 143.29C58.0552 142.366 58.2092 141.615 58.5172 141.036C58.8252 140.457 59.2405 140.033 59.7632 139.762C60.2952 139.491 60.8972 139.356 61.5692 139.356C61.9518 139.356 62.3205 139.398 62.6752 139.482C63.0298 139.557 63.3192 139.65 63.5432 139.762L63.1652 140.784C62.9412 140.7 62.6798 140.621 62.3812 140.546C62.0825 140.471 61.8025 140.434 61.5412 140.434C61.0372 140.434 60.6218 140.541 60.2952 140.756C59.9685 140.971 59.7258 141.288 59.5672 141.708C59.4085 142.128 59.3292 142.651 59.3292 143.276C59.3292 143.873 59.4085 144.382 59.5672 144.802C59.7258 145.222 59.9638 145.539 60.2812 145.754C60.5985 145.969 60.9952 146.076 61.4712 146.076C61.8818 146.076 62.2412 146.034 62.5492 145.95C62.8665 145.866 63.1558 145.763 63.4172 145.642V146.734C63.1652 146.865 62.8852 146.963 62.5772 147.028C62.2785 147.103 61.9145 147.14 61.4852 147.14ZM66.4337 139.496V142.618H70.5077V139.496H71.7397V147H70.5077V143.654H66.4337V147H65.2017V139.496H66.4337ZM75.2778 144.074C75.2778 144.158 75.2731 144.279 75.2638 144.438C75.2638 144.587 75.2591 144.751 75.2498 144.928C75.2404 145.096 75.2311 145.259 75.2218 145.418C75.2124 145.567 75.2031 145.689 75.1938 145.782L79.2118 139.496H80.7238V147H79.5758V142.576C79.5758 142.427 79.5758 142.231 79.5758 141.988C79.5851 141.745 79.5944 141.507 79.6038 141.274C79.6131 141.031 79.6224 140.849 79.6318 140.728L75.6418 147H74.1158V139.496H75.2778V144.074ZM89.1879 136.388C89.1505 136.855 89.0339 137.247 88.8379 137.564C88.6512 137.881 88.3712 138.119 87.9979 138.278C87.6245 138.437 87.1392 138.516 86.5419 138.516C85.9352 138.516 85.4452 138.437 85.0719 138.278C84.7079 138.119 84.4419 137.886 84.2739 137.578C84.1059 137.261 84.0032 136.864 83.9659 136.388H85.1139C85.1605 136.892 85.2912 137.233 85.5059 137.41C85.7299 137.578 86.0845 137.662 86.5699 137.662C86.9992 137.662 87.3352 137.573 87.5779 137.396C87.8299 137.209 87.9792 136.873 88.0259 136.388H89.1879ZM84.2739 144.074C84.2739 144.158 84.2692 144.279 84.2599 144.438C84.2599 144.587 84.2552 144.751 84.2459 144.928C84.2365 145.096 84.2272 145.259 84.2179 145.418C84.2085 145.567 84.1992 145.689 84.1899 145.782L88.2079 139.496H89.7199V147H88.5719V142.576C88.5719 142.427 88.5719 142.231 88.5719 141.988C88.5812 141.745 88.5905 141.507 88.5999 141.274C88.6092 141.031 88.6185 140.849 88.6279 140.728L84.6379 147H83.1119V139.496H84.2739V144.074ZM101.453 139.496V145.964H102.545V149.604H101.355V147H96.1334V149.604H94.9574V145.964H95.5594C95.9887 145.367 96.3434 144.718 96.6234 144.018C96.9127 143.309 97.1274 142.571 97.2674 141.806C97.4167 141.031 97.4961 140.261 97.5054 139.496H101.453ZM98.5974 140.462C98.5601 141.097 98.4621 141.755 98.3034 142.436C98.1447 143.108 97.9394 143.752 97.6874 144.368C97.4447 144.984 97.1601 145.516 96.8334 145.964H100.263V140.462H98.5974ZM110.54 143.234C110.54 143.859 110.456 144.415 110.288 144.9C110.13 145.376 109.896 145.782 109.588 146.118C109.29 146.454 108.921 146.711 108.482 146.888C108.053 147.056 107.572 147.14 107.04 147.14C106.546 147.14 106.088 147.056 105.668 146.888C105.248 146.711 104.884 146.454 104.576 146.118C104.268 145.782 104.026 145.376 103.848 144.9C103.68 144.415 103.596 143.859 103.596 143.234C103.596 142.403 103.736 141.703 104.016 141.134C104.296 140.555 104.698 140.117 105.22 139.818C105.743 139.51 106.364 139.356 107.082 139.356C107.764 139.356 108.361 139.51 108.874 139.818C109.397 140.117 109.803 140.555 110.092 141.134C110.391 141.703 110.54 142.403 110.54 143.234ZM104.87 143.234C104.87 143.822 104.945 144.335 105.094 144.774C105.253 145.203 105.496 145.535 105.822 145.768C106.149 146.001 106.564 146.118 107.068 146.118C107.572 146.118 107.988 146.001 108.314 145.768C108.641 145.535 108.879 145.203 109.028 144.774C109.187 144.335 109.266 143.822 109.266 143.234C109.266 142.637 109.187 142.128 109.028 141.708C108.87 141.288 108.627 140.966 108.3 140.742C107.983 140.509 107.568 140.392 107.054 140.392C106.289 140.392 105.734 140.644 105.388 141.148C105.043 141.652 104.87 142.347 104.87 143.234Z" fill="white"/>
    <defs>
        <clipPath id="clip0_1_73">
            <rect width="44" height="28" fill="white" transform="translate(40 32)"/>
        </clipPath>
    </defs>
</svg>
