<svg width="325" height="192" viewBox="0 0 325 192" fill="none" xmlns="http://www.w3.org/2000/svg" preserveAspectRatio="none">
    <g clip-path="url(#clip0_1_137)">
        <path d="M294 0H32C18.7452 0 8 10.7452 8 24V168C8 181.255 18.7452 192 32 192H294C307.255 192 318 181.255 318 168V24C318 10.7452 307.255 0 294 0Z" fill="#FEB067"/>
        <mask id="mask0_1_137" style="mask-type:alpha" maskUnits="userSpaceOnUse" x="0" y="0" width="325" height="192">
            <path d="M301 0H24C10.7452 0 0 10.7452 0 24V168C0 181.255 10.7452 192 24 192H301C314.255 192 325 181.255 325 168V24C325 10.7452 314.255 0 301 0Z" fill="#FE7B01"/>
        </mask>
        <g mask="url(#mask0_1_137)">
            <path d="M254.141 193.068C254.141 193.068 261.044 157.103 301.712 145.481C285.437 156.674 266.749 165.758 261.062 193.086L254.141 193.068Z" stroke="white" stroke-miterlimit="10"/>
            <path d="M303.265 157.121C263.644 166.895 261.062 193.086 261.062 193.086C261.062 193.086 265.795 173.63 280.667 173.63M303.265 157.121C300.964 155.013 304.257 144.865 306.52 150.014C308.784 155.162 303.265 157.121 303.265 157.121ZM280.667 173.63C295.539 173.63 290.414 193.869 284.072 190.418C280.667 188.254 282.744 184.71 283.211 182.154C283.679 179.599 284.614 173.63 280.667 173.63Z" stroke="white" stroke-miterlimit="10"/>
            <path d="M285.411 174.637L282 173.5L282.075 173.625C283.008 175.179 283.5 176.957 283.5 178.769C283.5 179.587 283.4 180.401 283.201 181.194L282.5 184L282.227 185.914C282.08 186.94 282.291 187.985 282.824 188.873L283.077 189.294C283.353 189.755 283.755 190.128 284.236 190.368C285.032 190.766 285.968 190.766 286.764 190.368C287.245 190.128 287.647 189.755 287.923 189.294L288.589 188.184C288.862 187.73 289.085 187.246 289.252 186.743L289.487 186.04C289.827 185.02 290 183.952 290 182.877V181.61C290 180.874 289.897 180.141 289.695 179.432L289.564 178.975C289.197 177.69 288.44 176.552 287.396 175.717C286.803 175.243 286.131 174.877 285.411 174.637Z" fill="white"/>
            <path d="M303.564 157.662C303.564 157.662 304.668 163.743 308.185 161.281C311.702 158.819 303.564 157.662 303.564 157.662Z" stroke="white" stroke-miterlimit="10"/>
            <path d="M297.877 159.416C297.877 159.416 298.775 164.322 301.618 162.326C304.462 160.33 297.877 159.416 297.877 159.416Z" stroke="white" stroke-miterlimit="10"/>
            <path d="M295.802 158.707C295.802 158.707 299.749 155.666 296.681 154.062C293.613 152.458 295.802 158.707 295.802 158.707Z" stroke="white" stroke-miterlimit="10"/>
            <path d="M283.287 177.492C283.287 177.492 270.361 177.025 269.5 193.403" stroke="white" stroke-miterlimit="10"/>
        </g>
        <path d="M56.02 38.3613H51.7943C50.2931 38.3613 49.0762 39.5654 49.0762 41.0508V51.1329C49.0762 52.6182 50.2931 53.8223 51.7943 53.8223H56.02C57.5212 53.8223 58.7382 52.6182 58.7382 51.1329V41.0508C58.7382 39.5654 57.5212 38.3613 56.02 38.3613Z" stroke="white" stroke-miterlimit="10"/>
        <path d="M75.8944 55.3668C75.1853 55.6603 74.4237 55.8095 73.6551 55.8055H72.9279C71.4132 55.8055 69.9606 55.2102 68.8896 54.1504C67.8185 53.0907 67.2168 51.6534 67.2168 50.1546V42.0249C67.2168 40.5262 67.8185 39.0889 68.8896 38.0291C69.9606 36.9694 71.4132 36.374 72.9279 36.374H73.6551C74.397 36.379 75.1307 36.5281 75.8146 36.8128" stroke="white" stroke-miterlimit="10"/>
        <path d="M32.2714 36.6987C32.8819 36.4831 33.5254 36.3733 34.1736 36.374H34.9008C35.6508 36.374 36.3935 36.5202 37.0864 36.8042C37.7793 37.0881 38.4089 37.5044 38.9392 38.0291C39.4695 38.5539 39.8902 39.1768 40.1773 39.8624C40.4643 40.548 40.612 41.2828 40.612 42.0249V50.1678C40.612 50.9099 40.4643 51.6447 40.1773 52.3303C39.8902 53.0159 39.4695 53.6389 38.9392 54.1636C38.4089 54.6883 37.7793 55.1046 37.0864 55.3886C36.3935 55.6726 35.6508 55.8187 34.9008 55.8187H34.1736C33.4906 55.8189 32.8131 55.6971 32.1738 55.459" stroke="white" stroke-miterlimit="10"/>
        <path d="M40.4863 40.9238H49.0753" stroke="white" stroke-miterlimit="10"/>
        <path d="M40.4863 51.1553H49.0753" stroke="white" stroke-miterlimit="10"/>
        <path d="M58.6172 40.9238H67.2017" stroke="white" stroke-miterlimit="10"/>
        <path d="M58.6172 51.1553H67.2017" stroke="white" stroke-miterlimit="10"/>
        <path d="M53.918 32.1357V38.4009" stroke="white" stroke-miterlimit="10"/>
        <path d="M53.918 53.7041V59.9253" stroke="white" stroke-miterlimit="10"/>
        <path d="M71.5225 32.2197H36.4794C34.1285 32.2197 32.2227 34.1054 32.2227 36.4316V55.5691C32.2227 57.8953 34.1285 59.781 36.4794 59.781H71.5225C73.8734 59.781 75.7792 57.8953 75.7792 55.5691V36.4316C75.7792 34.1054 73.8734 32.2197 71.5225 32.2197Z" stroke="white" stroke-miterlimit="10"/>
        <path d="M292.27 34.8199C292.27 34.8199 297.57 35.7599 297.27 29.1299C298.04 32.7599 297.769 34.1299 302.859 34.3999C298.409 35.4899 297.27 35.5799 297.27 40.3999C296.72 37.1199 297.34 34.8199 292.27 34.8199Z" stroke="white" stroke-linecap="round" stroke-linejoin="round"/>
        <path d="M83 43.6025C83 43.6025 92.509 45.354 91.9708 33C93.3523 39.764 92.8678 42.3168 102 42.8199C94.016 44.8509 91.9708 45.0186 91.9708 54C90.984 47.8882 92.0963 43.6025 83 43.6025Z" stroke="white" stroke-linecap="round" stroke-linejoin="round"/>
        <path d="M100.573 34C100.573 34 101.824 27.4938 93 27.8621C97.8314 26.9169 99.6548 27.2484 100.014 21C101.465 26.4627 101.585 27.8621 108 27.8621C103.634 28.5373 100.573 27.7762 100.573 34Z" stroke="white" stroke-linecap="round" stroke-linejoin="round"/>
        <path d="M287.81 37.9L289.49 28.59L298.22 26.31L289.31 25.4L287.77 17L286.18 25.59L279 27.31L286.36 28.63L287.81 37.9Z" fill="white"/>
        <path d="M23.0411 59L21.9048 65.6818L16 67.3182L22.0265 67.9713L23.0682 74L24.1436 67.8349L29 66.6005L24.0219 65.6531L23.0411 59Z" fill="white"/>
        <path d="M253.832 166.973C237.871 137.596 214.094 137.315 214.094 137.315C214.094 137.315 216.957 128.38 211.747 128.17C206.536 127.959 214.094 137.315 214.094 137.315" stroke="white" stroke-miterlimit="10"/>
        <path d="M250.687 191.907C250.687 191.907 252.906 152.215 226.5 169.5" stroke="white" stroke-miterlimit="10"/>
        <path d="M260 178C260 178 254.019 156.237 235.922 162.879C217.825 169.522 223.833 187.181 231.368 178.27C234.994 173.681 238.748 169.919 243.5 166.5" stroke="white" stroke-miterlimit="10"/>
        <path d="M255.193 168.587C255.193 168.587 254.442 150.834 242.377 140.706C251.179 144.94 260.355 156.478 263.5 172.5" stroke="white" stroke-miterlimit="10"/>
        <path d="M220.431 138.648C220.431 138.648 221.135 146.25 216.206 145.946C211.277 145.642 216.934 138.765 220.431 138.648Z" stroke="white" stroke-miterlimit="10"/>
        <path d="M222.308 138.344C222.308 138.344 215.994 134.017 219.374 130.438C222.754 126.86 224.468 135.561 222.308 138.344Z" stroke="white" stroke-miterlimit="10"/>
        <path d="M234.139 143.935C234.139 143.935 229.656 137.736 234.139 135.514C238.622 133.292 237.097 142.063 234.139 143.935Z" stroke="white" stroke-miterlimit="10"/>
        <path d="M230.661 143.106C230.661 143.106 229.135 150.59 224.488 148.883C219.84 147.176 227.258 142.217 230.661 143.106Z" stroke="white" stroke-miterlimit="10"/>
        <path d="M214.012 137.216C214.012 137.216 211.665 144.514 207.299 142.362C202.933 140.21 210.702 136 214.012 137.216Z" stroke="white" stroke-miterlimit="10"/>
        <path d="M233 166L226.5 169L224.5 173L224 176L224.5 179L226 180.5H228L231 179L236 173L243 167L242.5 166L238.5 165L233 166Z" fill="white"/>
        <path d="M135.5 164C136.881 164 138 162.881 138 161.5C138 160.119 136.881 159 135.5 159C134.119 159 133 160.119 133 161.5C133 162.881 134.119 164 135.5 164Z" fill="white"/>
        <path d="M34.5 164C35.8807 164 37 162.881 37 161.5C37 160.119 35.8807 159 34.5 159C33.1193 159 32 160.119 32 161.5C32 162.881 33.1193 164 34.5 164Z" fill="white"/>
        <path d="M65.5 164C66.8807 164 68 162.881 68 161.5C68 160.119 66.8807 159 65.5 159C64.1193 159 63 160.119 63 161.5C63 162.881 64.1193 164 65.5 164Z" fill="white"/>
        <path d="M152.5 112C153.881 112 155 110.881 155 109.5C155 108.119 153.881 107 152.5 107C151.119 107 150 108.119 150 109.5C150 110.881 151.119 112 152.5 112Z" fill="white"/>
        <path d="M93.5 112C94.8807 112 96 110.881 96 109.5C96 108.119 94.8807 107 93.5 107C92.1193 107 91 108.119 91 109.5C91 110.881 92.1193 112 93.5 112Z" fill="white"/>
        <path d="M34.5 112C35.8807 112 37 110.881 37 109.5C37 108.119 35.8807 107 34.5 107C33.1193 107 32 108.119 32 109.5C32 110.881 33.1193 112 34.5 112Z" fill="white"/>
        <path d="M145.5 164C146.881 164 148 162.881 148 161.5C148 160.119 146.881 159 145.5 159C144.119 159 143 160.119 143 161.5C143 162.881 144.119 164 145.5 164Z" fill="white"/>
        <path d="M44.5 164C45.8807 164 47 162.881 47 161.5C47 160.119 45.8807 159 44.5 159C43.1193 159 42 160.119 42 161.5C42 162.881 43.1193 164 44.5 164Z" fill="white"/>
        <path d="M75.5 164C76.8807 164 78 162.881 78 161.5C78 160.119 76.8807 159 75.5 159C74.1193 159 73 160.119 73 161.5C73 162.881 74.1193 164 75.5 164Z" fill="white"/>
        <path d="M162.5 112C163.881 112 165 110.881 165 109.5C165 108.119 163.881 107 162.5 107C161.119 107 160 108.119 160 109.5C160 110.881 161.119 112 162.5 112Z" fill="white"/>
        <path d="M103.5 112C104.881 112 106 110.881 106 109.5C106 108.119 104.881 107 103.5 107C102.119 107 101 108.119 101 109.5C101 110.881 102.119 112 103.5 112Z" fill="white"/>
        <path d="M44.5 112C45.8807 112 47 110.881 47 109.5C47 108.119 45.8807 107 44.5 107C43.1193 107 42 108.119 42 109.5C42 110.881 43.1193 112 44.5 112Z" fill="white"/>
        <path d="M155.5 164C156.881 164 158 162.881 158 161.5C158 160.119 156.881 159 155.5 159C154.119 159 153 160.119 153 161.5C153 162.881 154.119 164 155.5 164Z" fill="white"/>
        <path d="M172.5 112C173.881 112 175 110.881 175 109.5C175 108.119 173.881 107 172.5 107C171.119 107 170 108.119 170 109.5C170 110.881 171.119 112 172.5 112Z" fill="white"/>
        <path d="M113.5 112C114.881 112 116 110.881 116 109.5C116 108.119 114.881 107 113.5 107C112.119 107 111 108.119 111 109.5C111 110.881 112.119 112 113.5 112Z" fill="white"/>
        <path d="M54.5 112C55.8807 112 57 110.881 57 109.5C57 108.119 55.8807 107 54.5 107C53.1193 107 52 108.119 52 109.5C52 110.881 53.1193 112 54.5 112Z" fill="white"/>
        <path d="M182.5 112C183.881 112 185 110.881 185 109.5C185 108.119 183.881 107 182.5 107C181.119 107 180 108.119 180 109.5C180 110.881 181.119 112 182.5 112Z" fill="white"/>
        <path d="M123.5 112C124.881 112 126 110.881 126 109.5C126 108.119 124.881 107 123.5 107C122.119 107 121 108.119 121 109.5C121 110.881 122.119 112 123.5 112Z" fill="white"/>
        <path d="M64.5 112C65.8807 112 67 110.881 67 109.5C67 108.119 65.8807 107 64.5 107C63.1193 107 62 108.119 62 109.5C62 110.881 63.1193 112 64.5 112Z" fill="white"/>
        <path d="M136.754 147.07C138.504 147.07 139.764 146.272 140.632 145.194L139.722 144.424C139.022 145.306 138.042 145.922 136.754 145.922C134.654 145.922 133.072 144.438 133.072 142.058C133.072 139.776 134.486 138.124 136.74 138.124C137.86 138.124 138.882 138.6 139.708 139.622L140.618 138.866C139.568 137.578 138.168 136.962 136.74 136.962C133.562 136.962 131.798 139.244 131.798 142.058C131.798 145.306 134.066 147.07 136.754 147.07ZM141.551 137.06L145.303 147H146.395L150.147 137.06H148.845L145.863 145.236H145.849L142.867 137.06H141.551ZM150.93 137.06L154.682 147H155.774L159.526 137.06H158.224L155.242 145.236H155.228L152.246 137.06H150.93Z" fill="white"/>
        <path d="M58.4678 155.177L53.6315 167.994" stroke="white"/>
        <path d="M35.092 137.004V145.88H36.366V149.632H35.162V147H28.288V149.632H27.084V145.88H27.854C28.19 145.301 28.5073 144.653 28.806 143.934C29.114 143.215 29.3847 142.464 29.618 141.68C29.8513 140.887 30.0427 140.093 30.192 139.3C30.3413 138.507 30.4347 137.741 30.472 137.004H35.092ZM31.578 138.138C31.5407 138.679 31.4473 139.291 31.298 139.972C31.158 140.653 30.976 141.353 30.752 142.072C30.5373 142.781 30.2947 143.467 30.024 144.13C29.7627 144.793 29.4827 145.376 29.184 145.88H33.846V138.138H31.578ZM39.1017 139.496V147H37.8697V139.496H39.1017ZM38.4997 136.682C38.6864 136.682 38.8497 136.747 38.9897 136.878C39.139 136.999 39.2137 137.195 39.2137 137.466C39.2137 137.727 39.139 137.923 38.9897 138.054C38.8497 138.185 38.6864 138.25 38.4997 138.25C38.2944 138.25 38.1217 138.185 37.9817 138.054C37.8417 137.923 37.7717 137.727 37.7717 137.466C37.7717 137.195 37.8417 136.999 37.9817 136.878C38.1217 136.747 38.2944 136.682 38.4997 136.682ZM47.5551 136.388C47.5177 136.855 47.4011 137.247 47.2051 137.564C47.0184 137.881 46.7384 138.119 46.3651 138.278C45.9917 138.437 45.5064 138.516 44.9091 138.516C44.3024 138.516 43.8124 138.437 43.4391 138.278C43.0751 138.119 42.8091 137.886 42.6411 137.578C42.4731 137.261 42.3704 136.864 42.3331 136.388H43.4811C43.5277 136.892 43.6584 137.233 43.8731 137.41C44.0971 137.578 44.4517 137.662 44.9371 137.662C45.3664 137.662 45.7024 137.573 45.9451 137.396C46.1971 137.209 46.3464 136.873 46.3931 136.388H47.5551ZM42.6411 144.074C42.6411 144.158 42.6364 144.279 42.6271 144.438C42.6271 144.587 42.6224 144.751 42.6131 144.928C42.6037 145.096 42.5944 145.259 42.5851 145.418C42.5757 145.567 42.5664 145.689 42.5571 145.782L46.5751 139.496H48.0871V147H46.9391V142.576C46.9391 142.427 46.9391 142.231 46.9391 141.988C46.9484 141.745 46.9577 141.507 46.9671 141.274C46.9764 141.031 46.9857 140.849 46.9951 140.728L43.0051 147H41.4791V139.496H42.6411V144.074ZM53.4852 147.14C52.8225 147.14 52.2298 147.005 51.7072 146.734C51.1938 146.463 50.7878 146.043 50.4892 145.474C50.1998 144.905 50.0552 144.177 50.0552 143.29C50.0552 142.366 50.2092 141.615 50.5172 141.036C50.8252 140.457 51.2405 140.033 51.7632 139.762C52.2952 139.491 52.8972 139.356 53.5692 139.356C53.9518 139.356 54.3205 139.398 54.6752 139.482C55.0298 139.557 55.3192 139.65 55.5432 139.762L55.1652 140.784C54.9412 140.7 54.6798 140.621 54.3812 140.546C54.0825 140.471 53.8025 140.434 53.5412 140.434C53.0372 140.434 52.6218 140.541 52.2952 140.756C51.9685 140.971 51.7258 141.288 51.5672 141.708C51.4085 142.128 51.3292 142.651 51.3292 143.276C51.3292 143.873 51.4085 144.382 51.5672 144.802C51.7258 145.222 51.9638 145.539 52.2812 145.754C52.5985 145.969 52.9952 146.076 53.4712 146.076C53.8818 146.076 54.2412 146.034 54.5492 145.95C54.8665 145.866 55.1558 145.763 55.4172 145.642V146.734C55.1652 146.865 54.8852 146.963 54.5772 147.028C54.2785 147.103 53.9145 147.14 53.4852 147.14ZM58.4337 139.496V142.618H62.5077V139.496H63.7397V147H62.5077V143.654H58.4337V147H57.2017V139.496H58.4337ZM67.2778 144.074C67.2778 144.158 67.2731 144.279 67.2638 144.438C67.2638 144.587 67.2591 144.751 67.2498 144.928C67.2404 145.096 67.2311 145.259 67.2218 145.418C67.2124 145.567 67.2031 145.689 67.1938 145.782L71.2118 139.496H72.7238V147H71.5758V142.576C71.5758 142.427 71.5758 142.231 71.5758 141.988C71.5851 141.745 71.5944 141.507 71.6038 141.274C71.6131 141.031 71.6224 140.849 71.6318 140.728L67.6418 147H66.1158V139.496H67.2778V144.074ZM81.1879 136.388C81.1505 136.855 81.0339 137.247 80.8379 137.564C80.6512 137.881 80.3712 138.119 79.9979 138.278C79.6245 138.437 79.1392 138.516 78.5419 138.516C77.9352 138.516 77.4452 138.437 77.0719 138.278C76.7079 138.119 76.4419 137.886 76.2739 137.578C76.1059 137.261 76.0032 136.864 75.9659 136.388H77.1139C77.1605 136.892 77.2912 137.233 77.5059 137.41C77.7299 137.578 78.0845 137.662 78.5699 137.662C78.9992 137.662 79.3352 137.573 79.5779 137.396C79.8299 137.209 79.9792 136.873 80.0259 136.388H81.1879ZM76.2739 144.074C76.2739 144.158 76.2692 144.279 76.2599 144.438C76.2599 144.587 76.2552 144.751 76.2459 144.928C76.2365 145.096 76.2272 145.259 76.2179 145.418C76.2085 145.567 76.1992 145.689 76.1899 145.782L80.2079 139.496H81.7199V147H80.5719V142.576C80.5719 142.427 80.5719 142.231 80.5719 141.988C80.5812 141.745 80.5905 141.507 80.5999 141.274C80.6092 141.031 80.6185 140.849 80.6279 140.728L76.6379 147H75.1119V139.496H76.2739V144.074ZM93.4534 139.496V145.964H94.5454V149.604H93.3554V147H88.1334V149.604H86.9574V145.964H87.5594C87.9887 145.367 88.3434 144.718 88.6234 144.018C88.9127 143.309 89.1274 142.571 89.2674 141.806C89.4167 141.031 89.4961 140.261 89.5054 139.496H93.4534ZM90.5974 140.462C90.5601 141.097 90.4621 141.755 90.3034 142.436C90.1447 143.108 89.9394 143.752 89.6874 144.368C89.4447 144.984 89.1601 145.516 88.8334 145.964H92.2634V140.462H90.5974ZM102.54 143.234C102.54 143.859 102.456 144.415 102.288 144.9C102.13 145.376 101.896 145.782 101.588 146.118C101.29 146.454 100.921 146.711 100.482 146.888C100.053 147.056 99.5722 147.14 99.0402 147.14C98.5455 147.14 98.0882 147.056 97.6682 146.888C97.2482 146.711 96.8842 146.454 96.5762 146.118C96.2682 145.782 96.0255 145.376 95.8482 144.9C95.6802 144.415 95.5962 143.859 95.5962 143.234C95.5962 142.403 95.7362 141.703 96.0162 141.134C96.2962 140.555 96.6975 140.117 97.2202 139.818C97.7428 139.51 98.3635 139.356 99.0822 139.356C99.7635 139.356 100.361 139.51 100.874 139.818C101.397 140.117 101.803 140.555 102.092 141.134C102.391 141.703 102.54 142.403 102.54 143.234ZM96.8702 143.234C96.8702 143.822 96.9448 144.335 97.0942 144.774C97.2528 145.203 97.4955 145.535 97.8222 145.768C98.1488 146.001 98.5642 146.118 99.0682 146.118C99.5722 146.118 99.9875 146.001 100.314 145.768C100.641 145.535 100.879 145.203 101.028 144.774C101.187 144.335 101.266 143.822 101.266 143.234C101.266 142.637 101.187 142.128 101.028 141.708C100.87 141.288 100.627 140.966 100.3 140.742C99.9828 140.509 99.5675 140.392 99.0542 140.392C98.2888 140.392 97.7335 140.644 97.3882 141.148C97.0428 141.652 96.8702 142.347 96.8702 143.234Z" fill="white"/>
    </g>
    <defs>
        <clipPath id="clip0_1_137">
            <rect width="325" height="192" fill="white"/>
        </clipPath>
    </defs>
</svg>
