<svg width="325" height="192" viewBox="0 0 325 192" fill="none" xmlns="http://www.w3.org/2000/svg" preserveAspectRatio="none">
    <g clip-path="url(#clip0_1_137)">
        <path d="M294 0H32C18.7452 0 8 10.7452 8 24V168C8 181.255 18.7452 192 32 192H294C307.255 192 318 181.255 318 168V24C318 10.7452 307.255 0 294 0Z" fill="#FEB067"/>
        <mask id="mask0_1_137" style="mask-type:alpha" maskUnits="userSpaceOnUse" x="0" y="0" width="325" height="192">
            <path d="M301 0H24C10.7452 0 0 10.7452 0 24V168C0 181.255 10.7452 192 24 192H301C314.255 192 325 181.255 325 168V24C325 10.7452 314.255 0 301 0Z" fill="#FE7B01"/>
        </mask>
        <g mask="url(#mask0_1_137)">
            <path d="M254.141 193.068C254.141 193.068 261.044 157.103 301.712 145.481C285.437 156.674 266.749 165.758 261.062 193.086L254.141 193.068Z" stroke="white" stroke-miterlimit="10"/>
            <path d="M303.265 157.121C263.644 166.895 261.062 193.086 261.062 193.086C261.062 193.086 265.795 173.63 280.667 173.63M303.265 157.121C300.964 155.013 304.257 144.865 306.52 150.014C308.784 155.162 303.265 157.121 303.265 157.121ZM280.667 173.63C295.539 173.63 290.414 193.869 284.072 190.418C280.667 188.254 282.744 184.71 283.211 182.154C283.679 179.599 284.614 173.63 280.667 173.63Z" stroke="white" stroke-miterlimit="10"/>
            <path d="M285.411 174.637L282 173.5L282.075 173.625C283.008 175.179 283.5 176.957 283.5 178.769C283.5 179.587 283.4 180.401 283.201 181.194L282.5 184L282.227 185.914C282.08 186.94 282.291 187.985 282.824 188.873L283.077 189.294C283.353 189.755 283.755 190.128 284.236 190.368C285.032 190.766 285.968 190.766 286.764 190.368C287.245 190.128 287.647 189.755 287.923 189.294L288.589 188.184C288.862 187.73 289.085 187.246 289.252 186.743L289.487 186.04C289.827 185.02 290 183.952 290 182.877V181.61C290 180.874 289.897 180.141 289.695 179.432L289.564 178.975C289.197 177.69 288.44 176.552 287.396 175.717C286.803 175.243 286.131 174.877 285.411 174.637Z" fill="white"/>
            <path d="M303.564 157.662C303.564 157.662 304.668 163.743 308.185 161.281C311.702 158.819 303.564 157.662 303.564 157.662Z" stroke="white" stroke-miterlimit="10"/>
            <path d="M297.877 159.416C297.877 159.416 298.775 164.322 301.618 162.326C304.462 160.33 297.877 159.416 297.877 159.416Z" stroke="white" stroke-miterlimit="10"/>
            <path d="M295.802 158.707C295.802 158.707 299.749 155.666 296.681 154.062C293.613 152.458 295.802 158.707 295.802 158.707Z" stroke="white" stroke-miterlimit="10"/>
            <path d="M283.287 177.492C283.287 177.492 270.361 177.025 269.5 193.403" stroke="white" stroke-miterlimit="10"/>
        </g>
        <path d="M56.02 38.3613H51.7943C50.2931 38.3613 49.0762 39.5654 49.0762 41.0508V51.1329C49.0762 52.6182 50.2931 53.8223 51.7943 53.8223H56.02C57.5212 53.8223 58.7382 52.6182 58.7382 51.1329V41.0508C58.7382 39.5654 57.5212 38.3613 56.02 38.3613Z" stroke="white" stroke-miterlimit="10"/>
        <path d="M75.8944 55.3668C75.1853 55.6603 74.4237 55.8095 73.6551 55.8055H72.9279C71.4132 55.8055 69.9606 55.2102 68.8896 54.1504C67.8185 53.0907 67.2168 51.6534 67.2168 50.1546V42.0249C67.2168 40.5262 67.8185 39.0889 68.8896 38.0291C69.9606 36.9694 71.4132 36.374 72.9279 36.374H73.6551C74.397 36.379 75.1307 36.5281 75.8146 36.8128" stroke="white" stroke-miterlimit="10"/>
        <path d="M32.2714 36.6987C32.8819 36.4831 33.5254 36.3733 34.1736 36.374H34.9008C35.6508 36.374 36.3935 36.5202 37.0864 36.8042C37.7793 37.0881 38.4089 37.5044 38.9392 38.0291C39.4695 38.5539 39.8902 39.1768 40.1773 39.8624C40.4643 40.548 40.612 41.2828 40.612 42.0249V50.1678C40.612 50.9099 40.4643 51.6447 40.1773 52.3303C39.8902 53.0159 39.4695 53.6389 38.9392 54.1636C38.4089 54.6883 37.7793 55.1046 37.0864 55.3886C36.3935 55.6726 35.6508 55.8187 34.9008 55.8187H34.1736C33.4906 55.8189 32.8131 55.6971 32.1738 55.459" stroke="white" stroke-miterlimit="10"/>
        <path d="M40.4863 40.9238H49.0753" stroke="white" stroke-miterlimit="10"/>
        <path d="M40.4863 51.1553H49.0753" stroke="white" stroke-miterlimit="10"/>
        <path d="M58.6172 40.9238H67.2017" stroke="white" stroke-miterlimit="10"/>
        <path d="M58.6172 51.1553H67.2017" stroke="white" stroke-miterlimit="10"/>
        <path d="M53.918 32.1357V38.4009" stroke="white" stroke-miterlimit="10"/>
        <path d="M53.918 53.7041V59.9253" stroke="white" stroke-miterlimit="10"/>
        <path d="M71.5225 32.2197H36.4794C34.1285 32.2197 32.2227 34.1054 32.2227 36.4316V55.5691C32.2227 57.8953 34.1285 59.781 36.4794 59.781H71.5225C73.8734 59.781 75.7792 57.8953 75.7792 55.5691V36.4316C75.7792 34.1054 73.8734 32.2197 71.5225 32.2197Z" stroke="white" stroke-miterlimit="10"/>
        <path d="M292.27 34.8199C292.27 34.8199 297.57 35.7599 297.27 29.1299C298.04 32.7599 297.769 34.1299 302.859 34.3999C298.409 35.4899 297.27 35.5799 297.27 40.3999C296.72 37.1199 297.34 34.8199 292.27 34.8199Z" stroke="white" stroke-linecap="round" stroke-linejoin="round"/>
        <path d="M83 43.6025C83 43.6025 92.509 45.354 91.9708 33C93.3523 39.764 92.8678 42.3168 102 42.8199C94.016 44.8509 91.9708 45.0186 91.9708 54C90.984 47.8882 92.0963 43.6025 83 43.6025Z" stroke="white" stroke-linecap="round" stroke-linejoin="round"/>
        <path d="M100.573 34C100.573 34 101.824 27.4938 93 27.8621C97.8314 26.9169 99.6548 27.2484 100.014 21C101.465 26.4627 101.585 27.8621 108 27.8621C103.634 28.5373 100.573 27.7762 100.573 34Z" stroke="white" stroke-linecap="round" stroke-linejoin="round"/>
        <path d="M287.81 37.9L289.49 28.59L298.22 26.31L289.31 25.4L287.77 17L286.18 25.59L279 27.31L286.36 28.63L287.81 37.9Z" fill="white"/>
        <path d="M23.0411 59L21.9048 65.6818L16 67.3182L22.0265 67.9713L23.0682 74L24.1436 67.8349L29 66.6005L24.0219 65.6531L23.0411 59Z" fill="white"/>
        <path d="M253.832 166.973C237.871 137.596 214.094 137.315 214.094 137.315C214.094 137.315 216.957 128.38 211.747 128.17C206.536 127.959 214.094 137.315 214.094 137.315" stroke="white" stroke-miterlimit="10"/>
        <path d="M250.687 191.907C250.687 191.907 252.906 152.215 226.5 169.5" stroke="white" stroke-miterlimit="10"/>
        <path d="M260 178C260 178 254.019 156.237 235.922 162.879C217.825 169.522 223.833 187.181 231.368 178.27C234.994 173.681 238.748 169.919 243.5 166.5" stroke="white" stroke-miterlimit="10"/>
        <path d="M255.193 168.587C255.193 168.587 254.442 150.834 242.377 140.706C251.179 144.94 260.355 156.478 263.5 172.5" stroke="white" stroke-miterlimit="10"/>
        <path d="M220.431 138.648C220.431 138.648 221.135 146.25 216.206 145.946C211.277 145.642 216.934 138.765 220.431 138.648Z" stroke="white" stroke-miterlimit="10"/>
        <path d="M222.308 138.344C222.308 138.344 215.994 134.017 219.374 130.438C222.754 126.86 224.468 135.561 222.308 138.344Z" stroke="white" stroke-miterlimit="10"/>
        <path d="M234.139 143.935C234.139 143.935 229.656 137.736 234.139 135.514C238.622 133.292 237.097 142.063 234.139 143.935Z" stroke="white" stroke-miterlimit="10"/>
        <path d="M230.661 143.106C230.661 143.106 229.135 150.59 224.488 148.883C219.84 147.176 227.258 142.217 230.661 143.106Z" stroke="white" stroke-miterlimit="10"/>
        <path d="M214.012 137.216C214.012 137.216 211.665 144.514 207.299 142.362C202.933 140.21 210.702 136 214.012 137.216Z" stroke="white" stroke-miterlimit="10"/>
        <path d="M233 166L226.5 169L224.5 173L224 176L224.5 179L226 180.5H228L231 179L236 173L243 167L242.5 166L238.5 165L233 166Z" fill="white"/>
        <path d="M135.5 164C136.881 164 138 162.881 138 161.5C138 160.119 136.881 159 135.5 159C134.119 159 133 160.119 133 161.5C133 162.881 134.119 164 135.5 164Z" fill="white"/>
        <path d="M34.5 164C35.8807 164 37 162.881 37 161.5C37 160.119 35.8807 159 34.5 159C33.1193 159 32 160.119 32 161.5C32 162.881 33.1193 164 34.5 164Z" fill="white"/>
        <path d="M65.5 164C66.8807 164 68 162.881 68 161.5C68 160.119 66.8807 159 65.5 159C64.1193 159 63 160.119 63 161.5C63 162.881 64.1193 164 65.5 164Z" fill="white"/>
        <path d="M152.5 112C153.881 112 155 110.881 155 109.5C155 108.119 153.881 107 152.5 107C151.119 107 150 108.119 150 109.5C150 110.881 151.119 112 152.5 112Z" fill="white"/>
        <path d="M93.5 112C94.8807 112 96 110.881 96 109.5C96 108.119 94.8807 107 93.5 107C92.1193 107 91 108.119 91 109.5C91 110.881 92.1193 112 93.5 112Z" fill="white"/>
        <path d="M34.5 112C35.8807 112 37 110.881 37 109.5C37 108.119 35.8807 107 34.5 107C33.1193 107 32 108.119 32 109.5C32 110.881 33.1193 112 34.5 112Z" fill="white"/>
        <path d="M145.5 164C146.881 164 148 162.881 148 161.5C148 160.119 146.881 159 145.5 159C144.119 159 143 160.119 143 161.5C143 162.881 144.119 164 145.5 164Z" fill="white"/>
        <path d="M44.5 164C45.8807 164 47 162.881 47 161.5C47 160.119 45.8807 159 44.5 159C43.1193 159 42 160.119 42 161.5C42 162.881 43.1193 164 44.5 164Z" fill="white"/>
        <path d="M75.5 164C76.8807 164 78 162.881 78 161.5C78 160.119 76.8807 159 75.5 159C74.1193 159 73 160.119 73 161.5C73 162.881 74.1193 164 75.5 164Z" fill="white"/>
        <path d="M162.5 112C163.881 112 165 110.881 165 109.5C165 108.119 163.881 107 162.5 107C161.119 107 160 108.119 160 109.5C160 110.881 161.119 112 162.5 112Z" fill="white"/>
        <path d="M103.5 112C104.881 112 106 110.881 106 109.5C106 108.119 104.881 107 103.5 107C102.119 107 101 108.119 101 109.5C101 110.881 102.119 112 103.5 112Z" fill="white"/>
        <path d="M44.5 112C45.8807 112 47 110.881 47 109.5C47 108.119 45.8807 107 44.5 107C43.1193 107 42 108.119 42 109.5C42 110.881 43.1193 112 44.5 112Z" fill="white"/>
        <path d="M155.5 164C156.881 164 158 162.881 158 161.5C158 160.119 156.881 159 155.5 159C154.119 159 153 160.119 153 161.5C153 162.881 154.119 164 155.5 164Z" fill="white"/>
        <path d="M172.5 112C173.881 112 175 110.881 175 109.5C175 108.119 173.881 107 172.5 107C171.119 107 170 108.119 170 109.5C170 110.881 171.119 112 172.5 112Z" fill="white"/>
        <path d="M113.5 112C114.881 112 116 110.881 116 109.5C116 108.119 114.881 107 113.5 107C112.119 107 111 108.119 111 109.5C111 110.881 112.119 112 113.5 112Z" fill="white"/>
        <path d="M54.5 112C55.8807 112 57 110.881 57 109.5C57 108.119 55.8807 107 54.5 107C53.1193 107 52 108.119 52 109.5C52 110.881 53.1193 112 54.5 112Z" fill="white"/>
        <path d="M182.5 112C183.881 112 185 110.881 185 109.5C185 108.119 183.881 107 182.5 107C181.119 107 180 108.119 180 109.5C180 110.881 181.119 112 182.5 112Z" fill="white"/>
        <path d="M123.5 112C124.881 112 126 110.881 126 109.5C126 108.119 124.881 107 123.5 107C122.119 107 121 108.119 121 109.5C121 110.881 122.119 112 123.5 112Z" fill="white"/>
        <path d="M64.5 112C65.8807 112 67 110.881 67 109.5C67 108.119 65.8807 107 64.5 107C63.1193 107 62 108.119 62 109.5C62 110.881 63.1193 112 64.5 112Z" fill="white"/>
        <path d="M136.754 147.07C138.504 147.07 139.764 146.272 140.632 145.194L139.722 144.424C139.022 145.306 138.042 145.922 136.754 145.922C134.654 145.922 133.072 144.438 133.072 142.058C133.072 139.776 134.486 138.124 136.74 138.124C137.86 138.124 138.882 138.6 139.708 139.622L140.618 138.866C139.568 137.578 138.168 136.962 136.74 136.962C133.562 136.962 131.798 139.244 131.798 142.058C131.798 145.306 134.066 147.07 136.754 147.07ZM141.551 137.06L145.303 147H146.395L150.147 137.06H148.845L145.863 145.236H145.849L142.867 137.06H141.551ZM150.93 137.06L154.682 147H155.774L159.526 137.06H158.224L155.242 145.236H155.228L152.246 137.06H150.93Z" fill="white"/>
        <path d="M58.4678 155.177L53.6315 167.994" stroke="white"/>
        <path d="M30.598 143.262H29.254V147H28.05V137.326H30.598C31.5873 137.326 32.3853 137.587 32.992 138.11C33.5987 138.633 33.902 139.361 33.902 140.294C33.902 141.227 33.5987 141.955 32.992 142.478C32.3853 143.001 31.5873 143.262 30.598 143.262ZM29.254 142.198H30.598C31.942 142.198 32.614 141.563 32.614 140.294C32.614 139.025 31.942 138.39 30.598 138.39H29.254V142.198ZM35.2801 136.948H36.4281V147H35.2801V136.948ZM41.885 143.178V142.562C41.885 141.806 41.493 141.428 40.709 141.428C40.093 141.428 39.449 141.629 38.777 142.03L38.371 141.19C39.155 140.695 39.9996 140.448 40.905 140.448C41.5396 140.448 42.0576 140.611 42.459 140.938C42.8696 141.255 43.075 141.75 43.075 142.422V147H42.319L41.969 146.16C41.6703 146.468 41.3156 146.715 40.905 146.902C40.4943 147.079 40.121 147.168 39.785 147.168C39.2063 147.168 38.7443 147.009 38.399 146.692C38.0536 146.375 37.881 145.959 37.881 145.446C37.881 143.934 39.2156 143.178 41.885 143.178ZM39.561 144.536C39.3836 144.695 39.2623 144.839 39.197 144.97C39.141 145.091 39.113 145.255 39.113 145.46C39.113 145.656 39.197 145.829 39.365 145.978C39.5423 146.118 39.771 146.188 40.051 146.188C40.639 146.188 41.2503 145.927 41.885 145.404V144.004C40.709 144.023 39.9343 144.2 39.561 144.536ZM46.4575 141.498V145.334C46.4575 145.894 46.7235 146.174 47.2555 146.174C47.5635 146.174 47.9322 146.085 48.3615 145.908L48.5155 146.846C48.0582 147.061 47.5775 147.168 47.0735 147.168C46.5695 147.168 46.1495 147.019 45.8135 146.72C45.4775 146.412 45.3095 145.945 45.3095 145.32V141.498H44.4275V140.616H45.3095V139.356L46.1775 138.558H46.4575V140.616H48.2635V141.498H46.4575ZM55.2616 142.17V147H54.0716V142.226C54.0716 141.983 53.9736 141.797 53.7776 141.666C53.591 141.535 53.339 141.47 53.0216 141.47C52.359 141.47 51.673 141.708 50.9636 142.184V147H49.7736V140.616H50.5296L50.8796 141.344C51.5983 140.747 52.3776 140.448 53.2176 140.448C53.843 140.448 54.3376 140.607 54.7016 140.924C55.075 141.241 55.2616 141.657 55.2616 142.17ZM59.7868 146.188C60.4588 146.188 61.1308 145.987 61.8028 145.586L62.2088 146.426C61.4248 146.921 60.5848 147.168 59.6888 147.168C58.8021 147.168 58.0975 146.888 57.5748 146.328C57.0521 145.759 56.7908 144.942 56.7908 143.878C56.7908 142.814 57.0615 141.979 57.6028 141.372C58.1441 140.756 58.8628 140.448 59.7588 140.448C60.5708 140.448 61.2101 140.7 61.6768 141.204C61.8728 141.409 62.0361 141.708 62.1668 142.1C62.3068 142.492 62.3768 142.954 62.3768 143.486L61.9428 143.976H57.9808C58.0088 145.451 58.6108 146.188 59.7868 146.188ZM61.2008 143.094C61.2008 142.571 61.0655 142.151 60.7948 141.834C60.5241 141.517 60.1648 141.358 59.7168 141.358C59.2781 141.358 58.9048 141.517 58.5968 141.834C58.2888 142.142 58.1021 142.562 58.0368 143.094H61.2008ZM59.8008 139.818H58.9048L60.6828 137.242L61.6908 137.998L59.8008 139.818ZM71.9134 136.948H73.0614V147H72.3054L71.9554 146.16C71.2554 146.832 70.5321 147.168 69.7854 147.168C69.0481 147.168 68.4368 146.883 67.9514 146.314C67.4661 145.735 67.2234 144.956 67.2234 143.976C67.2234 142.996 67.5128 142.179 68.0914 141.526C68.6701 140.863 69.4168 140.532 70.3314 140.532C70.8261 140.532 71.3534 140.644 71.9134 140.868V136.948ZM70.6254 141.484C69.9254 141.484 69.3841 141.722 69.0014 142.198C68.6188 142.674 68.4274 143.253 68.4274 143.934C68.4274 144.615 68.5861 145.161 68.9034 145.572C69.2208 145.983 69.6314 146.188 70.1354 146.188C70.4154 146.188 70.7141 146.113 71.0314 145.964C71.3581 145.805 71.6521 145.591 71.9134 145.32V141.736C71.4748 141.568 71.0454 141.484 70.6254 141.484ZM77.6436 141.358C77.2889 141.358 76.9809 141.437 76.7196 141.596C76.4676 141.755 76.2809 141.96 76.1596 142.212C75.9356 142.688 75.8236 143.197 75.8236 143.738C75.8236 145.418 76.4069 146.258 77.5736 146.258C77.9282 146.258 78.2316 146.179 78.4836 146.02C78.7356 145.861 78.9269 145.656 79.0576 145.404C79.2816 144.937 79.3936 144.429 79.3936 143.878C79.3936 142.198 78.8102 141.358 77.6436 141.358ZM77.6436 140.448C78.6796 140.448 79.4356 140.77 79.9116 141.414C80.3876 142.058 80.6256 142.898 80.6256 143.934C80.6256 144.681 80.4296 145.371 80.0376 146.006C79.8229 146.351 79.5009 146.631 79.0716 146.846C78.6422 147.061 78.1289 147.168 77.5316 147.168C76.5049 147.168 75.7582 146.86 75.2916 146.244C74.8249 145.628 74.5916 144.802 74.5916 143.766C74.5916 143.159 74.6849 142.646 74.8716 142.226C75.0676 141.806 75.2729 141.484 75.4876 141.26C75.7022 141.027 75.9962 140.835 76.3696 140.686C76.7429 140.527 77.1676 140.448 77.6436 140.448Z" fill="white"/>
    </g>
    <defs>
        <clipPath id="clip0_1_137">
            <rect width="325" height="192" fill="white"/>
        </clipPath>
    </defs>
</svg>
