<svg width="342" height="192" viewBox="0 0 342 192" fill="none" xmlns="http://www.w3.org/2000/svg">
    <rect width="342" height="192" rx="24" fill="#FE7B01"/>
    <mask id="mask0_1_72" style="mask-type:alpha" maskUnits="userSpaceOnUse" x="8" y="0" width="325" height="192">
        <rect x="8" width="325" height="192" rx="24" fill="#FE7B01"/>
    </mask>
    <g mask="url(#mask0_1_72)">
        <path d="M262.141 193.068C262.141 193.068 269.044 157.103 309.712 145.481C293.437 156.674 274.749 165.758 269.062 193.086L262.141 193.068Z" stroke="white" stroke-miterlimit="10"/>
        <path d="M311.265 157.121C308.964 155.013 312.257 144.865 314.52 150.014C316.784 155.162 311.265 157.121 311.265 157.121ZM311.265 157.121C271.644 166.895 269.062 193.086 269.062 193.086C269.062 193.086 273.795 173.63 288.667 173.63M288.667 173.63C303.539 173.63 298.414 193.869 292.072 190.418C288.667 188.254 290.744 184.71 291.211 182.154C291.679 179.599 292.614 173.63 288.667 173.63Z" stroke="white" stroke-miterlimit="10"/>
        <path d="M293.411 174.637L290 173.5L290.075 173.625C291.008 175.179 291.5 176.957 291.5 178.769C291.5 179.587 291.4 180.401 291.201 181.194L290.5 184L290.227 185.914C290.08 186.94 290.291 187.985 290.824 188.873L291.077 189.294C291.353 189.755 291.755 190.128 292.236 190.368C293.032 190.766 293.968 190.766 294.764 190.368C295.245 190.128 295.647 189.755 295.923 189.294L296.589 188.184C296.862 187.73 297.085 187.246 297.252 186.743L297.487 186.04C297.827 185.02 298 183.952 298 182.877V181.61C298 180.874 297.897 180.141 297.695 179.432L297.564 178.975C297.197 177.69 296.44 176.552 295.396 175.717C294.803 175.243 294.131 174.877 293.411 174.637Z" fill="white"/>
        <path d="M311.564 157.662C311.564 157.662 312.668 163.743 316.185 161.281C319.702 158.819 311.564 157.662 311.564 157.662Z" stroke="white" stroke-miterlimit="10"/>
        <path d="M305.877 159.416C305.877 159.416 306.775 164.322 309.618 162.326C312.462 160.33 305.877 159.416 305.877 159.416Z" stroke="white" stroke-miterlimit="10"/>
        <path d="M303.802 158.707C303.802 158.707 307.749 155.666 304.681 154.062C301.613 152.458 303.802 158.707 303.802 158.707Z" stroke="white" stroke-miterlimit="10"/>
        <path d="M291.287 177.492C291.287 177.492 278.361 177.025 277.5 193.403" stroke="white" stroke-miterlimit="10"/>
    </g>
    <circle cx="143.5" cy="161.5" r="2.5" fill="white"/>
    <circle cx="42.5" cy="161.5" r="2.5" fill="white"/>
    <circle cx="73.5" cy="161.5" r="2.5" fill="white"/>
    <circle cx="160.5" cy="109.5" r="2.5" fill="white"/>

    <circle cx="101.5" cy="109.5" r="2.5" fill="white"/>
    <circle cx="42.5" cy="109.5" r="2.5" fill="white"/>
    <circle cx="153.5" cy="161.5" r="2.5" fill="white"/>
    <circle cx="52.5" cy="161.5" r="2.5" fill="white"/>
    <circle cx="83.5" cy="161.5" r="2.5" fill="white"/>
    <circle cx="170.5" cy="109.5" r="2.5" fill="white"/>
     <circle cx="111.5" cy="109.5" r="2.5" fill="white"/>
    <circle cx="52.5" cy="109.5" r="2.5" fill="white"/>
    <circle cx="163.5" cy="161.5" r="2.5" fill="white"/>
    <circle cx="180.5" cy="109.5" r="2.5" fill="white"/>
     <circle cx="121.5" cy="109.5" r="2.5" fill="white"/>
    <circle cx="62.5" cy="109.5" r="2.5" fill="white"/>
    <circle cx="190.5" cy="109.5" r="2.5" fill="white"/>
     <circle cx="131.5" cy="109.5" r="2.5" fill="white"/>
    <circle cx="72.5" cy="109.5" r="2.5" fill="white"/>
    <path d="M141.086 142.506C141.086 143.579 141.366 144.452 141.926 145.124C142.495 145.796 143.261 146.132 144.222 146.132C145.193 146.132 146.14 145.894 147.064 145.418L147.218 146.482C146.173 146.939 145.146 147.168 144.138 147.168C143.13 147.168 142.29 146.944 141.618 146.496C140.955 146.039 140.47 145.465 140.162 144.774C139.854 144.083 139.7 143.327 139.7 142.506C139.7 140.938 140.157 139.655 141.072 138.656C141.987 137.657 143.205 137.158 144.726 137.158C145.426 137.158 146.182 137.284 146.994 137.536L146.658 138.516C146.014 138.32 145.37 138.222 144.726 138.222C143.587 138.222 142.696 138.605 142.052 139.37C141.408 140.135 141.086 141.181 141.086 142.506ZM148.972 137.326L151.688 145.67H151.758L154.502 137.326H155.692L152.528 147H150.848L147.642 137.326H148.972ZM157.162 137.326L159.878 145.67H159.948L162.692 137.326H163.882L160.718 147H159.038L155.832 137.326H157.162Z" fill="white"/>
    <line x1="66.4678" y1="155.177" x2="61.6315" y2="167.994" stroke="white"/>
    <g clip-path="url(#clip0_1_72)">
        <path d="M64.0197 38.3616H59.794C58.2928 38.3616 57.0759 39.5657 57.0759 41.0511V51.1332C57.0759 52.6185 58.2928 53.8226 59.794 53.8226H64.0197C65.5209 53.8226 66.7379 52.6185 66.7379 51.1332V41.0511C66.7379 39.5657 65.5209 38.3616 64.0197 38.3616Z" stroke="white" stroke-miterlimit="10"/>
        <path d="M83.8936 55.367C83.1845 55.6605 82.4229 55.8097 81.6543 55.8057H80.9271C79.4124 55.8057 77.9598 55.2103 76.8888 54.1506C75.8177 53.0908 75.216 51.6535 75.216 50.1548V42.0251C75.216 40.5264 75.8177 39.089 76.8888 38.0293C77.9598 36.9695 79.4124 36.3742 80.9271 36.3742H81.6543C82.3962 36.3792 83.1299 36.5282 83.8137 36.8129" stroke="white" stroke-miterlimit="10"/>
        <path d="M40.2705 36.6988C40.881 36.4833 41.5245 36.3734 42.1727 36.3742H42.9C43.65 36.3742 44.3926 36.5203 45.0855 36.8043C45.7784 37.0883 46.408 37.5046 46.9383 38.0293C47.4686 38.554 47.8894 39.177 48.1764 39.8626C48.4634 40.5482 48.6111 41.283 48.6111 42.0251V50.168C48.6111 50.9101 48.4634 51.6449 48.1764 52.3305C47.8894 53.0161 47.4686 53.639 46.9383 54.1638C46.408 54.6885 45.7784 55.1047 45.0855 55.3887C44.3926 55.6727 43.65 55.8189 42.9 55.8189H42.1727C41.4897 55.8191 40.8122 55.6972 40.1729 55.4591" stroke="white" stroke-miterlimit="10"/>
        <path d="M48.4869 40.9238H57.0759" stroke="white" stroke-miterlimit="10"/>
        <path d="M48.4869 51.1551H57.0759" stroke="white" stroke-miterlimit="10"/>
        <path d="M66.6182 40.9238H75.2027" stroke="white" stroke-miterlimit="10"/>
        <path d="M66.6182 51.1551H75.2027" stroke="white" stroke-miterlimit="10"/>
        <path d="M61.918 32.136V38.4011" stroke="white" stroke-miterlimit="10"/>
        <path d="M61.918 53.7042V59.9254" stroke="white" stroke-miterlimit="10"/>
        <path d="M79.5215 32.2194H44.4785C42.1275 32.2194 40.2217 34.1051 40.2217 36.4312V55.5688C40.2217 57.8949 42.1275 59.7806 44.4785 59.7806H79.5215C81.8725 59.7806 83.7783 57.8949 83.7783 55.5688V36.4312C83.7783 34.1051 81.8725 32.2194 79.5215 32.2194Z" stroke="white" stroke-miterlimit="10"/>
    </g>
    <path d="M300.27 34.8199C300.27 34.8199 305.57 35.7599 305.27 29.1299C306.04 32.7599 305.769 34.1299 310.859 34.3999C306.409 35.4899 305.27 35.5799 305.27 40.3999C304.72 37.1199 305.34 34.8199 300.27 34.8199Z" stroke="white" stroke-linecap="round" stroke-linejoin="round"/>
    <path d="M91 43.6025C91 43.6025 100.509 45.354 99.9708 33C101.352 39.764 100.868 42.3168 110 42.8199C102.016 44.8509 99.9708 45.0186 99.9708 54C98.984 47.8882 100.096 43.6025 91 43.6025Z" stroke="white" stroke-linecap="round" stroke-linejoin="round"/>
    <path d="M108.573 34C108.573 34 109.824 27.4938 101 27.8621C105.831 26.9169 107.655 27.2484 108.014 21C109.465 26.4627 109.585 27.8621 116 27.8621C111.634 28.5373 108.573 27.7762 108.573 34Z" stroke="white" stroke-linecap="round" stroke-linejoin="round"/>
    <path d="M295.81 37.9L297.49 28.59L306.22 26.31L297.31 25.4L295.77 17L294.18 25.59L287 27.31L294.36 28.63L295.81 37.9Z" fill="white"/>
    <path d="M31.0411 59L29.9048 65.6818L24 67.3182L30.0265 67.9713L31.0682 74L32.1436 67.8349L37 66.6005L32.0219 65.6531L31.0411 59Z" fill="white"/>
    <path d="M261.832 166.973C245.871 137.596 222.094 137.315 222.094 137.315C222.094 137.315 224.957 128.38 219.747 128.17C214.536 127.959 222.094 137.315 222.094 137.315" stroke="white" stroke-miterlimit="10"/>
    <path d="M258.687 191.906C258.687 191.906 260.906 152.215 234.5 169.5" stroke="white" stroke-miterlimit="10"/>
    <path d="M268 178C268 178 262.019 156.237 243.922 162.879C225.825 169.522 231.833 187.181 239.368 178.27C242.994 173.682 246.748 169.919 251.5 166.5" stroke="white" stroke-miterlimit="10"/>
    <path d="M263.193 168.587C263.193 168.587 262.442 150.834 250.377 140.706C259.179 144.94 268.355 156.478 271.5 172.5" stroke="white" stroke-miterlimit="10"/>
    <path d="M228.431 138.648C228.431 138.648 229.135 146.25 224.206 145.946C219.277 145.642 224.934 138.765 228.431 138.648Z" stroke="white" stroke-miterlimit="10"/>
    <path d="M230.308 138.344C230.308 138.344 223.994 134.017 227.374 130.438C230.754 126.86 232.468 135.561 230.308 138.344Z" stroke="white" stroke-miterlimit="10"/>
    <path d="M242.139 143.935C242.139 143.935 237.656 137.736 242.139 135.514C246.622 133.292 245.097 142.063 242.139 143.935Z" stroke="white" stroke-miterlimit="10"/>
    <path d="M238.661 143.106C238.661 143.106 237.135 150.59 232.488 148.883C227.84 147.176 235.258 142.217 238.661 143.106Z" stroke="white" stroke-miterlimit="10"/>
    <path d="M222.012 137.216C222.012 137.216 219.665 144.514 215.299 142.362C210.933 140.21 218.702 136 222.012 137.216Z" stroke="white" stroke-miterlimit="10"/>
    <path d="M241 166L234.5 169L232.5 173L232 176L232.5 179L234 180.5H236L239 179L244 173L251 167L250.5 166L246.5 165L241 166Z" fill="white"/>
    <path d="M37.598 143.262H36.254V147H35.05V137.326H37.598C38.5873 137.326 39.3853 137.587 39.992 138.11C40.5987 138.633 40.902 139.361 40.902 140.294C40.902 141.227 40.5987 141.955 39.992 142.478C39.3853 143.001 38.5873 143.262 37.598 143.262ZM36.254 142.198H37.598C38.942 142.198 39.614 141.563 39.614 140.294C39.614 139.025 38.942 138.39 37.598 138.39H36.254V142.198ZM42.2801 136.948H43.4281V147H42.2801V136.948ZM48.885 143.178V142.562C48.885 141.806 48.493 141.428 47.709 141.428C47.093 141.428 46.449 141.629 45.777 142.03L45.371 141.19C46.155 140.695 46.9996 140.448 47.905 140.448C48.5396 140.448 49.0576 140.611 49.459 140.938C49.8696 141.255 50.075 141.75 50.075 142.422V147H49.319L48.969 146.16C48.6703 146.468 48.3156 146.715 47.905 146.902C47.4943 147.079 47.121 147.168 46.785 147.168C46.2063 147.168 45.7443 147.009 45.399 146.692C45.0536 146.375 44.881 145.959 44.881 145.446C44.881 143.934 46.2156 143.178 48.885 143.178ZM46.561 144.536C46.3836 144.695 46.2623 144.839 46.197 144.97C46.141 145.091 46.113 145.255 46.113 145.46C46.113 145.656 46.197 145.829 46.365 145.978C46.5423 146.118 46.771 146.188 47.051 146.188C47.639 146.188 48.2503 145.927 48.885 145.404V144.004C47.709 144.023 46.9343 144.2 46.561 144.536ZM53.4575 141.498V145.334C53.4575 145.894 53.7235 146.174 54.2555 146.174C54.5635 146.174 54.9322 146.085 55.3615 145.908L55.5155 146.846C55.0582 147.061 54.5775 147.168 54.0735 147.168C53.5695 147.168 53.1495 147.019 52.8135 146.72C52.4775 146.412 52.3095 145.945 52.3095 145.32V141.498H51.4275V140.616H52.3095V139.356L53.1775 138.558H53.4575V140.616H55.2635V141.498H53.4575ZM62.2616 142.17V147H61.0716V142.226C61.0716 141.983 60.9736 141.797 60.7776 141.666C60.591 141.535 60.339 141.47 60.0216 141.47C59.359 141.47 58.673 141.708 57.9636 142.184V147H56.7736V140.616H57.5296L57.8796 141.344C58.5983 140.747 59.3776 140.448 60.2176 140.448C60.843 140.448 61.3376 140.607 61.7016 140.924C62.075 141.241 62.2616 141.657 62.2616 142.17ZM66.7868 146.188C67.4588 146.188 68.1308 145.987 68.8028 145.586L69.2088 146.426C68.4248 146.921 67.5848 147.168 66.6888 147.168C65.8021 147.168 65.0975 146.888 64.5748 146.328C64.0521 145.759 63.7908 144.942 63.7908 143.878C63.7908 142.814 64.0615 141.979 64.6028 141.372C65.1441 140.756 65.8628 140.448 66.7588 140.448C67.5708 140.448 68.2101 140.7 68.6768 141.204C68.8728 141.409 69.0361 141.708 69.1668 142.1C69.3068 142.492 69.3768 142.954 69.3768 143.486L68.9428 143.976H64.9808C65.0088 145.451 65.6108 146.188 66.7868 146.188ZM68.2008 143.094C68.2008 142.571 68.0655 142.151 67.7948 141.834C67.5241 141.517 67.1648 141.358 66.7168 141.358C66.2781 141.358 65.9048 141.517 65.5968 141.834C65.2888 142.142 65.1021 142.562 65.0368 143.094H68.2008ZM66.8008 139.818H65.9048L67.6828 137.242L68.6908 137.998L66.8008 139.818ZM78.9134 136.948H80.0614V147H79.3054L78.9554 146.16C78.2554 146.832 77.5321 147.168 76.7854 147.168C76.0481 147.168 75.4368 146.883 74.9514 146.314C74.4661 145.735 74.2234 144.956 74.2234 143.976C74.2234 142.996 74.5128 142.179 75.0914 141.526C75.6701 140.863 76.4168 140.532 77.3314 140.532C77.8261 140.532 78.3534 140.644 78.9134 140.868V136.948ZM77.6254 141.484C76.9254 141.484 76.3841 141.722 76.0014 142.198C75.6188 142.674 75.4274 143.253 75.4274 143.934C75.4274 144.615 75.5861 145.161 75.9034 145.572C76.2208 145.983 76.6314 146.188 77.1354 146.188C77.4154 146.188 77.7141 146.113 78.0314 145.964C78.3581 145.805 78.6521 145.591 78.9134 145.32V141.736C78.4748 141.568 78.0454 141.484 77.6254 141.484ZM84.6436 141.358C84.2889 141.358 83.9809 141.437 83.7196 141.596C83.4676 141.755 83.2809 141.96 83.1596 142.212C82.9356 142.688 82.8236 143.197 82.8236 143.738C82.8236 145.418 83.4069 146.258 84.5736 146.258C84.9282 146.258 85.2316 146.179 85.4836 146.02C85.7356 145.861 85.9269 145.656 86.0576 145.404C86.2816 144.937 86.3936 144.429 86.3936 143.878C86.3936 142.198 85.8102 141.358 84.6436 141.358ZM84.6436 140.448C85.6796 140.448 86.4356 140.77 86.9116 141.414C87.3876 142.058 87.6256 142.898 87.6256 143.934C87.6256 144.681 87.4296 145.371 87.0376 146.006C86.8229 146.351 86.5009 146.631 86.0716 146.846C85.6422 147.061 85.1289 147.168 84.5316 147.168C83.5049 147.168 82.7582 146.86 82.2916 146.244C81.8249 145.628 81.5916 144.802 81.5916 143.766C81.5916 143.159 81.6849 142.646 81.8716 142.226C82.0676 141.806 82.2729 141.484 82.4876 141.26C82.7022 141.027 82.9962 140.835 83.3696 140.686C83.7429 140.527 84.1676 140.448 84.6436 140.448Z" fill="white"/>
    <defs>
        <clipPath id="clip0_1_72">
            <rect width="44" height="28" fill="white" transform="translate(40 32)"/>
        </clipPath>
    </defs>
</svg>
