<svg width="326" height="192" viewBox="0 0 326 192" fill="none" xmlns="http://www.w3.org/2000/svg" preserveAspectRatio="none">
    <rect width="326" height="192" rx="24" fill="#FE9534"/>
    <mask id="mask0_1060_270" style="mask-type:alpha" maskUnits="userSpaceOnUse" x="0" y="0" width="325" height="192">
        <rect width="325" height="192" rx="24" fill="#FE7B01"/>
    </mask>
    <g mask="url(#mask0_1060_270)">
        <path d="M254.141 193.068C254.141 193.068 261.044 157.103 301.712 145.481C285.437 156.674 266.749 165.758 261.062 193.086L254.141 193.068Z" stroke="white" stroke-miterlimit="10"/>
        <path d="M303.265 157.121C300.964 155.013 304.257 144.865 306.52 150.014C308.784 155.162 303.265 157.121 303.265 157.121ZM303.265 157.121C263.644 166.895 261.062 193.086 261.062 193.086C261.062 193.086 265.795 173.63 280.667 173.63M280.667 173.63C295.539 173.63 290.414 193.869 284.072 190.418C280.667 188.254 282.744 184.71 283.211 182.154C283.679 179.599 284.614 173.63 280.667 173.63Z" stroke="white" stroke-miterlimit="10"/>
        <path d="M285.411 174.637L282 173.5L282.075 173.625C283.008 175.179 283.5 176.957 283.5 178.769C283.5 179.587 283.4 180.401 283.201 181.194L282.5 184L282.227 185.914C282.08 186.94 282.291 187.985 282.824 188.873L283.077 189.294C283.353 189.755 283.755 190.128 284.236 190.368C285.032 190.766 285.968 190.766 286.764 190.368C287.245 190.128 287.647 189.755 287.923 189.294L288.589 188.184C288.862 187.73 289.085 187.246 289.252 186.743L289.487 186.04C289.827 185.02 290 183.952 290 182.877V181.61C290 180.874 289.897 180.141 289.695 179.432L289.564 178.975C289.197 177.69 288.44 176.552 287.396 175.717C286.803 175.243 286.131 174.877 285.411 174.637Z" fill="white"/>
        <path d="M303.564 157.662C303.564 157.662 304.668 163.743 308.185 161.281C311.702 158.819 303.564 157.662 303.564 157.662Z" stroke="white" stroke-miterlimit="10"/>
        <path d="M297.877 159.416C297.877 159.416 298.775 164.322 301.618 162.326C304.462 160.33 297.877 159.416 297.877 159.416Z" stroke="white" stroke-miterlimit="10"/>
        <path d="M295.802 158.707C295.802 158.707 299.749 155.666 296.681 154.062C293.613 152.458 295.802 158.707 295.802 158.707Z" stroke="white" stroke-miterlimit="10"/>
        <path d="M283.287 177.492C283.287 177.492 270.361 177.025 269.5 193.403" stroke="white" stroke-miterlimit="10"/>
    </g>
    <g clip-path="url(#clip0_1060_270)">
        <path d="M56.02 38.3613H51.7943C50.2931 38.3613 49.0762 39.5654 49.0762 41.0508V51.1329C49.0762 52.6182 50.2931 53.8223 51.7943 53.8223H56.02C57.5212 53.8223 58.7382 52.6182 58.7382 51.1329V41.0508C58.7382 39.5654 57.5212 38.3613 56.02 38.3613Z" stroke="white" stroke-miterlimit="10"/>
        <path d="M75.8944 55.3668C75.1853 55.6603 74.4237 55.8095 73.6551 55.8055H72.9279C71.4132 55.8055 69.9606 55.2102 68.8896 54.1504C67.8185 53.0907 67.2168 51.6534 67.2168 50.1546V42.0249C67.2168 40.5262 67.8185 39.0889 68.8896 38.0291C69.9606 36.9694 71.4132 36.374 72.9279 36.374H73.6551C74.397 36.379 75.1307 36.5281 75.8146 36.8128" stroke="white" stroke-miterlimit="10"/>
        <path d="M32.2714 36.6987C32.8819 36.4831 33.5254 36.3733 34.1736 36.374H34.9008C35.6508 36.374 36.3935 36.5202 37.0864 36.8042C37.7793 37.0881 38.4089 37.5044 38.9392 38.0291C39.4695 38.5539 39.8902 39.1768 40.1773 39.8624C40.4643 40.548 40.612 41.2828 40.612 42.0249V50.1678C40.612 50.9099 40.4643 51.6447 40.1773 52.3303C39.8902 53.0159 39.4695 53.6389 38.9392 54.1636C38.4089 54.6883 37.7793 55.1046 37.0864 55.3886C36.3935 55.6726 35.6508 55.8187 34.9008 55.8187H34.1736C33.4906 55.8189 32.8131 55.6971 32.1738 55.459" stroke="white" stroke-miterlimit="10"/>
        <path d="M40.4863 40.9238H49.0753" stroke="white" stroke-miterlimit="10"/>
        <path d="M40.4863 51.1553H49.0753" stroke="white" stroke-miterlimit="10"/>
        <path d="M58.6172 40.9238H67.2017" stroke="white" stroke-miterlimit="10"/>
        <path d="M58.6172 51.1553H67.2017" stroke="white" stroke-miterlimit="10"/>
        <path d="M53.918 32.1357V38.4009" stroke="white" stroke-miterlimit="10"/>
        <path d="M53.918 53.7041V59.9253" stroke="white" stroke-miterlimit="10"/>
        <path d="M71.5225 32.2197H36.4794C34.1285 32.2197 32.2227 34.1054 32.2227 36.4316V55.5691C32.2227 57.8953 34.1285 59.781 36.4794 59.781H71.5225C73.8734 59.781 75.7792 57.8953 75.7792 55.5691V36.4316C75.7792 34.1054 73.8734 32.2197 71.5225 32.2197Z" stroke="white" stroke-miterlimit="10"/>
    </g>
    <path d="M292.27 34.8199C292.27 34.8199 297.57 35.7599 297.27 29.1299C298.04 32.7599 297.769 34.1299 302.859 34.3999C298.409 35.4899 297.27 35.5799 297.27 40.3999C296.72 37.1199 297.34 34.8199 292.27 34.8199Z" stroke="white" stroke-linecap="round" stroke-linejoin="round"/>
    <path d="M83 43.6025C83 43.6025 92.509 45.354 91.9708 33C93.3523 39.764 92.8678 42.3168 102 42.8199C94.016 44.8509 91.9708 45.0186 91.9708 54C90.984 47.8882 92.0963 43.6025 83 43.6025Z" stroke="white" stroke-linecap="round" stroke-linejoin="round"/>
    <path d="M100.573 34C100.573 34 101.824 27.4938 93 27.8621C97.8314 26.9169 99.6548 27.2484 100.014 21C101.465 26.4627 101.585 27.8621 108 27.8621C103.634 28.5373 100.573 27.7762 100.573 34Z" stroke="white" stroke-linecap="round" stroke-linejoin="round"/>
    <path d="M287.81 37.9L289.49 28.59L298.22 26.31L289.31 25.4L287.77 17L286.18 25.59L279 27.31L286.36 28.63L287.81 37.9Z" fill="white"/>
    <path d="M23.0411 59L21.9048 65.6818L16 67.3182L22.0265 67.9713L23.0682 74L24.1436 67.8349L29 66.6005L24.0219 65.6531L23.0411 59Z" fill="white"/>
    <path d="M253.832 166.973C237.871 137.596 214.094 137.315 214.094 137.315C214.094 137.315 216.957 128.38 211.747 128.17C206.536 127.959 214.094 137.315 214.094 137.315" stroke="white" stroke-miterlimit="10"/>
    <path d="M250.687 191.907C250.687 191.907 252.906 152.215 226.5 169.5" stroke="white" stroke-miterlimit="10"/>
    <path d="M260 178C260 178 254.019 156.237 235.922 162.879C217.825 169.522 223.833 187.181 231.368 178.27C234.994 173.681 238.748 169.919 243.5 166.5" stroke="white" stroke-miterlimit="10"/>
    <path d="M255.193 168.587C255.193 168.587 254.442 150.834 242.377 140.706C251.179 144.94 260.355 156.478 263.5 172.5" stroke="white" stroke-miterlimit="10"/>
    <path d="M220.431 138.648C220.431 138.648 221.135 146.25 216.206 145.946C211.277 145.642 216.934 138.765 220.431 138.648Z" stroke="white" stroke-miterlimit="10"/>
    <path d="M222.308 138.344C222.308 138.344 215.994 134.017 219.374 130.438C222.754 126.86 224.468 135.561 222.308 138.344Z" stroke="white" stroke-miterlimit="10"/>
    <path d="M234.139 143.935C234.139 143.935 229.656 137.736 234.139 135.514C238.622 133.292 237.097 142.063 234.139 143.935Z" stroke="white" stroke-miterlimit="10"/>
    <path d="M230.661 143.106C230.661 143.106 229.135 150.59 224.488 148.883C219.84 147.176 227.258 142.217 230.661 143.106Z" stroke="white" stroke-miterlimit="10"/>
    <path d="M214.012 137.216C214.012 137.216 211.665 144.514 207.299 142.362C202.933 140.21 210.702 136 214.012 137.216Z" stroke="white" stroke-miterlimit="10"/>
    <path d="M233 166L226.5 169L224.5 173L224 176L224.5 179L226 180.5H228L231 179L236 173L243 167L242.5 166L238.5 165L233 166Z" fill="white"/>
    <circle cx="135.5" cy="161.5" r="2.5" fill="white"/>
    <circle cx="34.5" cy="161.5" r="2.5" fill="white"/>
    <circle cx="65.5" cy="161.5" r="2.5" fill="white"/>
    <circle cx="152.5" cy="109.5" r="2.5" fill="white"/>
    <circle cx="93.5" cy="109.5" r="2.5" fill="white"/>
    <circle cx="34.5" cy="109.5" r="2.5" fill="white"/>
    <circle cx="145.5" cy="161.5" r="2.5" fill="white"/>
    <circle cx="44.5" cy="161.5" r="2.5" fill="white"/>
    <circle cx="75.5" cy="161.5" r="2.5" fill="white"/>
    <circle cx="162.5" cy="109.5" r="2.5" fill="white"/>
    <circle cx="103.5" cy="109.5" r="2.5" fill="white"/>
    <circle cx="44.5" cy="109.5" r="2.5" fill="white"/>
    <circle cx="155.5" cy="161.5" r="2.5" fill="white"/>
    <circle cx="172.5" cy="109.5" r="2.5" fill="white"/>
    <circle cx="113.5" cy="109.5" r="2.5" fill="white"/>
    <circle cx="54.5" cy="109.5" r="2.5" fill="white"/>
    <circle cx="182.5" cy="109.5" r="2.5" fill="white"/>
    <circle cx="123.5" cy="109.5" r="2.5" fill="white"/>
    <circle cx="64.5" cy="109.5" r="2.5" fill="white"/>
    <path d="M32.42 137.06L36.172 147H37.264L41.016 137.06H39.714L36.732 145.236H36.718L33.736 137.06H32.42ZM44.3695 147.084C45.4755 147.084 46.3155 146.58 46.8055 145.768H46.8195V147H47.9115V140.182H46.7775V141.386L46.7495 141.4C46.2595 140.574 45.3775 140.098 44.3695 140.098C42.4375 140.098 41.0515 141.624 41.0515 143.64C41.0515 145.712 42.4935 147.084 44.3695 147.084ZM44.5375 146.048C43.1375 146.048 42.1995 145.012 42.1995 143.64C42.1995 142.128 43.2495 141.134 44.5375 141.134C45.8815 141.134 46.8195 142.24 46.8195 143.64C46.8195 145.082 45.7975 146.048 44.5375 146.048ZM50.0328 136.696V147H51.1668V136.696H50.0328ZM54.0384 138.936C54.5004 138.936 54.8644 138.572 54.8644 138.124C54.8644 137.676 54.5004 137.312 54.0384 137.312C53.5764 137.312 53.2124 137.676 53.2124 138.124C53.2124 138.572 53.5764 138.936 54.0384 138.936ZM53.4644 140.182V147H54.5984V140.182H53.4644ZM59.71 147.084C60.816 147.084 61.684 146.566 62.174 145.74H62.188V147H63.28V136.696H62.146V141.4H62.132C61.614 140.574 60.732 140.098 59.696 140.098C57.778 140.098 56.364 141.624 56.364 143.64C56.364 145.712 57.82 147.084 59.71 147.084ZM59.864 146.048C58.478 146.048 57.526 145.012 57.526 143.64C57.526 142.128 58.576 141.134 59.878 141.134C61.25 141.134 62.188 142.24 62.188 143.64C62.188 145.082 61.152 146.048 59.864 146.048ZM71.1304 147.084C71.9424 147.084 72.4044 146.888 72.7824 146.664L72.4884 145.67C72.1524 145.852 71.7324 146.02 71.3264 146.02C70.6824 146.02 70.5004 145.628 70.5004 144.802V141.162H72.7544V140.182H70.5004V137.732L69.3664 137.858V140.182H68.4844V141.162H69.3664V144.97C69.3664 146.342 69.9264 147.084 71.1304 147.084ZM74.271 136.696V147H75.405V143.57C75.405 142.03 76.245 141.134 77.603 141.134C78.597 141.134 79.283 141.694 79.283 143.234V147H80.417V142.912C80.417 140.966 79.409 140.098 77.939 140.098C76.847 140.098 75.951 140.56 75.419 141.372H75.405V136.696H74.271ZM82.4058 140.182V147H83.5398V143.71C83.5398 142.338 84.3098 141.344 85.6118 141.344C85.7238 141.344 85.8918 141.358 86.0598 141.372V140.112C85.9618 140.098 85.8778 140.098 85.7798 140.098C84.8418 140.098 84.0578 140.602 83.5678 141.428H83.5398V140.182H82.4058ZM89.7493 147.084C90.6453 147.084 91.4853 146.636 92.0033 145.824H92.0173V147H93.1513V140.182H92.0173V143.486C92.0173 145.11 91.0793 146.048 89.9873 146.048C88.9093 146.048 88.3213 145.46 88.3213 143.92V140.182H87.1873V144.242C87.1873 146.188 88.1813 147.084 89.7493 147.084Z" fill="white"/>
    <path d="M136.754 147.07C138.504 147.07 139.764 146.272 140.632 145.194L139.722 144.424C139.022 145.306 138.042 145.922 136.754 145.922C134.654 145.922 133.072 144.438 133.072 142.058C133.072 139.776 134.486 138.124 136.74 138.124C137.86 138.124 138.882 138.6 139.708 139.622L140.618 138.866C139.568 137.578 138.168 136.962 136.74 136.962C133.562 136.962 131.798 139.244 131.798 142.058C131.798 145.306 134.066 147.07 136.754 147.07ZM141.551 137.06L145.303 147H146.395L150.147 137.06H148.845L145.863 145.236H145.849L142.867 137.06H141.551ZM150.93 137.06L154.682 147H155.774L159.526 137.06H158.224L155.242 145.236H155.228L152.246 137.06H150.93Z" fill="white"/>
     <line x1="58.4678" y1="155.177" x2="53.6315" y2="167.994" stroke="white"/>
    <defs>
        <clipPath id="clip0_1060_270">
            <rect width="44" height="28" fill="white" transform="translate(32 32)"/>
        </clipPath>
    </defs>
</svg>
