<svg width="342" height="192" viewBox="0 0 342 192" fill="none" xmlns="http://www.w3.org/2000/svg">
    <rect width="342" height="192" rx="24" fill="#FE7B01"/>
    <mask id="mask0_1060_206" style="mask-type:alpha" maskUnits="userSpaceOnUse" x="8" y="0" width="325" height="192">
        <rect x="8" width="325" height="192" rx="24" fill="white"/>
    </mask>
    <g mask="url(#mask0_1060_206)">
        <path d="M262.141 193.068C262.141 193.068 269.044 157.103 309.712 145.481C293.437 156.674 274.749 165.758 269.062 193.086L262.141 193.068Z" stroke="white" stroke-miterlimit="10"/>
        <path d="M311.265 157.121C308.964 155.013 312.257 144.865 314.52 150.014C316.784 155.162 311.265 157.121 311.265 157.121ZM311.265 157.121C271.644 166.895 269.062 193.086 269.062 193.086C269.062 193.086 273.795 173.63 288.667 173.63M288.667 173.63C303.539 173.63 298.414 193.869 292.072 190.418C288.667 188.254 290.744 184.71 291.211 182.154C291.679 179.599 292.614 173.63 288.667 173.63Z" stroke="white" stroke-miterlimit="10"/>
        <path d="M293.411 174.637L290 173.5L290.075 173.625C291.008 175.179 291.5 176.957 291.5 178.769C291.5 179.587 291.4 180.401 291.201 181.194L290.5 184L290.227 185.914C290.08 186.94 290.291 187.985 290.824 188.873L291.077 189.294C291.353 189.755 291.755 190.128 292.236 190.368C293.032 190.766 293.968 190.766 294.764 190.368C295.245 190.128 295.647 189.755 295.923 189.294L296.589 188.184C296.862 187.73 297.085 187.246 297.252 186.743L297.487 186.04C297.827 185.02 298 183.952 298 182.877V181.61C298 180.874 297.897 180.141 297.695 179.432L297.564 178.975C297.197 177.69 296.44 176.552 295.396 175.717C294.803 175.243 294.131 174.877 293.411 174.637Z" fill="white"/>
        <path d="M311.564 157.662C311.564 157.662 312.668 163.743 316.185 161.281C319.702 158.819 311.564 157.662 311.564 157.662Z" stroke="white" stroke-miterlimit="10"/>
        <path d="M305.877 159.416C305.877 159.416 306.775 164.322 309.618 162.326C312.462 160.33 305.877 159.416 305.877 159.416Z" stroke="white" stroke-miterlimit="10"/>
        <path d="M303.802 158.707C303.802 158.707 307.749 155.666 304.681 154.062C301.613 152.458 303.802 158.707 303.802 158.707Z" stroke="white" stroke-miterlimit="10"/>
        <path d="M291.287 177.492C291.287 177.492 278.361 177.025 277.5 193.403" stroke="white" stroke-miterlimit="10"/>
    </g>
    <g clip-path="url(#clip0_1060_206)">
        <path d="M64.02 38.3613H59.7943C58.2931 38.3613 57.0762 39.5654 57.0762 41.0508V51.1329C57.0762 52.6182 58.2931 53.8223 59.7943 53.8223H64.02C65.5212 53.8223 66.7382 52.6182 66.7382 51.1329V41.0508C66.7382 39.5654 65.5212 38.3613 64.02 38.3613Z" stroke="white" stroke-miterlimit="10"/>
        <path d="M83.8944 55.3668C83.1853 55.6603 82.4237 55.8095 81.6551 55.8055H80.9279C79.4132 55.8055 77.9606 55.2102 76.8896 54.1504C75.8185 53.0907 75.2168 51.6534 75.2168 50.1546V42.0249C75.2168 40.5262 75.8185 39.0889 76.8896 38.0291C77.9606 36.9694 79.4132 36.374 80.9279 36.374H81.6551C82.397 36.379 83.1307 36.5281 83.8146 36.8128" stroke="white" stroke-miterlimit="10"/>
        <path d="M40.2714 36.6987C40.8819 36.4831 41.5254 36.3733 42.1736 36.374H42.9008C43.6508 36.374 44.3935 36.5202 45.0864 36.8042C45.7793 37.0881 46.4089 37.5044 46.9392 38.0291C47.4695 38.5539 47.8902 39.1768 48.1773 39.8624C48.4643 40.548 48.612 41.2828 48.612 42.0249V50.1678C48.612 50.9099 48.4643 51.6447 48.1773 52.3303C47.8902 53.0159 47.4695 53.6389 46.9392 54.1636C46.4089 54.6883 45.7793 55.1046 45.0864 55.3886C44.3935 55.6726 43.6508 55.8187 42.9008 55.8187H42.1736C41.4906 55.8189 40.8131 55.6971 40.1738 55.459" stroke="white" stroke-miterlimit="10"/>
        <path d="M48.4863 40.9238H57.0753" stroke="white" stroke-miterlimit="10"/>
        <path d="M48.4863 51.1553H57.0753" stroke="white" stroke-miterlimit="10"/>
        <path d="M66.6172 40.9238H75.2017" stroke="white" stroke-miterlimit="10"/>
        <path d="M66.6172 51.1553H75.2017" stroke="white" stroke-miterlimit="10"/>
        <path d="M61.918 32.1357V38.4009" stroke="white" stroke-miterlimit="10"/>
        <path d="M61.918 53.7041V59.9253" stroke="white" stroke-miterlimit="10"/>
        <path d="M79.5225 32.2197H44.4794C42.1285 32.2197 40.2227 34.1054 40.2227 36.4316V55.5691C40.2227 57.8953 42.1285 59.781 44.4794 59.781H79.5225C81.8734 59.781 83.7792 57.8953 83.7792 55.5691V36.4316C83.7792 34.1054 81.8734 32.2197 79.5225 32.2197Z" stroke="white" stroke-miterlimit="10"/>
    </g>
    <path d="M300.27 34.8199C300.27 34.8199 305.57 35.7599 305.27 29.1299C306.04 32.7599 305.769 34.1299 310.859 34.3999C306.409 35.4899 305.27 35.5799 305.27 40.3999C304.72 37.1199 305.34 34.8199 300.27 34.8199Z" stroke="white" stroke-linecap="round" stroke-linejoin="round"/>
    <path d="M91 43.6025C91 43.6025 100.509 45.354 99.9708 33C101.352 39.764 100.868 42.3168 110 42.8199C102.016 44.8509 99.9708 45.0186 99.9708 54C98.984 47.8882 100.096 43.6025 91 43.6025Z" stroke="white" stroke-linecap="round" stroke-linejoin="round"/>
    <path d="M108.573 34C108.573 34 109.824 27.4938 101 27.8621C105.831 26.9169 107.655 27.2484 108.014 21C109.465 26.4627 109.585 27.8621 116 27.8621C111.634 28.5373 108.573 27.7762 108.573 34Z" stroke="white" stroke-linecap="round" stroke-linejoin="round"/>
    <path d="M295.81 37.9L297.49 28.59L306.22 26.31L297.31 25.4L295.77 17L294.18 25.59L287 27.31L294.36 28.63L295.81 37.9Z" fill="white"/>
    <path d="M31.0411 59L29.9048 65.6818L24 67.3182L30.0265 67.9713L31.0682 74L32.1436 67.8349L37 66.6005L32.0219 65.6531L31.0411 59Z" fill="white"/>
    <path d="M261.832 166.973C245.871 137.596 222.094 137.315 222.094 137.315C222.094 137.315 224.957 128.38 219.747 128.17C214.536 127.959 222.094 137.315 222.094 137.315" stroke="white" stroke-miterlimit="10"/>
    <path d="M258.687 191.907C258.687 191.907 260.906 152.215 234.5 169.5" stroke="white" stroke-miterlimit="10"/>
    <path d="M268 178C268 178 262.019 156.237 243.922 162.879C225.825 169.522 231.833 187.181 239.368 178.27C242.994 173.681 246.748 169.919 251.5 166.5" stroke="white" stroke-miterlimit="10"/>
    <path d="M263.193 168.587C263.193 168.587 262.442 150.834 250.377 140.706C259.179 144.94 268.355 156.478 271.5 172.5" stroke="white" stroke-miterlimit="10"/>
    <path d="M228.431 138.648C228.431 138.648 229.135 146.25 224.206 145.946C219.277 145.642 224.934 138.765 228.431 138.648Z" stroke="white" stroke-miterlimit="10"/>
    <path d="M230.308 138.344C230.308 138.344 223.994 134.017 227.374 130.438C230.754 126.86 232.468 135.561 230.308 138.344Z" stroke="white" stroke-miterlimit="10"/>
    <path d="M242.139 143.935C242.139 143.935 237.656 137.736 242.139 135.514C246.622 133.292 245.097 142.063 242.139 143.935Z" stroke="white" stroke-miterlimit="10"/>
    <path d="M238.661 143.106C238.661 143.106 237.135 150.59 232.488 148.883C227.84 147.176 235.258 142.217 238.661 143.106Z" stroke="white" stroke-miterlimit="10"/>
    <path d="M222.012 137.216C222.012 137.216 219.665 144.514 215.299 142.362C210.933 140.21 218.702 136 222.012 137.216Z" stroke="white" stroke-miterlimit="10"/>
    <path d="M241 166L234.5 169L232.5 173L232 176L232.5 179L234 180.5H236L239 179L244 173L251 167L250.5 166L246.5 165L241 166Z" fill="white"/>
    <circle cx="143.5" cy="161.5" r="2.5" fill="white"/>
    <circle cx="42.5" cy="161.5" r="2.5" fill="white"/>
    <circle cx="73.5" cy="161.5" r="2.5" fill="white"/>
    <circle cx="160.5" cy="109.5" r="2.5" fill="white"/>
    <circle cx="101.5" cy="109.5" r="2.5" fill="white"/>
    <circle cx="42.5" cy="109.5" r="2.5" fill="white"/>
    <circle cx="153.5" cy="161.5" r="2.5" fill="white"/>
    <circle cx="52.5" cy="161.5" r="2.5" fill="white"/>
    <circle cx="83.5" cy="161.5" r="2.5" fill="white"/>
    <circle cx="170.5" cy="109.5" r="2.5" fill="white"/>
    <circle cx="111.5" cy="109.5" r="2.5" fill="white"/>
    <circle cx="52.5" cy="109.5" r="2.5" fill="white"/>
    <circle cx="163.5" cy="161.5" r="2.5" fill="white"/>
    <circle cx="180.5" cy="109.5" r="2.5" fill="white"/>
    <circle cx="121.5" cy="109.5" r="2.5" fill="white"/>
    <circle cx="62.5" cy="109.5" r="2.5" fill="white"/>
    <circle cx="190.5" cy="109.5" r="2.5" fill="white"/>
    <circle cx="131.5" cy="109.5" r="2.5" fill="white"/>
    <circle cx="72.5" cy="109.5" r="2.5" fill="white"/>
    <path d="M40.42 137.06L44.172 147H45.264L49.016 137.06H47.714L44.732 145.236H44.718L41.736 137.06H40.42ZM52.3695 147.084C53.4755 147.084 54.3155 146.58 54.8055 145.768H54.8195V147H55.9115V140.182H54.7775V141.386L54.7495 141.4C54.2595 140.574 53.3775 140.098 52.3695 140.098C50.4375 140.098 49.0515 141.624 49.0515 143.64C49.0515 145.712 50.4935 147.084 52.3695 147.084ZM52.5375 146.048C51.1375 146.048 50.1995 145.012 50.1995 143.64C50.1995 142.128 51.2495 141.134 52.5375 141.134C53.8815 141.134 54.8195 142.24 54.8195 143.64C54.8195 145.082 53.7975 146.048 52.5375 146.048ZM58.0328 136.696V147H59.1668V136.696H58.0328ZM62.0384 138.936C62.5004 138.936 62.8644 138.572 62.8644 138.124C62.8644 137.676 62.5004 137.312 62.0384 137.312C61.5764 137.312 61.2124 137.676 61.2124 138.124C61.2124 138.572 61.5764 138.936 62.0384 138.936ZM61.4644 140.182V147H62.5984V140.182H61.4644ZM67.71 147.084C68.816 147.084 69.684 146.566 70.174 145.74H70.188V147H71.28V136.696H70.146V141.4H70.132C69.614 140.574 68.732 140.098 67.696 140.098C65.778 140.098 64.364 141.624 64.364 143.64C64.364 145.712 65.82 147.084 67.71 147.084ZM67.864 146.048C66.478 146.048 65.526 145.012 65.526 143.64C65.526 142.128 66.576 141.134 67.878 141.134C69.25 141.134 70.188 142.24 70.188 143.64C70.188 145.082 69.152 146.048 67.864 146.048ZM79.1304 147.084C79.9424 147.084 80.4044 146.888 80.7824 146.664L80.4884 145.67C80.1524 145.852 79.7324 146.02 79.3264 146.02C78.6824 146.02 78.5004 145.628 78.5004 144.802V141.162H80.7544V140.182H78.5004V137.732L77.3664 137.858V140.182H76.4844V141.162H77.3664V144.97C77.3664 146.342 77.9264 147.084 79.1304 147.084ZM82.271 136.696V147H83.405V143.57C83.405 142.03 84.245 141.134 85.603 141.134C86.597 141.134 87.283 141.694 87.283 143.234V147H88.417V142.912C88.417 140.966 87.409 140.098 85.939 140.098C84.847 140.098 83.951 140.56 83.419 141.372H83.405V136.696H82.271ZM90.4058 140.182V147H91.5398V143.71C91.5398 142.338 92.3098 141.344 93.6118 141.344C93.7238 141.344 93.8918 141.358 94.0598 141.372V140.112C93.9618 140.098 93.8778 140.098 93.7798 140.098C92.8418 140.098 92.0578 140.602 91.5678 141.428H91.5398V140.182H90.4058ZM97.7493 147.084C98.6453 147.084 99.4853 146.636 100.003 145.824H100.017V147H101.151V140.182H100.017V143.486C100.017 145.11 99.0793 146.048 97.9873 146.048C96.9093 146.048 96.3213 145.46 96.3213 143.92V140.182H95.1873V144.242C95.1873 146.188 96.1813 147.084 97.7493 147.084Z" fill="white"/>
    <path d="M144.754 147.07C146.504 147.07 147.764 146.272 148.632 145.194L147.722 144.424C147.022 145.306 146.042 145.922 144.754 145.922C142.654 145.922 141.072 144.438 141.072 142.058C141.072 139.776 142.486 138.124 144.74 138.124C145.86 138.124 146.882 138.6 147.708 139.622L148.618 138.866C147.568 137.578 146.168 136.962 144.74 136.962C141.562 136.962 139.798 139.244 139.798 142.058C139.798 145.306 142.066 147.07 144.754 147.07ZM149.551 137.06L153.303 147H154.395L158.147 137.06H156.845L153.863 145.236H153.849L150.867 137.06H149.551ZM158.93 137.06L162.682 147H163.774L167.526 137.06H166.224L163.242 145.236H163.228L160.246 137.06H158.93Z" fill="white"/>
     <line x1="66.4678" y1="155.177" x2="61.6315" y2="167.994" stroke="white"/>
    <defs>
        <clipPath id="clip0_1060_206">
            <rect width="44" height="28" fill="white" transform="translate(40 32)"/>
        </clipPath>
    </defs>
</svg>
